<svg xmlns="http://www.w3.org/2000/svg" width="156" height="32" viewBox="0 0 156 32" fill="none">
<g clip-path="url(#clip0_735_42589)">
<path d="M40.4532 19.24C40.7732 18.52 40.9732 18.08 41.1332 17.6L42.0532 17.52L43.9732 21.84C44.2132 22.36 44.5332 23.04 44.7732 23.56L43.3332 23.64L42.7732 22.28H40.5332C40.4132 22.6 40.1332 23.32 40.0132 23.6H38.5332L40.4532 19.24ZM40.8132 21.36H42.3732L41.5732 19.4L40.8132 21.36Z" fill="#00256C"/>
<path d="M46.9328 23.72C46.2928 23.72 45.5328 23.52 45.0928 23.24L45.1328 22C45.4928 22.32 46.2528 22.64 46.9728 22.64C47.4528 22.64 47.7728 22.4 47.7728 21.96C47.7728 21.04 45.2928 20.92 45.2928 19.32C45.2928 18.2 46.1328 17.52 47.2928 17.52C47.8928 17.52 48.5328 17.72 48.8928 17.96L48.6128 19C48.2528 18.8 47.7728 18.6 47.3328 18.6C46.8928 18.6 46.6128 18.84 46.6128 19.24C46.6128 20.12 49.0928 20.2 49.0928 21.88C49.0528 23 48.2128 23.72 46.9328 23.72Z" fill="#00256C"/>
<path d="M50.0527 23.56C50.0927 23.16 50.0927 22.08 50.0927 21.52V19.68C50.0927 19.16 50.0927 18.04 50.0527 17.64C50.3727 17.64 51.2127 17.64 51.4927 17.6C51.4527 17.84 51.4527 18.52 51.4527 18.84V22.32C51.4527 22.64 51.4527 23.28 51.4927 23.52H50.0527V23.56Z" fill="#00256C"/>
<path d="M54.133 19.24C54.453 18.52 54.653 18.08 54.813 17.6L55.733 17.52L57.653 21.84C57.893 22.36 58.213 23.04 58.453 23.56L57.013 23.64L56.453 22.28H54.213C54.093 22.6 53.813 23.32 53.693 23.6H52.293L54.133 19.24ZM54.533 21.36H56.093L55.293 19.4L54.533 21.36Z" fill="#00256C"/>
<path d="M59.1727 21.52V19.56C59.1727 19.04 59.1727 18 59.1327 17.6L59.9727 17.52L63.1327 21.32V19.64C63.1327 19.12 63.1327 18 63.0527 17.6C63.3727 17.6 64.1727 17.6 64.4527 17.56C64.4127 17.8 64.4127 18.48 64.4127 18.8L64.3727 22.32C64.3727 22.64 64.3727 23.32 64.3727 23.56L63.5727 23.64L60.4127 19.84V22.28C60.4127 22.6 60.4127 23.24 60.4527 23.48H59.0527C59.1327 23.16 59.1727 22.08 59.1727 21.52Z" fill="#00256C"/>
<path d="M69.6132 23.56H67.5732C67.6132 23.16 67.6132 22.08 67.6132 21.52V19.68C67.6132 19.16 67.6132 18.08 67.5732 17.68C67.8932 17.68 68.5332 17.64 69.4132 17.64C71.5732 17.64 72.7732 18.8 72.7732 20.48C72.7732 22.32 71.4932 23.56 69.6132 23.56ZM69.5332 18.64C69.3332 18.64 69.1732 18.64 68.9732 18.68C68.9732 18.8 68.9732 19 68.9732 19.12V22.08C68.9732 22.2 68.9732 22.36 68.9732 22.48C69.1732 22.52 69.2932 22.52 69.5332 22.52C70.8932 22.52 71.4132 21.64 71.4132 20.56C71.4132 19.36 70.7332 18.64 69.5332 18.64Z" fill="#00256C"/>
<path d="M77.6134 23.6C77.0934 23.56 76.4134 23.56 75.7734 23.56C75.0934 23.56 74.3734 23.56 73.7734 23.6C73.8134 23.2 73.8134 22.08 73.8134 21.56V19.72C73.8134 19.2 73.8134 18.04 73.7734 17.64C74.3334 17.68 74.9734 17.68 75.6534 17.68C76.2934 17.68 76.9334 17.68 77.4534 17.64C77.4134 18 77.3734 18.32 77.3734 18.76C76.9334 18.76 76.4534 18.76 75.8934 18.76C75.6534 18.76 75.3734 18.76 75.1334 18.76C75.1334 18.88 75.1334 19.08 75.1334 19.2V20H77.0534C77.0534 20.28 77.0134 20.64 77.0134 21H75.1334V22.08C75.1334 22.2 75.1334 22.4 75.1334 22.52C75.3734 22.52 75.6534 22.52 75.8934 22.52C76.5334 22.52 77.0534 22.52 77.5734 22.48C77.6134 22.84 77.6134 23.16 77.6134 23.6Z" fill="#00256C"/>
<path d="M79.4136 17.6L80.9336 21.68L81.8936 19.04C82.0536 18.56 82.2536 18.08 82.3736 17.64H83.8136L82.0136 21.96C81.6936 22.68 81.5336 23.12 81.3736 23.6L80.4936 23.68L78.6936 19.4C78.4936 18.88 78.1736 18.2 77.9736 17.68L79.4136 17.6Z" fill="#00256C"/>
<path d="M88.3332 23.6C87.8132 23.56 87.1332 23.56 86.4932 23.56C85.8132 23.56 85.0932 23.56 84.4932 23.6C84.5332 23.2 84.5332 22.08 84.5332 21.56V19.72C84.5332 19.2 84.5332 18.04 84.4932 17.64C85.0532 17.68 85.6932 17.68 86.3732 17.68C87.0132 17.68 87.6532 17.68 88.1732 17.64C88.1332 18 88.0932 18.32 88.0932 18.76C87.6532 18.76 87.1732 18.76 86.6132 18.76C86.3732 18.76 86.0932 18.76 85.8532 18.76C85.8532 18.88 85.8532 19.08 85.8532 19.2V20H87.7732C87.7732 20.28 87.7332 20.64 87.7332 21H85.8532V22.08C85.8532 22.2 85.8532 22.4 85.8532 22.52C86.0932 22.52 86.3732 22.52 86.6132 22.52C87.2532 22.52 87.7732 22.52 88.2932 22.48C88.3732 22.84 88.3332 23.16 88.3332 23.6Z" fill="#00256C"/>
<path d="M93.093 23.6C92.533 23.56 91.893 23.56 91.253 23.56C90.573 23.56 89.893 23.56 89.333 23.6C89.373 23.2 89.373 22.08 89.373 21.52V19.68C89.373 19.16 89.373 18.04 89.333 17.64C89.653 17.64 90.493 17.64 90.773 17.6C90.733 17.84 90.733 18.52 90.733 18.84V22C90.733 22.12 90.733 22.32 90.733 22.48C90.933 22.48 91.173 22.48 91.413 22.48C92.053 22.48 92.613 22.48 93.133 22.44C93.133 22.8 93.093 23.16 93.093 23.6Z" fill="#00256C"/>
<path d="M93.5332 20.76C93.5332 18.92 94.7732 17.52 96.6132 17.52C98.3732 17.52 99.5332 18.84 99.5332 20.48C99.5332 22.32 98.2932 23.72 96.4532 23.72C94.6932 23.72 93.5332 22.36 93.5332 20.76ZM98.1732 20.64C98.1732 19.36 97.4532 18.6 96.4932 18.6C95.4932 18.6 94.8132 19.52 94.8132 20.6C94.8132 21.88 95.5332 22.64 96.4932 22.64C97.5332 22.64 98.1732 21.72 98.1732 20.64Z" fill="#00256C"/>
<path d="M101.933 22.36C101.933 22.68 101.933 23.32 101.973 23.56H100.533C100.573 23.16 100.573 22.08 100.573 21.52V19.68C100.573 19.16 100.573 18.04 100.533 17.64C100.853 17.64 101.893 17.6 102.413 17.6C104.053 17.6 104.893 18.4 104.893 19.48C104.893 20.68 104.093 21.64 102.293 21.64C102.173 21.64 102.093 21.64 101.973 21.64V22.36H101.933ZM102.413 18.68C102.253 18.68 102.133 18.68 101.933 18.68V20.64C102.053 20.64 102.173 20.64 102.293 20.64C103.093 20.64 103.533 20.28 103.533 19.64C103.533 19 103.173 18.68 102.413 18.68Z" fill="#00256C"/>
<path d="M105.653 21.52L105.893 19.64C105.973 19.12 106.093 18.04 106.133 17.6L106.973 17.56C107.133 17.92 107.333 18.4 107.533 18.76L108.853 21.6L110.133 18.72C110.293 18.36 110.533 17.84 110.653 17.52H111.493C111.533 18 111.693 19.08 111.773 19.64L112.053 21.52C112.133 22.08 112.293 23.12 112.413 23.56L111.053 23.64C111.053 23.4 110.973 22.68 110.893 22.36L110.613 20.2C110.213 21.16 109.253 23.36 109.133 23.64L108.533 23.68L107.053 20.24L106.773 22.36C106.733 22.68 106.653 23.32 106.653 23.56H105.333C105.413 23.12 105.573 22.08 105.653 21.52Z" fill="#00256C"/>
<path d="M117.173 23.6C116.653 23.56 115.973 23.56 115.333 23.56C114.653 23.56 113.933 23.56 113.333 23.6C113.373 23.2 113.373 22.08 113.373 21.56V19.72C113.373 19.2 113.373 18.04 113.333 17.64C113.893 17.68 114.533 17.68 115.213 17.68C115.853 17.68 116.493 17.68 117.013 17.64C116.973 18 116.933 18.32 116.933 18.76C116.493 18.76 116.013 18.76 115.453 18.76C115.213 18.76 114.933 18.76 114.693 18.76C114.693 18.88 114.693 19.08 114.693 19.2V20H116.613C116.613 20.28 116.573 20.64 116.573 21H114.693V22.08C114.693 22.2 114.693 22.4 114.693 22.52C114.933 22.52 115.213 22.52 115.453 22.52C116.093 22.52 116.613 22.52 117.133 22.48C117.173 22.84 117.173 23.16 117.173 23.6Z" fill="#00256C"/>
<path d="M118.173 21.52V19.56C118.173 19.04 118.173 18 118.133 17.6L118.973 17.52L122.133 21.32V19.64C122.133 19.12 122.133 18 122.053 17.6C122.373 17.6 123.173 17.6 123.453 17.56C123.413 17.8 123.413 18.48 123.413 18.8L123.373 22.32C123.373 22.64 123.373 23.32 123.373 23.56L122.573 23.64L119.413 19.84V22.28C119.413 22.6 119.413 23.24 119.453 23.48H118.053C118.133 23.16 118.173 22.08 118.173 21.52Z" fill="#00256C"/>
<path d="M129.413 18.7601C128.813 18.7601 128.293 18.7601 127.573 18.7601C127.573 18.9601 127.573 19.1601 127.573 19.2801V22.3601C127.573 22.6801 127.573 23.3201 127.613 23.5601H126.173C126.213 23.1601 126.213 22.0801 126.213 21.5201V20.0401C126.213 19.7201 126.213 19.1601 126.213 18.7201C125.533 18.7201 124.933 18.7201 124.333 18.7201C124.373 18.4001 124.373 17.9601 124.373 17.5601C125.173 17.6001 125.933 17.6001 126.893 17.6001C127.853 17.6001 128.653 17.6001 129.453 17.5601C129.453 17.9601 129.413 18.3201 129.413 18.7601Z" fill="#00256C"/>
<path d="M132.133 23.56C132.173 23.16 132.173 22.08 132.173 21.52V19.68C132.173 19.16 132.173 18.08 132.133 17.68C132.413 17.68 133.373 17.64 134.133 17.64C135.733 17.64 136.293 18.44 136.293 19.16C136.293 19.8 135.893 20.24 135.333 20.44C136.133 20.64 136.533 21.2 136.533 21.84C136.533 22.8 135.773 23.56 134.253 23.56H132.133ZM134.013 20.08C134.653 20.08 135.013 19.8 135.013 19.36C135.013 18.88 134.653 18.64 134.013 18.64C133.773 18.64 133.613 18.64 133.453 18.68V20.12C133.573 20.04 133.893 20.08 134.013 20.08ZM134.173 22.56C134.853 22.56 135.253 22.32 135.253 21.76C135.253 21.28 134.893 20.96 134.013 20.96C133.813 20.96 133.613 20.96 133.453 21V22.56C133.693 22.52 133.933 22.56 134.173 22.56Z" fill="#00256C"/>
<path d="M138.814 19.24C139.134 18.52 139.334 18.08 139.494 17.6L140.414 17.52L142.334 21.84C142.574 22.36 142.894 23.04 143.134 23.56L141.694 23.64L141.134 22.28H138.894C138.774 22.6 138.494 23.32 138.374 23.6H136.934L138.814 19.24ZM139.174 21.36H140.734L139.934 19.4L139.174 21.36Z" fill="#00256C"/>
<path d="M143.853 21.52V19.56C143.853 19.04 143.853 18 143.813 17.6L144.653 17.52L147.813 21.32V19.64C147.813 19.12 147.813 18 147.733 17.6C148.053 17.6 148.853 17.6 149.133 17.56C149.093 17.8 149.093 18.48 149.093 18.8L149.053 22.32C149.053 22.64 149.053 23.32 149.053 23.56L148.253 23.64L145.093 19.84V22.28C145.093 22.6 145.093 23.24 145.133 23.48H143.733C143.813 23.16 143.853 22.08 143.853 21.52Z" fill="#00256C"/>
<path d="M151.893 20.8401V22.3201C151.893 22.6401 151.893 23.2801 151.933 23.5201H150.493C150.533 23.1201 150.533 22.0401 150.533 21.4801V19.6401C150.533 19.1201 150.533 18.0001 150.493 17.6001C150.813 17.6001 151.653 17.6001 151.933 17.5601C151.893 17.8001 151.893 18.4801 151.893 18.8001V20.2001L152.773 19.1201C153.133 18.7201 153.613 18.0801 154.013 17.6001H155.613L153.133 20.4401L154.493 22.0801C154.813 22.4401 155.413 23.1201 155.733 23.5201L154.173 23.6401L151.893 20.8401Z" fill="#00256C"/>
<path fill-rule="evenodd" clip-rule="evenodd" d="M0.132812 0H32.1328V32H0.132812V0Z" fill="#002569"/>
<path d="M21.2926 15.8C20.6926 14.92 19.8526 14.24 18.7326 13.88C18.4526 13.8 18.1326 13.72 17.8526 13.68C17.5726 13.64 17.2526 13.6 16.9326 13.6C16.7726 13.6 16.5726 13.6 16.3726 13.6C16.1726 13.6 16.0126 13.6 15.8126 13.6C15.6526 13.6 15.4926 13.6 15.2926 13.6C15.1326 13.6 14.9326 13.6 14.7726 13.6C14.6126 13.6 14.4126 13.6 14.2526 13.6C14.0926 13.6 13.8926 13.6 13.7326 13.6C13.5726 13.6 13.4126 13.6 13.2126 13.6C13.0526 13.6 12.8526 13.6 12.6926 13.6C12.5326 13.6 12.3326 13.6 12.1726 13.6C12.0126 13.6 11.8126 13.6 11.6526 13.6V14.08C11.6526 14.08 11.6526 14.08 11.6926 14.08C11.6926 14.08 11.6926 14.08 11.7326 14.08C12.2126 14.12 12.6126 14.16 12.8526 14.28C13.1326 14.4 13.2526 14.76 13.2526 15.32V22.28C13.2526 22.84 13.1326 23.2 12.8526 23.32C12.6526 23.4 12.3726 23.48 12.0526 23.52C11.8126 23.48 11.5726 23.4 11.4126 23.28C11.2126 23.12 11.0126 22.84 10.8526 22.52L6.93262 13.4H6.37262L2.61262 22.48C2.45262 22.88 2.25262 23.16 1.97262 23.32C1.73262 23.44 1.37262 23.52 0.932617 23.52V24H4.53262V23.52H4.21262C4.17262 23.52 4.13262 23.52 4.09262 23.52C4.05262 23.52 4.01262 23.52 3.97262 23.52C3.81262 23.52 3.61262 23.48 3.49262 23.36C3.33262 23.28 3.25262 23.12 3.25262 22.92C3.25262 22.84 3.25262 22.76 3.29262 22.72C3.33262 22.64 3.33262 22.6 3.37262 22.52L4.17262 20.48H8.33262L9.17262 22.52C9.21262 22.6 9.25262 22.68 9.29262 22.8C9.33262 22.88 9.33262 23 9.33262 23.08C9.33262 23.24 9.25262 23.36 9.17262 23.4C9.05262 23.48 8.93262 23.52 8.77262 23.52C8.69262 23.52 8.65262 23.52 8.57262 23.52C8.53262 23.52 8.45262 23.52 8.41262 23.52H8.05262V24H11.7326H12.3726H17.0526C18.6126 24 19.8526 23.52 20.8126 22.6C21.7726 21.64 22.2526 20.4 22.2526 18.88C22.2126 17.72 21.8926 16.72 21.2926 15.8ZM4.37262 19.8L6.05262 15.6C6.05262 15.56 6.09262 15.52 6.09262 15.52C6.09262 15.48 6.13262 15.44 6.13262 15.44C6.13262 15.4 6.17262 15.36 6.17262 15.32C6.17262 15.28 6.21262 15.24 6.21262 15.2C6.25262 15.36 6.29262 15.52 6.37262 15.72C6.45262 15.88 6.49262 16.04 6.57262 16.24C6.57262 16.28 6.61262 16.32 6.61262 16.36C6.65262 16.4 6.65262 16.44 6.65262 16.48L8.01262 19.8H4.37262ZM19.5326 22.08C19.0126 23 18.0526 23.48 16.6526 23.48C15.9326 23.48 15.4126 23.4 15.1726 23.2C14.9326 23 14.8126 22.52 14.8126 21.76V14.12C14.8926 14.12 15.0126 14.12 15.0926 14.08C15.1726 14.08 15.2926 14.08 15.3726 14.08C15.4526 14.08 15.5326 14.08 15.6526 14.08C15.7326 14.08 15.8526 14.08 15.9326 14.08C17.4526 14.08 18.5726 14.52 19.2926 15.36C20.0126 16.2 20.3326 17.36 20.3326 18.88C20.3726 20.04 20.0926 21.12 19.5326 22.08Z" fill="white"/>
<path d="M27.2929 18.36C28.1329 18.4 28.8929 18.64 29.6129 19.08C30.2929 19.52 30.6529 20.24 30.6529 21.16C30.6529 22.04 30.3329 22.76 29.7329 23.24C29.1329 23.76 28.4129 24 27.5729 24H22.2129V23.52C22.2129 23.52 22.2129 23.52 22.2529 23.52C22.2529 23.52 22.2529 23.52 22.2929 23.52C22.8129 23.48 23.1729 23.44 23.4129 23.32C23.6529 23.2 23.8129 22.84 23.8129 22.28V15.32C23.8129 14.76 23.6929 14.4 23.4129 14.28C23.1329 14.16 22.7729 14.08 22.2929 14.08C22.2929 14.08 22.2929 14.08 22.2529 14.08C22.2529 14.08 22.2529 14.08 22.2129 14.08V13.6H27.2529C27.9729 13.6 28.6129 13.8 29.1729 14.16C29.7329 14.52 30.0529 15.12 30.0529 15.88C30.0529 16.72 29.7729 17.32 29.2129 17.68C28.6529 18 28.0129 18.24 27.2929 18.36ZM25.3729 18.68V22.28C25.3729 22.8 25.5329 23.12 25.8129 23.24C26.0929 23.4 26.4529 23.44 26.8929 23.44C27.6529 23.44 28.1729 23.2 28.4529 22.68C28.7329 22.2 28.8929 21.6 28.8929 20.92C28.8929 19.76 28.5329 19.12 27.8129 18.92C27.0529 18.76 26.2529 18.68 25.3729 18.68ZM25.3729 18.16C26.1729 18.16 26.8929 18.08 27.4929 17.88C28.0929 17.68 28.3729 17.12 28.3729 16.12C28.3729 15.48 28.2529 15 28.0129 14.64C27.7729 14.28 27.2929 14.08 26.6129 14.08H25.3729V18.16Z" fill="white"/>
</g>
<defs>
<clipPath id="clip0_735_42589">
<rect width="155.6" height="32" fill="white" transform="translate(0.132812)"/>
</clipPath>
</defs>
</svg>