<svg width="171" height="32" viewBox="0 0 171 32" fill="none" xmlns="http://www.w3.org/2000/svg">
<path d="M27.721 30.3176L33.9049 13.8452L29.089 1.03894L21.3179 22.0537H17.5416C13.2729 22.0537 10.9196 21.014 10.9196 15.7053C10.9196 10.3969 13.2729 9.30214 17.5416 9.30214H21.5368L24.6014 1.09331H16.7756C7.52639 1.03859 1.83496 5.74509 1.83496 15.7049C1.83496 25.6107 7.52674 30.3169 16.8303 30.3169H18.308L27.721 30.3176Z" fill="#005186"/>
<path d="M52.5679 30.3176V20.7951H62.8021V13.1882H52.5679V9.30284H64.7176L67.7821 1.03894H44.0852V15.5415L38.7221 1.03894H29.0898L40.09 30.3176H52.5679Z" fill="#509F26"/>
<path d="M70.9012 19.8106H68.3838V13.3524H70.7918C71.9408 13.3524 72.7072 14.009 72.7072 15.0487C72.7072 15.7053 72.3242 16.2532 71.7767 16.471C72.3786 16.6903 72.8163 17.2371 72.8163 18.0038C72.8167 19.2083 72.0506 19.8106 70.9012 19.8106ZM70.7918 14.0094H69.0951V16.2532H70.7918C71.5031 16.2532 72.0506 15.9249 72.0506 15.1041C72.0506 14.3374 71.5031 14.0094 70.7918 14.0094ZM70.8468 16.8548H69.0955V19.2083H70.8468C71.6676 19.2083 72.1601 18.7703 72.1601 18.0038C72.1601 17.2925 71.6676 16.8548 70.8468 16.8548Z" fill="#747376"/>
<path d="M78.2353 19.8105L77.7429 18.3324H74.8972L74.4047 19.8105H73.6934L76.0466 13.353H76.6485L79.0018 19.8105H78.2353ZM76.3199 14.3373L75.1157 17.7309H77.5237L76.3199 14.3373Z" fill="#747376"/>
<path d="M84.1456 19.8106L80.6977 14.6113V19.8106H79.9863V13.3524H80.643L84.0909 18.4967V13.3524H84.8026V19.8099L84.1456 19.8106Z" fill="#747376"/>
<path d="M88.6878 19.8649C88.0312 19.8649 87.4836 19.6457 87.0462 19.2083C86.4443 18.6064 86.4443 17.9491 86.4443 16.5814C86.4443 15.2135 86.4443 14.5562 87.0462 13.9546C87.484 13.5165 88.0859 13.298 88.6878 13.298C89.8369 13.298 90.7131 14.01 90.9316 15.2135H90.2199C90.0554 14.4474 89.5086 13.8999 88.6874 13.8999C88.2494 13.8999 87.8667 14.064 87.5931 14.3376C87.21 14.7761 87.155 15.2135 87.155 16.5267C87.155 17.8947 87.2097 18.3328 87.5931 18.7155C87.8667 18.9887 88.3051 19.1536 88.6874 19.1536C89.5086 19.1536 90.0554 18.6611 90.2199 17.84H90.9316C90.7131 19.1532 89.8369 19.8649 88.6878 19.8649Z" fill="#747376"/>
<path d="M96.0761 19.2083C95.6377 19.646 95.0905 19.8649 94.4342 19.8649C93.778 19.8649 93.2297 19.6457 92.7923 19.2083C92.1904 18.6064 92.1904 17.949 92.1904 16.5814C92.1904 15.2135 92.1904 14.5561 92.7923 13.9542C93.2308 13.5165 93.778 13.2976 94.4342 13.2976C95.0905 13.2976 95.6387 13.5168 96.0761 13.9542C96.6781 14.5561 96.6781 15.2135 96.6781 16.5814C96.6781 17.9497 96.6781 18.606 96.0761 19.2083ZM95.5833 14.392C95.3097 14.1184 94.872 13.9539 94.489 13.9539C94.0509 13.9539 93.6682 14.1184 93.3942 14.392C93.0116 14.8301 92.9565 15.2671 92.9565 16.5811C92.9565 17.949 93.0112 18.3868 93.3942 18.7702C93.6682 19.0434 94.1059 19.2083 94.489 19.2083C94.9271 19.2083 95.3097 19.0434 95.5833 18.7702C95.9664 18.3317 96.0214 17.8947 96.0214 16.5811C96.0214 15.2675 95.9667 14.8301 95.5833 14.392Z" fill="#747376"/>
<path d="M104.449 19.2083C104.067 19.5907 103.464 19.8099 102.807 19.8099H100.618V13.3521H102.807C103.464 13.3521 104.067 13.5709 104.449 13.9536C105.106 14.6102 105.106 15.5955 105.106 16.5261C105.051 17.4023 105.105 18.5514 104.449 19.2083ZM103.956 14.4471C103.628 14.1188 103.19 13.9543 102.698 13.9543H101.275V19.1536H102.698C103.19 19.1536 103.628 19.0445 103.956 18.6611C104.394 18.2227 104.394 17.2381 104.394 16.4721C104.394 15.7607 104.394 14.9392 103.956 14.4471Z" fill="#747376"/>
<path d="M106.692 19.8106V13.3524H110.687V13.954H107.348V16.2528H110.194V16.8544H107.348V19.208H110.687V19.8096L106.692 19.8106Z" fill="#747376"/>
<path d="M118.24 19.2083C117.857 19.5907 117.255 19.8099 116.598 19.8099H114.409V13.3521H116.598C117.255 13.3521 117.857 13.5709 118.24 13.9536C118.897 14.6102 118.897 15.5955 118.897 16.5261C118.897 17.4023 118.897 18.5514 118.24 19.2083ZM117.747 14.4471C117.419 14.1188 116.981 13.9543 116.488 13.9543H115.066V19.1536H116.488C116.981 19.1536 117.419 19.0445 117.747 18.6611C118.185 18.2227 118.185 17.2381 118.185 16.4721C118.185 15.7607 118.185 14.9392 117.747 14.4471Z" fill="#747376"/>
<path d="M120.484 19.8106V13.3524H124.48V13.954H121.141V16.2528H123.987V16.8544H121.141V19.208H124.48V19.8096L120.484 19.8106Z" fill="#747376"/>
<path d="M127.598 19.8649C126.613 19.8649 126.011 19.6457 125.41 18.9894L125.903 18.497C126.45 19.0442 126.943 19.209 127.654 19.209C128.585 19.209 129.186 18.7709 129.186 18.0045C129.186 17.6762 129.078 17.4026 128.859 17.1834C128.64 17.0189 128.476 16.9645 128.038 16.8558L127.272 16.7463C126.779 16.6372 126.341 16.5274 126.067 16.2538C125.739 15.9799 125.574 15.5418 125.574 15.0493C125.574 13.955 126.341 13.2433 127.654 13.2433C128.475 13.2433 129.022 13.4622 129.569 13.955L129.131 14.3927C128.749 14.01 128.311 13.8455 127.598 13.8455C126.723 13.8455 126.231 14.338 126.231 15.05C126.231 15.3784 126.34 15.5972 126.505 15.8161C126.723 15.9806 127.051 16.0897 127.379 16.1444L128.092 16.2535C128.693 16.3626 129.022 16.4724 129.296 16.6916C129.624 16.9652 129.843 17.458 129.843 17.9505C129.842 19.2083 128.967 19.8649 127.598 19.8649Z" fill="#747376"/>
<path d="M135.042 19.8105L134.549 18.3324H131.703L131.21 19.8105H130.444L132.798 13.353H133.399L135.752 19.8105H135.042ZM133.126 14.3373L131.922 17.7309H134.33L133.126 14.3373Z" fill="#747376"/>
<path d="M140.515 19.8106L139.037 16.9645H137.504V19.8106H136.793V13.3524H139.255C140.404 13.3524 141.17 14.009 141.17 15.1585C141.17 16.0894 140.623 16.7457 139.747 16.9102L141.281 19.865H140.513L140.515 19.8106ZM139.256 14.0094H137.56V16.3626H139.256C140.022 16.3626 140.569 15.9799 140.569 15.1581C140.569 14.3374 140.022 14.0094 139.256 14.0094Z" fill="#747376"/>
<path d="M146.479 19.8106L145.001 16.9645H143.468V19.8106H142.757V13.3524H145.22C146.368 13.3524 147.134 14.009 147.134 15.1585C147.134 16.0894 146.587 16.7457 145.712 16.9102L147.244 19.865H146.478L146.479 19.8106ZM145.221 14.0094H143.524V16.3626H145.221C145.987 16.3626 146.534 15.9799 146.534 15.1581C146.534 14.3374 145.932 14.0094 145.221 14.0094Z" fill="#747376"/>
<path d="M152.391 19.2083C151.952 19.646 151.405 19.8649 150.749 19.8649C150.093 19.8649 149.544 19.6457 149.108 19.2083C148.506 18.6064 148.506 17.949 148.506 16.5814C148.506 15.2135 148.506 14.5561 149.108 13.9542C149.546 13.5165 150.093 13.2976 150.749 13.2976C151.406 13.2976 151.953 13.5168 152.391 13.9542C152.992 14.5561 152.992 15.2135 152.992 16.5814C152.992 17.9497 152.992 18.606 152.391 19.2083ZM151.843 14.392C151.57 14.1184 151.131 13.9539 150.749 13.9539C150.311 13.9539 149.928 14.1184 149.655 14.392C149.272 14.8301 149.216 15.2671 149.216 16.5811C149.216 17.949 149.271 18.3868 149.655 18.7702C149.928 19.0434 150.366 19.2083 150.749 19.2083C151.187 19.2083 151.57 19.0434 151.843 18.7702C152.226 18.3317 152.281 17.8947 152.281 16.5811C152.335 15.2675 152.281 14.8301 151.843 14.392Z" fill="#747376"/>
<path d="M154.634 19.8106V13.3524H155.345V19.2083H158.629V19.8099L154.634 19.8106Z" fill="#747376"/>
<path d="M159.833 19.8106V13.3524H160.545V19.2083H163.828V19.8099L159.833 19.8106Z" fill="#747376"/>
<path d="M168.37 19.2083C167.932 19.646 167.385 19.8649 166.728 19.8649C166.072 19.8649 165.524 19.6457 165.087 19.2083C164.485 18.6064 164.485 17.949 164.485 16.5814C164.485 15.2135 164.485 14.5561 165.087 13.9542C165.525 13.5165 166.073 13.2976 166.728 13.2976C167.385 13.2976 167.933 13.5168 168.37 13.9542C168.972 14.5561 168.972 15.2135 168.972 16.5814C168.972 17.9497 168.972 18.606 168.37 19.2083ZM167.823 14.392C167.549 14.1184 167.111 13.9539 166.728 13.9539C166.29 13.9539 165.907 14.1184 165.634 14.392C165.251 14.8301 165.196 15.2671 165.196 16.5811C165.196 17.949 165.251 18.3868 165.634 18.7702C165.907 19.0434 166.346 19.2083 166.728 19.2083C167.166 19.2083 167.549 19.0434 167.823 18.7702C168.206 18.3317 168.261 17.8947 168.261 16.5811C168.315 15.2675 168.261 14.8301 167.823 14.392Z" fill="#747376"/>
<path d="M72.2695 30.0994C71.8864 30.4818 71.2845 30.701 70.6276 30.701H68.4385V24.2428H70.6276C71.2842 24.2428 71.8864 24.462 72.2695 24.8447C72.9261 25.5013 72.9261 26.4863 72.9261 27.4168C72.8714 28.2934 72.9261 29.4421 72.2695 30.0994ZM71.777 25.3379C71.4487 25.0096 71.0109 24.845 70.5181 24.845H69.0951V30.0447H70.5181C71.0106 30.0447 71.4487 29.9353 71.777 29.5519C72.2147 29.1134 72.2148 28.1292 72.2148 27.3628C72.2148 26.6511 72.2147 25.83 71.777 25.3379Z" fill="#747376"/>
<path d="M74.5137 30.701V24.2428H78.5088V24.8447H75.1703V27.1436H78.016V27.7455H75.1703V30.0987H78.5088V30.7003L74.5137 30.701Z" fill="#747376"/>
<path d="M85.5138 30.7009L85.2402 29.7156H83.27L82.9417 30.7009H81.2998L83.6531 24.2434H84.8576L87.2105 30.7009H85.5138ZM84.2546 26.7061L83.6531 28.402H84.8018L84.2546 26.7061Z" fill="#747376"/>
<path d="M92.2991 30.701V27.5813L91.3689 29.1682H90.3286L89.398 27.5813V30.701H87.8115V24.2428H89.3987L90.8768 27.0892L92.3549 24.2428H93.9421V30.7003L92.2991 30.701Z" fill="#747376"/>
<path d="M95.2002 30.7009V24.2427H99.5787V25.665H96.7874V26.7598H99.1953V28.1825H96.7874V29.3312H99.5787V30.7539H95.2002V30.7009ZM97.7176 23.6408H96.8421L97.2802 21.9989H98.8123L97.7176 23.6408Z" fill="#747376"/>
<path d="M103.956 30.701L102.807 28.2934H102.26V30.701H100.673V24.2428H103.246C104.668 24.2428 105.434 25.2831 105.434 26.3228C105.434 27.198 104.888 27.7455 104.394 28.0187L105.817 30.7003L103.956 30.701ZM103.19 25.6658H102.315V26.9798H103.19C103.628 26.9798 103.902 26.6515 103.902 26.3231C103.902 25.9948 103.628 25.6658 103.19 25.6658Z" fill="#747376"/>
<path d="M106.638 30.701V24.2428H108.225V30.7003L106.638 30.701Z" fill="#747376"/>
<path d="M111.783 30.7557C111.017 30.7557 110.47 30.4817 109.977 30.0437C109.32 29.387 109.32 28.4568 109.32 27.4712C109.32 26.4859 109.266 25.6104 109.977 24.8987C110.47 24.4059 111.017 24.1874 111.783 24.1874C112.988 24.1874 113.972 24.844 114.246 26.2667H112.658C112.549 25.8843 112.385 25.555 111.838 25.555C111.564 25.555 111.345 25.6637 111.236 25.8286C111.072 25.9934 111.017 26.2667 111.017 27.4154C111.017 28.6199 111.126 28.8381 111.236 29.0026C111.346 29.1671 111.564 29.2762 111.838 29.2762C112.385 29.2762 112.549 28.9486 112.658 28.5642H114.246C113.972 30.0994 112.987 30.7557 111.783 30.7557Z" fill="#747376"/>
<path d="M118.568 30.7009L118.295 29.7156H116.325L115.996 30.7009H114.355L116.709 24.2434H117.913L120.266 30.7009H118.568ZM117.31 26.7061L116.709 28.402H117.857L117.31 26.7061Z" fill="#747376"/>
<path d="M122.893 30.701V24.2428H124.48V29.2776H127.216V30.7003L122.893 30.701Z" fill="#747376"/>
<path d="M131.703 30.7009L131.43 29.7156H129.459L129.132 30.7009H127.49L129.843 24.2434H131.048L133.401 30.7009H131.703ZM130.444 26.7061L129.842 28.402H130.992L130.444 26.7061Z" fill="#747376"/>
<path d="M136.3 25.6658V30.7009H134.713V25.6658H133.126V24.2438H137.887V25.6658H136.3Z" fill="#747376"/>
<path d="M138.817 30.701V24.2428H140.405V30.7003L138.817 30.701Z" fill="#747376"/>
<path d="M145.385 30.701L143.305 27.4722V30.701H141.718V24.2428H143.086L145.166 27.4715V24.2428H146.753V30.7003L145.385 30.701Z" fill="#747376"/>
<path d="M151.679 30.7009L151.406 29.7156H149.436L149.108 30.7009H147.466L149.819 24.2434H151.024L153.377 30.7009H151.679ZM150.42 26.7061L149.818 28.402H150.967L150.42 26.7061Z" fill="#747376"/>
</svg>
