<svg width="146" height="16" viewBox="0 0 146 16" fill="none" xmlns="http://www.w3.org/2000/svg">
<g clip-path="url(#clip0_735_43641)">
<path d="M18.1128 10.3831C17.839 11.3167 17.5 12.4033 16.1568 13.6353C14.9473 14.74 12.9485 15.9998 9.11877 15.9998C3.78329 15.9998 0.0830078 13.2075 0.0830078 7.9576C0.0830078 2.29915 4.5918 0.00305176 9.33373 0.00305176C11.0534 0.00305176 15.5814 0.40623 17.5738 4.00492L13.819 5.19414C13.4158 4.55355 12.2159 2.89911 9.30592 2.89911C5.90294 2.89911 3.99398 5.12784 3.99398 8.00144C3.99398 11.2772 6.59166 13.0171 9.43853 13.0171C12.6918 13.0171 13.6703 11.3146 14.1612 10.4034L18.1128 10.3831Z" fill="#231F20"/>
<path d="M19.7588 0.472656H23.5254V6.25837H32.4157V0.472656H36.1812V15.4888H32.4157V9.04321H23.5254V15.4888H19.7588V0.472656Z" fill="#231F20"/>
<path d="M47.6044 5.08625C47.4942 4.89589 47.4108 4.68414 47.3466 4.49271C47.2825 4.30128 47.2418 4.10985 47.2215 3.89489C47.1563 4.08525 47.1124 4.25851 47.0718 4.42641C46.983 4.61998 46.921 4.8082 46.8354 5.0007L44.7404 9.54478H49.5861L47.6044 5.08625ZM45.2216 0.472656H49.2834L56.5353 15.4888H52.3228L50.8352 12.2077H43.5234L42.0743 15.4888H37.9697L45.2216 0.472656Z" fill="#231F20"/>
<path d="M58.4697 0.472656H62.2342V12.721H69.8187V15.4888H58.4697V0.472656Z" fill="#231F20"/>
<path d="M72.082 0.472656H77.5052L81.4162 9.66135C81.8193 10.6367 81.9712 11.042 82.183 11.8944C82.3316 11.2559 82.4578 10.8709 82.8824 9.83246L86.7955 0.472656H92.178V15.4888H88.6242V4.98252C88.6242 4.53335 88.6916 4.15262 88.7761 3.57833C88.6242 4.02215 88.5654 4.19755 88.3515 4.72799L83.8663 15.4898H80.4376L75.9524 4.93974C75.716 4.36759 75.6754 4.19862 75.5064 3.57941C75.5695 4.22001 75.5909 4.34513 75.6358 4.92156V15.4909H72.0831L72.082 0.472656Z" fill="#231F20"/>
<path d="M116.669 6.79738H122.663C123.47 6.79738 124.916 6.69258 124.916 5.01355C124.916 4.71517 124.878 4.20291 124.619 3.84143C124.345 3.47996 123.982 3.12063 122.497 3.12063H116.669V6.79738ZM112.905 0.4823H123.239C124.944 0.4823 126.488 0.63202 127.746 2.07577C128.514 2.96769 128.728 4.09596 128.728 4.96863C128.728 6.11722 128.344 7.47755 127.278 8.28498C126.474 8.90419 125.429 9.11594 124.835 9.22182L129.387 15.4931H125.065L120.943 9.45496H116.671V15.4931H112.906L112.905 0.4823Z" fill="#231F20"/>
<path d="M133.472 10.9073C134.356 12.7029 136.511 13.2173 138.554 13.1841C139.468 13.1649 142.335 12.9649 142.304 11.1383C142.282 10.0528 141.236 9.81855 140.431 9.68273C139.808 9.56616 136.715 9.15229 136.01 9.03572C134.627 8.80579 131.129 8.20903 131.07 4.80605C131.057 4.06065 131.254 3.29385 131.625 2.67037C132.845 0.628792 135.602 0.0459462 137.984 0.00637669C140.173 -0.0342623 141.857 0.256625 143.426 1.0801C144.973 1.88218 145.648 2.97837 145.952 3.46176L142.397 4.41891C142.269 4.18578 141.957 3.63715 141.056 3.2083C140.052 2.73454 138.754 2.67464 138.031 2.68534C136.372 2.70994 134.676 3.06286 134.702 4.48629C134.719 5.46591 135.592 5.70653 136.725 5.94181C137.344 6.05838 140.415 6.51503 141.12 6.65085C142.866 6.94067 145.833 7.5246 145.895 10.8228C145.976 15.6481 140.565 15.923 138.378 15.9529C135.909 15.9839 132.068 15.6353 130.064 11.8633L133.472 10.9073Z" fill="#231F20"/>
<path d="M95.6592 0.472656H109.649V3.17515H99.4236V6.55461H108.434V9.21539H99.4236V12.8077H110.074V15.4877H95.6592V0.472656Z" fill="#231F20"/>
</g>
<defs>
<clipPath id="clip0_735_43641">
<rect width="145.869" height="16" fill="white" transform="translate(0.0830078)"/>
</clipPath>
</defs>
</svg>
