<svg width="198" height="32" viewBox="0 0 198 32" fill="none" xmlns="http://www.w3.org/2000/svg">
<g clip-path="url(#clip0_735_42592)">
<path d="M54.6326 7.2785H65.6012V9.95153H57.5313V14.8748H64.6763V17.5224H57.5313V24.7692H54.6326V7.2785ZM67.0983 16.1716V15.9205C67.0983 10.7239 70.2957 7.00199 74.8694 7.00199C79.4177 7.00199 82.5897 10.6985 82.5897 15.8729V16.124C82.5897 21.3206 79.3923 25.0425 74.8186 25.0425C70.2735 25.0425 67.0983 21.3429 67.0983 16.1716ZM79.5925 16.124V15.9491C79.5925 12.2018 77.5933 9.67819 74.8186 9.67819C72.0693 9.67819 70.0955 12.151 70.0955 15.9237V16.0985C70.0955 19.8458 72.1201 22.3695 74.8694 22.3695C77.6187 22.3695 79.5925 19.8967 79.5925 16.124ZM85.0117 18.0977V7.2785H87.9103V18.0723C87.9103 20.8947 89.2834 22.3695 91.5337 22.3695C93.7332 22.3695 95.1316 20.9456 95.1316 18.1708V7.27532H98.0049V17.996C98.0049 22.6937 95.4304 25.0425 91.4829 25.0425C87.5862 25.0425 85.0117 22.6683 85.0117 18.0977ZM101.104 7.2785H103.802L111.497 18.9464V7.2785H114.32V24.7692H111.872L103.952 12.7517V24.7692H101.104V7.2785ZM117.619 7.2785H122.965C127.961 7.2785 131.26 10.7779 131.26 15.8983V16.0985C131.26 21.2221 127.961 24.7692 122.965 24.7692H117.619V7.2785ZM120.517 9.90067V22.1438H122.943C126.14 22.1438 128.266 19.8713 128.266 16.1208V15.9714C128.266 12.1986 126.143 9.90067 122.943 9.90067H120.517ZM138.059 7.17679H140.856L147.276 24.766H144.254L142.804 20.6436H136.009L134.56 24.766H131.635L138.059 7.17679ZM141.905 18.0723L139.407 11.0512L136.908 18.0723H141.905ZM150.95 9.97695H146.355V7.2785H158.448V9.97695H153.852V24.7692H150.954V9.97695H150.95ZM160.819 7.2785H163.718V24.7692H160.819V7.2785ZM166.49 16.1716V15.9205C166.49 10.7239 169.687 7.00199 174.261 7.00199C178.809 7.00199 181.981 10.6985 181.981 15.8729V16.124C181.981 21.3206 178.784 25.0425 174.21 25.0425C169.665 25.0425 166.49 21.3429 166.49 16.1716ZM178.984 16.124V15.9491C178.984 12.2018 176.985 9.67819 174.213 9.67819C171.464 9.67819 169.49 12.151 169.49 15.9237V16.0985C169.49 19.8458 171.515 22.3695 174.261 22.3695C177.01 22.3695 178.984 19.8967 178.984 16.124ZM184.629 7.2785H187.327L195.022 18.9464V7.2785H197.844V24.7692H195.394L187.473 12.7517V24.7692H184.625V7.2785H184.629ZM19.076 9.75129C18.4753 9.80532 17.8682 9.84665 17.258 9.85618V15.733H19.3049V13.3969H23.5162C23.4686 13.0822 23.4145 12.7708 23.351 12.4593C22.9632 12.6436 22.5277 12.7453 22.0701 12.7453C20.4173 12.7485 19.076 11.4009 19.076 9.75129ZM19.1269 9.19825C19.2314 8.64299 19.4906 8.12853 19.8746 7.71411C20.2587 7.29969 20.752 7.00216 21.2977 6.85578C20.2386 4.92276 18.8745 3.17335 17.258 1.67501V9.33174C17.8841 9.32856 18.5103 9.28089 19.1269 9.19825ZM21.5711 24.623H19.3017V22.8208C18.6247 22.7286 17.9445 22.6683 17.2548 22.6619V30.3155C19.0347 28.6754 20.4968 26.7334 21.5711 24.623ZM19.3017 22.29V16.2543H17.2548V22.1343C17.9445 22.147 18.6279 22.1947 19.3017 22.29ZM12.4713 7.25943H16.1233V9.31585C16.3267 9.32856 16.5301 9.33174 16.7336 9.33492V1.67819C14.9973 3.27498 13.5547 5.16404 12.4713 7.25943ZM16.1201 9.84028V11.8903H10.8535L10.7931 14.1311L15.5353 14.1756V15.733H16.7272V9.85618C16.5301 9.85936 16.3235 9.84982 16.1201 9.84028ZM15.5385 16.2543V18.4887H10.8567L10.7963 20.259C11.0156 21.1712 11.3017 22.0771 11.6577 22.9575C13.285 22.4331 14.995 22.1565 16.7304 22.1343V16.2543H15.5385ZM10.7963 22.147V23.2563L11.1587 23.1259C11.0252 22.8049 10.9044 22.4744 10.7963 22.147ZM16.7304 22.6555C15.0649 22.6841 13.4248 22.9448 11.8547 23.4406C12.9824 26.0474 14.6432 28.3892 16.7304 30.3155V22.6555ZM34.8599 14.4299C34.7773 14.7477 34.3418 16.4799 33.8651 18.4092C33.8428 18.5078 33.8206 18.5427 33.811 18.5586L33.9827 18.5967H35.8357C35.896 18.5904 35.9533 18.6412 35.9533 18.6412C35.896 18.5427 35.8706 18.5078 35.8484 18.4092L34.9235 14.4362C34.8917 14.3314 34.8917 14.1152 34.8917 14.1152C34.8917 14.1152 34.8853 14.3345 34.8599 14.4299ZM5.85393 5.87048C3.3884 8.56995 1.99463 12.0775 1.93498 15.733H4.78917V7.25625H7.79911C7.11893 6.84942 6.47372 6.3822 5.85393 5.87048ZM16.7304 0.963051C12.608 1.0298 8.89247 2.7493 6.21627 5.49225C7.03529 6.16521 7.91773 6.75705 8.85115 7.25943H11.877C13.0593 4.90425 14.7026 2.74295 16.7304 0.963051ZM27.7212 5.49225C25.0514 2.75566 21.3549 1.04251 17.258 0.963051C19.1219 2.60701 20.6763 4.57155 21.8476 6.76361L22.0669 6.75725C22.9282 6.75725 23.7006 7.11958 24.2473 7.69487C25.4837 7.10687 26.6533 6.36631 27.7212 5.49225ZM30.7312 9.92292C30.0637 8.43226 29.1706 7.06555 28.0836 5.87683C27.0029 6.7636 25.8237 7.52006 24.5842 8.12078C24.9011 8.60654 25.0691 9.17444 25.0673 9.75447C25.0673 10.7525 24.5778 11.6393 23.8277 12.1796C23.9167 12.5896 23.9866 12.9932 24.0438 13.4033H24.7622V15.7394H28.929L30.7312 9.92292ZM28.0868 26.1263C28.5189 25.6516 28.9212 25.1506 29.2914 24.6261H26.1765L28.7669 16.2574H24.7622V23.9682C25.9413 24.5499 27.0538 25.2777 28.0868 26.1263ZM17.258 31.0274C21.3645 30.9543 25.0609 29.2475 27.7308 26.5109C26.809 25.7513 25.8142 25.0934 24.7653 24.5499L22.1654 24.623C20.9767 27.0226 19.3112 29.2221 17.258 31.0274ZM6.21309 26.5109C8.86704 29.2284 12.5476 30.9448 16.6255 31.0369C14.337 28.8979 12.5381 26.3647 11.3557 23.6122C11.1618 23.679 10.9775 23.7457 10.7931 23.822V24.623H9.04503C8.03854 25.1531 7.08951 25.7857 6.21309 26.5109ZM1.93498 16.2543C1.99537 20.0556 3.47014 23.5105 5.84757 26.1263C6.52457 25.5701 7.23017 25.0648 7.97391 24.6261H4.78917V16.2574H1.93498V16.2543ZM30.4515 24.623C30.0383 25.2586 29.5838 25.8721 29.0848 26.441C30.0891 26.7366 31.1253 26.886 32.1837 26.886C34.6851 26.886 36.9926 26.0405 38.8392 24.6198H37.3041C37.3041 24.6198 37.1134 23.7839 36.8496 22.6333C36.8178 22.5157 36.8337 22.4966 36.84 22.468L36.662 22.4362H33.0069C32.8448 22.4362 32.7844 22.3917 32.7844 22.3917C32.8448 22.4966 32.8607 22.5157 32.8321 22.6333L32.3299 24.6198H30.4515V24.623ZM29.0879 5.55582C29.8889 6.4712 30.5754 7.48828 31.1444 8.57211L31.5035 7.41835H38.6422L42.2337 20.2114C42.7836 18.9146 43.0824 17.4907 43.0824 15.9968C43.0824 13.0918 41.9477 10.3552 39.8881 8.29559C37.8317 6.24235 35.1014 5.11084 32.1869 5.11084C31.1348 5.11402 30.0923 5.26341 29.0879 5.55582ZM25.4837 2.45372C26.6694 3.20109 27.7528 4.09965 28.7065 5.12674C29.8285 4.76758 31.0013 4.58324 32.19 4.58324C35.2445 4.58324 38.1082 5.77513 40.2663 7.93008C42.4244 10.0818 43.6132 12.9519 43.6132 16C43.6132 17.7672 43.2159 19.4613 42.4626 21.006L43.4797 24.623H39.6815C37.6028 26.4315 34.9743 27.4136 32.1932 27.4136C31.0013 27.4136 29.8285 27.2324 28.7097 26.8764C27.7562 27.8999 26.6692 28.8025 25.4837 29.5526C26.0844 29.8387 26.7137 30.0961 27.3589 30.3027L27.7657 29.149L29.5266 29.5685L29.3581 30.8081C29.9652 30.913 30.5818 30.9829 31.2111 31.0179L31.3033 29.8101L33.1086 29.7688L33.2675 30.9829C33.8905 30.9321 34.5039 30.8431 35.1078 30.7128L34.8917 29.5431L36.6303 29.0346L37.0911 30.1565C37.6728 29.9499 38.2449 29.7052 38.7916 29.4287L38.2862 28.3544L39.8341 27.4199L40.5587 28.383C41.0641 28.0238 41.5536 27.6393 42.0144 27.2292L41.258 26.3361L42.5103 25.0393L43.4447 25.7735C43.8515 25.3 44.2266 24.8041 44.5699 24.2892L43.6132 23.6281L44.484 22.0453L45.5742 22.5093C45.8434 21.9511 46.078 21.3769 46.2767 20.7898L45.1897 20.4021L45.6251 18.6412L46.7916 18.8161C46.906 18.2439 46.9791 17.6623 47.0204 17.0679L45.8762 16.9535L45.8603 15.145L47.0236 15.0147C46.9823 14.3886 46.9092 13.7783 46.7916 13.1808L45.6537 13.3715L45.1738 11.6234L46.2735 11.1975C46.0764 10.6063 45.838 10.031 45.5742 9.47477L44.5127 9.95788L43.6036 8.3973L44.5571 7.70124C44.2171 7.18316 43.8388 6.68415 43.4384 6.21057L42.5389 6.95431L41.2548 5.68613L42.0081 4.75486C41.5409 4.34803 41.0546 3.96027 40.5397 3.60429L39.8531 4.55781L38.2894 3.67421L38.7757 2.56178C38.2218 2.28437 37.6518 2.04026 37.0689 1.83075L36.6493 2.94954L34.8949 2.4855L35.0887 1.28089C34.4848 1.15058 33.8682 1.06158 33.2421 1.01072L33.1245 2.20262L31.316 2.20898L31.1857 0.978944C30.5595 1.01073 29.9397 1.08383 29.3327 1.1919L29.5297 2.39968L27.788 2.86691L27.3462 1.69408C26.7073 1.91021 26.0812 2.16448 25.4837 2.45372ZM0.96875 16C0.96875 7.16726 8.13601 0 16.9719 0C19.699 0 22.2703 0.680174 24.5174 1.89114C26.7614 0.689709 29.3231 0.00953477 32.0438 0.00953477C40.8798 0.00953477 48.0216 7.16091 48.0216 15.9809C48.0216 24.8041 40.8798 31.9523 32.0438 31.9523C29.339 31.9523 26.7931 31.2753 24.5619 30.0898C22.2292 31.3453 19.6211 32.0017 16.9719 32C8.13919 31.9968 0.96875 24.8391 0.96875 16Z" fill="#012D5F"/>
</g>
<defs>
<clipPath id="clip0_735_42592">
<rect width="196.876" height="32" fill="white" transform="translate(0.96875)"/>
</clipPath>
</defs>
</svg>
