<svg xmlns="http://www.w3.org/2000/svg" width="150" height="40" viewBox="0 0 150 40" fill="none">
<g clip-path="url(#clip0_725_147257)">
<path d="M12.2138 27.7863C12.087 27.8667 11.9548 27.9738 11.8209 28.0863L11.7833 28.1167C11.7566 28.1363 11.7298 28.1578 11.703 28.1774C11.6762 28.1988 11.6476 28.2185 11.619 28.2381C11.5905 28.2596 11.5619 28.2792 11.5315 28.2989C11.503 28.3185 11.4726 28.3381 11.4422 28.356C11.4119 28.3756 11.3797 28.3953 11.3476 28.4132C11.3172 28.4328 11.2851 28.4507 11.2511 28.4685C11.219 28.4864 11.1868 28.5042 11.1529 28.5221C11.119 28.54 11.085 28.556 11.0511 28.5739C11.0154 28.59 10.9815 28.606 10.9457 28.6221C10.91 28.6382 10.8743 28.6543 10.8386 28.6703C10.8029 28.6846 10.7654 28.7007 10.7296 28.715C10.6939 28.7293 10.6582 28.7418 10.6207 28.7561C10.585 28.7686 10.5493 28.7811 10.5135 28.7936C10.4778 28.8043 10.4421 28.8168 10.4064 28.8275C10.3707 28.8382 10.3349 28.8489 10.2992 28.8579C10.2635 28.8686 10.2296 28.8775 10.1939 28.8864C10.1581 28.8954 10.1242 28.9043 10.0885 28.9114C10.0546 28.9186 10.0206 28.9257 9.98668 28.9329C9.95096 28.9382 9.91703 28.9454 9.8831 28.9507C9.47233 29.0222 9.0437 29.0579 8.60257 29.0615H8.27574C6.14154 29.0097 4.36273 28.3096 2.93576 26.9594C1.51057 25.6092 0.771185 23.9179 0.71582 21.8837V13.8845C0.771185 11.8503 1.51057 10.159 2.93576 8.80878C4.36273 7.46039 6.14154 6.75851 8.27574 6.70851H8.69544C9.09907 6.71565 9.4759 6.74244 9.82595 6.79066L9.92775 6.80673C9.96347 6.81388 9.9974 6.81924 10.0331 6.82638C10.0688 6.83352 10.1046 6.84067 10.1403 6.8496C10.176 6.85674 10.2117 6.86567 10.2492 6.8746C10.2849 6.88353 10.3207 6.89246 10.3582 6.90318C10.3939 6.91389 10.4314 6.92461 10.4671 6.93532C10.5046 6.94604 10.5403 6.95854 10.5778 6.97104C10.6153 6.98355 10.6511 6.99605 10.6886 7.00855C10.7261 7.02284 10.7618 7.03712 10.7975 7.05141C10.835 7.0657 10.8707 7.07998 10.9047 7.09427C10.9404 7.10856 10.9761 7.12463 11.01 7.14071C11.044 7.15678 11.0779 7.17286 11.1118 7.18893C11.1458 7.205 11.1779 7.22108 11.2118 7.23894C11.244 7.25501 11.2761 7.27287 11.3083 7.29073C11.3386 7.3068 11.3708 7.32466 11.4012 7.34252L11.4297 7.36038L11.469 7.38538L11.5083 7.41217L11.5494 7.43718L11.5869 7.46396L11.6244 7.49075L11.6619 7.51754L11.6994 7.54255L11.7351 7.57112L11.7708 7.59791L11.8048 7.6247L11.8387 7.65149L11.8726 7.68007L11.9048 7.70685L11.9369 7.73543L11.9673 7.764L11.9977 7.79079L12.028 7.81937C12.028 7.81937 12.0548 7.84616 12.0887 7.86937C12.1102 7.88188 12.1263 7.89081 12.1423 7.89795C12.1673 7.90867 12.1905 7.91581 12.2173 7.92117C12.2423 7.92653 12.2691 7.92831 12.2977 7.92831C12.3245 7.92831 12.3513 7.92653 12.3763 7.92117C12.4031 7.91581 12.4263 7.90688 12.4513 7.89795C12.4745 7.88723 12.4959 7.87473 12.5174 7.86045C12.5388 7.84616 12.5585 7.83008 12.5763 7.81222C12.5942 7.79436 12.6102 7.77472 12.6245 7.75507C12.6388 7.73364 12.6513 7.71042 12.6603 7.68721C12.671 7.66399 12.6781 7.63899 12.6835 7.61398C12.6888 7.58719 12.6942 7.5604 12.6942 7.53362C12.6906 7.27108 12.6853 6.91211 12.9817 6.82459C13.1585 6.7728 13.3746 6.79781 13.5514 6.79781H15.3124H16.2518C16.5268 6.79781 16.9412 6.72994 17.0555 7.06748C17.1412 7.31752 17.084 7.8408 17.084 8.10869V11.8413V20.5764L17.0823 25.1645C17.0823 26.679 17.143 28.2096 16.9733 29.7187C16.4965 33.9246 14.3944 37.4983 9.94561 38.2823C7.2524 38.7556 4.56811 37.7965 2.48927 36.0802C2.23566 35.8713 1.70702 35.5194 1.72845 35.1587C1.73738 35.0319 1.79811 34.914 1.88205 34.8194C1.88205 34.8194 3.60727 32.9959 3.73229 32.8369C3.85552 32.7012 4.02697 32.5065 4.21807 32.5065C4.48953 32.5083 4.7735 32.7619 5.26642 33.0513C6.10582 33.5442 7.00593 33.996 7.9632 34.1389C8.56864 34.23 9.22766 34.146 9.80809 33.9585C12.0637 33.2281 12.6888 30.3795 12.8192 28.147V28.1095C12.8192 28.0953 12.8192 28.0828 12.8174 28.0702C12.8156 28.056 12.8138 28.0435 12.8121 28.031C12.8085 28.0185 12.8049 28.006 12.8013 27.9935C12.7978 27.981 12.7942 27.9684 12.7888 27.9577C12.7835 27.9452 12.7781 27.9345 12.7728 27.9238C12.7674 27.9131 12.7603 27.9024 12.7531 27.8917C12.746 27.8809 12.7388 27.8702 12.7299 27.8613C12.7228 27.8524 12.7138 27.8434 12.7049 27.8345C12.696 27.8256 12.687 27.8166 12.6781 27.8095C12.6692 27.8006 12.6585 27.7934 12.6477 27.7863C12.637 27.7791 12.6263 27.772 12.6156 27.7666C12.6049 27.7613 12.5942 27.7559 12.5817 27.7506C12.571 27.7452 12.5585 27.7416 12.5459 27.7381C12.5334 27.7327 12.5209 27.7309 12.5084 27.7273C12.4959 27.7256 12.4834 27.7238 12.4692 27.722C12.4567 27.7202 12.4442 27.7202 12.4299 27.7202C12.4174 27.7202 12.4031 27.7202 12.3906 27.722C12.3781 27.7238 12.3638 27.7256 12.3513 27.7273C12.3388 27.7309 12.3263 27.7327 12.3138 27.7381C12.3013 27.7416 12.2906 27.7452 12.2781 27.7506C12.2673 27.7559 12.2245 27.7791 12.2138 27.7863ZM12.687 21.9427V13.913C12.6531 12.845 12.2673 12.1789 11.5262 11.5806C10.7868 10.9841 10.0921 10.6787 9.04013 10.6697H8.63293C7.53993 10.6947 6.82555 11.0537 6.08974 11.7431C5.35215 12.4325 4.96995 13.1308 4.94138 14.172V21.598C4.96995 22.6374 5.35215 23.3357 6.08974 24.0251C6.82555 24.7144 7.53993 25.0734 8.63293 25.0984H9.04013C10.0921 25.0841 10.7868 24.7787 11.5262 24.1822C12.2673 23.5857 12.6531 22.9499 12.687 21.9427Z" fill="#C80D0F"/>
<path d="M47.5486 28.5456V25.6095C47.5469 25.4381 47.5022 25.3148 47.4129 25.2363C47.3254 25.1577 47.2075 25.1184 47.0593 25.1202H38.9725C38.7778 25.1184 38.6403 25.0845 38.5564 25.0148C38.4814 24.9487 38.4278 24.8666 38.4278 24.7398C38.4224 24.6237 38.4724 24.4808 38.5314 24.3844L47.3915 7.66252C47.4165 7.61251 47.4397 7.55536 47.4593 7.49107C47.479 7.42856 47.4879 7.37141 47.4897 7.31962C47.4808 7.0678 47.3022 6.93742 46.9503 6.92849H32.4359C32.102 6.92135 31.9377 7.08387 31.9466 7.41784V10.3557C31.9377 10.6897 32.102 10.8522 32.4359 10.8451H40.0173C40.1887 10.8451 40.328 10.8754 40.4209 10.9433C40.5138 11.013 40.5549 11.113 40.5566 11.2362C40.5549 11.288 40.5441 11.3451 40.5263 11.4077C40.5066 11.4719 40.4834 11.5291 40.4584 11.5791L31.5055 28.301C31.4805 28.351 31.4572 28.4081 31.4376 28.4724C31.4179 28.5349 31.409 28.5921 31.4072 28.6439C31.4144 28.8957 31.5948 29.026 31.9466 29.035H47.0593C47.229 29.0368 47.354 28.9975 47.4326 28.9189C47.5111 28.8403 47.5486 28.7153 47.5486 28.5456Z" fill="#C80D0F"/>
<path d="M22.443 4.08727C22.4573 4.248 22.5055 4.37302 22.5877 4.45696C22.6841 4.5534 22.8324 4.60341 23.0324 4.60876H26.0881C26.2882 4.60341 26.4364 4.5534 26.5328 4.45696C26.615 4.37481 26.6757 4.25157 26.6757 4.09263C26.6757 4.09263 26.6757 4.0069 26.6757 4.00333V0.608238C26.6704 0.406425 26.6239 0.252834 26.5275 0.156393C26.431 0.0599513 26.2828 0.00994492 26.0828 0.00280094H25.8399C25.6506 0.00280094 25.4916 0.0438776 25.3166 0.229616L22.752 3.09249L22.6288 3.23716C22.4912 3.3961 22.4395 3.53005 22.4395 3.7015V4.00333C22.4395 4.02833 22.443 4.08727 22.443 4.08727Z" fill="#C80D0F"/>
<path d="M26.6551 7.43385C26.6551 7.26062 26.6122 7.12488 26.5336 7.04094C26.4479 6.95343 26.3121 6.90878 26.1282 6.91057H22.9474C22.7635 6.91236 22.6295 6.96415 22.5438 7.06237C22.4634 7.15524 22.4188 7.27847 22.4188 7.43385V7.52136L22.417 19.4712L22.4206 28.5116C22.4206 28.6849 22.4634 28.8206 22.5438 28.9045C22.6277 28.992 22.7635 29.0349 22.9474 29.0349H26.1282C26.3121 29.0331 26.4479 28.9813 26.5318 28.8831C26.6122 28.7902 26.6551 28.667 26.6551 28.5116V7.43385Z" fill="#C80D0F"/>
<path d="M148.437 24.0371C148.437 23.9388 148.406 23.8656 148.344 23.8156C148.281 23.7674 148.214 23.7424 148.142 23.7424C148.071 23.7424 148.003 23.7674 147.94 23.8156C147.878 23.8656 147.847 23.9388 147.847 24.0371V26.0838H146.011V24.0371C146.011 23.9388 145.979 23.8656 145.917 23.8156C145.856 23.7674 145.788 23.7424 145.717 23.7424C145.644 23.7424 145.578 23.7674 145.515 23.8156C145.452 23.8656 145.422 23.9388 145.422 24.0371V28.8966C145.422 28.9949 145.452 29.0681 145.515 29.1145C145.578 29.161 145.644 29.1842 145.717 29.1842C145.788 29.1842 145.856 29.161 145.917 29.1145C145.979 29.0681 146.011 28.9949 146.011 28.8966V26.6713H147.847V28.8966C147.847 29.0002 147.878 29.0734 147.94 29.1181C148.003 29.161 148.071 29.1842 148.142 29.1842C148.214 29.1842 148.281 29.161 148.344 29.1181C148.406 29.0734 148.437 29.0002 148.437 28.8966V24.0371ZM143.379 27.9376C143.379 28.118 143.313 28.2733 143.184 28.4019C143.056 28.5305 142.899 28.5948 142.713 28.5948H142.643C142.466 28.5948 142.313 28.5412 142.181 28.4323C142.048 28.3233 141.984 28.1751 141.984 27.984V26.5463C141.984 26.3659 142.048 26.2213 142.181 26.1141C142.313 26.0052 142.466 25.9516 142.643 25.9516H142.713C142.899 25.9516 143.056 26.0159 143.184 26.1445C143.313 26.2731 143.379 26.4285 143.379 26.6088V27.9376ZM143.968 26.6106C143.968 26.4392 143.936 26.2784 143.87 26.1266C143.806 25.973 143.718 25.8409 143.604 25.7266C143.49 25.6123 143.356 25.523 143.204 25.4587C143.052 25.3944 142.888 25.3622 142.713 25.3622H142.657C142.524 25.3622 142.395 25.3837 142.27 25.4283C142.147 25.473 142.05 25.5355 141.984 25.6176V24.0371C141.984 23.9388 141.952 23.8656 141.891 23.8156C141.829 23.7674 141.761 23.7424 141.689 23.7424C141.616 23.7424 141.55 23.7674 141.488 23.8156C141.425 23.8656 141.395 23.9388 141.395 24.0371V28.9127C141.395 29.0056 141.425 29.0734 141.488 29.1181C141.55 29.161 141.616 29.1842 141.689 29.1842C141.756 29.1842 141.818 29.1645 141.875 29.1288C141.931 29.0913 141.965 29.0342 141.975 28.9556C142.032 29.0127 142.116 29.0663 142.227 29.1127C142.34 29.1592 142.477 29.1842 142.643 29.1842H142.713C142.883 29.1842 143.045 29.152 143.197 29.0859C143.349 29.0216 143.483 28.9341 143.595 28.8234C143.709 28.7127 143.799 28.5823 143.867 28.4323C143.933 28.2823 143.968 28.1197 143.968 27.9429V26.6106ZM139.962 26.6017C139.962 26.3909 139.927 26.2052 139.861 26.048C139.793 25.8909 139.702 25.7623 139.586 25.6605C139.47 25.5605 139.336 25.4855 139.187 25.4355C139.036 25.3872 138.878 25.3622 138.714 25.3622H138.644C138.446 25.3622 138.268 25.4033 138.105 25.4819C137.943 25.5623 137.801 25.6694 137.684 25.8034C137.564 25.6694 137.423 25.5623 137.26 25.4819C137.098 25.4033 136.917 25.3622 136.721 25.3622H136.651C136.517 25.3622 136.391 25.3837 136.273 25.4247C136.153 25.4658 136.057 25.523 135.985 25.5944C135.969 25.5176 135.933 25.4587 135.876 25.4212C135.819 25.3819 135.76 25.3622 135.699 25.3622C135.621 25.3622 135.551 25.389 135.489 25.439C135.428 25.4908 135.396 25.5641 135.396 25.6569V28.8966C135.396 28.9949 135.428 29.0681 135.489 29.1145C135.551 29.161 135.617 29.1842 135.69 29.1842C135.764 29.1842 135.83 29.161 135.892 29.1145C135.955 29.0681 135.985 28.9949 135.985 28.8966V26.5481C135.985 26.3677 136.051 26.2231 136.187 26.1141C136.321 26.0052 136.476 25.9516 136.651 25.9516H136.721C136.909 25.9516 137.066 26.0141 137.194 26.1373C137.323 26.2624 137.389 26.4213 137.389 26.6178V28.8806C137.389 28.9841 137.419 29.0609 137.482 29.1092C137.543 29.1592 137.61 29.1842 137.684 29.1842C137.755 29.1842 137.823 29.1592 137.884 29.1092C137.946 29.0609 137.977 28.9841 137.977 28.8806V26.6178C137.977 26.4267 138.041 26.2677 138.171 26.1409C138.3 26.0141 138.459 25.9516 138.644 25.9516H138.714C138.911 25.9516 139.068 26.0052 139.189 26.1141C139.312 26.2231 139.373 26.3856 139.373 26.6017V28.8966C139.373 28.9949 139.403 29.0681 139.466 29.1145C139.527 29.161 139.595 29.1842 139.668 29.1842C139.739 29.1842 139.807 29.161 139.868 29.1145C139.93 29.0681 139.962 28.9949 139.962 28.8966V26.6017ZM133.976 26.5177C133.976 26.4392 133.947 26.3713 133.888 26.3124C133.828 26.2516 133.76 26.2231 133.683 26.2231H132.574C132.476 26.2231 132.403 26.2534 132.353 26.3159C132.304 26.3784 132.279 26.4445 132.279 26.5177C132.279 26.5892 132.304 26.6571 132.353 26.7196C132.403 26.7803 132.476 26.8124 132.574 26.8124H133.388V27.7143C133.388 27.8376 133.365 27.9537 133.319 28.059C133.271 28.1644 133.208 28.2573 133.129 28.3358C133.047 28.4162 132.954 28.4787 132.849 28.5252C132.744 28.5716 132.628 28.5948 132.504 28.5948H132.426C132.303 28.5948 132.186 28.5716 132.083 28.5252C131.976 28.4787 131.883 28.4162 131.802 28.3358C131.722 28.2555 131.66 28.1626 131.613 28.0572C131.567 27.9519 131.544 27.8358 131.544 27.7125V25.2051C131.544 25.0872 131.567 24.9747 131.613 24.8693C131.66 24.7639 131.722 24.6711 131.802 24.5907C131.883 24.5103 131.976 24.4478 132.083 24.4014C132.186 24.355 132.303 24.3317 132.426 24.3317H132.504C132.758 24.3317 132.958 24.4032 133.106 24.5478C133.253 24.6925 133.347 24.8747 133.388 25.0908C133.403 25.1783 133.44 25.2426 133.496 25.2819C133.553 25.3194 133.615 25.339 133.683 25.339C133.755 25.339 133.822 25.314 133.883 25.2658C133.946 25.2158 133.976 25.1461 133.976 25.0515V25.0051C133.951 24.8247 133.896 24.6568 133.81 24.5014C133.724 24.346 133.615 24.2139 133.485 24.1031C133.353 23.9924 133.203 23.9031 133.035 23.8388C132.867 23.7745 132.69 23.7424 132.504 23.7424H132.426C132.226 23.7424 132.033 23.7817 131.852 23.8585C131.672 23.9371 131.517 24.0406 131.385 24.1728C131.252 24.305 131.147 24.4585 131.07 24.6371C130.993 24.8157 130.954 25.0086 130.954 25.2158V27.7197C130.954 27.9251 130.993 28.118 131.07 28.2966C131.147 28.4751 131.252 28.6287 131.385 28.7609C131.517 28.8931 131.672 28.9966 131.852 29.0717C132.033 29.1467 132.226 29.1842 132.426 29.1842H132.504C132.706 29.1842 132.897 29.1467 133.078 29.0717C133.258 28.9966 133.415 28.8931 133.547 28.7609C133.678 28.6287 133.783 28.4751 133.86 28.2966C133.938 28.118 133.976 27.9251 133.976 27.7197V26.5177ZM127.843 25.6069C127.782 25.2783 127.7 24.9711 127.598 24.6836C127.495 24.3978 127.372 24.1371 127.229 23.9013C127.088 23.6656 126.934 23.4691 126.768 23.3084C126.707 23.2459 126.639 23.2155 126.566 23.2155C126.505 23.2155 126.437 23.2441 126.366 23.3013C126.304 23.362 126.271 23.4298 126.271 23.5013C126.271 23.5691 126.302 23.6317 126.357 23.6888C126.491 23.8174 126.62 23.9835 126.741 24.1835C126.863 24.3853 126.97 24.6139 127.063 24.8657C127.155 25.1194 127.229 25.3944 127.284 25.6909C127.339 25.9891 127.364 26.2981 127.364 26.6178C127.364 26.9482 127.336 27.2643 127.28 27.5643C127.223 27.8626 127.147 28.1394 127.052 28.393C126.955 28.6466 126.846 28.8716 126.721 29.0717C126.598 29.2699 126.468 29.4342 126.334 29.5628C126.279 29.6199 126.248 29.6825 126.248 29.7503C126.248 29.8218 126.28 29.8896 126.343 29.9503C126.409 30.0129 126.479 30.0432 126.552 30.0432C126.62 30.0432 126.682 30.0129 126.745 29.9503C126.911 29.7914 127.064 29.5949 127.211 29.3628C127.355 29.1288 127.48 28.8698 127.586 28.5823C127.691 28.2966 127.775 27.9858 127.838 27.6536C127.9 27.3196 127.931 26.975 127.931 26.6178C127.931 26.2713 127.9 25.9355 127.843 25.6069ZM125.173 28.6484C125.123 28.5877 125.05 28.5555 124.952 28.5555H122.998L125.2 24.3317C125.236 24.2639 125.253 24.1978 125.253 24.1299C125.253 24.0371 125.219 23.9567 125.153 23.8888C125.086 23.8228 125.002 23.7888 124.896 23.7888H122.68C122.578 23.7888 122.501 23.8192 122.455 23.8817C122.408 23.9442 122.385 24.0103 122.385 24.0835C122.385 24.1567 122.408 24.2228 122.455 24.2853C122.501 24.346 122.578 24.3782 122.68 24.3782H124.518L122.324 28.5877C122.292 28.643 122.278 28.7055 122.278 28.7734C122.278 28.8716 122.307 28.9574 122.367 29.0324C122.426 29.1074 122.51 29.1449 122.617 29.1449H124.952C125.05 29.1449 125.123 29.1145 125.173 29.052C125.221 28.9895 125.246 28.9234 125.246 28.8502C125.246 28.7788 125.221 28.7109 125.173 28.6484ZM120.867 24.0371C120.867 23.9388 120.835 23.8656 120.774 23.8156C120.712 23.7674 120.646 23.7424 120.572 23.7424C120.499 23.7424 120.433 23.7674 120.371 23.8156C120.308 23.8656 120.278 23.9388 120.278 24.0371V28.8966C120.278 28.9949 120.308 29.0681 120.371 29.1145C120.433 29.161 120.499 29.1842 120.572 29.1842C120.646 29.1842 120.712 29.161 120.774 29.1145C120.835 29.0681 120.867 28.9949 120.867 28.8966V24.0371ZM118.72 26.5177C118.72 26.4392 118.69 26.3713 118.631 26.3124C118.572 26.2516 118.504 26.2231 118.426 26.2231H117.318C117.218 26.2231 117.145 26.2534 117.097 26.3159C117.047 26.3784 117.024 26.4445 117.024 26.5177C117.024 26.5892 117.047 26.6571 117.097 26.7196C117.145 26.7803 117.218 26.8124 117.318 26.8124H118.131V27.7143C118.131 27.8376 118.108 27.9537 118.061 28.059C118.015 28.1644 117.952 28.2573 117.872 28.3358C117.792 28.4162 117.699 28.4787 117.593 28.5252C117.486 28.5716 117.372 28.5948 117.247 28.5948H117.17C117.047 28.5948 116.931 28.5716 116.826 28.5252C116.72 28.4787 116.627 28.4162 116.547 28.3358C116.467 28.2555 116.402 28.1626 116.356 28.0572C116.309 27.9519 116.286 27.8358 116.286 27.7125V25.2051C116.286 25.0872 116.309 24.9747 116.356 24.8693C116.402 24.7639 116.467 24.6711 116.547 24.5907C116.627 24.5103 116.72 24.4478 116.826 24.4014C116.931 24.355 117.047 24.3317 117.17 24.3317H117.247C117.501 24.3317 117.702 24.4032 117.849 24.5478C117.997 24.6925 118.09 24.8747 118.131 25.0908C118.147 25.1783 118.183 25.2426 118.24 25.2819C118.297 25.3194 118.36 25.339 118.426 25.339C118.499 25.339 118.565 25.314 118.628 25.2658C118.69 25.2158 118.72 25.1461 118.72 25.0515V25.0051C118.695 24.8247 118.64 24.6568 118.554 24.5014C118.469 24.346 118.361 24.2139 118.229 24.1031C118.097 23.9924 117.947 23.9031 117.779 23.8388C117.611 23.7745 117.435 23.7424 117.247 23.7424H117.17C116.968 23.7424 116.777 23.7817 116.597 23.8585C116.417 23.9371 116.259 24.0406 116.129 24.1728C115.997 24.305 115.891 24.4585 115.815 24.6371C115.736 24.8157 115.697 25.0086 115.697 25.2158V27.7197C115.697 27.9251 115.736 28.118 115.815 28.2966C115.891 28.4751 115.997 28.6287 116.129 28.7609C116.259 28.8931 116.417 28.9966 116.597 29.0717C116.777 29.1467 116.968 29.1842 117.17 29.1842H117.247C117.449 29.1842 117.642 29.1467 117.822 29.0717C118.002 28.9966 118.16 28.8931 118.29 28.7609C118.422 28.6287 118.528 28.4751 118.604 28.2966C118.681 28.118 118.72 27.9251 118.72 27.7197V26.5177ZM114.311 29.0717C114.186 28.8716 114.075 28.6466 113.98 28.393C113.886 28.1394 113.809 27.8626 113.752 27.5643C113.695 27.2643 113.666 26.9482 113.666 26.6178C113.666 26.2981 113.695 25.9891 113.752 25.6909C113.809 25.3944 113.884 25.1194 113.977 24.8657C114.07 24.6139 114.177 24.3853 114.298 24.1835C114.42 23.9835 114.545 23.8174 114.673 23.6888C114.731 23.6317 114.759 23.5691 114.759 23.5013C114.759 23.4298 114.727 23.362 114.666 23.3013C114.593 23.2441 114.527 23.2155 114.464 23.2155C114.391 23.2155 114.325 23.2459 114.264 23.3084C114.104 23.4745 113.952 23.6745 113.809 23.9085C113.668 24.1442 113.545 24.4032 113.443 24.6872C113.338 24.9729 113.255 25.2765 113.193 25.6033C113.13 25.9284 113.102 26.2659 113.102 26.6178C113.102 26.975 113.13 27.3196 113.193 27.6536C113.255 27.9858 113.339 28.2966 113.445 28.5823C113.552 28.8698 113.677 29.1288 113.822 29.3628C113.966 29.5949 114.122 29.7914 114.286 29.9503C114.348 30.0129 114.413 30.0432 114.479 30.0432C114.559 30.0432 114.627 30.0129 114.69 29.9503C114.756 29.8986 114.79 29.8343 114.79 29.7575C114.79 29.6896 114.759 29.6253 114.698 29.5628C114.563 29.4342 114.432 29.2699 114.311 29.0717ZM109.934 28.6966C109.891 28.6395 109.821 28.6055 109.728 28.5948C109.61 28.5841 109.505 28.5412 109.416 28.4662C109.325 28.393 109.28 28.2876 109.28 28.1537V25.9748H109.698C109.796 25.9748 109.869 25.9445 109.919 25.882C109.967 25.8194 109.992 25.7534 109.992 25.6801C109.992 25.6069 109.967 25.5408 109.919 25.4783C109.869 25.4158 109.796 25.3855 109.698 25.3855H109.28V24.0371C109.28 23.9388 109.248 23.8656 109.187 23.8156C109.124 23.7674 109.057 23.7424 108.985 23.7424C108.912 23.7424 108.846 23.7674 108.783 23.8156C108.721 23.8656 108.691 23.9388 108.691 24.0371V25.3855H108.419C108.321 25.3855 108.248 25.4158 108.198 25.4783C108.149 25.5408 108.124 25.6069 108.124 25.6801C108.124 25.7534 108.149 25.8194 108.198 25.882C108.248 25.9445 108.321 25.9748 108.419 25.9748H108.691V28.168C108.691 28.3073 108.716 28.4394 108.767 28.5627C108.819 28.6877 108.892 28.7966 108.985 28.8895C109.078 28.9824 109.187 29.0538 109.31 29.1056C109.433 29.1574 109.566 29.1842 109.705 29.1842C109.809 29.1842 109.884 29.1538 109.93 29.0931C109.976 29.0324 110 28.9663 110 28.8931C110 28.8198 109.978 28.7538 109.934 28.6966ZM106.869 25.6569C106.869 25.5587 106.838 25.4855 106.776 25.4355C106.713 25.3872 106.647 25.3622 106.574 25.3622C106.503 25.3622 106.435 25.3872 106.372 25.4355C106.312 25.4855 106.279 25.5587 106.279 25.6569V28.8966C106.279 28.9949 106.312 29.0681 106.372 29.1145C106.435 29.161 106.503 29.1842 106.574 29.1842C106.647 29.1842 106.713 29.161 106.776 29.1145C106.838 29.0681 106.869 28.9949 106.869 28.8966V25.6569ZM106.869 24.0371C106.869 23.9388 106.838 23.8656 106.776 23.8156C106.713 23.7674 106.647 23.7424 106.574 23.7424C106.503 23.7424 106.435 23.7674 106.372 23.8156C106.312 23.8656 106.279 23.9388 106.279 24.0371V24.2067C106.279 24.305 106.312 24.38 106.372 24.4282C106.435 24.4782 106.503 24.5014 106.574 24.5014C106.647 24.5014 106.713 24.4782 106.776 24.4282C106.838 24.38 106.869 24.305 106.869 24.2067V24.0371ZM104.372 27.0053H102.975V26.616C102.975 26.4285 103.042 26.2695 103.174 26.1427C103.306 26.0159 103.461 25.9516 103.643 25.9516H103.72C103.892 25.9516 104.042 26.0159 104.174 26.1427C104.306 26.2695 104.372 26.4302 104.372 26.6231V27.0053ZM104.96 26.6178C104.96 26.4374 104.928 26.2713 104.863 26.1177C104.799 25.9659 104.71 25.8319 104.597 25.7194C104.483 25.6051 104.349 25.5176 104.197 25.4551C104.045 25.3944 103.883 25.3622 103.713 25.3622H103.634C103.465 25.3622 103.304 25.3944 103.15 25.4587C102.999 25.523 102.865 25.6123 102.752 25.7266C102.638 25.8409 102.549 25.973 102.484 26.1266C102.42 26.2784 102.388 26.4392 102.388 26.6106V27.9429C102.388 28.1197 102.42 28.2823 102.484 28.4323C102.549 28.5823 102.638 28.7127 102.752 28.8234C102.865 28.9341 102.999 29.0216 103.15 29.0859C103.304 29.152 103.465 29.1842 103.634 29.1842H103.713C103.976 29.1842 104.208 29.1163 104.406 28.9788C104.606 28.8431 104.751 28.6662 104.844 28.4466C104.865 28.4109 104.876 28.368 104.876 28.3162C104.876 28.2269 104.844 28.1555 104.783 28.0983C104.72 28.0412 104.651 28.0126 104.574 28.0126C104.522 28.0126 104.472 28.0269 104.426 28.0555C104.379 28.084 104.344 28.1322 104.317 28.2001C104.265 28.3073 104.19 28.4001 104.088 28.4787C103.988 28.5555 103.863 28.5948 103.713 28.5948H103.634C103.454 28.5948 103.299 28.5305 103.17 28.4019C103.042 28.2733 102.975 28.1197 102.975 27.9412V27.5482H104.667C104.749 27.5482 104.819 27.5179 104.876 27.4589C104.933 27.4 104.96 27.3304 104.96 27.2536V26.6178ZM100.525 27.9376C100.525 28.118 100.461 28.2733 100.332 28.4019C100.202 28.5305 100.045 28.5948 99.859 28.5948H99.7893C99.6125 28.5948 99.4589 28.5412 99.3286 28.4323C99.1964 28.3233 99.1303 28.1751 99.1303 27.984V26.5463C99.1303 26.3659 99.1964 26.2213 99.3286 26.1141C99.4589 26.0052 99.6125 25.9516 99.7893 25.9516H99.859C100.045 25.9516 100.202 26.0159 100.332 26.1445C100.461 26.2731 100.525 26.4285 100.525 26.6088V27.9376ZM101.115 26.6106C101.115 26.4392 101.082 26.2784 101.018 26.1266C100.954 25.973 100.864 25.8409 100.75 25.7266C100.636 25.6123 100.504 25.523 100.352 25.4587C100.198 25.3944 100.034 25.3622 99.859 25.3622H99.8054C99.6697 25.3622 99.5411 25.3837 99.4179 25.4283C99.2928 25.473 99.1982 25.5355 99.1303 25.6176V24.0371C99.1303 23.9388 99.1 23.8656 99.0375 23.8156C98.9749 23.7674 98.9089 23.7424 98.8356 23.7424C98.7642 23.7424 98.6963 23.7674 98.6338 23.8156C98.5731 23.8656 98.541 23.9388 98.541 24.0371V28.9127C98.541 29.0056 98.5731 29.0734 98.6338 29.1181C98.6963 29.161 98.7642 29.1842 98.8356 29.1842C98.9035 29.1842 98.9642 29.1645 99.0214 29.1288C99.0785 29.0913 99.1125 29.0342 99.1232 28.9556C99.1785 29.0127 99.2625 29.0663 99.375 29.1127C99.4857 29.1592 99.6232 29.1842 99.7893 29.1842H99.859C100.029 29.1842 100.191 29.152 100.343 29.0859C100.497 29.0216 100.629 28.9341 100.743 28.8234C100.856 28.7127 100.947 28.5823 101.014 28.4323C101.081 28.2823 101.115 28.1197 101.115 27.9429V26.6106ZM97.2783 25.7426C97.1854 25.6069 97.0658 25.5105 96.9175 25.4515C96.7711 25.3926 96.6228 25.3622 96.4728 25.3622C96.3692 25.3622 96.2835 25.3694 96.2174 25.3855C96.1496 25.4015 96.0924 25.4194 96.046 25.439C95.9888 25.4605 95.946 25.4873 95.9138 25.5176C95.8888 25.4605 95.8531 25.4212 95.8067 25.398C95.7602 25.3747 95.7102 25.3622 95.6584 25.3622C95.587 25.3622 95.5173 25.389 95.4531 25.439C95.3888 25.4908 95.3566 25.5641 95.3566 25.6569V28.8806C95.3566 28.9841 95.387 29.0609 95.4495 29.1092C95.512 29.1592 95.5781 29.1842 95.6513 29.1842C95.7227 29.1842 95.7906 29.1592 95.8531 29.1092C95.9138 29.0609 95.946 28.9841 95.946 28.8806V26.4713C95.946 26.4088 95.9513 26.3463 95.9603 26.2838C95.971 26.2231 95.9942 26.1677 96.0299 26.1177C96.0674 26.0695 96.1192 26.0284 96.1853 25.998C96.2532 25.9677 96.346 25.9516 96.4657 25.9516C96.5621 25.9516 96.6389 25.9712 96.6943 26.0088C96.7479 26.048 96.7907 26.0838 96.8211 26.1141C96.8943 26.1873 96.9729 26.2231 97.0622 26.2231C97.139 26.2231 97.2069 26.1963 97.264 26.1445C97.3194 26.0945 97.3479 26.0266 97.3479 25.9445C97.3479 25.882 97.3247 25.8141 97.2783 25.7426ZM93.1456 27.9358C93.1456 28.1215 93.0795 28.2787 92.9474 28.4037C92.817 28.5305 92.6598 28.5948 92.4794 28.5948H92.4098C92.2133 28.5948 92.0544 28.5448 91.9329 28.4466C91.8115 28.3483 91.7508 28.218 91.7508 28.0519V27.9894C91.7508 27.8554 91.7954 27.7518 91.8865 27.6804C91.9776 27.6072 92.0919 27.55 92.2312 27.509C92.3705 27.4679 92.5223 27.4357 92.6848 27.4125C92.8474 27.3893 93.0009 27.3589 93.1456 27.3232V27.9358ZM94.1261 28.7145C94.0886 28.6609 94.0243 28.6252 93.9368 28.6091C93.8028 28.5841 93.735 28.4984 93.735 28.3537V26.557C93.735 26.3909 93.7046 26.2356 93.6421 26.0909C93.5796 25.9462 93.4957 25.8194 93.3867 25.7105C93.2778 25.6033 93.1492 25.5176 92.9992 25.4551C92.8491 25.3944 92.6884 25.3622 92.5187 25.3622H92.4634C92.3598 25.3622 92.2544 25.3747 92.1455 25.398C92.0383 25.4212 91.9312 25.4587 91.8276 25.514C91.724 25.5676 91.6276 25.6408 91.5383 25.7337C91.4472 25.8266 91.3704 25.9445 91.3097 26.0838C91.2882 26.1195 91.2775 26.1659 91.2775 26.2231C91.2775 26.3052 91.3097 26.3713 91.3704 26.4195C91.4329 26.4695 91.5007 26.4945 91.5722 26.4945C91.624 26.4945 91.6722 26.482 91.7204 26.4588C91.7669 26.4356 91.8044 26.3963 91.8365 26.3392C91.9079 26.2106 91.9919 26.1123 92.0848 26.048C92.1776 25.9837 92.3044 25.9516 92.4634 25.9516H92.5187C92.6884 25.9516 92.8349 25.998 92.9599 26.0909C93.0831 26.1838 93.1456 26.3463 93.1456 26.5785C93.1456 26.5999 93.1438 26.6231 93.142 26.6499C93.1402 26.6749 93.1331 26.6963 93.1224 26.7106C93.092 26.7517 93.0206 26.7839 92.9099 26.8071C92.7991 26.8303 92.6705 26.8553 92.5259 26.8821C92.3812 26.9071 92.2294 26.941 92.0687 26.9821C91.9079 27.0232 91.7615 27.0839 91.6258 27.1643C91.4918 27.2446 91.3811 27.35 91.2936 27.4822C91.2061 27.6143 91.1614 27.7804 91.1614 27.9822V28.0751C91.1614 28.2555 91.1971 28.4162 91.2704 28.5555C91.3418 28.6948 91.4365 28.8109 91.5525 28.9038C91.6686 28.9966 91.8026 29.0681 91.9526 29.1145C92.1026 29.161 92.2544 29.1842 92.4098 29.1842H92.4794C92.8045 29.1842 93.0831 29.0824 93.3171 28.8806C93.3688 28.9538 93.4349 29.0163 93.5189 29.0681C93.601 29.1199 93.71 29.1556 93.8439 29.1752C93.8493 29.1806 93.8671 29.1842 93.8975 29.1842C93.9904 29.1842 94.0618 29.1538 94.11 29.0949C94.16 29.0359 94.185 28.9663 94.185 28.8895C94.185 28.827 94.1654 28.7698 94.1261 28.7145ZM89.9505 26.6106C89.9505 26.3981 89.9184 26.2141 89.8505 26.057C89.7827 25.898 89.6934 25.7677 89.5791 25.6641C89.4648 25.5605 89.3326 25.4855 89.1844 25.4355C89.0344 25.3872 88.8754 25.3622 88.7111 25.3622H88.6414C88.5075 25.3622 88.3807 25.3837 88.261 25.4247C88.1432 25.4658 88.0467 25.523 87.9753 25.5944C87.9592 25.5176 87.9235 25.4587 87.8663 25.4212C87.8092 25.3819 87.7467 25.3622 87.6806 25.3622C87.602 25.3622 87.5324 25.389 87.4699 25.439C87.4091 25.4908 87.377 25.5641 87.377 25.6569V28.8966C87.377 28.9949 87.4091 29.0681 87.4699 29.1145C87.5324 29.161 87.6002 29.1842 87.6717 29.1842C87.7449 29.1842 87.811 29.161 87.8735 29.1145C87.936 29.0681 87.9664 28.9949 87.9664 28.8966V26.6106C87.9664 26.4249 88.0324 26.2677 88.1628 26.1409C88.295 26.0141 88.4503 25.9516 88.6307 25.9516H88.6986C88.8843 25.9516 89.0415 26.0159 89.1701 26.1445C89.2969 26.2749 89.3612 26.4302 89.3612 26.6106V28.8966C89.3612 28.9949 89.3933 29.0681 89.4558 29.1145C89.5183 29.161 89.588 29.1842 89.6612 29.1842C89.7344 29.1842 89.8005 29.161 89.8612 29.1145C89.9202 29.0681 89.9505 28.9949 89.9505 28.8966V26.6106ZM85.5125 27.0053H84.1176V26.616C84.1176 26.4285 84.1837 26.2695 84.3141 26.1427C84.4462 26.0159 84.6034 25.9516 84.7838 25.9516H84.8606C85.032 25.9516 85.1821 26.0159 85.3142 26.1427C85.4464 26.2695 85.5125 26.4302 85.5125 26.6231V27.0053ZM86.1018 26.6178C86.1018 26.4374 86.0679 26.2713 86.0036 26.1177C85.9393 25.9659 85.85 25.8319 85.7375 25.7194C85.6232 25.6051 85.491 25.5176 85.3374 25.4551C85.1856 25.3944 85.0231 25.3622 84.8534 25.3622H84.7749C84.6052 25.3622 84.4445 25.3944 84.2909 25.4587C84.1391 25.523 84.0051 25.6123 83.8926 25.7266C83.7783 25.8409 83.689 25.973 83.6247 26.1266C83.5604 26.2784 83.5283 26.4392 83.5283 26.6106V27.9429C83.5283 28.1197 83.5604 28.2823 83.6247 28.4323C83.689 28.5823 83.7783 28.7127 83.8926 28.8234C84.0051 28.9341 84.1391 29.0216 84.2909 29.0859C84.4445 29.152 84.6052 29.1842 84.7749 29.1842H84.8534C85.116 29.1842 85.3482 29.1163 85.5464 28.9788C85.7464 28.8431 85.8911 28.6662 85.9839 28.4466C86.0054 28.4109 86.0161 28.368 86.0161 28.3162C86.0161 28.2269 85.984 28.1555 85.9232 28.0983C85.8607 28.0412 85.7911 28.0126 85.7143 28.0126C85.6625 28.0126 85.6125 28.0269 85.566 28.0555C85.5196 28.084 85.4839 28.1322 85.4571 28.2001C85.4071 28.3073 85.3303 28.4001 85.2285 28.4787C85.1285 28.5555 85.0035 28.5948 84.8534 28.5948H84.7749C84.5945 28.5948 84.4391 28.5305 84.3105 28.4019C84.1819 28.2733 84.1176 28.1197 84.1176 27.9412V27.5482H85.8071C85.8893 27.5482 85.9589 27.5179 86.0161 27.4589C86.0732 27.4 86.1018 27.3304 86.1018 27.2536V26.6178ZM82.2299 26.6017C82.2299 26.3909 82.196 26.2052 82.1299 26.048C82.062 25.8909 81.9709 25.7623 81.8548 25.6605C81.7388 25.5605 81.6048 25.4855 81.4548 25.4355C81.3048 25.3872 81.1476 25.3622 80.9833 25.3622H80.9136C80.7172 25.3622 80.5368 25.4033 80.3743 25.4819C80.2118 25.5623 80.0707 25.6694 79.951 25.8034C79.8331 25.6694 79.692 25.5623 79.5295 25.4819C79.367 25.4033 79.1866 25.3622 78.9902 25.3622H78.9205C78.7866 25.3622 78.6598 25.3837 78.5419 25.4247C78.4222 25.4658 78.3258 25.523 78.2544 25.5944C78.2383 25.5176 78.2026 25.4587 78.1454 25.4212C78.0883 25.3819 78.0293 25.3622 77.9668 25.3622C77.89 25.3622 77.8204 25.389 77.7579 25.439C77.6954 25.4908 77.665 25.5641 77.665 25.6569V28.8966C77.665 28.9949 77.6954 29.0681 77.7579 29.1145C77.8204 29.161 77.8865 29.1842 77.9597 29.1842C78.0311 29.1842 78.099 29.161 78.1615 29.1145C78.224 29.0681 78.2544 28.9949 78.2544 28.8966V26.5481C78.2544 26.3677 78.3204 26.2231 78.4562 26.1141C78.5901 26.0052 78.7455 25.9516 78.9205 25.9516H78.9902C79.1759 25.9516 79.3349 26.0141 79.4634 26.1373C79.592 26.2624 79.6563 26.4213 79.6563 26.6178V28.8806C79.6563 28.9841 79.6885 29.0609 79.751 29.1092C79.8117 29.1592 79.8796 29.1842 79.951 29.1842C80.0242 29.1842 80.0921 29.1592 80.1528 29.1092C80.2153 29.0609 80.2457 28.9841 80.2457 28.8806V26.6178C80.2457 26.4267 80.31 26.2677 80.4404 26.1409C80.5689 26.0141 80.7261 25.9516 80.9136 25.9516H80.9833C81.178 25.9516 81.3387 26.0052 81.4584 26.1141C81.5798 26.2231 81.6405 26.3856 81.6405 26.6017V28.8966C81.6405 28.9949 81.6727 29.0681 81.7352 29.1145C81.7959 29.161 81.8638 29.1842 81.9352 29.1842C82.0084 29.1842 82.0763 29.161 82.137 29.1145C82.1995 29.0681 82.2299 28.9949 82.2299 28.8966V26.6017ZM76.2952 26.6017C76.2952 26.3909 76.2612 26.2052 76.1934 26.048C76.1273 25.8909 76.0344 25.7623 75.9183 25.6605C75.8023 25.5605 75.6701 25.4855 75.5201 25.4355C75.3701 25.3872 75.2129 25.3622 75.0468 25.3622H74.9771C74.7807 25.3622 74.6021 25.4033 74.4378 25.4819C74.2753 25.5623 74.1342 25.6694 74.0163 25.8034C73.8966 25.6694 73.7573 25.5623 73.593 25.4819C73.4305 25.4033 73.2519 25.3622 73.0555 25.3622H72.9858C72.8501 25.3622 72.7233 25.3837 72.6054 25.4247C72.4857 25.4658 72.3911 25.523 72.3179 25.5944C72.3036 25.5176 72.2661 25.4587 72.2107 25.4212C72.1536 25.3819 72.0946 25.3622 72.0321 25.3622C71.9535 25.3622 71.8839 25.389 71.8232 25.439C71.7606 25.4908 71.7303 25.5641 71.7303 25.6569V28.8966C71.7303 28.9949 71.7606 29.0681 71.8232 29.1145C71.8839 29.161 71.9517 29.1842 72.0232 29.1842C72.0964 29.1842 72.1643 29.161 72.225 29.1145C72.2875 29.0681 72.3179 28.9949 72.3179 28.8966V26.5481C72.3179 26.3677 72.3857 26.2231 72.5197 26.1141C72.6536 26.0052 72.809 25.9516 72.9858 25.9516H73.0555C73.2412 25.9516 73.3984 26.0141 73.527 26.1373C73.6573 26.2624 73.7216 26.4213 73.7216 26.6178V28.8806C73.7216 28.9841 73.752 29.0609 73.8145 29.1092C73.877 29.1592 73.9431 29.1842 74.0163 29.1842C74.0877 29.1842 74.1556 29.1592 74.2181 29.1092C74.2788 29.0609 74.311 28.9841 74.311 28.8806V26.6178C74.311 26.4267 74.3753 26.2677 74.5039 26.1409C74.6342 26.0141 74.7914 25.9516 74.9771 25.9516H75.0468C75.2433 25.9516 75.4022 26.0052 75.5236 26.1141C75.6451 26.2231 75.7058 26.3856 75.7058 26.6017V28.8966C75.7058 28.9949 75.7362 29.0681 75.7987 29.1145C75.8612 29.161 75.9273 29.1842 76.0005 29.1842C76.0719 29.1842 76.1398 29.161 76.2023 29.1145C76.2648 29.0681 76.2952 28.9949 76.2952 28.8966V26.6017ZM69.4978 27.9358C69.4978 28.1215 69.4318 28.2787 69.2996 28.4037C69.1692 28.5305 69.0121 28.5948 68.8317 28.5948H68.762C68.5656 28.5948 68.4066 28.5448 68.2852 28.4466C68.1637 28.3483 68.103 28.218 68.103 28.0519V27.9894C68.103 27.8554 68.1477 27.7518 68.2388 27.6804C68.3281 27.6072 68.4441 27.55 68.5834 27.509C68.7227 27.4679 68.8746 27.4357 69.0371 27.4125C69.1996 27.3893 69.3532 27.3589 69.4978 27.3232V27.9358ZM70.4783 28.7145C70.439 28.6609 70.3765 28.6252 70.289 28.6091C70.1533 28.5841 70.0872 28.4984 70.0872 28.3537V26.557C70.0872 26.3909 70.0569 26.2356 69.9943 26.0909C69.9318 25.9462 69.8461 25.8194 69.739 25.7105C69.63 25.6033 69.5014 25.5176 69.3514 25.4551C69.2014 25.3944 69.0406 25.3622 68.871 25.3622H68.8156C68.712 25.3622 68.6067 25.3747 68.4977 25.398C68.3888 25.4212 68.2834 25.4587 68.1798 25.514C68.0762 25.5676 67.9798 25.6408 67.8905 25.7337C67.7994 25.8266 67.7226 25.9445 67.6601 26.0838C67.6405 26.1195 67.6297 26.1659 67.6297 26.2231C67.6297 26.3052 67.6601 26.3713 67.7226 26.4195C67.7851 26.4695 67.853 26.4945 67.9244 26.4945C67.9762 26.4945 68.0244 26.482 68.0727 26.4588C68.1191 26.4356 68.1566 26.3963 68.1888 26.3392C68.2602 26.2106 68.3423 26.1123 68.437 26.048C68.5299 25.9837 68.6549 25.9516 68.8156 25.9516H68.871C69.0406 25.9516 69.1871 25.998 69.3121 26.0909C69.4353 26.1838 69.4978 26.3463 69.4978 26.5785C69.4978 26.5999 69.4961 26.6231 69.4943 26.6499C69.4907 26.6749 69.4853 26.6963 69.4746 26.7106C69.4443 26.7517 69.3728 26.7839 69.2621 26.8071C69.1496 26.8303 69.0228 26.8553 68.8781 26.8821C68.7335 26.9071 68.5799 26.941 68.4209 26.9821C68.2602 27.0232 68.1137 27.0839 67.978 27.1643C67.8441 27.2446 67.7333 27.35 67.6458 27.4822C67.5583 27.6143 67.5137 27.7804 67.5137 27.9822V28.0751C67.5137 28.2555 67.5494 28.4162 67.6226 28.5555C67.694 28.6948 67.7887 28.8109 67.9048 28.9038C68.0209 28.9966 68.1548 29.0681 68.3048 29.1145C68.4549 29.161 68.6067 29.1842 68.762 29.1842H68.8317C69.1567 29.1842 69.4353 29.0824 69.6693 28.8806C69.7193 28.9538 69.7872 29.0163 69.8693 29.0681C69.9533 29.1199 70.0604 29.1556 70.1962 29.1752C70.2015 29.1806 70.2194 29.1842 70.2497 29.1842C70.3426 29.1842 70.414 29.1538 70.4623 29.0949C70.5123 29.0359 70.5373 28.9663 70.5373 28.8895C70.5373 28.827 70.5176 28.7698 70.4783 28.7145ZM66.3885 28.0697C66.3885 27.8179 66.3367 27.6197 66.2367 27.475C66.1349 27.3304 66.0117 27.2178 65.8652 27.1393C65.717 27.0589 65.5563 27 65.3794 26.9607C65.2044 26.9214 65.0437 26.8839 64.8955 26.8446C64.749 26.8053 64.624 26.7535 64.524 26.6892C64.4222 26.6249 64.3722 26.5267 64.3722 26.3927V26.3695C64.3775 26.2552 64.4365 26.157 64.5508 26.0748C64.6651 25.9927 64.8294 25.9516 65.0473 25.9516H65.0776C65.2526 25.9516 65.3902 25.9766 65.4884 26.0248C65.5866 26.0748 65.6777 26.1195 65.7599 26.1606C65.8224 26.1909 65.8777 26.207 65.9295 26.207C66.0135 26.207 66.0795 26.1784 66.1313 26.1213C66.1831 26.0659 66.2099 25.9998 66.2099 25.9284C66.2099 25.8337 66.1724 25.7587 66.101 25.6998C66.0706 25.6748 66.0242 25.6408 65.9652 25.6016C65.9063 25.5623 65.8331 25.5265 65.7474 25.4926C65.6634 25.4587 65.5652 25.4283 65.4545 25.4015C65.3419 25.3747 65.2205 25.3622 65.0848 25.3622H65.0544C64.9312 25.3622 64.7954 25.3801 64.6472 25.4122C64.5008 25.4462 64.3632 25.5015 64.2364 25.5783C64.1096 25.6569 64.0025 25.7587 63.915 25.8837C63.8275 26.0105 63.7828 26.1659 63.7828 26.3517C63.7828 26.5945 63.8328 26.7821 63.9346 26.9124C64.0346 27.0446 64.1596 27.1464 64.3061 27.2178C64.4543 27.2911 64.6151 27.3429 64.7901 27.3768C64.9669 27.4107 65.1276 27.45 65.2759 27.4964C65.4223 27.5429 65.5473 27.6054 65.6473 27.6858C65.7474 27.7661 65.7991 27.8876 65.7991 28.0537V28.0769C65.7938 28.2055 65.7277 28.3233 65.6009 28.4323C65.4741 28.5394 65.2919 28.5948 65.0544 28.5948H65.0151C64.8705 28.5948 64.724 28.5448 64.574 28.4466C64.424 28.3483 64.3007 28.2358 64.2025 28.1072C64.165 28.0555 64.1239 28.0197 64.0775 28.0019C64.0311 27.984 63.9846 27.9751 63.9382 27.9751C63.8614 27.9751 63.7917 28.0001 63.7292 28.0519C63.6667 28.1037 63.6364 28.1733 63.6364 28.2608C63.6364 28.2823 63.6489 28.3305 63.6739 28.4091C63.7364 28.5269 63.8167 28.6359 63.915 28.7323C64.0132 28.8288 64.1221 28.9109 64.24 28.9752C64.3597 29.0413 64.4847 29.0913 64.6169 29.1288C64.749 29.1645 64.8758 29.1842 65.0008 29.1842H65.0473C65.2062 29.1842 65.3669 29.161 65.5277 29.1145C65.6866 29.0681 65.8313 29.0002 65.9617 28.9091C66.0903 28.8181 66.1938 28.7073 66.2706 28.5734C66.3492 28.4394 66.3885 28.2823 66.3885 28.1001V28.0697ZM62.4183 25.6569C62.4183 25.5587 62.3862 25.4855 62.3237 25.4355C62.263 25.3872 62.1951 25.3622 62.1237 25.3622C62.0504 25.3622 61.9844 25.3872 61.9218 25.4355C61.8593 25.4855 61.829 25.5587 61.829 25.6569V27.9376C61.829 28.118 61.7629 28.2733 61.6343 28.4019C61.5057 28.5305 61.3486 28.5948 61.161 28.5948H61.0914C60.911 28.5948 60.7556 28.5305 60.627 28.4019C60.4985 28.2733 60.4342 28.118 60.4342 27.9376V25.6569C60.4342 25.5587 60.402 25.4855 60.3395 25.4355C60.2788 25.3872 60.2109 25.3622 60.1395 25.3622C60.0663 25.3622 60.0002 25.3872 59.9377 25.4355C59.8752 25.4855 59.8448 25.5587 59.8448 25.6569V27.9429C59.8448 28.1608 59.8769 28.3466 59.9448 28.5019C60.0127 28.6573 60.102 28.7841 60.2163 28.8859C60.3306 28.9859 60.4627 29.0609 60.6145 29.1092C60.7681 29.1592 60.9271 29.1842 61.0914 29.1842H61.161C61.2968 29.1842 61.4236 29.1645 61.5414 29.1252C61.6611 29.0859 61.7558 29.0288 61.829 28.9556C61.8433 29.0342 61.8808 29.0913 61.9361 29.1288C61.9933 29.1645 62.0558 29.1842 62.1237 29.1842C62.1951 29.1842 62.263 29.1592 62.3237 29.1092C62.3862 29.0609 62.4183 28.9895 62.4183 28.8966V25.6569ZM58.6196 28.6484C58.5714 28.5877 58.4964 28.5555 58.3982 28.5555H56.4461L58.6464 24.3317C58.6821 24.2639 58.7018 24.1978 58.7018 24.1299C58.7018 24.0371 58.6679 23.9567 58.6 23.8888C58.5339 23.8228 58.4482 23.7888 58.3446 23.7888H56.1282C56.0246 23.7888 55.9496 23.8192 55.9032 23.8817C55.8568 23.9442 55.8335 24.0103 55.8335 24.0835C55.8335 24.1567 55.8568 24.2228 55.9032 24.2853C55.9496 24.346 56.0246 24.3782 56.1282 24.3782H57.9642L55.771 28.5877C55.7407 28.643 55.7246 28.7055 55.7246 28.7734C55.7246 28.8716 55.755 28.9574 55.8139 29.0324C55.8728 29.1074 55.9568 29.1449 56.0657 29.1449H58.3982C58.4964 29.1449 58.5714 29.1145 58.6196 29.052C58.6679 28.9895 58.6929 28.9234 58.6929 28.8502C58.6929 28.7788 58.6679 28.7109 58.6196 28.6484Z" fill="#C80D0F"/>
<path d="M112.85 18.5338H111.455V18.1427C111.455 17.9551 111.521 17.798 111.653 17.6712C111.785 17.5444 111.941 17.4801 112.121 17.4801H112.198C112.369 17.4801 112.519 17.5444 112.653 17.6712C112.784 17.798 112.85 17.9587 112.85 18.1516V18.5338ZM113.439 18.1462C113.439 17.9659 113.407 17.7998 113.341 17.6462C113.277 17.4944 113.189 17.3604 113.075 17.2479C112.96 17.1336 112.828 17.0461 112.677 16.9836C112.523 16.9211 112.362 16.8907 112.191 16.8907H112.114C111.943 16.8907 111.782 16.9229 111.63 16.9872C111.476 17.0515 111.344 17.1407 111.23 17.255C111.116 17.3693 111.026 17.5015 110.962 17.6533C110.898 17.8069 110.866 17.9676 110.866 18.1391V19.4714C110.866 19.6482 110.898 19.8107 110.962 19.9608C111.026 20.1108 111.116 20.2412 111.23 20.3519C111.344 20.4626 111.476 20.5501 111.63 20.6162C111.782 20.6805 111.943 20.7126 112.114 20.7126H112.191C112.455 20.7126 112.685 20.6448 112.885 20.5073C113.084 20.3715 113.23 20.1947 113.323 19.975C113.343 19.9393 113.353 19.8965 113.353 19.8447C113.353 19.7554 113.323 19.6839 113.261 19.6268C113.198 19.5696 113.128 19.5411 113.052 19.5411C113 19.5411 112.95 19.5554 112.903 19.5839C112.857 19.6125 112.821 19.6607 112.796 19.7286C112.743 19.8357 112.668 19.9286 112.566 20.0072C112.466 20.084 112.341 20.1233 112.191 20.1233H112.114C111.934 20.1233 111.778 20.059 111.648 19.9304C111.519 19.8018 111.455 19.6482 111.455 19.4696V19.0767H113.144C113.227 19.0767 113.296 19.0464 113.353 18.9874C113.411 18.9285 113.439 18.8588 113.439 18.782V18.1462ZM109.726 20.2179C109.68 20.1554 109.605 20.1233 109.503 20.1233C109.383 20.1179 109.283 20.0733 109.199 19.9911C109.117 19.909 109.076 19.809 109.076 19.6893V15.5655C109.076 15.4673 109.046 15.3941 108.983 15.3441C108.921 15.2959 108.855 15.2709 108.781 15.2709C108.71 15.2709 108.642 15.2959 108.58 15.3441C108.517 15.3941 108.487 15.4673 108.487 15.5655V19.6964C108.487 19.8357 108.512 19.9679 108.563 20.0929C108.615 20.2162 108.689 20.3251 108.781 20.418C108.874 20.5108 108.983 20.5823 109.106 20.6341C109.231 20.6859 109.362 20.7126 109.503 20.7126C109.605 20.7126 109.68 20.6823 109.726 20.6216C109.773 20.5608 109.796 20.4948 109.796 20.4215C109.796 20.3483 109.773 20.2804 109.726 20.2179ZM106.274 19.4643C106.274 19.65 106.208 19.8072 106.076 19.934C105.945 20.059 105.788 20.1233 105.608 20.1233H105.538C105.342 20.1233 105.183 20.0733 105.061 19.975C104.94 19.8768 104.879 19.7464 104.879 19.5804V19.5178C104.879 19.3839 104.924 19.2803 105.015 19.2089C105.104 19.1357 105.22 19.0785 105.359 19.0374C105.499 18.9963 105.651 18.9642 105.813 18.941C105.976 18.9178 106.129 18.8874 106.274 18.8517V19.4643ZM107.254 20.2429C107.215 20.1894 107.153 20.1536 107.065 20.1394C106.929 20.1126 106.863 20.0268 106.863 19.8822V18.0837C106.863 17.9194 106.831 17.764 106.77 17.6194C106.708 17.4747 106.622 17.3479 106.515 17.239C106.406 17.13 106.276 17.0461 106.127 16.9836C105.977 16.9211 105.817 16.8907 105.647 16.8907H105.592C105.488 16.8907 105.383 16.9014 105.274 16.9246C105.165 16.9479 105.059 16.9872 104.956 17.0425C104.852 17.0961 104.756 17.1693 104.665 17.2622C104.575 17.3551 104.499 17.4711 104.436 17.6122C104.417 17.648 104.406 17.6944 104.406 17.7515C104.406 17.8337 104.436 17.8998 104.499 17.948C104.561 17.998 104.627 18.023 104.7 18.023C104.752 18.023 104.8 18.0105 104.847 17.9873C104.895 17.9641 104.933 17.9248 104.965 17.8676C105.036 17.7373 105.118 17.6408 105.211 17.5765C105.304 17.5122 105.431 17.4801 105.592 17.4801H105.647C105.817 17.4801 105.963 17.5265 106.088 17.6194C106.211 17.7123 106.274 17.8748 106.274 18.1069C106.274 18.1284 106.272 18.1516 106.27 18.1766C106.267 18.2034 106.261 18.223 106.251 18.2391C106.22 18.2802 106.149 18.3123 106.038 18.3355C105.926 18.3588 105.799 18.3838 105.654 18.4106C105.51 18.4356 105.356 18.4695 105.197 18.5106C105.036 18.5516 104.89 18.6124 104.754 18.6927C104.62 18.7731 104.509 18.8785 104.422 19.0106C104.334 19.1428 104.29 19.3089 104.29 19.5107V19.6036C104.29 19.784 104.325 19.9447 104.399 20.084C104.47 20.2233 104.565 20.3394 104.681 20.434C104.797 20.5269 104.931 20.5966 105.081 20.643C105.231 20.6894 105.383 20.7126 105.538 20.7126H105.608C105.933 20.7126 106.211 20.6108 106.445 20.4108C106.495 20.4823 106.563 20.5448 106.645 20.5966C106.729 20.6484 106.836 20.6841 106.972 20.7037C106.976 20.7091 106.995 20.7126 107.026 20.7126C107.119 20.7126 107.19 20.6823 107.238 20.6233C107.288 20.5644 107.313 20.4948 107.313 20.418C107.313 20.3555 107.294 20.2983 107.254 20.2429ZM103.079 18.1391C103.079 17.9266 103.045 17.7426 102.979 17.5837C102.911 17.4265 102.82 17.2961 102.707 17.1925C102.593 17.089 102.461 17.0139 102.311 16.9639C102.163 16.9157 102.004 16.8907 101.839 16.8907H101.77C101.634 16.8907 101.509 16.9121 101.389 16.9532C101.27 16.9943 101.175 17.0515 101.102 17.1229C101.088 17.0461 101.05 16.9872 100.995 16.9479C100.937 16.9104 100.875 16.8907 100.809 16.8907C100.73 16.8907 100.661 16.9157 100.598 16.9675C100.537 17.0193 100.505 17.0925 100.505 17.1854V20.4251C100.505 20.5233 100.537 20.5966 100.598 20.643C100.661 20.6894 100.729 20.7126 100.8 20.7126C100.873 20.7126 100.939 20.6894 101.002 20.643C101.064 20.5966 101.095 20.5233 101.095 20.4251V18.1391C101.095 17.9516 101.161 17.7962 101.291 17.6694C101.423 17.5426 101.579 17.4801 101.757 17.4801H101.827C102.013 17.4801 102.168 17.5444 102.297 17.673C102.425 17.8033 102.489 17.9569 102.489 18.1391V20.4251C102.489 20.5233 102.522 20.5966 102.584 20.643C102.647 20.6894 102.715 20.7126 102.788 20.7126C102.861 20.7126 102.929 20.6894 102.99 20.643C103.048 20.5966 103.079 20.5233 103.079 20.4251V18.1391ZM98.5711 19.4661C98.5711 19.6464 98.5068 19.8018 98.3782 19.9304C98.2478 20.059 98.0925 20.1233 97.9121 20.1233H97.8424C97.6567 20.1233 97.4995 20.059 97.3692 19.9304C97.2406 19.8018 97.1763 19.6464 97.1763 19.4661V18.1373C97.1763 17.9569 97.2406 17.8015 97.3692 17.673C97.4995 17.5444 97.6531 17.4801 97.8353 17.4801H97.9121C98.0925 17.4801 98.2478 17.5444 98.3782 17.673C98.5068 17.8015 98.5711 17.9569 98.5711 18.1373V19.4661ZM99.1605 18.1391C99.1605 17.9676 99.1283 17.8069 99.064 17.6533C98.9979 17.5015 98.9086 17.3693 98.7961 17.255C98.6818 17.1407 98.5497 17.0515 98.3961 16.9872C98.2443 16.9229 98.0835 16.8907 97.9121 16.8907H97.8353C97.6638 16.8907 97.5031 16.9229 97.3513 16.9872C97.1977 17.0515 97.0655 17.1407 96.9512 17.255C96.8369 17.3693 96.7476 17.5015 96.6833 17.6533C96.6191 17.8069 96.5869 17.9676 96.5869 18.1391V19.4714C96.5869 19.6482 96.6191 19.8107 96.6833 19.9608C96.7476 20.1108 96.8369 20.2412 96.9512 20.3519C97.0655 20.4626 97.1977 20.5501 97.3513 20.6162C97.5031 20.6805 97.6638 20.7126 97.8353 20.7126H97.9121C98.0835 20.7126 98.2443 20.6805 98.3961 20.6162C98.5497 20.5501 98.6818 20.4626 98.7961 20.3519C98.9086 20.2412 98.9979 20.1108 99.064 19.9608C99.1283 19.8107 99.1605 19.6482 99.1605 19.4714V18.1391ZM95.1992 17.1854C95.1992 17.0872 95.1689 17.0139 95.1064 16.9639C95.0438 16.9157 94.9778 16.8907 94.9045 16.8907C94.8331 16.8907 94.7652 16.9157 94.7027 16.9639C94.642 17.0139 94.6099 17.0872 94.6099 17.1854V20.4251C94.6099 20.5233 94.642 20.5966 94.7027 20.643C94.7652 20.6894 94.8331 20.7126 94.9045 20.7126C94.9778 20.7126 95.0438 20.6894 95.1064 20.643C95.1689 20.5966 95.1992 20.5233 95.1992 20.4251V17.1854ZM95.1992 15.5655C95.1992 15.4673 95.1689 15.3941 95.1064 15.3441C95.0438 15.2959 94.9778 15.2709 94.9045 15.2709C94.8331 15.2709 94.7652 15.2959 94.7027 15.3441C94.642 15.3941 94.6099 15.4673 94.6099 15.5655V15.7352C94.6099 15.8334 94.642 15.9084 94.7027 15.9567C94.7652 16.0049 94.8331 16.0299 94.9045 16.0299C94.9778 16.0299 95.0438 16.0049 95.1064 15.9567C95.1689 15.9084 95.1992 15.8334 95.1992 15.7352V15.5655ZM93.2918 20.2251C93.2472 20.1679 93.1793 20.134 93.0864 20.1233C92.9686 20.1126 92.8632 20.0697 92.7721 19.9947C92.6828 19.9215 92.6364 19.8161 92.6364 19.6822V17.5033H93.0561C93.1543 17.5033 93.2275 17.4711 93.2758 17.4104C93.3258 17.3479 93.3508 17.2801 93.3508 17.2086C93.3508 17.1354 93.3258 17.0693 93.2758 17.0068C93.2275 16.9443 93.1543 16.9139 93.0561 16.9139H92.6364V15.5655C92.6364 15.4673 92.606 15.3941 92.5435 15.3441C92.4828 15.2959 92.4149 15.2709 92.3417 15.2709C92.2703 15.2709 92.2024 15.2959 92.1417 15.3441C92.0792 15.3941 92.0488 15.4673 92.0488 15.5655V16.9139H91.7773C91.6791 16.9139 91.6041 16.9443 91.5559 17.0068C91.5059 17.0693 91.4827 17.1354 91.4827 17.2086C91.4827 17.2801 91.5059 17.3479 91.5559 17.4104C91.6041 17.4711 91.6791 17.5033 91.7773 17.5033H92.0488V19.6964C92.0488 19.8357 92.0738 19.9679 92.1256 20.0929C92.1774 20.2162 92.2488 20.3251 92.3417 20.418C92.4364 20.5108 92.5435 20.5823 92.6685 20.6341C92.7918 20.6859 92.9239 20.7126 93.0632 20.7126C93.1668 20.7126 93.2418 20.6823 93.2883 20.6216C93.3347 20.5608 93.3579 20.4948 93.3579 20.4215C93.3579 20.3483 93.3365 20.2822 93.2918 20.2251ZM89.686 19.4643C89.686 19.65 89.6199 19.8072 89.4878 19.934C89.3556 20.059 89.2002 20.1233 89.0181 20.1233H88.9502C88.7537 20.1233 88.5948 20.0733 88.4733 19.975C88.3519 19.8768 88.2912 19.7464 88.2912 19.5804V19.5178C88.2912 19.3839 88.3358 19.2803 88.4269 19.2089C88.5162 19.1357 88.6323 19.0785 88.7716 19.0374C88.9109 18.9963 89.0609 18.9642 89.2252 18.941C89.3877 18.9178 89.5413 18.8874 89.686 18.8517V19.4643ZM90.6665 20.2429C90.6272 20.1894 90.5647 20.1536 90.4754 20.1394C90.3414 20.1126 90.2754 20.0268 90.2754 19.8822V18.0837C90.2754 17.9194 90.2432 17.764 90.1807 17.6194C90.12 17.4747 90.0343 17.3479 89.9253 17.239C89.8182 17.13 89.6878 17.0461 89.5378 16.9836C89.3877 16.9211 89.2288 16.8907 89.0573 16.8907H89.0038C88.9002 16.8907 88.7948 16.9014 88.6859 16.9246C88.5769 16.9479 88.4716 16.9872 88.368 17.0425C88.2644 17.0961 88.1679 17.1693 88.0769 17.2622C87.9876 17.3551 87.9108 17.4711 87.8483 17.6122C87.8286 17.648 87.8179 17.6944 87.8179 17.7515C87.8179 17.8337 87.8483 17.8998 87.9108 17.948C87.9733 17.998 88.0394 18.023 88.1126 18.023C88.1644 18.023 88.2126 18.0105 88.259 17.9873C88.3055 17.9641 88.3447 17.9248 88.3751 17.8676C88.4483 17.7373 88.5305 17.6408 88.6234 17.5765C88.7162 17.5122 88.843 17.4801 89.0038 17.4801H89.0573C89.2288 17.4801 89.3752 17.5265 89.5003 17.6194C89.6235 17.7123 89.686 17.8748 89.686 18.1069C89.686 18.1284 89.6842 18.1516 89.6824 18.1766C89.6789 18.2034 89.6735 18.223 89.6628 18.2391C89.6306 18.2802 89.561 18.3123 89.4485 18.3355C89.3377 18.3588 89.2109 18.3838 89.0663 18.4106C88.9216 18.4356 88.768 18.4695 88.6091 18.5106C88.4483 18.5516 88.3001 18.6124 88.1662 18.6927C88.0322 18.7731 87.9215 18.8785 87.834 19.0106C87.7447 19.1428 87.7018 19.3089 87.7018 19.5107V19.6036C87.7018 19.784 87.7375 19.9447 87.809 20.084C87.8822 20.2233 87.9768 20.3394 88.0929 20.434C88.209 20.5269 88.3412 20.5966 88.4912 20.643C88.6412 20.6894 88.7948 20.7126 88.9502 20.7126H89.0181C89.3449 20.7126 89.6235 20.6108 89.8557 20.4108C89.9075 20.4823 89.9753 20.5448 90.0575 20.5966C90.1396 20.6484 90.2486 20.6841 90.3825 20.7037C90.3879 20.7091 90.4057 20.7126 90.4379 20.7126C90.5308 20.7126 90.6022 20.6823 90.6504 20.6233C90.7004 20.5644 90.7236 20.4948 90.7236 20.418C90.7236 20.3555 90.7058 20.2983 90.6665 20.2429ZM86.4909 18.1391C86.4909 17.9266 86.457 17.7426 86.3891 17.5837C86.3231 17.4265 86.232 17.2961 86.1195 17.1925C86.0052 17.089 85.873 17.0139 85.723 16.9639C85.573 16.9157 85.4158 16.8907 85.2515 16.8907H85.1818C85.0461 16.8907 84.9193 16.9121 84.8014 16.9532C84.6818 16.9943 84.5871 17.0515 84.5139 17.1229C84.4978 17.0461 84.4621 16.9872 84.4049 16.9479C84.3496 16.9104 84.2871 16.8907 84.2192 16.8907C84.1424 16.8907 84.0728 16.9157 84.0103 16.9675C83.9495 17.0193 83.9174 17.0925 83.9174 17.1854V20.4251C83.9174 20.5233 83.9495 20.5966 84.0103 20.643C84.0728 20.6894 84.1388 20.7126 84.2121 20.7126C84.2835 20.7126 84.3514 20.6894 84.4139 20.643C84.4764 20.5966 84.5067 20.5233 84.5067 20.4251V18.1391C84.5067 17.9516 84.5728 17.7962 84.7032 17.6694C84.8336 17.5426 84.989 17.4801 85.1693 17.4801H85.239C85.4229 17.4801 85.5801 17.5444 85.7087 17.673C85.8373 17.8033 85.9016 17.9569 85.9016 18.1391V20.4251C85.9016 20.5233 85.9337 20.5966 85.9962 20.643C86.0587 20.6894 86.1266 20.7126 86.1998 20.7126C86.273 20.7126 86.3391 20.6894 86.3999 20.643C86.4606 20.5966 86.4909 20.5233 86.4909 20.4251V18.1391ZM82.8405 17.2711C82.7476 17.1354 82.6261 17.0389 82.4797 16.98C82.3332 16.9211 82.1832 16.8907 82.035 16.8907C81.9296 16.8907 81.8457 16.8979 81.7778 16.9139C81.7117 16.93 81.6546 16.9479 81.6082 16.9675C81.551 16.9889 81.5064 17.0139 81.476 17.0461C81.4492 16.9889 81.4135 16.9479 81.367 16.9246C81.3206 16.9014 81.2724 16.8907 81.2206 16.8907C81.1474 16.8907 81.0795 16.9157 81.0152 16.9675C80.9509 17.0193 80.9188 17.0925 80.9188 17.1854V20.4108C80.9188 20.5126 80.9491 20.5894 81.0116 20.6394C81.0724 20.6876 81.1402 20.7126 81.2135 20.7126C81.2849 20.7126 81.3528 20.6876 81.4135 20.6394C81.476 20.5894 81.5064 20.5126 81.5064 20.4108V17.9998C81.5064 17.9373 81.5117 17.8748 81.5224 17.8123C81.5331 17.7515 81.5564 17.6962 81.5921 17.6462C81.6278 17.598 81.6796 17.5569 81.7475 17.5265C81.8135 17.4944 81.9082 17.4801 82.0261 17.4801C82.1243 17.4801 82.2011 17.4997 82.2547 17.5372C82.31 17.5765 82.3511 17.6122 82.3833 17.6426C82.4547 17.714 82.5351 17.7515 82.6226 17.7515C82.7012 17.7515 82.7672 17.7248 82.8244 17.673C82.8815 17.6212 82.9101 17.5551 82.9101 17.4711C82.9101 17.4104 82.8869 17.3426 82.8405 17.2711ZM79.0739 18.5338H77.6773V18.1427C77.6773 17.9551 77.7434 17.798 77.8755 17.6712C78.0077 17.5444 78.1631 17.4801 78.3452 17.4801H78.422C78.5935 17.4801 78.7435 17.5444 78.8756 17.6712C79.0078 17.798 79.0739 17.9587 79.0739 18.1516V18.5338ZM79.6632 18.1462C79.6632 17.9659 79.6293 17.7998 79.565 17.6462C79.5007 17.4944 79.4114 17.3604 79.2989 17.2479C79.1846 17.1336 79.0507 17.0461 78.8989 16.9836C78.7471 16.9211 78.5845 16.8907 78.4149 16.8907H78.3363C78.1666 16.8907 78.0041 16.9229 77.8523 16.9872C77.7005 17.0515 77.5665 17.1407 77.454 17.255C77.3397 17.3693 77.2504 17.5015 77.1861 17.6533C77.1218 17.8069 77.0897 17.9676 77.0897 18.1391V19.4714C77.0897 19.6482 77.1218 19.8107 77.1861 19.9608C77.2504 20.1108 77.3397 20.2412 77.454 20.3519C77.5665 20.4626 77.7005 20.5501 77.8523 20.6162C78.0041 20.6805 78.1666 20.7126 78.3363 20.7126H78.4149C78.6774 20.7126 78.9096 20.6448 79.1078 20.5073C79.3078 20.3715 79.4525 20.1947 79.5454 19.975C79.5668 19.9393 79.5775 19.8965 79.5775 19.8447C79.5775 19.7554 79.5454 19.6839 79.4847 19.6268C79.4221 19.5696 79.3525 19.5411 79.2757 19.5411C79.2239 19.5411 79.1739 19.5554 79.1275 19.5839C79.081 19.6125 79.0453 19.6607 79.0185 19.7286C78.9667 19.8357 78.8917 19.9286 78.7899 20.0072C78.6899 20.084 78.5649 20.1233 78.4149 20.1233H78.3363C78.1559 20.1233 78.0005 20.059 77.8719 19.9304C77.7434 19.8018 77.6773 19.6482 77.6773 19.4696V19.0767H79.3686C79.4507 19.0767 79.5204 19.0464 79.5775 18.9874C79.6347 18.9285 79.6632 18.8588 79.6632 18.782V18.1462ZM75.952 20.2251C75.9074 20.1679 75.8395 20.134 75.7467 20.1233C75.627 20.1126 75.5216 20.0697 75.4323 19.9947C75.3413 19.9215 75.2966 19.8161 75.2966 19.6822V17.5033H75.7145C75.8127 17.5033 75.886 17.4711 75.936 17.4104C75.9842 17.3479 76.0092 17.2801 76.0092 17.2086C76.0092 17.1354 75.9842 17.0693 75.936 17.0068C75.886 16.9443 75.8127 16.9139 75.7145 16.9139H75.2966V15.5655C75.2966 15.4673 75.2645 15.3941 75.2037 15.3441C75.1412 15.2959 75.0734 15.2709 75.0019 15.2709C74.9287 15.2709 74.8626 15.2959 74.8001 15.3441C74.7376 15.3941 74.7072 15.4673 74.7072 15.5655V16.9139H74.4358C74.3375 16.9139 74.2643 16.9443 74.2143 17.0068C74.1661 17.0693 74.1411 17.1354 74.1411 17.2086C74.1411 17.2801 74.1661 17.3479 74.2143 17.4104C74.2643 17.4711 74.3375 17.5033 74.4358 17.5033H74.7072V19.6964C74.7072 19.8357 74.7322 19.9679 74.784 20.0929C74.8358 20.2162 74.9091 20.3251 75.0019 20.418C75.0948 20.5108 75.2037 20.5823 75.327 20.6341C75.452 20.6859 75.5824 20.7126 75.7234 20.7126C75.8252 20.7126 75.9003 20.6823 75.9467 20.6216C75.9931 20.5608 76.0163 20.4948 76.0163 20.4215C76.0163 20.3483 75.9949 20.2822 75.952 20.2251ZM73.0481 18.1391C73.0481 17.9266 73.0142 17.7426 72.9463 17.5837C72.8802 17.4265 72.7891 17.2961 72.6748 17.1925C72.5623 17.089 72.4302 17.0139 72.2801 16.9639C72.1301 16.9157 71.9729 16.8907 71.8069 16.8907H71.7372C71.6033 16.8907 71.4765 16.9121 71.3586 16.9532C71.2389 16.9943 71.1443 17.0515 71.071 17.1229C71.0568 17.0461 71.0193 16.9872 70.9621 16.9479C70.9067 16.9104 70.8442 16.8907 70.7764 16.8907C70.6996 16.8907 70.6299 16.9157 70.5674 16.9675C70.5049 17.0193 70.4745 17.0925 70.4745 17.1854V20.4251C70.4745 20.5233 70.5049 20.5966 70.5674 20.643C70.6299 20.6894 70.696 20.7126 70.7692 20.7126C70.8407 20.7126 70.9085 20.6894 70.971 20.643C71.0318 20.5966 71.0639 20.5233 71.0639 20.4251V18.1391C71.0639 17.9516 71.13 17.7962 71.2604 17.6694C71.3907 17.5426 71.5461 17.4801 71.7265 17.4801H71.7961C71.9801 17.4801 72.1373 17.5444 72.2658 17.673C72.3944 17.8033 72.4587 17.9569 72.4587 18.1391V20.4251C72.4587 20.5233 72.4909 20.5966 72.5534 20.643C72.6159 20.6894 72.6838 20.7126 72.757 20.7126C72.8302 20.7126 72.8963 20.6894 72.957 20.643C73.0177 20.5966 73.0481 20.5233 73.0481 20.4251V18.1391ZM68.9083 15.5655C68.9083 15.4673 68.8779 15.3941 68.8154 15.3441C68.7529 15.2959 68.685 15.2709 68.6136 15.2709C68.5404 15.2709 68.4743 15.2959 68.4118 15.3441C68.3493 15.3941 68.3189 15.4673 68.3189 15.5655V20.4251C68.3189 20.5233 68.3493 20.5966 68.4118 20.643C68.4743 20.6894 68.5404 20.7126 68.6136 20.7126C68.685 20.7126 68.7529 20.6894 68.8154 20.643C68.8779 20.5966 68.9083 20.5233 68.9083 20.4251V15.5655ZM64.4898 17.2711C64.397 17.1354 64.2773 17.0389 64.1291 16.98C63.9826 16.9211 63.8344 16.8907 63.6844 16.8907C63.5808 16.8907 63.495 16.8979 63.429 16.9139C63.3611 16.93 63.304 16.9479 63.2575 16.9675C63.2004 16.9889 63.1575 17.0139 63.1254 17.0461C63.1004 16.9889 63.0646 16.9479 63.0182 16.9246C62.9718 16.9014 62.9218 16.8907 62.87 16.8907C62.7985 16.8907 62.7289 16.9157 62.6646 16.9675C62.6003 17.0193 62.5681 17.0925 62.5681 17.1854V20.4108C62.5681 20.5126 62.5985 20.5894 62.661 20.6394C62.7235 20.6876 62.7896 20.7126 62.8628 20.7126C62.9343 20.7126 63.0021 20.6876 63.0646 20.6394C63.1254 20.5894 63.1575 20.5126 63.1575 20.4108V17.9998C63.1575 17.9373 63.1629 17.8748 63.1718 17.8123C63.1825 17.7515 63.2057 17.6962 63.2432 17.6462C63.279 17.598 63.3307 17.5569 63.3968 17.5265C63.4647 17.4944 63.5576 17.4801 63.6772 17.4801C63.7737 17.4801 63.8505 17.4997 63.9058 17.5372C63.9594 17.5765 64.0023 17.6122 64.0326 17.6426C64.1058 17.714 64.1844 17.7515 64.2737 17.7515C64.3505 17.7515 64.4184 17.7248 64.4755 17.673C64.5309 17.6212 64.5595 17.5551 64.5595 17.4711C64.5595 17.4104 64.5363 17.3426 64.4898 17.2711ZM61.1858 17.1854C61.1858 17.0872 61.1537 17.0139 61.0929 16.9639C61.0304 16.9157 60.9626 16.8907 60.8911 16.8907C60.8179 16.8907 60.7518 16.9157 60.6893 16.9639C60.6268 17.0122 60.5965 17.0872 60.5965 17.1836V19.4661C60.5965 19.6464 60.5322 19.8 60.4018 19.9304C60.2732 20.059 60.116 20.1233 59.9303 20.1233H59.8606C59.6785 20.1233 59.5231 20.059 59.3945 19.9304C59.2659 19.8 59.2016 19.6464 59.2016 19.4661V17.1836C59.2016 17.0872 59.1695 17.0122 59.1088 16.9639C59.0462 16.9157 58.9784 16.8907 58.9069 16.8907C58.8337 16.8907 58.7676 16.9157 58.7051 16.9639C58.6426 17.0139 58.6123 17.0872 58.6123 17.1854V19.4714C58.6123 19.6893 58.6462 19.875 58.7123 20.0304C58.7801 20.1858 58.8694 20.3126 58.9837 20.4144C59.098 20.5144 59.2302 20.5894 59.3838 20.6394C59.5356 20.6876 59.6945 20.7126 59.8606 20.7126H59.9303C60.0642 20.7126 60.191 20.693 60.3089 20.6537C60.4286 20.6144 60.5232 20.5573 60.5965 20.484C60.6125 20.5626 60.6482 20.6216 60.7054 20.6573C60.7608 20.693 60.8233 20.7126 60.8911 20.7126C60.9626 20.7126 61.0304 20.6876 61.0929 20.6394C61.1537 20.5894 61.1858 20.518 61.1858 20.4251V17.1854ZM59.4731 15.5655C59.4731 15.4673 59.4409 15.3941 59.3784 15.3441C59.3177 15.2959 59.2498 15.2709 59.1784 15.2709C59.1052 15.2709 59.0391 15.2959 58.9766 15.3441C58.9141 15.3941 58.8837 15.4673 58.8837 15.5655V15.7352C58.8837 15.8334 58.9141 15.9084 58.9766 15.9567C59.0391 16.0049 59.1052 16.0299 59.1784 16.0299C59.2498 16.0299 59.3177 16.0049 59.3784 15.9567C59.4409 15.9084 59.4731 15.8334 59.4731 15.7352V15.5655ZM60.8983 15.5655C60.8983 15.4673 60.8661 15.3941 60.8018 15.3441C60.7375 15.2959 60.6679 15.2709 60.5965 15.2709C60.5232 15.2709 60.4571 15.2959 60.3982 15.3441C60.3393 15.3941 60.3089 15.4673 60.3089 15.5655V15.7352C60.3089 15.8334 60.3411 15.9084 60.4018 15.9567C60.4643 16.0049 60.5322 16.0299 60.6036 16.0299C60.6768 16.0299 60.7429 16.0049 60.8054 15.9567C60.8679 15.9084 60.8983 15.8334 60.8983 15.7352V15.5655ZM57.4496 15.3637C57.3996 15.3012 57.3264 15.2709 57.2282 15.2709C57.0835 15.2709 56.9513 15.2959 56.8299 15.3477C56.7084 15.3994 56.6013 15.4709 56.512 15.562C56.4209 15.6513 56.3512 15.7602 56.303 15.887C56.253 16.0138 56.228 16.1495 56.228 16.2942V16.9139H56.0584C55.9601 16.9139 55.8869 16.9443 55.8369 17.0068C55.7887 17.0693 55.7637 17.1354 55.7637 17.2086C55.7637 17.2801 55.7887 17.3479 55.8369 17.4104C55.8869 17.4711 55.9601 17.5033 56.0584 17.5033H56.228V20.4251C56.228 20.5233 56.2602 20.5966 56.3209 20.643C56.3834 20.6894 56.4513 20.7126 56.5227 20.7126C56.5959 20.7126 56.662 20.6894 56.7245 20.643C56.787 20.5966 56.8174 20.5233 56.8174 20.4251V17.5033H57.1817C57.2799 17.5033 57.3532 17.4711 57.4032 17.4104C57.4514 17.3479 57.4764 17.2801 57.4764 17.2086C57.4764 17.1354 57.4532 17.0693 57.4067 17.0068C57.3603 16.9443 57.2853 16.9139 57.1817 16.9139H56.8174V16.2942C56.8174 16.1746 56.8549 16.0728 56.9299 15.987C57.0049 15.9031 57.1049 15.8602 57.2282 15.8602C57.3264 15.8602 57.3996 15.8281 57.4496 15.7674C57.4978 15.7048 57.5228 15.637 57.5228 15.5655C57.5228 15.4923 57.4978 15.4262 57.4496 15.3637Z" fill="#C80D0F"/>
<path d="M129.308 11.7541C129.265 11.697 129.195 11.6631 129.102 11.6523C128.983 11.6416 128.879 11.5988 128.788 11.5237C128.699 11.4505 128.654 11.3452 128.654 11.2112V9.03235H129.072C129.168 9.03235 129.243 9.00199 129.292 8.93948C129.342 8.87697 129.367 8.81089 129.367 8.73767C129.367 8.66623 129.342 8.59836 129.292 8.53585C129.243 8.47335 129.168 8.44299 129.072 8.44299H128.654V7.09459C128.654 6.99637 128.622 6.92314 128.559 6.87314C128.499 6.82491 128.431 6.79991 128.359 6.79991C128.286 6.79991 128.22 6.82491 128.158 6.87314C128.095 6.92314 128.065 6.99637 128.065 7.09459V8.44299H127.793C127.695 8.44299 127.622 8.47335 127.572 8.53585C127.523 8.59836 127.498 8.66623 127.498 8.73767C127.498 8.81089 127.523 8.87697 127.572 8.93948C127.622 9.00199 127.695 9.03235 127.793 9.03235H128.065V11.2255C128.065 11.3648 128.09 11.497 128.141 11.622C128.193 11.7452 128.266 11.8541 128.359 11.947C128.452 12.0399 128.559 12.1113 128.684 12.1631C128.808 12.2149 128.94 12.2417 129.079 12.2417C129.183 12.2417 129.258 12.2113 129.304 12.1506C129.351 12.0899 129.374 12.0238 129.374 11.9506C129.374 11.8774 129.352 11.8113 129.308 11.7541ZM126.764 6.89278C126.716 6.83027 126.643 6.79991 126.545 6.79991C126.4 6.79991 126.266 6.8267 126.145 6.87671C126.025 6.9285 125.918 6.99994 125.827 7.09102C125.738 7.18032 125.668 7.28926 125.618 7.41606C125.57 7.54287 125.545 7.6786 125.545 7.82326V8.44299H125.375C125.277 8.44299 125.204 8.47335 125.154 8.53585C125.104 8.59836 125.08 8.66623 125.08 8.73767C125.08 8.81089 125.104 8.87697 125.154 8.93948C125.204 9.00199 125.277 9.03235 125.375 9.03235H125.545V11.9542C125.545 12.0524 125.577 12.1256 125.638 12.172C125.7 12.2185 125.766 12.2417 125.839 12.2417C125.911 12.2417 125.979 12.2185 126.041 12.172C126.104 12.1256 126.134 12.0524 126.134 11.9542V9.03235H126.498C126.597 9.03235 126.67 9.00199 126.718 8.93948C126.768 8.87697 126.793 8.81089 126.793 8.73767C126.793 8.66623 126.77 8.59836 126.723 8.53585C126.677 8.47335 126.602 8.44299 126.498 8.44299H126.134V7.82326C126.134 7.7036 126.172 7.6018 126.247 7.51608C126.322 7.43214 126.422 7.38927 126.545 7.38927C126.643 7.38927 126.716 7.35891 126.764 7.29641C126.814 7.2339 126.839 7.16782 126.839 7.09459C126.839 7.02137 126.814 6.95529 126.764 6.89278ZM123.187 10.9933C123.187 11.1791 123.121 11.3362 122.989 11.463C122.857 11.5898 122.701 11.6523 122.519 11.6523H122.45C122.255 11.6523 122.096 11.6023 121.975 11.5041C121.853 11.4077 121.791 11.2755 121.791 11.1094V11.0469C121.791 10.913 121.837 10.8094 121.928 10.7379C122.017 10.6647 122.132 10.6076 122.273 10.5665C122.412 10.5254 122.564 10.4933 122.726 10.47C122.889 10.4468 123.043 10.4165 123.187 10.3807V10.9933ZM124.168 11.772C124.128 11.7184 124.066 11.6827 123.977 11.6684C123.843 11.6416 123.777 11.5559 123.777 11.4112V9.61278C123.777 9.44847 123.744 9.2931 123.682 9.14843C123.621 9.00377 123.535 8.87697 123.427 8.76803C123.318 8.66087 123.191 8.57515 123.039 8.51264C122.889 8.45013 122.73 8.41977 122.56 8.41977H122.505C122.401 8.41977 122.296 8.43227 122.187 8.45549C122.08 8.4787 121.973 8.51621 121.869 8.57157C121.766 8.62515 121.669 8.69838 121.578 8.79124C121.489 8.8859 121.412 9.00199 121.351 9.14129C121.33 9.17701 121.319 9.22344 121.319 9.2806C121.319 9.36275 121.351 9.42883 121.412 9.47884C121.474 9.52706 121.541 9.55206 121.614 9.55206C121.666 9.55206 121.714 9.53956 121.76 9.51634C121.807 9.49312 121.846 9.45383 121.876 9.39668C121.95 9.26809 122.032 9.16987 122.126 9.10557C122.217 9.04128 122.344 9.00913 122.505 9.00913H122.56C122.73 9.00913 122.876 9.05557 123.001 9.14843C123.125 9.2413 123.187 9.40383 123.187 9.636C123.187 9.65743 123.185 9.68065 123.184 9.70744C123.18 9.73244 123.175 9.75387 123.164 9.76816C123.132 9.80924 123.062 9.84138 122.951 9.86639C122.839 9.8896 122.712 9.91282 122.566 9.93961C122.423 9.96461 122.269 9.99855 122.108 10.0396C121.95 10.0807 121.803 10.1414 121.667 10.2218C121.533 10.3022 121.423 10.4075 121.333 10.5397C121.246 10.6718 121.203 10.8379 121.203 11.0398V11.1326C121.203 11.313 121.239 11.4737 121.31 11.613C121.383 11.7523 121.478 11.8684 121.594 11.9613C121.71 12.056 121.844 12.1256 121.992 12.172C122.144 12.2185 122.296 12.2417 122.45 12.2417H122.519C122.846 12.2417 123.125 12.1399 123.357 11.9381C123.409 12.0113 123.477 12.0738 123.559 12.1256C123.641 12.1774 123.75 12.2131 123.884 12.2328C123.889 12.2381 123.907 12.2417 123.939 12.2417C124.032 12.2417 124.102 12.2113 124.152 12.1524C124.202 12.0935 124.225 12.0238 124.225 11.947C124.225 11.8845 124.207 11.8274 124.168 11.772ZM120.01 9.66815C120.01 9.4967 119.978 9.33596 119.914 9.18415C119.847 9.03056 119.76 8.8984 119.646 8.7841C119.533 8.6698 119.399 8.58229 119.247 8.51621C119.094 8.45191 118.933 8.41977 118.762 8.41977H118.699C118.565 8.41977 118.437 8.4412 118.312 8.48228C118.188 8.52335 118.094 8.5805 118.026 8.65194V7.09459C118.026 6.99637 117.994 6.92314 117.933 6.87314C117.87 6.82491 117.803 6.79991 117.731 6.79991C117.66 6.79991 117.592 6.82491 117.529 6.87314C117.467 6.92314 117.436 6.99637 117.436 7.09459V11.9542C117.436 12.0524 117.467 12.1256 117.529 12.172C117.592 12.2185 117.66 12.2417 117.731 12.2417C117.803 12.2417 117.87 12.2185 117.933 12.172C117.994 12.1256 118.026 12.0524 118.026 11.9542V9.62886C118.026 9.53063 118.047 9.44312 118.088 9.36632C118.129 9.28774 118.181 9.22166 118.247 9.16808C118.312 9.1145 118.387 9.07343 118.472 9.04842C118.556 9.02163 118.644 9.00913 118.731 9.00913C118.813 9.00913 118.896 9.02163 118.98 9.04842C119.062 9.07343 119.137 9.1145 119.205 9.16808C119.271 9.22166 119.324 9.29131 119.363 9.37346C119.401 9.45562 119.421 9.55385 119.421 9.66815V11.9542C119.421 12.0524 119.451 12.1256 119.514 12.172C119.576 12.2185 119.644 12.2417 119.715 12.2417C119.787 12.2417 119.855 12.2185 119.917 12.172C119.978 12.1256 120.01 12.0524 120.01 11.9542V9.66815ZM116.104 10.7647C116.042 10.7147 115.974 10.6915 115.902 10.6915C115.829 10.6915 115.763 10.7147 115.704 10.7647C115.645 10.8129 115.613 10.8897 115.608 10.9933C115.597 11.1737 115.529 11.3291 115.406 11.4577C115.281 11.588 115.131 11.6523 114.949 11.6523H114.879C114.693 11.6523 114.536 11.588 114.406 11.4595C114.277 11.3309 114.213 11.1755 114.213 10.9951V9.66636C114.213 9.48598 114.277 9.3306 114.406 9.20201C114.536 9.07343 114.69 9.00913 114.87 9.00913H114.949C115.131 9.00913 115.281 9.07164 115.406 9.19487C115.529 9.31989 115.597 9.47884 115.608 9.67529C115.613 9.77352 115.645 9.84674 115.704 9.89318C115.763 9.93961 115.829 9.96283 115.902 9.96283C115.974 9.96283 116.042 9.93782 116.104 9.8896C116.165 9.8396 116.197 9.76637 116.197 9.66815C116.197 9.4967 116.163 9.33596 116.095 9.18415C116.027 9.03056 115.94 8.8984 115.829 8.7841C115.717 8.6698 115.584 8.58229 115.433 8.51621C115.281 8.45191 115.118 8.41977 114.949 8.41977H114.87C114.7 8.41977 114.538 8.45191 114.388 8.51621C114.234 8.58229 114.102 8.6698 113.991 8.78053C113.881 8.89126 113.791 9.02342 113.723 9.17522C113.656 9.32882 113.623 9.49312 113.623 9.66815V11.0005C113.623 11.1773 113.656 11.3398 113.72 11.4898C113.784 11.6398 113.873 11.7702 113.988 11.8809C114.102 11.9917 114.234 12.0792 114.388 12.1435C114.538 12.2096 114.7 12.2417 114.87 12.2417H114.949C115.118 12.2417 115.281 12.2078 115.433 12.1435C115.584 12.0774 115.718 11.9881 115.833 11.8756C115.945 11.7631 116.034 11.6327 116.101 11.4827C116.165 11.3327 116.197 11.1683 116.197 10.9933C116.197 10.8897 116.165 10.8129 116.104 10.7647ZM112.434 11.1273C112.434 10.8754 112.384 10.6772 112.284 10.5325C112.182 10.3879 112.059 10.2754 111.911 10.1968C111.764 10.1164 111.602 10.0575 111.427 10.0182C111.252 9.9789 111.089 9.9414 110.943 9.90211C110.795 9.86281 110.671 9.81102 110.569 9.74673C110.469 9.68243 110.419 9.58421 110.419 9.45026V9.42704C110.425 9.31274 110.484 9.21451 110.598 9.13236C110.711 9.05021 110.877 9.00913 111.093 9.00913H111.125C111.3 9.00913 111.437 9.03413 111.534 9.08235C111.634 9.13236 111.723 9.17701 111.807 9.21809C111.868 9.24845 111.925 9.26452 111.977 9.26452C112.059 9.26452 112.127 9.23595 112.179 9.1788C112.23 9.12343 112.255 9.05735 112.255 8.98591C112.255 8.89126 112.22 8.81625 112.148 8.75731C112.116 8.73231 112.071 8.69838 112.013 8.65908C111.952 8.61979 111.88 8.58408 111.795 8.55014C111.709 8.51621 111.611 8.48585 111.5 8.45906C111.389 8.43227 111.266 8.41977 111.132 8.41977H111.102C110.977 8.41977 110.841 8.43584 110.694 8.46977C110.546 8.50371 110.411 8.55907 110.284 8.63587C110.157 8.71445 110.05 8.81625 109.962 8.94126C109.873 9.06807 109.83 9.22344 109.83 9.40918C109.83 9.65207 109.88 9.8396 109.98 9.96997C110.082 10.1021 110.205 10.2039 110.353 10.2754C110.5 10.3486 110.662 10.4004 110.837 10.4343C111.012 10.4683 111.175 10.5075 111.321 10.554C111.47 10.6004 111.593 10.6629 111.695 10.7433C111.795 10.8237 111.846 10.9451 111.846 11.1112V11.1344C111.841 11.263 111.773 11.3809 111.648 11.4898C111.521 11.5988 111.339 11.6523 111.102 11.6523H111.062C110.918 11.6523 110.769 11.6023 110.621 11.5041C110.471 11.4077 110.346 11.2934 110.248 11.163C110.212 11.113 110.171 11.0773 110.125 11.0594C110.078 11.0415 110.032 11.0326 109.985 11.0326C109.907 11.0326 109.837 11.0576 109.775 11.1094C109.714 11.1612 109.682 11.2309 109.682 11.3184C109.682 11.3398 109.696 11.388 109.721 11.4666C109.784 11.5845 109.864 11.6934 109.962 11.7899C110.06 11.8863 110.168 11.9684 110.287 12.0327C110.405 12.0988 110.532 12.1488 110.662 12.1863C110.795 12.2221 110.923 12.2417 111.046 12.2417H111.093C111.253 12.2417 111.414 12.2185 111.573 12.172C111.734 12.1256 111.879 12.0577 112.007 11.9667C112.138 11.8774 112.241 11.7649 112.318 11.6309C112.395 11.497 112.434 11.3398 112.434 11.1594V11.1273ZM108.607 11.747C108.56 11.6827 108.485 11.6523 108.382 11.6523C108.262 11.647 108.162 11.6023 108.078 11.5202C107.996 11.438 107.955 11.338 107.955 11.2184V7.09459C107.955 6.99637 107.924 6.92314 107.862 6.87314C107.799 6.82491 107.733 6.79991 107.66 6.79991C107.589 6.79991 107.521 6.82491 107.458 6.87314C107.398 6.92314 107.365 6.99637 107.365 7.09459V11.2255C107.365 11.3648 107.392 11.497 107.444 11.622C107.494 11.7452 107.567 11.8541 107.66 11.947C107.753 12.0399 107.862 12.1113 107.985 12.1631C108.11 12.2149 108.242 12.2417 108.382 12.2417C108.485 12.2417 108.56 12.2113 108.607 12.1506C108.653 12.0899 108.676 12.0238 108.676 11.9506C108.676 11.8774 108.653 11.8095 108.607 11.747ZM106.172 11.747C106.126 11.6827 106.051 11.6523 105.947 11.6523C105.828 11.647 105.728 11.6023 105.646 11.5202C105.562 11.438 105.521 11.338 105.521 11.2184V7.09459C105.521 6.99637 105.49 6.92314 105.428 6.87314C105.367 6.82491 105.299 6.79991 105.226 6.79991C105.154 6.79991 105.087 6.82491 105.026 6.87314C104.963 6.92314 104.933 6.99637 104.933 7.09459V11.2255C104.933 11.3648 104.958 11.497 105.01 11.622C105.062 11.7452 105.133 11.8541 105.226 11.947C105.321 12.0399 105.428 12.1113 105.553 12.1631C105.676 12.2149 105.808 12.2417 105.947 12.2417C106.051 12.2417 106.126 12.2113 106.172 12.1506C106.219 12.0899 106.242 12.0238 106.242 11.9506C106.242 11.8774 106.219 11.8095 106.172 11.747ZM103.024 10.0628H101.629V9.6735C101.629 9.48598 101.695 9.32703 101.827 9.20023C101.958 9.07343 102.115 9.00913 102.295 9.00913H102.374C102.543 9.00913 102.695 9.07343 102.826 9.20023C102.958 9.32703 103.024 9.48777 103.024 9.68065V10.0628ZM103.613 9.67529C103.613 9.49491 103.581 9.32882 103.517 9.17522C103.451 9.02342 103.363 8.88947 103.249 8.77696C103.135 8.66266 103.002 8.57515 102.849 8.51264C102.697 8.45013 102.536 8.41977 102.365 8.41977H102.288C102.117 8.41977 101.956 8.45191 101.804 8.51621C101.65 8.58229 101.518 8.6698 101.404 8.7841C101.29 8.8984 101.2 9.03056 101.136 9.18415C101.072 9.33596 101.04 9.4967 101.04 9.66815V11.0005C101.04 11.1773 101.072 11.3398 101.136 11.4898C101.2 11.6398 101.29 11.7702 101.404 11.8809C101.518 11.9917 101.65 12.0792 101.804 12.1435C101.956 12.2096 102.117 12.2417 102.288 12.2417H102.365C102.629 12.2417 102.86 12.1738 103.06 12.0363C103.258 11.9006 103.404 11.7238 103.497 11.5041C103.517 11.4684 103.527 11.4255 103.527 11.3737C103.527 11.2844 103.497 11.213 103.435 11.1558C103.372 11.0987 103.302 11.0701 103.226 11.0701C103.174 11.0701 103.124 11.0844 103.077 11.113C103.031 11.1416 102.995 11.1898 102.97 11.2576C102.918 11.3648 102.842 11.4577 102.742 11.5362C102.64 11.613 102.515 11.6523 102.365 11.6523H102.288C102.106 11.6523 101.952 11.588 101.822 11.4595C101.693 11.3309 101.629 11.1773 101.629 10.9987V10.6058H103.319C103.401 10.6058 103.47 10.5754 103.527 10.5165C103.585 10.4575 103.613 10.3879 103.613 10.3111V9.67529ZM99.8538 11.1273C99.8538 10.8754 99.8038 10.6772 99.7038 10.5325C99.602 10.3879 99.4787 10.2754 99.3323 10.1968C99.184 10.1164 99.0233 10.0575 98.8465 10.0182C98.6715 9.9789 98.509 9.9414 98.3625 9.90211C98.2161 9.86281 98.091 9.81102 97.991 9.74673C97.8892 9.68243 97.8392 9.58421 97.8392 9.45026V9.42704C97.8446 9.31274 97.9035 9.21451 98.0178 9.13236C98.1321 9.05021 98.2964 9.00913 98.5143 9.00913H98.5447C98.7197 9.00913 98.8572 9.03413 98.9554 9.08235C99.0537 9.13236 99.1448 9.17701 99.2269 9.21809C99.2894 9.24845 99.3448 9.26452 99.3966 9.26452C99.4805 9.26452 99.5466 9.23595 99.5984 9.1788C99.6502 9.12343 99.677 9.05735 99.677 8.98591C99.677 8.89126 99.6395 8.81625 99.568 8.75731C99.5377 8.73231 99.4912 8.69838 99.4323 8.65908C99.3734 8.61979 99.3001 8.58408 99.2144 8.55014C99.1305 8.51621 99.0322 8.48585 98.9215 8.45906C98.809 8.43227 98.6876 8.41977 98.5518 8.41977H98.5215C98.3982 8.41977 98.2625 8.43584 98.1143 8.46977C97.9678 8.50371 97.8303 8.55907 97.7035 8.63587C97.5767 8.71445 97.4695 8.81625 97.382 8.94126C97.2945 9.06807 97.2499 9.22344 97.2499 9.40918C97.2499 9.65207 97.2999 9.8396 97.4017 9.96997C97.5017 10.1021 97.6267 10.2039 97.7731 10.2754C97.9214 10.3486 98.0821 10.4004 98.2571 10.4343C98.4339 10.4683 98.5947 10.5075 98.7429 10.554C98.8894 10.6004 99.0144 10.6629 99.1144 10.7433C99.2144 10.8237 99.2662 10.9451 99.2662 11.1112V11.1344C99.2608 11.263 99.1948 11.3809 99.068 11.4898C98.9412 11.5988 98.759 11.6523 98.5215 11.6523H98.4822C98.3375 11.6523 98.1911 11.6023 98.041 11.5041C97.891 11.4077 97.766 11.2934 97.6696 11.163C97.6321 11.113 97.591 11.0773 97.5445 11.0594C97.4981 11.0415 97.4517 11.0326 97.4052 11.0326C97.3284 11.0326 97.2588 11.0576 97.1963 11.1094C97.1338 11.1612 97.1034 11.2309 97.1034 11.3184C97.1034 11.3398 97.1159 11.388 97.1427 11.4666C97.2034 11.5845 97.2838 11.6934 97.382 11.7899C97.4803 11.8863 97.5892 11.9684 97.7071 12.0327C97.8267 12.0988 97.9517 12.1488 98.0839 12.1863C98.2161 12.2221 98.3429 12.2417 98.4679 12.2417H98.5143C98.6733 12.2417 98.834 12.2185 98.9947 12.172C99.1537 12.1256 99.2983 12.0577 99.4287 11.9667C99.5573 11.8774 99.6609 11.7649 99.7377 11.6309C99.8163 11.497 99.8538 11.3398 99.8538 11.1594V11.1273ZM95.4014 10.0628H94.0066V9.6735C94.0066 9.48598 94.0727 9.32703 94.2048 9.20023C94.3352 9.07343 94.4924 9.00913 94.6727 9.00913H94.7513C94.921 9.00913 95.0728 9.07343 95.2032 9.20023C95.3353 9.32703 95.4014 9.48777 95.4014 9.68065V10.0628ZM95.9908 9.67529C95.9908 9.49491 95.9586 9.32882 95.8943 9.17522C95.83 9.02342 95.7407 8.88947 95.6264 8.77696C95.5121 8.66266 95.38 8.57515 95.2282 8.51264C95.0746 8.45013 94.9138 8.41977 94.7424 8.41977H94.6656C94.4941 8.41977 94.3334 8.45191 94.1816 8.51621C94.028 8.58229 93.8959 8.6698 93.7816 8.7841C93.6672 8.8984 93.578 9.03056 93.5137 9.18415C93.4494 9.33596 93.4172 9.4967 93.4172 9.66815V11.0005C93.4172 11.1773 93.4494 11.3398 93.5137 11.4898C93.578 11.6398 93.6672 11.7702 93.7816 11.8809C93.8959 11.9917 94.028 12.0792 94.1816 12.1435C94.3334 12.2096 94.4941 12.2417 94.6656 12.2417H94.7424C95.0067 12.2417 95.2371 12.1738 95.4371 12.0363C95.6354 11.9006 95.7818 11.7238 95.8747 11.5041C95.8943 11.4684 95.905 11.4255 95.905 11.3737C95.905 11.2844 95.8747 11.213 95.8122 11.1558C95.7515 11.0987 95.68 11.0701 95.6032 11.0701C95.5514 11.0701 95.5032 11.0844 95.4568 11.113C95.4103 11.1416 95.3728 11.1898 95.3478 11.2576C95.296 11.3648 95.2192 11.4577 95.1192 11.5362C95.0174 11.613 94.8924 11.6523 94.7424 11.6523H94.6656C94.4852 11.6523 94.3298 11.588 94.2012 11.4595C94.0709 11.3309 94.0066 11.1773 94.0066 10.9987V10.6058H95.6961C95.7782 10.6058 95.8479 10.5754 95.905 10.5165C95.9622 10.4575 95.9908 10.3879 95.9908 10.3111V9.67529ZM92.0563 9.57528C92.0563 9.4967 92.0277 9.42883 91.9688 9.36989C91.9081 9.31096 91.8402 9.2806 91.7634 9.2806H90.6544C90.5561 9.2806 90.4829 9.31096 90.4329 9.37346C90.3847 9.43597 90.3597 9.50205 90.3597 9.57528C90.3597 9.64671 90.3847 9.71458 90.4329 9.77709C90.4829 9.83781 90.5561 9.86996 90.6544 9.86996H91.4687V10.7719C91.4687 10.8951 91.4455 11.0112 91.3991 11.1166C91.3527 11.2219 91.2884 11.3148 91.208 11.3934C91.1276 11.4737 91.0348 11.5362 90.9294 11.5827C90.824 11.6291 90.7079 11.6523 90.5847 11.6523H90.5061C90.3829 11.6523 90.2686 11.6291 90.1614 11.5827C90.0561 11.5362 89.9632 11.4737 89.8828 11.3934C89.8025 11.313 89.7399 11.2201 89.6935 11.1148C89.6471 11.0094 89.6239 10.8933 89.6239 10.7701V8.2626C89.6239 8.14473 89.6471 8.03222 89.6935 7.92685C89.7399 7.82147 89.8025 7.72861 89.8828 7.64824C89.9632 7.56787 90.0561 7.50536 90.1614 7.45893C90.2686 7.41249 90.3829 7.38927 90.5061 7.38927H90.5847C90.8383 7.38927 91.0383 7.46071 91.1848 7.60537C91.333 7.75004 91.4259 7.9322 91.4687 8.1483C91.483 8.23581 91.5205 8.30011 91.5759 8.3394C91.6331 8.3769 91.6956 8.39655 91.7634 8.39655C91.8349 8.39655 91.9027 8.37155 91.9635 8.32333C92.026 8.27332 92.0563 8.20367 92.0563 8.1108V8.06258C92.0313 7.8822 91.976 7.71432 91.8902 7.55894C91.8045 7.40535 91.6973 7.2714 91.5652 7.16067C91.433 7.04994 91.283 6.96243 91.1151 6.89635C90.9472 6.83206 90.7704 6.79991 90.5847 6.79991H90.5061C90.3061 6.79991 90.115 6.8392 89.9328 6.916C89.7524 6.99458 89.5971 7.09817 89.4649 7.23033C89.3328 7.36249 89.2274 7.51608 89.1506 7.69467C89.0738 7.87327 89.0345 8.06615 89.0345 8.27332V10.7754C89.0345 10.9826 89.0738 11.1755 89.1506 11.3541C89.2274 11.5327 89.3328 11.6863 89.4649 11.8184C89.5971 11.9506 89.7524 12.0542 89.9328 12.1292C90.115 12.2042 90.3061 12.2417 90.5061 12.2417H90.5847C90.7865 12.2417 90.9776 12.2042 91.158 12.1292C91.3384 12.0542 91.4955 11.9506 91.6277 11.8184C91.7581 11.6863 91.8634 11.5327 91.9402 11.3541C92.0188 11.1755 92.0563 10.9826 92.0563 10.7754V9.57528ZM84.6089 10.0628H83.2141V9.6735C83.2141 9.48598 83.2802 9.32703 83.4105 9.20023C83.5427 9.07343 83.6999 9.00913 83.8802 9.00913H83.957C84.1285 9.00913 84.2785 9.07343 84.4107 9.20023C84.5428 9.32703 84.6089 9.48777 84.6089 9.68065V10.0628ZM85.1983 9.67529C85.1983 9.49491 85.1661 9.32882 85.1 9.17522C85.0358 9.02342 84.9465 8.88947 84.8339 8.77696C84.7196 8.66266 84.5875 8.57515 84.4339 8.51264C84.2821 8.45013 84.1196 8.41977 83.9499 8.41977H83.8731C83.7017 8.41977 83.5409 8.45191 83.3873 8.51621C83.2355 8.58229 83.1016 8.6698 82.9891 8.7841C82.8748 8.8984 82.7855 9.03056 82.7212 9.18415C82.6569 9.33596 82.6247 9.4967 82.6247 9.66815V11.0005C82.6247 11.1773 82.6569 11.3398 82.7212 11.4898C82.7855 11.6398 82.8748 11.7702 82.9891 11.8809C83.1016 11.9917 83.2355 12.0792 83.3873 12.1435C83.5409 12.2096 83.7017 12.2417 83.8731 12.2417H83.9499C84.2124 12.2417 84.4446 12.1738 84.6428 12.0363C84.8429 11.9006 84.9893 11.7238 85.0822 11.5041C85.1018 11.4684 85.1126 11.4255 85.1126 11.3737C85.1126 11.2844 85.0822 11.213 85.0197 11.1558C84.9572 11.0987 84.8875 11.0701 84.8107 11.0701C84.7589 11.0701 84.7089 11.0844 84.6625 11.113C84.6161 11.1416 84.5803 11.1898 84.5536 11.2576C84.5035 11.3648 84.4267 11.4577 84.3249 11.5362C84.2249 11.613 84.0999 11.6523 83.9499 11.6523H83.8731C83.6909 11.6523 83.5373 11.588 83.407 11.4595C83.2784 11.3309 83.2141 11.1773 83.2141 10.9987V10.6058H84.9036C84.9857 10.6058 85.0554 10.5754 85.1126 10.5165C85.1697 10.4575 85.1983 10.3879 85.1983 10.3111V9.67529ZM81.3549 9.66815C81.3549 9.4967 81.3228 9.33596 81.2585 9.18415C81.1942 9.03056 81.1049 8.8984 80.9906 8.7841C80.8781 8.6698 80.7441 8.58229 80.5923 8.51621C80.4405 8.45191 80.278 8.41977 80.1083 8.41977H80.0458C79.9119 8.41977 79.7815 8.4412 79.6583 8.48228C79.535 8.52335 79.4386 8.5805 79.3707 8.65194V7.09459C79.3707 6.99637 79.3404 6.92314 79.2779 6.87314C79.2171 6.82491 79.1493 6.79991 79.076 6.79991C79.0046 6.79991 78.9367 6.82491 78.876 6.87314C78.8135 6.92314 78.7814 6.99637 78.7814 7.09459V11.9542C78.7814 12.0524 78.8135 12.1256 78.876 12.172C78.9367 12.2185 79.0046 12.2417 79.076 12.2417C79.1493 12.2417 79.2171 12.2185 79.2779 12.172C79.3404 12.1256 79.3707 12.0524 79.3707 11.9542V9.62886C79.3707 9.53063 79.3922 9.44312 79.4332 9.36632C79.4743 9.28774 79.5279 9.22166 79.5922 9.16808C79.6565 9.1145 79.7315 9.07343 79.8172 9.04842C79.9029 9.02163 79.9887 9.00913 80.0762 9.00913C80.1583 9.00913 80.2423 9.02163 80.3244 9.04842C80.4066 9.07343 80.4816 9.1145 80.5494 9.16808C80.6173 9.22166 80.6691 9.29131 80.7084 9.37346C80.7477 9.45562 80.7656 9.55385 80.7656 9.66815V11.9542C80.7656 12.0524 80.7977 12.1256 80.8602 12.172C80.9209 12.2185 80.9888 12.2417 81.0602 12.2417C81.1335 12.2417 81.2013 12.2185 81.262 12.172C81.3246 12.1256 81.3549 12.0524 81.3549 11.9542V9.66815ZM77.374 10.7647C77.3115 10.7147 77.2454 10.6915 77.1722 10.6915C77.1008 10.6915 77.0347 10.7147 76.9758 10.7647C76.915 10.8129 76.8829 10.8897 76.8775 10.9933C76.8668 11.1737 76.8007 11.3291 76.6757 11.4577C76.5525 11.588 76.4007 11.6523 76.2185 11.6523H76.1489C75.9631 11.6523 75.806 11.588 75.6774 11.4595C75.547 11.3309 75.4827 11.1755 75.4827 10.9951V9.66636C75.4827 9.48598 75.547 9.3306 75.6774 9.20201C75.806 9.07343 75.9613 9.00913 76.1417 9.00913H76.2185C76.4007 9.00913 76.5525 9.07164 76.6757 9.19487C76.8007 9.31989 76.8668 9.47884 76.8775 9.67529C76.8829 9.77352 76.915 9.84674 76.9758 9.89318C77.0347 9.93961 77.1008 9.96283 77.1722 9.96283C77.2454 9.96283 77.3115 9.93782 77.374 9.8896C77.4365 9.8396 77.4669 9.76637 77.4669 9.66815C77.4669 9.4967 77.433 9.33596 77.3669 9.18415C77.299 9.03056 77.2097 8.8984 77.099 8.7841C76.9883 8.6698 76.8561 8.58229 76.7043 8.51621C76.5507 8.45191 76.39 8.41977 76.2185 8.41977H76.1417C75.9703 8.41977 75.8095 8.45191 75.6577 8.51621C75.5041 8.58229 75.372 8.6698 75.2613 8.78053C75.1505 8.89126 75.0612 9.02342 74.9951 9.17522C74.9273 9.32882 74.8933 9.49312 74.8933 9.66815V11.0005C74.8933 11.1773 74.9255 11.3398 74.9898 11.4898C75.0559 11.6398 75.1434 11.7702 75.2577 11.8809C75.372 11.9917 75.5041 12.0792 75.6577 12.1435C75.8095 12.2096 75.9703 12.2417 76.1417 12.2417H76.2185C76.39 12.2417 76.5507 12.2078 76.7043 12.1435C76.8561 12.0774 76.9883 11.9881 77.1026 11.8756C77.2169 11.7631 77.3062 11.6327 77.3705 11.4827C77.4348 11.3327 77.4669 11.1683 77.4669 10.9933C77.4669 10.8897 77.4365 10.8129 77.374 10.7647ZM73.7039 11.1273C73.7039 10.8754 73.6539 10.6772 73.5539 10.5325C73.4521 10.3879 73.3289 10.2754 73.1806 10.1968C73.0342 10.1164 72.8734 10.0575 72.6966 10.0182C72.5216 9.9789 72.3591 9.9414 72.2126 9.90211C72.0662 9.86281 71.9412 9.81102 71.8412 9.74673C71.7394 9.68243 71.6894 9.58421 71.6894 9.45026V9.42704C71.6947 9.31274 71.7537 9.21451 71.868 9.13236C71.9805 9.05021 72.1466 9.00913 72.3644 9.00913H72.3948C72.5698 9.00913 72.7073 9.03413 72.8056 9.08235C72.9038 9.13236 72.9949 9.17701 73.077 9.21809C73.1395 9.24845 73.1949 9.26452 73.2467 9.26452C73.3306 9.26452 73.3967 9.23595 73.4485 9.1788C73.5003 9.12343 73.5271 9.05735 73.5271 8.98591C73.5271 8.89126 73.4896 8.81625 73.4182 8.75731C73.3878 8.73231 73.3414 8.69838 73.2824 8.65908C73.2235 8.61979 73.1503 8.58408 73.0645 8.55014C72.9806 8.51621 72.8824 8.48585 72.7716 8.45906C72.6591 8.43227 72.5377 8.41977 72.4019 8.41977H72.3716C72.2484 8.41977 72.1126 8.43584 71.9644 8.46977C71.8179 8.50371 71.6804 8.55907 71.5536 8.63587C71.4268 8.71445 71.3197 8.81625 71.2322 8.94126C71.1446 9.06807 71.1 9.22344 71.1 9.40918C71.1 9.65207 71.15 9.8396 71.2518 9.96997C71.3518 10.1021 71.4768 10.2039 71.6233 10.2754C71.7715 10.3486 71.9322 10.4004 72.1073 10.4343C72.2841 10.4683 72.4448 10.5075 72.593 10.554C72.7395 10.6004 72.8645 10.6629 72.9645 10.7433C73.0645 10.8237 73.1163 10.9451 73.1163 11.1112V11.1344C73.111 11.263 73.0449 11.3809 72.9181 11.4898C72.7913 11.5988 72.6091 11.6523 72.3716 11.6523H72.3323C72.1876 11.6523 72.0412 11.6023 71.8912 11.5041C71.7412 11.4077 71.6179 11.2934 71.5197 11.163C71.4822 11.113 71.4411 11.0773 71.3947 11.0594C71.3482 11.0415 71.3018 11.0326 71.2554 11.0326C71.1786 11.0326 71.1089 11.0576 71.0464 11.1094C70.9839 11.1612 70.9535 11.2309 70.9535 11.3184C70.9535 11.3398 70.966 11.388 70.9911 11.4666C71.0536 11.5845 71.1339 11.6934 71.2322 11.7899C71.3304 11.8863 71.4393 11.9684 71.5572 12.0327C71.6769 12.0988 71.8019 12.1488 71.934 12.1863C72.0662 12.2221 72.193 12.2417 72.318 12.2417H72.3644C72.5234 12.2417 72.6841 12.2185 72.8449 12.172C73.0038 12.1256 73.1485 12.0577 73.2789 11.9667C73.4074 11.8774 73.511 11.7649 73.5878 11.6309C73.6664 11.497 73.7039 11.3398 73.7039 11.1594V11.1273ZM69.8838 11.7541C69.8409 11.697 69.7712 11.6631 69.6784 11.6523C69.5605 11.6416 69.4551 11.5988 69.3658 11.5237C69.2748 11.4505 69.2301 11.3452 69.2301 11.2112V9.03235H69.648C69.7462 9.03235 69.8195 9.00199 69.8695 8.93948C69.9177 8.87697 69.9427 8.81089 69.9427 8.73767C69.9427 8.66623 69.9177 8.59836 69.8695 8.53585C69.8195 8.47335 69.7462 8.44299 69.648 8.44299H69.2301V7.09459C69.2301 6.99637 69.198 6.92314 69.1372 6.87314C69.0747 6.82491 69.0069 6.79991 68.9354 6.79991C68.8622 6.79991 68.7961 6.82491 68.7336 6.87314C68.6711 6.92314 68.6407 6.99637 68.6407 7.09459V8.44299H68.3693C68.2711 8.44299 68.1978 8.47335 68.1478 8.53585C68.0996 8.59836 68.0746 8.66623 68.0746 8.73767C68.0746 8.81089 68.0996 8.87697 68.1478 8.93948C68.1978 9.00199 68.2711 9.03235 68.3693 9.03235H68.6407V11.2255C68.6407 11.3648 68.6657 11.497 68.7175 11.622C68.7693 11.7452 68.8426 11.8541 68.9354 11.947C69.0283 12.0399 69.1372 12.1113 69.2605 12.1631C69.3837 12.2149 69.5159 12.2417 69.6552 12.2417C69.7587 12.2417 69.8338 12.2113 69.8802 12.1506C69.9266 12.0899 69.9498 12.0238 69.9498 11.9506C69.9498 11.8774 69.9284 11.8113 69.8838 11.7541ZM66.878 8.71445C66.878 8.61622 66.8459 8.543 66.7851 8.49299C66.7226 8.44477 66.6548 8.41977 66.5833 8.41977C66.5101 8.41977 66.444 8.44477 66.3815 8.49299C66.319 8.543 66.2886 8.61622 66.2886 8.71445V10.9951C66.2886 11.1755 66.2243 11.3291 66.0958 11.4595C65.9654 11.588 65.8082 11.6523 65.6225 11.6523H65.5528C65.3707 11.6523 65.2171 11.588 65.0867 11.4595C64.9581 11.3291 64.8938 11.1755 64.8938 10.9951V8.71445C64.8938 8.61622 64.8617 8.543 64.801 8.49299C64.7384 8.44477 64.6706 8.41977 64.5991 8.41977C64.5259 8.41977 64.4598 8.44477 64.3973 8.49299C64.3348 8.543 64.3045 8.61622 64.3045 8.71445V11.0005C64.3045 11.2184 64.3384 11.4041 64.4045 11.5595C64.4723 11.7148 64.5634 11.8416 64.6759 11.9434C64.7902 12.0435 64.9224 12.1185 65.076 12.1667C65.2278 12.2167 65.3867 12.2417 65.5528 12.2417H65.6225C65.7564 12.2417 65.8832 12.2221 66.0011 12.1828C66.1208 12.1435 66.2154 12.0863 66.2886 12.0131C66.3047 12.0917 66.3404 12.1488 66.3976 12.1863C66.4547 12.2221 66.5155 12.2417 66.5833 12.2417C66.6548 12.2417 66.7226 12.2167 66.7851 12.1667C66.8459 12.1185 66.878 12.047 66.878 11.9542V8.71445ZM62.4756 10.0628H61.0808V9.6735C61.0808 9.48598 61.1469 9.32703 61.2791 9.20023C61.4094 9.07343 61.5666 9.00913 61.747 9.00913H61.8256C61.9952 9.00913 62.147 9.07343 62.2792 9.20023C62.4096 9.32703 62.4756 9.48777 62.4756 9.68065V10.0628ZM63.065 9.67529C63.065 9.49491 63.0329 9.32882 62.9686 9.17522C62.9043 9.02342 62.815 8.88947 62.7007 8.77696C62.5864 8.66266 62.4542 8.57515 62.3024 8.51264C62.1488 8.45013 61.9881 8.41977 61.8166 8.41977H61.7398C61.5684 8.41977 61.4076 8.45191 61.2558 8.51621C61.1022 8.58229 60.9701 8.6698 60.8558 8.7841C60.7433 8.8984 60.654 9.03056 60.5879 9.18415C60.5236 9.33596 60.4915 9.4967 60.4915 9.66815V11.0005C60.4915 11.1773 60.5236 11.3398 60.5879 11.4898C60.654 11.6398 60.7433 11.7702 60.8558 11.8809C60.9701 11.9917 61.1022 12.0792 61.2558 12.1435C61.4076 12.2096 61.5684 12.2417 61.7398 12.2417H61.8166C62.0809 12.2417 62.3113 12.1738 62.5114 12.0363C62.7096 11.9006 62.8561 11.7238 62.9489 11.5041C62.9704 11.4684 62.9793 11.4255 62.9793 11.3737C62.9793 11.2844 62.9489 11.213 62.8864 11.1558C62.8257 11.0987 62.7543 11.0701 62.6775 11.0701C62.6257 11.0701 62.5774 11.0844 62.531 11.113C62.4846 11.1416 62.4471 11.1898 62.4221 11.2576C62.3703 11.3648 62.2935 11.4577 62.1935 11.5362C62.0917 11.613 61.9666 11.6523 61.8166 11.6523H61.7398C61.5595 11.6523 61.4041 11.588 61.2737 11.4595C61.1451 11.3309 61.0808 11.1773 61.0808 10.9987V10.6058H62.7703C62.8525 10.6058 62.9221 10.5754 62.9793 10.5165C63.0364 10.4575 63.065 10.3879 63.065 10.3111V9.67529ZM58.5394 10.729C58.5394 10.854 58.5162 10.9683 58.4698 11.0755C58.4233 11.1808 58.359 11.2737 58.2804 11.3541C58.2001 11.4345 58.1072 11.497 58.0018 11.5434C57.8965 11.5898 57.7822 11.613 57.6589 11.613H56.7017V7.43571H57.6661C57.7893 7.43571 57.9036 7.45893 58.009 7.50536C58.1161 7.5518 58.2072 7.6143 58.284 7.69467C58.3608 7.77504 58.4233 7.86791 58.4698 7.97507C58.5162 8.08044 58.5394 8.19474 58.5394 8.31975V10.729ZM59.127 8.31082C59.127 8.1108 59.0895 7.9197 59.0109 7.74111C58.9341 7.5643 58.8287 7.40892 58.6984 7.27676C58.5662 7.1446 58.4108 7.04101 58.2322 6.96243C58.0536 6.88564 57.8643 6.84635 57.6625 6.84635H56.407C56.3302 6.84635 56.2605 6.87671 56.2016 6.93564C56.1427 6.99458 56.1123 7.06423 56.1123 7.14103V11.9077C56.1123 11.9845 56.1427 12.0542 56.2016 12.1131C56.2605 12.172 56.3302 12.2024 56.407 12.2024H57.6625C57.8643 12.2024 58.0536 12.1631 58.2322 12.0863C58.4108 12.0095 58.5662 11.9042 58.6984 11.772C58.8287 11.6398 58.9341 11.4845 59.0109 11.3041C59.0895 11.1219 59.127 10.9308 59.127 10.729V8.31082Z" fill="#C80D0F"/>
</g>
<defs>
<clipPath id="clip0_725_147257">
<rect width="148.801" height="40" fill="white" transform="translate(0.71582)"/>
</clipPath>
</defs>
</svg>