<svg width="75" height="48" viewBox="0 0 75 48" fill="none" xmlns="http://www.w3.org/2000/svg">
<path d="M70.1538 43.5026H70.6571L72.3121 45.6384V43.5026H72.846V46.5917H72.3912L70.6878 44.3947V46.5917H70.1538V43.5026ZM68.8142 45.056V45.0431C68.8142 44.443 68.377 43.943 67.7641 43.943C67.1511 43.943 66.722 44.4333 66.722 45.0334V45.0463C66.722 45.6464 67.1592 46.1447 67.7721 46.1447C68.3851 46.1447 68.8142 45.6544 68.8142 45.0543M66.1542 45.0543V45.0414C66.1542 44.172 66.8236 43.4429 67.7721 43.4429C68.7206 43.4429 69.3836 44.1623 69.3836 45.0317V45.0446C69.3836 45.9124 68.7125 46.6416 67.7641 46.6416C66.8156 46.6416 66.1542 45.9221 66.1542 45.0527M64.8088 43.4994H65.3507V46.5885H64.8088V43.4994ZM62.5637 44.0026H61.5845V43.4993H64.0913V44.0026H63.1105V46.5884H62.5637V44.0026ZM60.474 45.3616L59.94 44.1259L59.4109 45.3616H60.474ZM59.6965 43.4775H60.1997L61.5596 46.5875H60.9853L60.6724 45.8422H59.2125L58.8948 46.5875H58.3382L59.6965 43.4775ZM56.7863 44.0026H55.8072V43.4993H58.3139V44.0026H57.3331V46.5884H56.7863V44.0026ZM54.0739 45.0305C54.4627 45.0305 54.7095 44.8273 54.7095 44.5144V44.5015C54.7095 44.1692 54.4707 43.9885 54.0691 43.9885H53.2787V45.0258H54.0739V45.0305ZM52.7367 43.4998H54.1143C54.5014 43.4998 54.8063 43.6147 55.0047 43.8078C55.1676 43.9756 55.2612 44.2047 55.2612 44.4741V44.487C55.2612 44.9935 54.9563 45.2983 54.524 45.4226L55.3579 46.592H54.7175L53.9594 45.5145H53.9504H53.2793V46.592H52.7373V43.503L52.7367 43.4998ZM51.3969 45.0527V45.0398C51.3969 44.4398 50.9597 43.9397 50.3468 43.9397C49.7338 43.9397 49.3063 44.4301 49.3063 45.0302V45.0431C49.3063 45.6431 49.7419 46.1415 50.3565 46.1415C50.9694 46.1415 51.3969 45.6511 51.3969 45.0511M48.7369 45.0511V45.0382C48.7369 44.1688 49.4064 43.4397 50.3565 43.4397C51.3049 43.4397 51.9663 44.1591 51.9663 45.0285V45.0414C51.9663 45.9092 51.2953 46.6383 50.3468 46.6383C49.3983 46.6383 48.7369 45.9189 48.7369 45.0495M46.9856 45.1024C47.3953 45.1024 47.6518 44.8734 47.6518 44.5508V44.5379C47.6518 44.1748 47.3921 43.9862 46.9856 43.9862H46.3549V45.0975H46.9856V45.1024ZM45.8113 43.4958H47.0292C47.7486 43.4958 48.2035 43.9071 48.2035 44.5297V44.5426C48.2035 45.2347 47.647 45.5976 46.9679 45.5976H46.3549V46.5897H45.8113V43.5006V43.4958ZM42.6669 46.1351L42.9928 45.7464C43.2896 46.0028 43.5848 46.148 43.9687 46.148C44.3042 46.148 44.5155 45.9931 44.5155 45.7593V45.7464C44.5155 45.5253 44.3929 45.4059 43.8187 45.2737C43.1622 45.1156 42.7911 44.9205 42.7911 44.3527V44.3398C42.7911 43.8107 43.2315 43.4444 43.8461 43.4444C44.2945 43.4444 44.6526 43.5816 44.9656 43.8316L44.6752 44.243C44.3978 44.0348 44.1187 43.9251 43.8364 43.9251C43.5186 43.9251 43.3331 44.0881 43.3331 44.2914V44.3043C43.3331 44.543 43.4751 44.6495 44.0655 44.7898C44.7188 44.9495 45.0591 45.1833 45.0591 45.6947V45.7077C45.0591 46.2851 44.6042 46.6286 43.9558 46.6286C43.4832 46.6286 43.0379 46.4658 42.6669 46.1351ZM39.2753 43.4962H39.7786L41.4336 45.6319V43.4962H41.9675V46.5853H41.5126L39.8092 44.3883V46.5853H39.2753V43.4962ZM37.5471 45.3583L37.0131 44.1227L36.484 45.3583H37.5471ZM36.7712 43.4743H37.2728L38.6327 46.5843H38.0584L37.7455 45.839H36.2856L35.9679 46.5843H35.4114L36.7712 43.4743ZM33.7097 45.0273C34.0985 45.0273 34.3453 44.8241 34.3453 44.5111V44.4982C34.3453 44.1659 34.1065 43.9853 33.7049 43.9853H32.9145V45.0225H33.7097V45.0273ZM32.3725 43.4966H33.7484C34.1372 43.4966 34.442 43.6114 34.6405 43.8046C34.8034 43.9724 34.8969 44.2014 34.8969 44.4709V44.4838C34.8969 44.9903 34.5921 45.2951 34.1598 45.4194L34.9937 46.5888H34.3533L33.5952 45.5112H33.5849H32.9138V46.5888H32.3718V43.4998L32.3725 43.4966ZM30.1589 43.9993H29.1797V43.4961H31.6864V43.9993H30.7057V46.5852H30.1589V43.9993ZM24.3628 43.4962H24.8661L26.5211 45.6319V43.4962H27.055V46.5853H26.6001L24.8967 44.3883V46.5853H24.3628V43.4962ZM22.6345 45.3583L22.1006 44.1227L21.5715 45.3583H22.6345ZM21.857 43.4743H22.3603L23.7201 46.5843H23.1459L22.8329 45.839H21.3731L21.0553 46.5843H20.4988L21.857 43.4743ZM17.694 43.4962H19.9846V43.9818H18.236V44.7851H19.7862V45.2706H18.236V46.0997H20.0056V46.5853H17.694V43.4962ZM14.849 43.4962H15.391V46.09H17.0154V46.5853H14.849V43.4962ZM11.3426 45.0495V45.0366C11.3426 44.1574 11.9991 43.438 12.9363 43.438C13.5041 43.438 13.8493 43.6365 14.1445 43.9187L13.796 44.3204C13.5492 44.0914 13.2847 43.9365 12.9314 43.9365C12.3394 43.9365 11.912 44.422 11.912 45.0269V45.0398C11.912 45.6431 12.3394 46.1383 12.9314 46.1383C13.3105 46.1383 13.5525 45.9834 13.8186 45.7367L14.167 46.0899C13.8444 46.4239 13.4912 46.6368 12.9137 46.6368C12.0136 46.6368 11.3426 45.935 11.3426 45.0478M6.44237 43.4946H6.94565L8.60066 45.6304V43.4946H9.13458V46.5836H8.6797L6.97629 44.3866V46.5836H6.44237V43.4946ZM5.10272 45.048V45.0351C5.10272 44.435 4.66558 43.935 4.05261 43.935C3.43964 43.935 3.01057 44.4253 3.01057 45.0254V45.0383C3.01057 45.6384 3.44771 46.1367 4.06068 46.1367C4.67526 46.1367 5.10272 45.6464 5.10272 45.0463M2.44115 45.0463V45.0334C2.44115 44.164 3.11219 43.4349 4.06068 43.4349C5.00916 43.4349 5.67213 44.1543 5.67213 45.0237V45.0366C5.67213 45.9044 5.0011 46.6336 4.05261 46.6336C3.10413 46.6336 2.44115 45.9141 2.44115 45.0447M70.9255 38.1986H71.4691V40.7941H73.0919V41.2877H70.9255V38.1986ZM69.5592 38.199H70.1012V41.288H69.5592V38.199ZM66.1357 39.7519V39.739C66.1357 38.8615 66.7922 38.1421 67.7278 38.1421C68.2972 38.1421 68.6424 38.3404 68.9376 38.6228L68.5891 39.0244C68.3423 38.7953 68.0778 38.6405 67.7245 38.6405C67.1325 38.6405 66.7051 39.1261 66.7051 39.7309V39.7438C66.7051 40.3488 67.1325 40.8439 67.7245 40.8439C68.1036 40.8439 68.3472 40.6891 68.6117 40.4423L68.9602 40.7955C68.6375 41.1295 68.2843 41.3424 67.7068 41.3424C66.8067 41.3424 66.1357 40.6407 66.1357 39.7535M62.7879 38.2003H63.2912L64.9462 40.336V38.2003H65.4801V41.2893H65.0252L63.3218 39.0923V41.2893H62.7879V38.2003ZM59.4008 39.9784V38.2008H59.9428V39.9558C59.9428 40.5301 60.2396 40.8381 60.7251 40.8381C61.2058 40.8381 61.501 40.5478 61.501 39.9784V38.2008H62.0446V39.9526C62.0446 40.8736 61.5236 41.3382 60.7154 41.3382C59.9137 41.3382 59.4008 40.8736 59.4008 39.9784ZM58.2244 39.7535V39.7406C58.2244 39.1422 57.7872 38.6421 57.1743 38.6421C56.5597 38.6421 56.1322 39.1325 56.1322 39.7326V39.7455C56.1322 40.3471 56.5694 40.8456 57.1823 40.8456C57.7953 40.8456 58.2244 40.3552 58.2244 39.7552M55.5628 39.7552V39.7423C55.5628 38.8744 56.2338 38.1453 57.1823 38.1453C58.1308 38.1453 58.7938 38.8647 58.7938 39.7341V39.747C58.7938 40.6165 58.1227 41.3456 57.1743 41.3456C56.2258 41.3456 55.5628 40.6262 55.5628 39.7567M52.3965 39.7567V39.7438C52.3965 38.8663 53.0546 38.1469 53.9902 38.1469C54.5596 38.1469 54.9032 38.3453 55.1984 38.6276L54.85 39.0293C54.6032 38.8002 54.3386 38.6454 53.9854 38.6454C53.3934 38.6454 52.9659 39.1308 52.9659 39.7358V39.7487C52.9659 40.3535 53.3934 40.8488 53.9854 40.8488C54.3644 40.8488 54.608 40.694 54.8726 40.4471L55.221 40.8004C54.8984 41.1343 54.5451 41.3472 53.9676 41.3472C53.0675 41.3472 52.3965 40.6456 52.3965 39.7584M48.4803 38.2051H49.0223V40.8006H50.6466V41.2942H48.4803V38.2051ZM46.8667 40.0672L46.3328 38.8316L45.8037 40.0672H46.8667ZM46.0892 38.1831H46.5941L47.9523 41.2931H47.3781L47.0651 40.5479H45.6037L45.2875 41.2931H44.731L46.0892 38.1831ZM41.5113 38.2051H42.0146L43.6696 40.3408V38.2051H44.2036V41.2942H43.7487L42.0453 39.0972V41.2942H41.5113V38.2051ZM40.2864 39.7584V39.7455C40.2864 39.147 39.8492 38.6469 39.2363 38.6469C38.6217 38.6469 38.1942 39.1373 38.1942 39.7374V39.7503C38.1942 40.352 38.6314 40.8504 39.2443 40.8504C39.8589 40.8504 40.2864 40.36 40.2864 39.7599M37.6248 39.7599V39.747C37.6248 38.8792 38.2958 38.1501 39.2443 38.1501C40.1928 38.1501 40.8558 38.8695 40.8558 39.739V39.7519C40.8558 40.6213 40.1847 41.3504 39.2363 41.3504C38.2878 41.3504 37.6248 40.631 37.6248 39.7616M36.3945 38.2087H36.9365V41.2976H36.3945V38.2087ZM34.2648 38.7113H33.2856V38.208H35.7907V38.7113H34.8116V41.297H34.2648V38.7113ZM32.2899 40.0704L31.756 38.8348L31.2269 40.0704H32.2899ZM31.5124 38.1864H32.0157L33.3755 41.2964H32.8012L32.4883 40.5511H31.0285L30.7107 41.2964H30.1542L31.5124 38.1864ZM26.9345 38.2083H27.4378L29.0928 40.344V38.2083H29.6267V41.2974H29.1718L27.4684 39.1004V41.2974H26.9345V38.2083ZM25.0825 39.7394C25.4713 39.7394 25.7181 39.5362 25.7181 39.2232V39.2103C25.7181 38.878 25.4794 38.6974 25.0777 38.6974H24.2873V39.7346H25.0825V39.7394ZM23.7453 38.2087H25.1213C25.51 38.2087 25.8149 38.3235 26.0133 38.5167C26.1762 38.6845 26.2698 38.9135 26.2698 39.183V39.1959C26.2698 39.7024 25.9649 40.0072 25.5326 40.1315L26.3665 41.3009H25.7262L24.968 40.2233H24.959H24.2879V41.3009H23.7459V38.2119L23.7453 38.2087ZM20.7903 38.2083H23.0809V38.6939H21.3339V39.4972H22.8825V39.9827H21.3339V40.8118H23.1018V41.2974H20.7903V38.2083ZM18.6911 38.7113H17.7119V38.208H20.2186V38.7113H19.2379V41.297H18.6911V38.7113ZM14.4479 38.2083H14.9512L16.6062 40.344V38.2083H17.1401V41.2974H16.6852L14.9818 39.1004V41.2974H14.4479V38.2083ZM13.0808 41.2976H13.6228V38.2087H13.0808V41.2976ZM8.77132 38.2083H11.0619V38.6939H9.31492V39.4972H10.8635V39.9827H9.31492V40.8118H11.0828V41.2974H8.77132V38.2083ZM5.4192 38.2083H5.96281V39.4923H7.43554V38.2083H7.97915V41.2974H7.43554V39.9956H5.96281V41.2974H5.4192V38.2083ZM3.31995 38.7113H2.34082V38.208H4.84753V38.7113H3.86679V41.297H3.31995V38.7113Z" fill="#107790"/>
<path d="M61.7204 26.6873V16.2653H59.0943V10.9308H61.7204V5.30933H67.9565V10.9308H73.1264V16.2653H67.9565V25.6614C67.9565 27.0987 68.5727 27.7955 69.968 27.7955C71.1165 27.7955 72.1424 27.5084 73.0441 27.0148V32.0218C71.7311 32.8008 70.2132 33.2929 68.121 33.2929C64.3045 33.2929 61.7204 31.7749 61.7204 26.6873ZM36.1974 22.0509V21.9683C36.1974 15.6903 40.9979 10.5204 47.7276 10.5204C51.8716 10.5204 54.4558 11.9157 56.5076 14.2144L52.6927 18.3164C51.2974 16.8405 49.9021 15.8952 47.6857 15.8952C44.5676 15.8952 42.3513 18.6454 42.3513 21.8861V21.9687C42.3513 25.3336 44.5273 28.042 47.9325 28.042C50.0246 28.042 51.4619 27.1387 52.9798 25.7031L56.6318 29.3953C54.4977 31.7343 52.0361 33.4168 47.6454 33.4168C41.0382 33.4168 36.1974 28.329 36.1974 22.0509ZM13.3784 22.0511V21.9685C13.3784 15.6904 18.1789 10.5206 24.9086 10.5206C29.0526 10.5206 31.6368 11.9158 33.6886 14.2145L29.8737 18.3165C28.4784 16.8406 27.0831 15.8953 24.8667 15.8953C21.7486 15.8953 19.5323 18.6455 19.5323 21.8863V21.9689C19.5323 25.3337 21.7083 28.0421 25.1135 28.0421C27.2057 28.0421 28.6429 27.1388 30.1608 25.7032L33.8112 29.3954C31.6787 31.7344 29.2172 33.4169 24.8264 33.4169C18.2192 33.4169 13.3784 28.3291 13.3784 22.0511ZM2.34082 10.9317H8.57695V32.9243H2.34082V10.9317Z" fill="#4B2E25"/>
<path d="M2.83614 5.25558C2.83872 6.58152 3.91205 7.65415 5.238 7.65737C6.56394 7.65737 7.63825 6.58152 7.63986 5.25558C7.63857 3.92963 6.56394 2.85533 5.238 2.85365C3.91205 2.85365 2.83936 3.92963 2.83614 5.25558ZM1.34082 5.25558C1.34082 3.10206 3.08616 1.3584 5.238 1.3584C7.39145 1.3584 9.13518 3.10206 9.13679 5.25558C9.1355 7.40741 7.39145 9.15276 5.238 9.15276C3.08616 9.15276 1.34082 7.40741 1.34082 5.25558Z" fill="#107790"/>
</svg>
