<svg xmlns="http://www.w3.org/2000/svg" width="176" height="48" viewBox="0 0 176 48" fill="none">
<g clip-path="url(#clip0_725_147258)">
<path d="M53.1367 17.4543V10.4859H54.4584V17.4543H53.1367Z" fill="#6B7280"/>
<path d="M59.3243 17.4543L58.0396 14.6471C57.6394 13.7711 57.2481 12.5864 57.2481 12.5864C57.2481 12.5864 57.4062 14.0001 57.4062 14.8759V17.4543H56.1035V10.4859H57.3322L58.5054 13.0445C58.9706 14.0598 59.3243 15.2047 59.3243 15.2047C59.3243 15.2047 59.1752 13.6816 59.1752 12.915V10.4859H60.479V17.4543H59.3243Z" fill="#6B7280"/>
<path d="M63.387 17.5541C62.5591 17.5541 61.8422 17.3052 61.8422 17.3052V16.1105C61.8422 16.1105 62.7542 16.4091 63.2009 16.4091C63.7317 16.4091 64.2065 16.2398 64.2065 15.563C64.2065 14.9457 63.8713 14.7568 63.4245 14.4877L62.8382 14.1395C62.2889 13.8109 61.7861 13.3031 61.7861 12.3178C61.7861 10.7947 62.9588 10.3866 63.8158 10.3866C64.7278 10.3866 65.2306 10.6553 65.2306 10.6553V11.7901C65.2306 11.7901 64.5322 11.5016 63.9088 11.5016C63.4431 11.5016 63.0708 11.6807 63.0708 12.2381C63.0708 12.7259 63.3685 12.925 63.7502 13.154L64.309 13.4826C64.9049 13.8308 65.5102 14.3386 65.5102 15.5133C65.5102 17.2154 64.3186 17.5541 63.387 17.5541Z" fill="#6B7280"/>
<path d="M70.5538 11.6807H69.12V17.4543H67.8167V11.6807H66.2344V10.4859H70.7029L70.5538 11.6807Z" fill="#6B7280"/>
<path d="M71.7109 17.4543V10.4859H73.0327V17.4543H71.7109Z" fill="#6B7280"/>
<path d="M78.4434 11.6807H77.0101V17.4543H75.7064V11.6807H74.124V10.4859H78.5925L78.4434 11.6807Z" fill="#6B7280"/>
<path d="M81.7008 17.5541C80.0624 17.5541 79.5781 16.7674 79.5781 15.3041V10.486H80.8813V15.2644C80.8813 16.1206 81.0955 16.4391 81.7008 16.4391C82.2591 16.4391 82.5198 16.1405 82.5198 15.2644V10.486H83.823V15.3041C83.823 16.7278 83.2737 17.5541 81.7008 17.5541Z" fill="#6B7280"/>
<path d="M89.2203 11.6807H87.7865V17.4543H86.4833V11.6807H84.9004V10.4859H89.3694L89.2203 11.6807Z" fill="#6B7280"/>
<path d="M93.9619 11.6705H91.6812V13.1738H93.6363V14.2489H91.6812V16.2697H94.0085V17.4543H90.3779V10.4859H94.055L93.9619 11.6705Z" fill="#6B7280"/>
<path d="M101.849 11.6807H99.6421V13.1738H101.597V14.2489H99.6421V17.4543H98.3389V10.4859H101.97L101.849 11.6807Z" fill="#6B7280"/>
<path d="M105.07 11.382C104.419 11.382 104.046 11.8399 104.046 13.9701C104.046 16.1304 104.522 16.5584 105.07 16.5584C105.638 16.5584 106.095 16.1603 106.095 13.9701C106.095 11.8797 105.703 11.382 105.07 11.382ZM105.07 17.5541C104.065 17.5541 102.743 17.335 102.743 13.9701C102.743 10.6055 104.149 10.3866 105.07 10.3866C105.992 10.3866 107.398 10.6254 107.398 13.9701C107.398 17.3649 106.048 17.5541 105.07 17.5541Z" fill="#6B7280"/>
<path d="M110.502 11.591H110.083V13.6715C110.967 13.5818 111.665 13.5123 111.665 12.4869C111.665 11.82 111.33 11.591 110.502 11.591ZM111.581 17.4543L111.181 15.8718C111.023 15.2346 110.781 14.7865 110.613 14.5975L110.083 14.6471V17.4543H108.779V10.4859H110.567C111.964 10.4859 112.969 10.8345 112.969 12.4572C112.969 13.562 112.503 14.0796 111.787 14.3483C112.038 14.5178 112.271 14.9655 112.429 15.4536L113.062 17.4543H111.581Z" fill="#6B7280"/>
<path d="M121.023 11.6705H118.742V13.1738H120.697V14.2489H118.742V16.2697H121.069V17.4543H117.438V10.4859H121.116L121.023 11.6705Z" fill="#6B7280"/>
<path d="M125.548 17.4543L124.264 14.6471C123.864 13.7711 123.472 12.5864 123.472 12.5864C123.472 12.5864 123.63 14.0001 123.63 14.8759V17.4543H122.327V10.4859H123.556L124.729 13.0445C125.194 14.0598 125.548 15.2047 125.548 15.2047C125.548 15.2047 125.399 13.6816 125.399 12.915V10.4859H126.703V17.4543H125.548Z" fill="#6B7280"/>
<path d="M131.944 11.6705H129.663V13.1738H131.619V14.2489H129.663V16.2697H131.991V17.4543H128.36V10.4859H132.037L131.944 11.6705Z" fill="#6B7280"/>
<path d="M134.971 11.591H134.552V13.6715C135.436 13.5818 136.135 13.5123 136.135 12.4869C136.135 11.82 135.799 11.591 134.971 11.591ZM136.051 17.4543L135.651 15.8718C135.492 15.2346 135.251 14.7865 135.083 14.5975L134.552 14.6471V17.4543H133.249V10.4859H135.036C136.432 10.4859 137.438 10.8345 137.438 12.4572C137.438 13.562 136.973 14.0796 136.256 14.3483C136.507 14.5178 136.74 14.9655 136.898 15.4536L137.531 17.4543H136.051Z" fill="#6B7280"/>
<path d="M141.028 17.5541C139.828 17.5541 138.543 17.1956 138.543 14.0699C138.543 10.9539 140.098 10.3866 141.392 10.3866C142.323 10.3866 142.919 10.7449 142.919 10.7449V11.8597C142.919 11.8597 142.053 11.5113 141.392 11.5113C140.731 11.5113 139.846 11.8899 139.846 13.9701C139.846 16.1702 140.536 16.4391 141.01 16.4391C141.401 16.4391 141.894 16.3396 141.894 16.3396V14.2388H141.01L140.917 13.1738H143.198V17.1956C143.198 17.1956 142.053 17.5541 141.028 17.5541Z" fill="#6B7280"/>
<path d="M147.188 14.8363V17.4543H145.885V14.8363L144.069 10.4859H145.55L146.536 13.6517L147.524 10.4859H149.004L147.188 14.8363Z" fill="#6B7280"/>
<path d="M154.991 13.2933C154.824 12.4671 154.638 11.3719 154.638 11.3719C154.638 11.3719 154.451 12.4369 154.284 13.2933L153.939 15.0254H155.335L154.991 13.2933ZM155.82 17.4543L155.55 16.1006H153.725L153.455 17.4543H152.077L153.827 10.4859H155.448L157.197 17.4543H155.82Z" fill="#6B7280"/>
<path d="M161.519 17.4543L160.234 14.6471C159.834 13.7711 159.443 12.5864 159.443 12.5864C159.443 12.5864 159.601 14.0001 159.601 14.8759V17.4543H158.298V10.4859H159.527L160.7 13.0445C161.165 14.0598 161.519 15.2047 161.519 15.2047C161.519 15.2047 161.37 13.6816 161.37 12.915V10.4859H162.674V17.4543H161.519Z" fill="#6B7280"/>
<path d="M166.054 11.5712H165.635V16.3695H165.979C166.864 16.3695 167.404 16.0407 167.404 13.9701C167.404 11.9194 166.891 11.5712 166.054 11.5712ZM165.747 17.4543H164.332V10.4859H165.747C167.572 10.4859 168.707 10.934 168.707 13.9701C168.707 16.9368 167.572 17.4543 165.747 17.4543Z" fill="#6B7280"/>
<path d="M56.7212 20.9298H54.4399V22.4331H56.395V23.5082H54.4399V25.5295H56.7677V26.7136H53.1367V19.7453H56.8137L56.7212 20.9298Z" fill="#6B7280"/>
<path d="M61.6182 26.7136L60.3341 23.9066C59.9333 23.0303 59.5426 21.8457 59.5426 21.8457C59.5426 21.8457 59.7007 23.2594 59.7007 24.1355V26.7136H58.3975V19.7453H59.6261L60.7993 22.3038C61.2646 23.3191 61.6182 24.4638 61.6182 24.4638C61.6182 24.4638 61.4697 22.9409 61.4697 22.1745V19.7453H62.7729V26.7136H61.6182Z" fill="#6B7280"/>
<path d="M67.4215 26.7136H65.9131L64.2002 19.7453H65.6435L66.3694 23.7472C66.4995 24.4638 66.6676 25.8578 66.6676 25.8578C66.6676 25.8578 66.8347 24.4638 66.9652 23.7472L67.6911 19.7453H69.1345L67.4215 26.7136Z" fill="#6B7280"/>
<path d="M70.5625 26.7136V19.7453H71.8842V26.7136H70.5625Z" fill="#6B7280"/>
<path d="M75.6238 20.8503H75.2046V22.9308C76.0891 22.8412 76.7875 22.7716 76.7875 21.7462C76.7875 21.0794 76.4523 20.8503 75.6238 20.8503ZM76.7034 26.7136L76.3032 25.1309C76.1451 24.4935 75.903 24.046 75.7354 23.8564L75.2046 23.9066V26.7136H73.9014V19.7453H75.6889C77.0851 19.7453 78.0907 20.0936 78.0907 21.7165C78.0907 22.8213 77.6255 23.3389 76.9086 23.6076C77.1597 23.7769 77.3923 24.2253 77.5509 24.7127L78.1838 26.7136H76.7034Z" fill="#6B7280"/>
<path d="M81.8586 20.6414C81.2072 20.6414 80.8345 21.0993 80.8345 23.2295C80.8345 25.3899 81.3092 25.8181 81.8586 25.8181C82.4269 25.8181 82.8826 25.4195 82.8826 23.2295C82.8826 21.1391 82.4919 20.6414 81.8586 20.6414ZM81.8586 26.8135C80.8535 26.8135 79.5312 26.5945 79.5312 23.2295C79.5312 19.8649 80.937 19.646 81.8586 19.646C82.7806 19.646 84.1858 19.8847 84.1858 23.2295C84.1858 26.6239 82.8361 26.8135 81.8586 26.8135Z" fill="#6B7280"/>
<path d="M89.1602 26.7136L87.8755 23.9066C87.4753 23.0303 87.0841 21.8457 87.0841 21.8457C87.0841 21.8457 87.2427 23.2594 87.2427 24.1355V26.7136H85.9395V19.7453H87.1681L88.3413 22.3038C88.8065 23.3191 89.1602 24.4638 89.1602 24.4638C89.1602 24.4638 89.0111 22.9409 89.0111 22.1745V19.7453H90.3149V26.7136H89.1602Z" fill="#6B7280"/>
<path d="M96.8459 26.7136L96.8089 24.0656C96.7994 23.1002 96.902 21.9653 96.902 21.9653C96.902 21.9653 96.5483 22.861 96.1385 23.6377L95.2075 25.3998L94.267 23.6377C93.8393 22.8315 93.5131 21.975 93.5131 21.975C93.5131 21.975 93.6246 23.0006 93.6061 24.0656L93.5691 26.7136H92.2754L92.498 19.7453H93.5226L95.2075 23.2594L96.9205 19.7453H97.9165L98.1396 26.7136H96.8459Z" fill="#6B7280"/>
<path d="M103.694 20.9298H101.414V22.4331H103.369V23.5082H101.414V25.5295H103.741V26.7136H100.11V19.7453H103.787L103.694 20.9298Z" fill="#6B7280"/>
<path d="M108.592 26.7136L107.307 23.9066C106.907 23.0303 106.516 21.8457 106.516 21.8457C106.516 21.8457 106.674 23.2594 106.674 24.1355V26.7136H105.371V19.7453H106.6L107.773 22.3038C108.238 23.3191 108.592 24.4638 108.592 24.4638C108.592 24.4638 108.443 22.9409 108.443 22.1745V19.7453H109.747V26.7136H108.592Z" fill="#6B7280"/>
<path d="M115.54 20.9399H114.106V26.7136H112.803V20.9399H111.22V19.7453H115.688L115.54 20.9399Z" fill="#6B7280"/>
<path d="M118.825 22.5527C118.658 21.7262 118.471 20.6312 118.471 20.6312C118.471 20.6312 118.285 21.6964 118.117 22.5527L117.773 24.2846H119.169L118.825 22.5527ZM119.654 26.7136L119.384 25.3601H117.559L117.289 26.7136H115.911L117.661 19.7453H119.282L121.031 26.7136H119.654Z" fill="#6B7280"/>
<path d="M125.669 26.7136H122.504V19.7453H123.807V25.5295H125.79L125.669 26.7136Z" fill="#6B7280"/>
<path d="M132.635 20.8503H132.216V22.9308C133.1 22.8412 133.799 22.7716 133.799 21.7462C133.799 21.0794 133.463 20.8503 132.635 20.8503ZM133.715 26.7136L133.315 25.1309C133.156 24.4935 132.915 24.046 132.747 23.8564L132.216 23.9066V26.7136H130.913V19.7453H132.701C134.097 19.7453 135.102 20.0936 135.102 21.7165C135.102 22.8213 134.637 23.3389 133.92 23.6076C134.171 23.7769 134.404 24.2253 134.562 24.7127L135.195 26.7136H133.715Z" fill="#6B7280"/>
<path d="M140.41 20.9298H138.128V22.4331H140.084V23.5082H138.128V25.5295H140.456V26.7136H136.825V19.7453H140.502L140.41 20.9298Z" fill="#6B7280"/>
<path d="M143.386 26.8135C142.557 26.8135 141.84 26.5646 141.84 26.5646V25.3699C141.84 25.3699 142.753 25.6683 143.199 25.6683C143.73 25.6683 144.205 25.4994 144.205 24.8226C144.205 24.2051 143.869 24.0162 143.423 23.7473L142.836 23.3989C142.287 23.0703 141.784 22.5625 141.784 21.5772C141.784 20.0541 142.957 19.646 143.814 19.646C144.726 19.646 145.229 19.9147 145.229 19.9147V21.0495C145.229 21.0495 144.53 20.761 143.907 20.761C143.442 20.761 143.069 20.94 143.069 21.4974C143.069 21.9853 143.367 22.1843 143.749 22.4133L144.308 22.7419C144.903 23.0901 145.508 23.598 145.508 24.7725C145.508 26.4748 144.317 26.8135 143.386 26.8135Z" fill="#6B7280"/>
<path d="M150.723 20.9298H148.442V22.4331H150.397V23.5082H148.442V25.5295H150.769V26.7136H147.139V19.7453H150.816L150.723 20.9298Z" fill="#6B7280"/>
<path d="M154.903 22.5527C154.736 21.7262 154.55 20.6312 154.55 20.6312C154.55 20.6312 154.363 21.6964 154.196 22.5527L153.851 24.2846H155.248L154.903 22.5527ZM155.732 26.7136L155.462 25.3601H153.637L153.367 26.7136H151.989L153.739 19.7453H155.36L157.109 26.7136H155.732Z" fill="#6B7280"/>
<path d="M160.305 20.8503H159.886V22.9308C160.77 22.8412 161.469 22.7716 161.469 21.7462C161.469 21.0794 161.133 20.8503 160.305 20.8503ZM161.385 26.7136L160.985 25.1309C160.826 24.4935 160.585 24.046 160.417 23.8564L159.886 23.9066V26.7136H158.583V19.7453H160.37C161.766 19.7453 162.772 20.0936 162.772 21.7165C162.772 22.8213 162.307 23.3389 161.59 23.6076C161.841 23.7769 162.074 24.2253 162.232 24.7127L162.865 26.7136H161.385Z" fill="#6B7280"/>
<path d="M166.568 26.8135C165.478 26.8135 164.259 26.4448 164.259 23.2295C164.259 20.0043 165.795 19.646 166.689 19.646C167.424 19.646 167.889 19.8949 167.889 19.8949V21.0195C167.889 21.0195 167.256 20.7808 166.754 20.7808C166.12 20.7808 165.562 21.1889 165.562 23.2295C165.562 25.0515 165.963 25.6683 166.661 25.6683C167.256 25.6683 167.889 25.4195 167.889 25.4195V26.5444C167.889 26.5444 167.396 26.8135 166.568 26.8135Z" fill="#6B7280"/>
<path d="M172.655 26.7136V23.5082H170.792V26.7136H169.489V19.7453H170.792V22.4331H172.655V19.7453H173.958V26.7136H172.655Z" fill="#6B7280"/>
<path d="M56.3019 35.973V32.7674H54.4399V35.973H53.1367V29.0046H54.4399V31.6925H56.3019V29.0046H57.6052V35.973H56.3019Z" fill="#6B7280"/>
<path d="M63.2236 30.1894H60.9429V31.6925H62.898V32.7674H60.9429V34.7889H63.2702V35.973H59.6396V29.0046H63.3167L63.2236 30.1894Z" fill="#6B7280"/>
<path d="M64.9131 35.973V29.0046H66.2348V35.973H64.9131Z" fill="#6B7280"/>
<path d="M69.9749 30.0899H69.5556V34.888H69.9003C70.7848 34.888 71.3246 34.5596 71.3246 32.4891C71.3246 30.4383 70.8129 30.0899 69.9749 30.0899ZM69.6677 35.973H68.2529V29.0046H69.6677C71.4922 29.0046 72.6284 29.4528 72.6284 32.4891C72.6284 35.4553 71.4922 35.973 69.6677 35.973Z" fill="#6B7280"/>
<path d="M77.9981 30.1894H75.7173V31.6925H77.6724V32.7674H75.7173V34.7889H78.0446V35.973H74.4141V29.0046H78.0911L77.9981 30.1894Z" fill="#6B7280"/>
<path d="M82.8405 35.973H79.6758V29.0046H80.9785V34.7889H82.9616L82.8405 35.973Z" fill="#6B7280"/>
<path d="M86.1749 32.8872H85.7837V34.9476H86.1469C86.9384 34.9476 87.4596 34.888 87.4596 33.9322C87.4596 33.0363 87.0129 32.8872 86.1749 32.8872ZM86.1284 30.03H85.7837V31.8918H86.1749C86.8823 31.8918 87.2735 31.772 87.2735 30.8664C87.2735 30.0996 86.8548 30.03 86.1284 30.03ZM86.0819 35.973H84.4805V29.0046H86.0819C87.5807 29.0046 88.5768 29.2535 88.5768 30.7863C88.5768 31.9114 87.9254 32.2102 87.3666 32.3498C87.9624 32.4787 88.7629 32.6978 88.7629 33.9824C88.7629 35.7541 87.7293 35.973 86.0819 35.973Z" fill="#6B7280"/>
<path d="M94.1192 30.1894H91.8379V31.6925H93.7935V32.7674H91.8379V34.7889H94.1657V35.973H90.5352V29.0046H94.2122L94.1192 30.1894Z" fill="#6B7280"/>
<path d="M97.5184 30.1095H97.0991V32.1902C97.9831 32.101 98.6815 32.0312 98.6815 31.0058C98.6815 30.3388 98.3463 30.1095 97.5184 30.1095ZM98.598 35.973L98.1977 34.3901C98.0391 33.7532 97.7975 33.3054 97.6299 33.1158L97.0991 33.166V35.973H95.7959V29.0046H97.5834C98.9797 29.0046 99.9852 29.353 99.9852 30.9758C99.9852 32.0807 99.5195 32.5987 98.8026 32.8672C99.0542 33.0363 99.2868 33.4847 99.4449 33.9718L100.078 35.973H98.598Z" fill="#6B7280"/>
<path d="M103.948 36.0728C102.747 36.0728 101.463 35.7144 101.463 32.5881C101.463 29.4724 103.017 28.9049 104.311 28.9049C105.243 28.9049 105.838 29.2634 105.838 29.2634V30.3786C105.838 30.3786 104.972 30.03 104.311 30.03C103.65 30.03 102.766 30.4083 102.766 32.489C102.766 34.6891 103.455 34.9575 103.93 34.9575C104.32 34.9575 104.814 34.8578 104.814 34.8578V32.7577H103.93L103.837 31.6924H106.117V35.7144C106.117 35.7144 104.972 36.0728 103.948 36.0728Z" fill="#6B7280"/>
<path d="M41.6872 0.409622H5.426C2.71521 0.409622 0.516602 2.60824 0.516602 5.319V41.5806C0.516602 44.2918 2.71521 46.4896 5.426 46.4896H41.6872C44.3992 46.4896 46.597 44.2918 46.597 41.5806V5.319C46.597 2.60824 44.3992 0.409622 41.6872 0.409622Z" fill="#96C11F"/>
<path d="M37.7495 25.3523C37.7495 25.4727 37.7481 30.7553 37.746 30.8695C37.7057 32.9719 37.3621 34.0468 36.1315 34.0468C34.9068 34.0468 34.5388 32.9925 34.4954 30.886C34.4933 30.7666 34.4912 25.4777 34.4912 25.3523H31.9316V31.3854C31.9316 34.718 33.3038 36.333 36.1283 36.333C38.9564 36.333 40.331 34.718 40.331 31.3854V25.3523H37.7495Z" fill="white"/>
<path d="M17.9263 35.5135C17.9263 35.9024 17.8392 35.967 17.4728 35.967H15.6399C15.2727 35.967 15.1868 35.9024 15.1868 35.5135V27.3163H13.9718C13.6051 27.3163 13.5195 27.2507 13.5195 26.8634V25.7633C13.5195 25.375 13.6051 25.3089 13.9718 25.3089H15.1868V20.6032C15.1868 18.2292 16.0498 16.5258 18.64 16.5258C19.609 16.5258 21.2692 16.8713 21.2692 17.303C21.2692 17.3672 21.2484 17.4321 21.2263 17.4953L20.8376 19.0072C20.817 19.0933 20.7306 19.222 20.6443 19.222C20.4074 19.222 19.9547 18.8564 19.1346 18.8564C17.9691 18.8564 17.9263 19.5669 17.9263 20.6032V25.3089H20.3859C20.5795 25.3089 20.7525 25.3534 20.7525 25.5258C20.7525 25.6119 20.7306 25.6559 20.7097 25.742L20.4074 27.0148C20.3426 27.2942 20.2133 27.3163 19.9975 27.3163H17.9263V35.5135Z" fill="white"/>
<path d="M11.2566 35.5135C11.2566 35.9024 11.1704 35.967 10.8042 35.967H8.96969C8.6033 35.967 8.51861 35.9024 8.51861 35.5135V27.3163H7.30262C6.93687 27.3163 6.85059 27.2507 6.85059 26.8634V25.7633C6.85059 25.375 6.93687 25.3089 7.30262 25.3089H8.51861H11.2566V35.5135Z" fill="white"/>
<path d="M27.2868 29.365C27.2868 28.4811 27.2228 26.9491 25.7546 26.9491C24.0942 26.9491 24.0087 28.7619 23.9455 29.365H27.2868ZM29.7562 34.8243C29.7977 34.8884 29.8208 34.9741 29.8208 35.0602C29.8208 35.6211 27.692 36.333 26.0097 36.333C23.2008 36.333 21.2422 34.716 21.2422 30.7462C21.2422 27.3163 23.0527 24.9428 25.9048 24.9428C29.5222 24.9428 30.1597 28.2219 30.1597 30.8313C30.1597 31.2419 30.0752 31.3713 29.6717 31.3713H23.9455C23.9455 32.5799 24.2859 34.0675 26.2873 34.0675C27.8192 34.0675 28.6922 33.356 28.99 33.356C29.0965 33.356 29.1812 33.4417 29.2248 33.5295L29.7562 34.8243Z" fill="white"/>
<path d="M13.6268 11.1858C13.6268 12.4493 12.603 13.4722 11.3393 13.4722C10.075 13.4722 9.05273 12.4493 9.05273 11.1858C9.05273 9.92211 10.075 8.89798 11.3393 8.89798C12.603 8.89798 13.6268 9.92211 13.6268 11.1858Z" fill="white"/>
</g>
<defs>
<clipPath id="clip0_725_147258">
<rect width="174.72" height="48" fill="white" transform="translate(0.516602)"/>
</clipPath>
</defs>
</svg>