<svg width="161" height="48" viewBox="0 0 161 48" fill="none" xmlns="http://www.w3.org/2000/svg">
<g clip-path="url(#clip0_735_43643)">
<path d="M0.838558 0.00415039V0.393549V33.5263H1.5835V0.766018H34.3438V0.00415039H1.21103H0.838558ZM20.1392 5.11713C14.6869 5.11713 9.95997 8.19236 7.57685 12.7019H32.7185C30.334 8.1971 25.5915 5.12051 20.1392 5.11713ZM7.57685 12.7019C6.53191 14.6842 5.93461 16.9427 5.93461 19.3387C5.93461 20.5719 6.09511 21.7807 6.39173 22.9279L19.5805 24.4516V18.763H34.3438C34.3072 17.714 34.1562 16.7083 33.9036 15.7325L7.57685 12.7019ZM150.182 9.87457C149.111 9.87457 148.641 10.5342 148.641 11.5337V12.9051H147.676V13.7178H148.641V19.0339H149.657V13.7178H150.774V12.9051H149.657V11.6184C149.657 11.0048 149.822 10.6872 150.385 10.6872C150.626 10.6872 150.857 10.7258 150.977 10.8227V9.95922C150.748 9.9003 150.458 9.87457 150.182 9.87457ZM100.728 10.01V19.0339H101.744V10.01H100.728ZM80.3437 10.3655V11.5676H81.4611V10.3655H80.3437ZM123.702 10.3655V11.5676H124.803V10.3655H123.702ZM43.4016 10.6364V19.0339H44.4512V10.6364H43.4016ZM106.637 10.6364V19.0339H107.686V10.6364H106.637ZM53.6106 11.3475L52.5948 11.6523V12.9051H51.6128V13.7178H52.5948V17.6625C52.5948 18.7468 53.0891 19.1186 54.0169 19.1186C54.2939 19.1186 54.623 19.0502 54.8634 18.9662V18.1535C54.6711 18.2375 54.4903 18.3059 54.237 18.3059C53.7806 18.3059 53.6106 18.0391 53.6106 17.3409V13.7178H54.8634V12.9051H53.6106V11.3475ZM78.0581 11.3475L77.0422 11.6523V12.9051H76.0772V13.7178H77.0422V17.6625C77.0422 18.7468 77.538 19.1186 78.4644 19.1186C78.7414 19.1186 79.0861 19.0502 79.3278 18.9662V18.1535C79.1355 18.2375 78.9547 18.3059 78.7014 18.3059C78.2457 18.3059 78.0581 18.0391 78.0581 17.3409V13.7178H79.3278V12.9051H78.0581V11.3475ZM121.417 11.3475L120.401 11.6523V12.9051H119.419V13.7178H120.401V17.6625C120.401 18.7468 120.893 19.1186 121.823 19.1186C122.098 19.1186 122.43 19.0502 122.67 18.9662V18.1535C122.477 18.2375 122.311 18.3059 122.06 18.3059C121.603 18.3059 121.417 18.0391 121.417 17.3409V13.7178H122.67V12.9051H121.417V11.3475ZM127.884 11.3475L126.885 11.6523V12.9051H125.903V13.7178H126.885V17.6625C126.885 18.7468 127.38 19.1186 128.307 19.1186C128.584 19.1186 128.912 19.0502 129.154 18.9662V18.1535C128.962 18.2375 128.781 18.3059 128.528 18.3059C128.07 18.3059 127.884 18.0391 127.884 17.3409V13.7178H129.154V12.9051H127.884V11.3475ZM137.501 11.3475L136.485 11.6523V12.9051H135.52V13.7178H136.485V17.6625C136.485 18.7468 136.979 19.1186 137.907 19.1186C138.184 19.1186 138.529 19.0502 138.77 18.9662V18.1535C138.577 18.2375 138.397 18.3059 138.144 18.3059C137.688 18.3059 137.501 18.0391 137.501 17.3409V13.7178H138.77V12.9051H137.501V11.3475ZM48.7854 12.8205C48.0757 12.8205 47.5536 13.1205 47.2278 13.8193H47.2109L47.1601 12.9051H46.1951C46.2079 13.3385 46.2459 13.7794 46.2459 14.2257V19.0339H47.2448V15.3431C47.2448 14.2365 47.754 13.6839 48.5484 13.6839C49.1985 13.6839 49.5642 14.097 49.5642 15.0722V19.0339H50.58V14.7844C50.58 13.4347 49.8574 12.8205 48.7854 12.8205ZM57.9109 12.8205C56.3811 12.8205 55.5406 14.0435 55.5406 15.9695C55.5406 17.8962 56.3865 19.1186 58.0125 19.1186C58.6281 19.1186 59.2586 18.9912 59.7394 18.763L59.6886 17.8488C59.3378 18.1007 58.7899 18.3567 58.2834 18.3567C57.1639 18.3567 56.6073 17.6937 56.6073 16.2743H60.078V15.7325C60.078 13.9284 59.2965 12.8205 57.9109 12.8205ZM64.0397 12.8205C63.137 12.8205 62.6203 13.1232 62.2959 13.8701H62.2789L62.2451 12.9051H61.2631C61.2753 13.3385 61.3139 13.7794 61.3139 14.2257V19.0339H62.3297V15.7833C62.3297 14.4492 62.8837 13.7855 63.6672 13.7855C63.7979 13.7855 63.9192 13.795 64.0397 13.8193V12.8205ZM67.5443 12.8205C66.8346 12.8205 66.3111 13.1205 65.9867 13.8193H65.9528L65.919 12.9051H64.9539C64.9661 13.3385 65.0047 13.7794 65.0047 14.2257V19.0339H66.0036V15.3431C66.0036 14.2365 66.5115 13.6839 67.3073 13.6839C67.9574 13.6839 68.3231 14.097 68.3231 15.0722V19.0339H69.3389V14.7844C69.3389 13.4347 68.615 12.8205 67.5443 12.8205ZM72.8943 12.8205C72.2909 12.8205 71.6726 13.0013 71.1674 13.3284L71.269 14.2765C71.6191 13.8911 72.2171 13.6331 72.8435 13.6331C73.2654 13.6331 73.6704 13.7469 73.8763 14.0225C74.0693 14.288 74.0964 14.5474 74.0964 15.0045V15.2754H73.5038C71.3956 15.2754 70.6256 16.1652 70.6256 17.3578C70.6256 18.5382 71.3746 19.1186 72.3864 19.1186C73.3257 19.1186 73.8356 18.6736 74.1133 18.2043H74.1302L74.1979 19.0339H75.1122C75.0898 18.8179 75.0614 18.4637 75.0614 18.1027V14.9029C75.0614 14.0374 74.8013 13.6616 74.5365 13.3961C74.3442 13.2038 73.795 12.8205 72.8943 12.8205ZM85.2535 12.8205C83.6288 12.8205 82.7986 14.0435 82.7986 15.9695C82.7986 17.8962 83.6288 19.1186 85.2535 19.1186C86.8788 19.1186 87.7253 17.8962 87.7253 15.9695C87.7253 14.0435 86.8788 12.8205 85.2535 12.8205ZM91.5516 12.8205C90.8405 12.8205 90.3346 13.1205 90.0109 13.8193H89.9771L89.9432 12.9051H88.9612C88.9734 13.3385 89.012 13.7794 89.012 14.2257V19.0339H90.0278V15.3431C90.0278 14.2365 90.5351 13.6839 91.3315 13.6839C91.9816 13.6839 92.3473 14.097 92.3473 15.0722V19.0339H93.3462V14.7844C93.3462 13.4347 92.6236 12.8205 91.5516 12.8205ZM96.9185 12.8205C96.3165 12.8205 95.6792 13.0013 95.1747 13.3284L95.2932 14.2765C95.642 13.8911 96.2433 13.6331 96.8677 13.6331C97.2903 13.6331 97.6797 13.7469 97.8835 14.0225C98.0759 14.288 98.1206 14.5474 98.1206 15.0045V15.2754H97.528C95.4212 15.2754 94.6329 16.1652 94.6329 17.3578C94.6329 18.5382 95.4009 19.1186 96.4106 19.1186C97.3526 19.1186 97.8612 18.6736 98.1375 18.2043H98.1544L98.2052 19.0339H99.1364C99.112 18.8179 99.0856 18.4637 99.0856 18.1027V14.9029C99.0856 14.0374 98.8235 13.6616 98.5608 13.3961C98.3671 13.2038 97.8206 12.8205 96.9185 12.8205ZM112.003 12.8205C111.293 12.8205 110.789 13.1205 110.463 13.8193H110.429L110.395 12.9051H109.43C109.444 13.3385 109.464 13.7794 109.464 14.2257V19.0339H110.48V15.3431C110.48 14.2365 110.988 13.6839 111.783 13.6839C112.435 13.6839 112.799 14.097 112.799 15.0722V19.0339H113.815V14.7844C113.815 13.4347 113.074 12.8205 112.003 12.8205ZM117.066 12.8205C115.872 12.8205 115.085 13.5877 115.085 14.5981C115.085 15.3803 115.409 15.7745 116.287 16.1727L116.964 16.4774C117.53 16.7307 117.743 17.0199 117.743 17.4424C117.743 17.9111 117.346 18.3059 116.575 18.3059C116.07 18.3059 115.594 18.1264 115.136 17.8488L115.068 18.763C115.514 18.9912 116.088 19.1186 116.727 19.1186C118.136 19.1186 118.708 18.2808 118.708 17.2224C118.708 16.4632 118.237 15.9654 117.489 15.6648L117.133 15.5124C116.46 15.2462 116.101 14.9733 116.101 14.4796C116.101 13.9981 116.437 13.6331 117.1 13.6331C117.557 13.6331 117.989 13.7611 118.302 13.904L118.352 13.0405C118.003 12.9085 117.57 12.8205 117.066 12.8205ZM141.818 12.8205C140.287 12.8205 139.431 14.0442 139.431 15.9695C139.431 17.8969 140.277 19.1186 141.903 19.1186C142.517 19.1186 143.151 18.9906 143.629 18.763L143.579 17.8488C143.229 18.1014 142.679 18.3567 142.173 18.3567C141.053 18.3567 140.497 17.693 140.497 16.2743H143.968V15.7325C143.968 13.9277 143.2 12.8205 141.818 12.8205ZM153.855 12.8205C152.229 12.8205 151.384 14.0435 151.384 15.9695C151.384 17.8962 152.229 19.1186 153.855 19.1186C155.481 19.1186 156.31 17.8962 156.31 15.9695C156.31 14.0435 155.481 12.8205 153.855 12.8205ZM160.34 12.8205C159.437 12.8205 158.922 13.1232 158.596 13.8701H158.562L158.528 12.9051H157.563C157.572 13.3392 157.614 13.7794 157.614 14.2257V19.0339H158.613V15.7833C158.613 14.4492 159.167 13.7855 159.95 13.7855C160.083 13.7855 160.221 13.795 160.34 13.8193V12.8205ZM80.3945 12.9051V19.0339H81.4103V12.9051H80.3945ZM123.753 12.9051V19.0339H124.769V12.9051H123.753ZM130.136 12.9051V17.1546C130.136 18.5036 130.859 19.1186 131.931 19.1186C132.641 19.1186 133.145 18.8172 133.471 18.1197H133.505L133.539 19.0339H134.521C134.508 18.6005 134.47 18.1589 134.47 17.7133V12.9051H133.454V16.5959C133.454 17.7032 132.946 18.2551 132.151 18.2551C131.501 18.2551 131.152 17.8427 131.152 16.8668V12.9051H130.136ZM57.8601 13.5823C58.6667 13.5823 59.0622 14.2203 59.0622 15.4955H56.6073C56.6303 14.0625 57.2093 13.5823 57.8601 13.5823ZM141.75 13.5823C142.557 13.5823 142.952 14.2196 142.952 15.4955H140.497C140.522 14.0618 141.099 13.5823 141.75 13.5823ZM85.2535 13.6331C86.2178 13.6331 86.6756 14.4282 86.6756 15.9695C86.6756 17.5108 86.2178 18.3059 85.2535 18.3059C84.2925 18.3059 83.8483 17.5108 83.8483 15.9695C83.8483 14.4282 84.2925 13.6331 85.2535 13.6331ZM153.855 13.6331C154.819 13.6331 155.261 14.4282 155.261 15.9695C155.261 17.5108 154.819 18.3059 153.855 18.3059C152.891 18.3059 152.433 17.5108 152.433 15.9695C152.433 14.4282 152.891 13.6331 153.855 13.6331ZM73.3853 16.0034C73.6609 16.0034 73.9155 16.0128 74.0964 16.0372V16.7991C74.0963 17.6416 73.5363 18.3567 72.6573 18.3567C71.9591 18.3567 71.6245 17.9409 71.6245 17.2901C71.6245 16.5797 72.1913 16.0034 73.3853 16.0034ZM97.4095 16.0034C97.6878 16.0034 97.9418 16.0128 98.1206 16.0372V16.7991C98.1206 17.6416 97.5625 18.3567 96.6815 18.3567C95.9867 18.3567 95.6487 17.9409 95.6487 17.2901C95.6487 16.5797 96.2189 16.0034 97.4095 16.0034ZM20.7148 19.8974V24.5701L32.7185 25.9584C33.6774 24.1354 34.253 22.0821 34.3438 19.8974H20.7148ZM32.7185 25.9584H20.7148V33.5263C25.9247 33.3238 30.4173 30.315 32.7185 25.9584ZM62.1604 24.3839V33.4078H63.1593V24.3839H62.1604ZM76.5174 24.3839V28.1086H76.5005C76.0908 27.4591 75.6248 27.1944 74.9259 27.1944C73.6616 27.1944 72.8096 28.2251 72.8096 30.3434C72.8096 32.4624 73.6616 33.4925 74.9259 33.4925C75.8171 33.4925 76.2865 32.992 76.5513 32.5105H76.5682L76.602 33.4078H77.584C77.5718 33.034 77.5332 32.6473 77.5332 32.2735V24.3839H76.5174ZM140.734 24.3839V33.4078H141.733V24.3839H140.734ZM64.9031 24.7394V25.9415H66.0036V24.7394H64.9031ZM153.06 24.7394V25.9415H154.177V24.7394H153.06ZM84.1699 24.9257C82.8934 24.9257 81.8335 25.6401 81.8335 27.025C81.8335 28.1086 82.1789 28.6321 83.6959 29.5477C84.8261 30.2337 84.9995 30.6068 84.9995 31.2576C84.9995 31.9443 84.4598 32.5782 83.5096 32.5782C83.0139 32.5782 82.3828 32.3249 81.9013 32.0364V33.1369C82.3462 33.3536 82.9862 33.4925 83.662 33.4925C85.2738 33.4925 86.1 32.4421 86.1 31.1053C86.1 30.1416 85.6733 29.4143 84.3731 28.6673C83.1697 27.9698 82.9509 27.6345 82.9509 27.0928C82.9509 26.3824 83.4595 25.8399 84.2546 25.8399C84.7713 25.8399 85.2955 25.9896 85.6937 26.2293V25.1966C85.3198 25.0401 84.7252 24.9257 84.1699 24.9257ZM45.3824 25.0103L42.572 33.4078H43.6217L44.2989 31.2238H47.4987L48.1759 33.4078H49.2764L46.5337 25.0103H45.3824ZM124.16 25.0103L121.349 33.4078H122.399L123.076 31.2238H126.276L126.953 33.4078H128.053L125.311 25.0103H124.16ZM98.5438 25.7214L97.528 26.0262V27.279H96.546V28.0917H97.528V32.0364C97.528 33.1193 98.0264 33.4925 98.9502 33.4925C99.2292 33.4925 99.5549 33.4247 99.7967 33.3401V32.5274C99.6043 32.6121 99.4222 32.6798 99.1702 32.6798C98.7125 32.6798 98.5438 32.413 98.5438 31.7148V28.0917H99.7967V27.279H98.5438V25.7214ZM7.57685 25.9584C9.87803 30.3082 14.372 33.3238 19.5805 33.5263V25.9584H7.57685ZM45.9073 26.1108H45.9411L47.2278 30.3095H44.5867L45.9073 26.1108ZM124.684 26.1108H124.718L126.005 30.3095H123.364L124.684 26.1108ZM52.7471 27.1944C51.8566 27.1944 51.3866 27.6968 51.1218 28.1763H51.1049L51.071 27.279H50.0891C50.1012 27.6522 50.1399 28.0382 50.1399 28.4133V36.0151H51.1557V32.5782H51.1726C51.5823 33.227 52.0489 33.4925 52.7471 33.4925C54.0128 33.4925 54.8634 32.4624 54.8634 30.3434C54.8634 28.2251 54.0128 27.1944 52.7471 27.1944ZM58.6558 27.1944C57.7646 27.1944 57.2953 27.6968 57.0305 28.1763H57.0136L56.9797 27.279H55.9978C56.0093 27.6522 56.0486 28.0382 56.0486 28.4133V36.0151H57.0644V32.5782H57.0813C57.491 33.227 57.9576 33.4925 58.6558 33.4925C59.9209 33.4925 60.7721 32.4624 60.7721 30.3434C60.7721 28.2251 59.9209 27.1944 58.6558 27.1944ZM69.7114 27.1944C68.1829 27.1944 67.3411 28.4174 67.3411 30.3434C67.3411 32.2701 68.1876 33.4925 69.813 33.4925C70.4265 33.4925 71.0577 33.3658 71.5399 33.1369L71.4891 32.2227C71.1396 32.476 70.5897 32.7306 70.0838 32.7306C68.9644 32.7306 68.4077 32.0683 68.4077 30.6482H71.8785V30.1064C71.8785 28.2989 71.097 27.1944 69.7114 27.1944ZM94.1758 27.1944C92.9852 27.1944 92.2119 27.9603 92.2119 28.972C92.2119 29.7542 92.5369 30.1484 93.4139 30.5466L94.0911 30.8513C94.6566 31.1046 94.8699 31.3958 94.8699 31.8163C94.8699 32.2857 94.4711 32.6798 93.7017 32.6798C93.1952 32.6798 92.7198 32.4997 92.2627 32.2227L92.1949 33.1369C92.6419 33.3658 93.2175 33.4925 93.8541 33.4925C95.2634 33.4925 95.835 32.6554 95.835 31.5963C95.835 30.8378 95.3596 30.3393 94.616 30.0387L94.2604 29.8863C93.5859 29.6208 93.2108 29.3472 93.2108 28.8535C93.2108 28.3714 93.5636 28.007 94.2266 28.007C94.6844 28.007 95.1164 28.135 95.4286 28.2779L95.4794 27.3975C95.13 27.2655 94.6823 27.1944 94.1758 27.1944ZM102.844 27.1944C101.317 27.1944 100.474 28.4174 100.474 30.3434C100.474 32.2701 101.318 33.4925 102.946 33.4925C103.555 33.4925 104.19 33.3658 104.673 33.1369L104.622 32.2227C104.272 32.476 103.722 32.7306 103.217 32.7306C102.095 32.7306 101.541 32.0683 101.541 30.6482H105.011V30.1064C105.011 28.2989 104.231 27.1944 102.844 27.1944ZM108.753 27.1944C108.079 27.1944 107.557 27.4957 107.229 28.1932H107.212L107.178 27.279H106.196C106.208 27.7117 106.247 28.1553 106.247 28.5996V33.4078H107.263V29.6154C107.263 28.5075 107.667 28.0578 108.414 28.0578C109.016 28.0578 109.345 28.41 109.345 29.1921V33.4078H110.361V29.6154C110.361 28.5075 110.766 28.0578 111.513 28.0578C112.115 28.0578 112.461 28.41 112.461 29.1921V33.4078H113.46V29.1583C113.46 27.8099 112.742 27.1944 111.682 27.1944C110.981 27.1944 110.516 27.556 110.192 28.1594C109.878 27.533 109.402 27.1944 108.753 27.1944ZM116.71 27.1944C115.518 27.1944 114.746 27.9603 114.746 28.972C114.746 29.7542 115.068 30.1484 115.948 30.5466L116.625 30.8513C117.191 31.1046 117.404 31.3958 117.404 31.8163C117.404 32.2863 117.006 32.6798 116.236 32.6798C115.73 32.6798 115.255 32.4997 114.797 32.2227L114.729 33.1369C115.175 33.3658 115.751 33.4925 116.388 33.4925C117.797 33.4925 118.369 32.6554 118.369 31.5963C118.369 30.8378 117.899 30.3393 117.15 30.0387L116.795 29.8863C116.12 29.6208 115.762 29.3472 115.762 28.8535C115.762 28.3714 116.099 28.007 116.761 28.007C117.219 28.007 117.666 28.135 117.98 28.2779L118.014 27.3975C117.665 27.2655 117.217 27.1944 116.71 27.1944ZM131.558 27.1944C130.848 27.1944 130.326 27.4957 130 28.1932H129.967L129.933 27.279H128.968C128.979 27.7117 129.019 28.1546 129.019 28.5996V33.4078H130.017V29.717C130.017 28.6084 130.524 28.0578 131.321 28.0578C131.968 28.0578 132.337 28.4709 132.337 29.4461V33.4078H133.353V29.1583C133.353 27.8099 132.629 27.1944 131.558 27.1944ZM136.908 27.1944C136.305 27.1944 135.686 27.3758 135.181 27.7023L135.283 28.6504C135.631 28.265 136.231 28.007 136.857 28.007C137.281 28.007 137.686 28.1201 137.89 28.3964C138.083 28.6619 138.11 28.9199 138.11 29.3784V29.6493H137.518C135.409 29.6493 134.639 30.5398 134.639 31.7317C134.639 32.9107 135.389 33.4925 136.4 33.4925C137.339 33.4925 137.85 33.0462 138.127 32.5782H138.144L138.212 33.4078H139.126C139.102 33.1904 139.075 32.8369 139.075 32.4766V29.2768C139.075 28.4113 138.816 28.0341 138.55 27.77C138.357 27.5777 137.809 27.1944 136.908 27.1944ZM150.097 27.1944C148.905 27.1944 148.133 27.9603 148.133 28.972C148.133 29.7542 148.455 30.149 149.335 30.5466L150.012 30.8513C150.578 31.1046 150.791 31.3958 150.791 31.8163C150.791 32.2863 150.392 32.6798 149.623 32.6798C149.118 32.6798 148.644 32.4997 148.184 32.2227L148.116 33.1369C148.562 33.3658 149.137 33.4925 149.775 33.4925C151.184 33.4925 151.756 32.6554 151.756 31.5963C151.756 30.8378 151.286 30.3393 150.537 30.0387L150.182 29.8863C149.507 29.6208 149.149 29.3472 149.149 28.8535C149.149 28.3714 149.486 28.007 150.148 28.007C150.605 28.007 151.038 28.135 151.35 28.2779L151.4 27.3975C151.052 27.2655 150.603 27.1944 150.097 27.1944ZM157.479 27.1944C156.287 27.1944 155.498 27.9603 155.498 28.972C155.498 29.7542 155.821 30.149 156.7 30.5466L157.377 30.8513C157.942 31.1046 158.156 31.3958 158.156 31.8163C158.156 32.2863 157.758 32.6798 156.988 32.6798C156.482 32.6798 156.005 32.4997 155.548 32.2227L155.481 33.1369C155.926 33.3658 156.503 33.4925 157.14 33.4925C158.55 33.4925 159.121 32.6554 159.121 31.5963C159.121 30.8378 158.65 30.3393 157.902 30.0387L157.546 29.8863C156.871 29.6208 156.513 29.3472 156.513 28.8535C156.513 28.3714 156.867 28.007 157.529 28.007C157.987 28.007 158.416 28.135 158.731 28.2779L158.765 27.3975C158.417 27.2655 157.984 27.1944 157.479 27.1944ZM64.9539 27.279V33.4078H65.9528V27.279H64.9539ZM86.8111 27.279L88.7581 33.5094L88.5041 34.4406C88.3368 35.0785 88.1167 35.2194 87.8269 35.2194C87.6122 35.2194 87.4416 35.1726 87.2851 35.1008L87.2343 36.0151C87.4145 36.0625 87.6705 36.0828 87.9115 36.0828C88.6822 36.0828 89.1163 35.7083 89.4184 34.6607L91.5516 27.279H90.5527L89.266 32.2735H89.249L87.8777 27.279H86.8111ZM142.732 27.279L144.679 33.5094L144.442 34.4406C144.273 35.0785 144.054 35.2194 143.765 35.2194C143.55 35.2194 143.365 35.1726 143.206 35.1008L143.155 36.0151C143.336 36.0625 143.61 36.0828 143.85 36.0828C144.622 36.0828 145.056 35.7083 145.356 34.6607L147.473 27.279H146.474L145.187 32.2735H145.17L143.799 27.279H142.732ZM153.11 27.279V33.4078H154.126V27.279H153.11ZM69.6606 27.9562C70.4671 27.9562 70.8626 28.5928 70.8626 29.8694H68.4077C68.4328 28.437 69.0098 27.9562 69.6606 27.9562ZM102.793 27.9562C103.599 27.9562 103.995 28.5928 103.995 29.8694H101.541C101.565 28.437 102.144 27.9562 102.793 27.9562ZM52.4932 28.007C53.4196 28.007 53.8476 28.8027 53.8476 30.3434C53.8476 31.8854 53.4196 32.6798 52.4932 32.6798C51.5654 32.6798 51.1557 31.8854 51.1557 30.3434C51.1557 28.8027 51.5654 28.007 52.4932 28.007ZM58.4188 28.007C59.3446 28.007 59.7563 28.8027 59.7563 30.3434C59.7563 31.8854 59.3446 32.6798 58.4188 32.6798C57.491 32.6798 57.0644 31.8854 57.0644 30.3434C57.0644 28.8027 57.491 28.007 58.4188 28.007ZM75.163 28.007C76.0874 28.007 76.5174 28.8027 76.5174 30.3434C76.5174 31.8854 76.0874 32.6798 75.163 32.6798C74.2359 32.6798 73.8255 31.8854 73.8255 30.3434C73.8255 28.8027 74.2359 28.007 75.163 28.007ZM137.399 30.3773C137.675 30.3773 137.929 30.3867 138.11 30.4111V31.173C138.11 32.0161 137.568 32.7306 136.688 32.7306C135.99 32.7306 135.655 32.3148 135.655 31.664C135.655 30.9536 136.206 30.3773 137.399 30.3773ZM24.4903 37.4711C23.5172 37.4711 22.8311 38.426 22.8311 39.8075C22.8311 41.9116 24.5919 44.2168 24.5919 45.8008C24.5919 46.3514 24.233 46.7997 23.7962 46.7997C23.4914 46.7997 23.1738 46.5763 22.8819 46.2241V47.5955C23.2354 47.8725 23.551 48.0018 23.9147 48.0018C24.9122 48.0018 25.5908 47.0266 25.5908 45.6315C25.5908 43.4827 23.847 41.2655 23.847 39.6382C23.847 38.9779 24.1151 38.6562 24.6258 38.6562C24.8682 38.6562 25.0544 38.747 25.3707 38.9779V37.742C25.0314 37.5415 24.7815 37.4711 24.4903 37.4711ZM15.3818 37.5388L13.8411 47.8664H14.8569L15.1617 45.5808H16.6685L16.9732 47.8664H17.9721L16.4484 37.5388H15.3818ZM31.9566 37.5388L30.4329 47.8664H31.4318L31.7534 45.5808H33.2603L33.5481 47.8664H34.5639L33.0402 37.5388H31.9566ZM0.753906 37.6065V47.8494H1.80359V37.6065H0.753906ZM7.59378 37.6065V47.8494H8.64347V37.6065H7.59378ZM15.8897 40.0615H15.9235L16.4992 44.3618H15.331L15.8897 40.0615ZM32.4815 40.0615H32.5153L33.074 44.3618H31.9058L32.4815 40.0615Z" fill="#1B62B7"/>
</g>
<defs>
<clipPath id="clip0_735_43643">
<rect width="159.584" height="48" fill="white" transform="translate(0.753906)"/>
</clipPath>
</defs>
</svg>
