<svg width="99" height="40" viewBox="0 0 99 40" fill="none" xmlns="http://www.w3.org/2000/svg">
<g clip-path="url(#clip0_735_42593)">
<path d="M44.8447 28.5658C47.3257 28.5391 47.5732 28.2354 47.5732 26.6922V13.7367C47.5732 12.1927 47.3258 11.8901 44.8999 11.8625V10.5946C46.1128 10.7046 47.932 10.76 49.999 10.76C52.0671 10.76 53.8856 10.7046 55.1534 10.5946V11.8625C52.7282 11.8901 52.4801 12.1927 52.4801 13.7367V26.6922C52.4801 28.2354 52.7282 28.5391 55.1534 28.5658V29.8344C53.8856 29.7239 52.0671 29.6687 49.999 29.6687C47.932 29.6687 46.1128 29.7239 44.8447 29.8344V28.5658Z" fill="#234F86"/>
<path d="M66.299 19.8564H66.7949C69.4418 19.8564 71.5911 18.6434 71.5911 16.0522C71.5911 13.1307 69.8274 12.1927 67.5667 12.1927H66.299V19.8564ZM61.3931 13.7367C61.3931 12.1927 61.1447 11.8901 58.8018 11.8625V10.5946H58.8566C59.4906 10.5946 60.0969 10.6216 60.8139 10.6776C61.5302 10.7046 62.385 10.76 63.5424 10.76H68.3941C73.9065 10.76 76.6638 11.9725 76.6638 15.9969C76.6638 18.5604 75.2302 19.911 72.3355 20.5729C77.0487 27.7947 77.876 28.1803 79.8615 28.5658V29.8344H79.8053C79.4197 29.8344 76.4438 29.6687 73.2173 29.6687C71.3155 27.0229 69.4418 24.3216 67.4845 21.2344C67.1263 21.2621 66.7126 21.2621 66.299 21.2895V26.6922C66.299 28.2354 66.5474 28.5391 68.9178 28.5658V29.8344C67.1812 29.7239 65.4168 29.6687 63.5424 29.6687C61.2276 29.6687 60.125 29.8344 58.8566 29.8344H58.8018V28.5658C61.1447 28.5391 61.3931 28.2354 61.3931 26.6922V13.7367Z" fill="#234F86"/>
<path d="M98.1995 15.0046H96.6832C95.9666 12.4964 94.864 12.0278 90.9768 12.0278H88.6345V19.0841H90.9768C93.5137 19.0841 94.1744 18.6708 94.3396 16.6586H95.6077V22.9704H94.3396C94.1744 20.9307 93.5137 20.5177 90.9768 20.5177H88.6345V26.6922C88.6345 28.2354 88.8823 28.5391 91.3356 28.5658V29.8344C90.0404 29.7239 88.2209 29.6687 86.1539 29.6687C84.0865 29.6687 82.2673 29.7239 81.1641 29.8344V28.5658C83.4789 28.5391 83.728 28.2354 83.728 26.6922V13.7367C83.728 12.1927 83.4789 11.8901 81.1641 11.8625V10.5946C83.3966 10.6495 85.6295 10.76 87.8346 10.76C90.7015 10.76 94.5881 10.6495 97.9794 10.5946L98.1995 15.0046Z" fill="#234F86"/>
<path d="M20.8443 0C9.79909 0 0.844727 8.95498 0.844727 20.0007C0.844727 31.0459 9.79909 40 20.8443 40C31.89 40 40.8444 31.0459 40.8444 20.0007C40.8444 8.95498 31.89 0 20.8443 0Z" fill="white"/>
<path d="M14.816 21.5362C10.5905 21.7637 6.48256 22.706 3.0625 23.9881C3.07482 24.0434 3.0878 24.0986 3.10066 24.1536C6.24937 23.0915 9.87559 22.4971 13.6911 22.5293C13.9886 22.2508 14.3916 21.8857 14.816 21.5362ZM16.9333 21.4837C16.3814 21.7313 15.7672 22.1423 15.2843 22.5791C18.0937 22.733 20.7104 23.2252 23.0292 23.9863C23.6296 23.4695 24.3198 22.9025 24.9499 22.4516C22.906 21.9469 20.6669 21.6191 18.2828 21.5134C17.8334 21.4933 17.3835 21.4857 16.9333 21.4837ZM5.35639 23.9182C4.59542 24.0849 3.87207 24.2503 3.16639 24.4379C3.97837 27.6706 5.65425 30.5573 7.93917 32.843C11.2304 36.1327 15.7663 38.164 20.7881 38.1644C21.4882 38.1644 22.1777 38.1209 22.8572 38.0438C23.5078 36.6321 23.9074 35.1974 24.0092 33.7784C24.5611 26.0965 14.6732 21.8773 5.35639 23.9182ZM26.8035 22.9733C26.1419 23.4988 25.5086 24.1309 24.9577 24.7084C29.5748 26.6739 32.6484 29.7965 33.0848 33.3685C33.2719 33.1963 33.457 33.0223 33.6364 32.843C34.593 31.8865 35.4391 30.8217 36.1632 29.6733C34.7606 26.8656 31.4 24.4417 26.8035 22.9733Z" fill="#409629"/>
<path d="M21.476 1.84074C21.4546 1.84006 21.4325 1.83971 21.4107 1.83937L21.6554 10.6106C23.6893 10.5416 25.6216 10.232 27.3834 9.72607C25.9088 6.74778 23.9026 4.01879 21.476 1.84074ZM34.1135 7.64652C33.0682 8.75504 31.6484 9.82899 29.9158 10.7106C31.5149 13.983 32.4008 17.5551 32.4068 21.1381C32.4068 21.256 32.4032 21.3738 32.4015 21.4909C32.2904 21.4601 32.175 21.4327 32.0625 21.4026C34.5199 22.0592 36.7094 22.9201 38.5235 23.9412C38.8052 22.6704 38.958 21.3514 38.958 19.9944C38.958 15.2225 37.1196 10.8907 34.1135 7.64652ZM14.1906 9.72874C15.9528 10.2341 17.8861 10.5423 19.9204 10.611L20.1647 1.83937C20.1426 1.83971 20.1208 1.84006 20.0991 1.84074C17.6719 4.01948 15.6657 6.74953 14.1906 9.72874ZM28.1813 11.4841C26.287 12.2165 24.1121 12.7125 21.717 12.822L21.9172 20.0035V20.0098C24.9357 20.0828 27.8038 20.4299 30.4158 21.0029C30.3341 20.9848 30.2551 20.965 30.1735 20.9477C30.1517 17.8005 29.4432 14.5473 28.1813 11.4841ZM29.088 9.15532C30.6965 8.53546 32.1161 7.73957 33.2862 6.81204C30.5242 4.19358 26.9497 2.43538 22.9741 1.95899C25.4476 3.98281 27.5233 6.43867 29.088 9.15532ZM11.4023 20.9249C11.3267 20.9407 11.2533 20.9591 11.1781 20.9755C13.7867 20.4121 16.6483 20.0745 19.6586 20.0085V20.0049L19.8581 12.8307C17.4429 12.7386 15.263 12.2609 13.3663 11.5495C12.1246 14.5861 11.4271 17.8073 11.4023 20.9249ZM18.6013 1.95899C14.6234 2.43607 11.0475 4.19495 8.28523 6.81581C9.45627 7.74317 10.8758 8.53923 12.4854 9.15868C14.0505 6.44052 16.1269 3.98383 18.6013 1.95899ZM9.16854 21.1381C9.17444 17.585 10.0448 14.0426 11.6185 10.7924C9.86432 9.91978 8.43089 8.84833 7.37446 7.73823C4.41879 10.9721 2.61746 15.268 2.61719 19.9944C2.61719 21.3323 2.76566 22.6336 3.03917 23.8874C4.83757 22.8875 6.99797 22.0448 9.41689 21.3995C9.33658 21.4209 9.25344 21.4403 9.17351 21.4621C9.17204 21.3544 9.16854 21.2466 9.16854 21.1381Z" fill="#234F86"/>
<path d="M27.5861 34.8103H27.7458C27.9319 34.8103 28.0825 34.7481 28.0825 34.5976C28.0825 34.4645 27.9851 34.3758 27.7722 34.3758C27.6836 34.3758 27.6216 34.3843 27.5861 34.3937V34.8103ZM27.5774 35.6258H27.2404V34.172C27.3732 34.1543 27.5593 34.1278 27.799 34.1278C28.0738 34.1278 28.1977 34.172 28.2954 34.243C28.384 34.3048 28.446 34.4115 28.446 34.5533C28.446 34.7301 28.3131 34.8457 28.1448 34.8988V34.9167C28.2867 34.9608 28.3572 35.076 28.4018 35.271C28.446 35.4927 28.4815 35.5726 28.5079 35.6258H28.1535C28.1093 35.5726 28.0825 35.4485 28.0384 35.271C28.0116 35.1205 27.9232 35.0496 27.7371 35.0496H27.5774V35.6258ZM26.6818 34.8721C26.6818 35.5192 27.1698 36.0336 27.8168 36.0336C28.446 36.0422 28.9249 35.5192 28.9249 34.8813C28.9249 34.234 28.446 33.7112 27.799 33.7112C27.1698 33.7112 26.6818 34.234 26.6818 34.8721ZM29.2971 34.8721C29.2971 35.6878 28.6411 36.3348 27.8077 36.3348C26.9747 36.3348 26.3096 35.6878 26.3096 34.8721C26.3096 34.0569 26.9747 33.4187 27.8168 33.4187C28.6411 33.4187 29.2971 34.0569 29.2971 34.8721Z" fill="#4FBE37"/>
</g>
<defs>
<clipPath id="clip0_735_42593">
<rect width="97.3558" height="40" fill="white" transform="translate(0.844727)"/>
</clipPath>
</defs>
</svg>
