<svg xmlns="http://www.w3.org/2000/svg" version="1.0" width="99" height="40" viewBox="0 0 834.000000 620.000000" preserveAspectRatio="xMidYMid meet">

<g transform="translate(0.000000,620.000000) scale(0.100000,-0.100000)" fill="#000000" stroke="none">
<path d="M2836 6179 c-53 -42 -23 -122 46 -122 62 0 89 73 43 118 -30 30 -54 31 -89 4z"/>
<path d="M3217 6162 c-35 -38 -8 -92 45 -92 31 0 51 21 51 57 0 48 -64 71 -96 35z"/>
<path d="M2464 6156 c-72 -32 -59 -141 19 -160 31 -8 42 -6 65 11 55 41 55 110 -1 143 -37 23 -42 24 -83 6z"/>
<path d="M3612 6104 c-38 -26 -22 -74 25 -74 24 0 48 33 39 55 -10 26 -41 35 -64 19z"/>
<path d="M2073 6065 c-12 -8 -26 -30 -33 -49 -28 -86 59 -163 140 -121 91 47 59 185 -44 185 -23 0 -51 -7 -63 -15z"/>
<path d="M3977 5994 c-12 -13 -8 -42 8 -48 25 -9 46 5 43 28 -3 21 -37 34 -51 20z"/>
<path d="M1704 5916 c-28 -28 -34 -42 -34 -76 0 -34 6 -48 34 -76 29 -29 41 -34 79 -34 80 0 132 70 107 145 -16 49 -53 75 -107 75 -38 0 -50 -5 -79 -34z"/>
<path d="M4335 5831 c-7 -12 12 -24 25 -16 11 7 4 25 -10 25 -5 0 -11 -4 -15 -9z"/>
<path d="M1404 5766 c-45 -20 -74 -62 -74 -108 0 -79 49 -128 130 -128 32 0 48 7 75 33 103 95 -4 261 -131 203z"/>
<path d="M4670 5630 c0 -5 5 -10 10 -10 6 0 10 5 10 10 0 6 -4 10 -10 10 -5 0 -10 -4 -10 -10z"/>
<path d="M1083 5540 c-38 -23 -58 -53 -68 -98 -9 -42 24 -111 64 -135 36 -21 102 -22 142 -1 40 20 73 93 65 139 -18 93 -124 143 -203 95z"/>
<path d="M810 5282 c-68 -34 -97 -141 -53 -200 85 -115 238 -84 268 55 9 45 -24 117 -67 143 -41 25 -101 26 -148 2z"/>
<path d="M583 4991 c-61 -29 -85 -71 -80 -144 3 -51 8 -62 40 -94 31 -32 43 -37 94 -41 49 -3 64 0 93 20 48 32 72 82 67 137 -11 106 -118 167 -214 122z"/>
<path d="M3940 4679 c-160 -9 -461 -37 -510 -48 l-35 -7 -3 -1452 -2 -1452 410 0 410 0 0 550 0 550 83 0 c135 0 256 -18 313 -45 109 -53 177 -164 239 -390 68 -244 125 -423 173 -541 l47 -119 423 -3 422 -2 -15 36 c-8 20 -60 192 -115 383 -145 506 -187 619 -285 757 -53 74 -107 124 -180 165 -30 17 -55 32 -55 34 0 1 42 23 93 49 198 99 344 269 409 476 20 64 23 95 22 210 -1 160 -21 249 -86 380 -53 110 -174 233 -292 299 -156 89 -383 148 -651 171 -137 11 -614 11 -815 -1z m790 -618 c160 -51 240 -155 240 -312 0 -124 -68 -227 -191 -288 -94 -46 -192 -61 -395 -61 l-174 0 0 335 0 335 23 5 c43 10 124 13 277 10 124 -2 168 -7 220 -24z"/>
<path d="M372 4660 c-43 -27 -76 -98 -69 -151 18 -137 196 -180 280 -67 28 37 33 114 10 158 -40 76 -147 105 -221 60z"/>
<path d="M2010 3195 l0 -1475 410 0 410 0 0 1475 0 1475 -410 0 -410 0 0 -1475z"/>
<path d="M6270 3195 l0 -1475 410 0 410 0 0 550 0 550 585 0 585 0 0 335 0 335 -585 0 -585 0 0 255 0 255 625 0 625 0 0 335 0 335 -1035 0 -1035 0 0 -1475z"/>
<path d="M255 4325 c-77 -27 -119 -109 -96 -187 36 -118 175 -151 261 -63 33 34 35 40 35 105 0 63 -3 71 -30 100 -48 51 -109 67 -170 45z"/>
<path d="M140 3948 c-90 -46 -114 -159 -49 -233 38 -43 79 -59 135 -52 87 9 138 73 131 163 -4 61 -28 97 -83 124 -52 26 -79 25 -134 -2z"/>
<path d="M100 3579 c-114 -46 -124 -221 -16 -273 83 -39 173 -9 207 70 55 123 -67 252 -191 203z"/>
<path d="M75 3181 c-144 -98 -32 -318 130 -256 102 39 125 163 45 240 -40 39 -129 47 -175 16z"/>
<path d="M144 2806 c-70 -31 -98 -107 -65 -180 31 -71 104 -99 176 -67 50 22 75 55 81 108 13 100 -99 181 -192 139z"/>
<path d="M233 2421 c-63 -39 -80 -113 -40 -172 40 -60 114 -77 171 -40 39 26 55 57 56 109 0 92 -109 152 -187 103z"/>
<path d="M394 2066 c-43 -19 -64 -53 -64 -104 0 -37 6 -50 34 -78 28 -28 42 -34 76 -34 34 0 48 6 76 34 28 28 34 41 34 78 0 52 -21 85 -66 104 -41 17 -50 17 -90 0z"/>
<path d="M559 1701 c-49 -49 -38 -125 23 -157 85 -44 178 49 134 134 -32 61 -108 72 -157 23z"/>
<path d="M824 1410 c-54 -21 -70 -91 -31 -134 34 -40 77 -43 115 -11 25 21 32 34 32 63 -1 68 -56 107 -116 82z"/>
<path d="M3815 1331 l-60 -6 -3 -292 c-2 -288 -2 -293 18 -293 19 0 20 6 20 135 l0 135 71 0 c125 0 156 -29 193 -179 18 -73 25 -86 44 -89 12 -2 22 -1 22 2 0 2 -11 45 -24 93 -28 107 -48 147 -82 169 l-25 17 38 21 c84 46 104 160 41 231 -43 50 -126 68 -253 56z m157 -41 c87 -25 120 -137 58 -198 -34 -34 -98 -52 -185 -52 l-55 0 0 124 c0 90 3 126 13 129 22 9 131 7 169 -3z"/>
<path d="M6162 1326 c-131 -43 -202 -151 -202 -305 1 -119 55 -212 155 -263 57 -30 167 -36 236 -13 236 79 269 436 50 558 -64 36 -168 46 -239 23z m205 -48 c86 -40 134 -127 134 -244 0 -133 -65 -227 -179 -260 -200 -59 -371 134 -309 347 18 60 72 131 119 155 70 36 161 37 235 2z"/>
<path d="M2030 1035 l0 -295 25 0 25 0 0 295 0 295 -25 0 -25 0 0 -295z"/>
<path d="M2230 1035 c0 -288 0 -295 20 -295 19 0 20 7 20 266 l0 266 33 -50 c19 -27 105 -147 192 -266 127 -172 164 -216 182 -216 l23 0 0 295 0 295 -26 0 -27 0 5 -264 6 -265 -82 113 c-269 374 -301 415 -323 415 l-23 1 0 -295z"/>
<path d="M2760 1310 c0 -19 7 -20 110 -20 l110 0 0 -275 c0 -268 0 -275 20 -275 20 0 20 7 20 275 l0 275 110 0 c103 0 110 1 110 20 0 19 -7 20 -240 20 -233 0 -240 -1 -240 -20z"/>
<path d="M3300 1035 l0 -295 170 0 c144 0 170 2 170 15 0 13 -23 15 -150 15 l-150 0 0 130 0 130 135 0 c128 0 135 1 135 20 0 19 -7 20 -135 20 l-135 0 0 110 0 110 140 0 c133 0 140 1 140 20 0 19 -7 20 -160 20 l-160 0 0 -295z"/>
<path d="M4230 1036 c0 -289 0 -296 20 -296 19 0 20 7 21 263 0 250 1 261 17 237 9 -13 95 -132 191 -262 141 -192 179 -238 198 -238 l23 0 0 295 0 295 -26 0 -27 0 5 -263 4 -264 -58 81 c-207 290 -325 441 -346 444 l-22 3 0 -295z"/>
<path d="M5037 1323 c-4 -7 -174 -423 -217 -533 l-20 -50 23 0 c19 0 28 15 62 103 l41 102 131 3 131 3 42 -106 c33 -81 46 -105 61 -105 10 0 19 3 19 8 0 4 -51 136 -114 292 -92 231 -118 286 -134 288 -11 2 -22 0 -25 -5z m33 -65 c0 -5 23 -67 50 -137 28 -70 50 -130 50 -134 0 -4 -52 -7 -115 -7 l-115 0 21 53 c12 28 38 95 58 148 20 53 39 95 44 92 4 -2 7 -9 7 -15z"/>
<path d="M5260 1310 c0 -19 7 -20 110 -20 l110 0 0 -275 c0 -268 0 -275 20 -275 20 0 20 7 20 275 l0 275 110 0 c103 0 110 1 110 20 0 19 -7 20 -240 20 -233 0 -240 -1 -240 -20z"/>
<path d="M5800 1035 c0 -288 0 -295 20 -295 20 0 20 7 20 295 0 288 0 295 -20 295 -20 0 -20 -7 -20 -295z"/>
<path d="M6660 1035 c0 -288 0 -295 20 -295 19 0 20 7 20 263 1 232 2 260 15 242 8 -11 94 -129 192 -262 143 -196 181 -243 200 -243 l23 0 0 295 0 295 -26 0 -27 0 5 -264 5 -264 -81 113 c-269 373 -301 414 -323 414 l-23 1 0 -295z"/>
<path d="M7467 1323 c-4 -6 -195 -478 -228 -560 -7 -20 -5 -23 14 -23 20 0 29 14 63 103 l39 102 131 3 132 3 42 -106 c37 -91 45 -105 65 -105 23 0 18 13 -95 293 -95 236 -122 293 -138 295 -11 2 -22 0 -25 -5z m33 -64 c0 -6 23 -69 51 -141 28 -71 49 -131 46 -134 -2 -3 -54 -3 -115 -2 l-110 3 57 142 c50 127 71 166 71 132z"/>
<path d="M7840 1035 l0 -295 170 0 c144 0 170 2 170 15 0 13 -23 15 -145 15 l-145 0 0 280 0 280 -25 0 -25 0 0 -295z"/>
<path d="M1071 1104 c-12 -15 -21 -34 -21 -44 0 -10 9 -29 21 -44 40 -51 122 -22 122 44 0 66 -82 95 -122 44z"/>
<path d="M1381 866 c-7 -8 -11 -30 -9 -48 2 -25 9 -35 31 -42 48 -17 88 23 71 71 -7 23 -16 29 -45 31 -22 2 -40 -2 -48 -12z"/>
<path d="M1720 666 c-28 -35 11 -93 48 -70 35 22 22 84 -18 84 -10 0 -23 -7 -30 -14z"/>
<path d="M2587 459 c-145 -35 -220 -186 -162 -327 49 -119 213 -167 342 -100 154 79 156 328 3 404 -53 27 -130 36 -183 23z m131 -104 c16 -13 35 -38 42 -55 18 -43 8 -130 -18 -168 -46 -64 -148 -64 -193 0 -27 38 -37 125 -19 168 32 78 128 106 188 55z"/>
<path d="M7369 461 c-62 -13 -126 -57 -156 -109 -24 -40 -28 -58 -28 -122 0 -95 31 -155 103 -197 41 -24 57 -28 127 -28 92 0 141 21 193 79 70 80 70 222 -1 303 -53 60 -154 91 -238 74z m121 -101 c67 -47 76 -169 19 -235 -35 -39 -75 -51 -122 -35 -46 15 -73 46 -87 101 -15 60 1 123 42 161 38 35 105 39 148 8z"/>
<path d="M2013 454 c-10 -4 -13 -59 -13 -225 l0 -219 55 0 55 0 0 85 0 85 40 0 c47 0 60 -16 85 -107 l18 -63 53 0 c30 0 54 3 54 7 0 31 -54 175 -69 185 -18 11 -17 13 14 43 43 39 52 77 34 129 -23 65 -61 81 -199 83 -63 1 -121 0 -127 -3z m209 -91 c25 -23 23 -68 -4 -87 -12 -9 -42 -16 -65 -16 l-43 0 0 60 0 60 47 0 c29 0 53 -6 65 -17z"/>
<path d="M2987 235 l-76 -226 57 3 56 3 16 55 16 55 74 0 73 0 20 -57 19 -58 58 0 59 0 -65 188 c-36 103 -72 203 -78 222 l-13 35 -70 3 -71 3 -75 -226z m172 56 c11 -36 21 -69 21 -73 0 -4 -23 -8 -51 -8 -44 0 -51 2 -46 18 2 9 13 45 23 80 9 34 21 59 24 55 4 -4 17 -37 29 -72z"/>
<path d="M3438 454 c-16 -5 -18 -24 -18 -224 l0 -218 67 -8 c81 -8 198 8 252 35 48 25 95 78 111 126 7 20 10 66 8 101 -5 78 -38 126 -114 164 -43 22 -63 25 -169 27 -66 1 -128 -1 -137 -3z m238 -93 c95 -43 98 -186 5 -248 -26 -17 -48 -23 -92 -23 l-59 0 0 145 0 145 53 0 c29 0 70 -9 93 -19z"/>
<path d="M4080 235 l0 -225 55 0 55 0 0 90 0 90 90 0 90 0 0 40 0 40 -90 0 -90 0 0 50 0 50 95 0 95 0 0 45 0 45 -150 0 -150 0 0 -225z"/>
<path d="M4460 235 l0 -225 160 0 160 0 0 40 0 40 -105 0 -105 0 0 55 0 55 90 0 90 0 0 40 0 40 -90 0 -90 0 0 45 0 45 100 0 100 0 0 45 0 45 -155 0 -155 0 0 -225z"/>
<path d="M4863 454 c-10 -4 -13 -59 -13 -224 l0 -219 55 -6 c66 -9 172 1 228 21 99 35 150 107 151 214 1 88 -31 144 -106 185 -49 27 -61 29 -178 32 -69 1 -131 0 -137 -3z m232 -88 c47 -20 75 -69 75 -130 0 -94 -59 -146 -164 -146 l-56 0 0 138 c0 76 3 142 7 145 12 12 103 7 138 -7z"/>
<path d="M5360 235 l0 -225 155 0 155 0 0 40 0 39 -102 3 -103 3 0 50 0 50 93 3 92 3 0 39 0 40 -95 0 -95 0 0 45 0 45 100 0 100 0 0 45 0 45 -150 0 -150 0 0 -225z"/>
<path d="M5758 453 c-16 -4 -18 -23 -18 -224 l0 -219 55 0 55 0 0 86 0 85 43 -3 c37 -3 44 -7 59 -38 10 -19 23 -55 30 -80 l13 -45 53 -3 c35 -2 52 1 52 9 0 34 -45 155 -65 175 -24 23 -24 24 -4 35 28 14 59 68 59 102 0 46 -28 87 -73 108 -33 14 -64 18 -142 18 -55 -1 -108 -3 -117 -6z m206 -89 c24 -23 20 -70 -6 -88 -12 -9 -42 -16 -65 -16 l-43 0 0 60 0 60 49 0 c32 0 55 -6 65 -16z"/>
<path d="M6285 448 c-9 -25 -145 -432 -145 -436 0 -2 25 -2 56 0 l57 3 16 55 17 55 74 0 73 0 20 -57 19 -58 58 0 59 0 -56 158 c-30 86 -65 186 -77 222 l-23 65 -72 3 c-51 2 -73 -1 -76 -10z m94 -138 c12 -38 24 -76 27 -85 5 -12 -3 -15 -45 -15 -28 0 -51 3 -51 7 0 8 44 163 46 163 1 0 12 -31 23 -70z"/>
<path d="M6570 415 l0 -45 70 0 70 0 0 -180 0 -180 50 0 50 0 0 180 0 180 70 0 70 0 0 45 0 45 -190 0 -190 0 0 -45z"/>
<path d="M7000 235 l0 -225 55 0 55 0 0 225 0 225 -55 0 -55 0 0 -225z"/>
<path d="M7730 235 l0 -225 50 0 50 0 0 163 0 162 36 -65 c20 -36 63 -109 96 -162 l60 -98 59 0 59 0 0 225 0 225 -50 0 -50 0 0 -152 0 -153 -43 80 c-24 44 -65 113 -90 153 l-47 72 -65 0 -65 0 0 -225z"/>
</g>
</svg>