<svg width="235" height="40" viewBox="0 0 235 40" fill="none" xmlns="http://www.w3.org/2000/svg">
<g clip-path="url(#clip0_778_44249)">
<path d="M50.6614 7.75696H45.4277V32.6168H50.6614V7.75696Z" fill="#41A65D"/>
<path d="M53.1855 7.75696H71.1295L70.2883 11.8691H64.307V32.6168H59.2603V11.8691H53.1855V7.75696Z" fill="#41A65D"/>
<path d="M78.6995 11.6823V28.5047H81.4097C84.6808 28.5047 86.1761 26.0748 86.1761 20.7477C86.1761 17.8505 85.8957 15.3271 84.9611 13.7383C84.12 12.3365 82.9985 11.6823 81.0359 11.6823H78.6995ZM73.5593 7.66357H78.606C80.0079 7.66357 81.9705 7.75703 82.9051 7.85049C85.0546 8.03741 86.8303 8.87853 88.3256 10.3739C90.6621 12.6168 91.6901 15.8879 91.6901 20.3739C91.6901 23.8318 90.849 26.6355 89.1668 28.972C87.6714 31.0281 85.4284 32.3365 83.092 32.6168C82.1574 32.7103 80.9425 32.8038 79.5406 32.8038H73.4658V7.66357H73.5593Z" fill="#41A65D"/>
<path d="M99.2603 11.6823V19.3458H101.877C103.933 19.3458 104.494 19.0654 105.242 18.0374C105.709 17.3832 105.896 16.5421 105.896 15.4206C105.896 13.0841 104.681 11.6823 102.531 11.6823H99.2603ZM94.2136 7.66357H100.756C104.961 7.66357 106.27 8.13086 107.672 8.87853C110.008 10.1869 111.223 12.4299 111.223 15.3271C111.223 18.5982 109.634 21.3084 106.924 22.6168C105.802 23.1776 104.681 23.458 101.971 23.458H99.1668V32.6168H94.1201V7.66357H94.2136Z" fill="#41A65D"/>
<path d="M21.6897 28.2243L28.9794 36.542C25.3346 38.4112 21.129 39.0654 16.8299 38.2243L21.6897 28.2243ZM20.6617 24.8598C21.0355 24.8598 21.3159 24.7663 21.6897 24.7663L21.3159 25.6074L20.6617 24.8598ZM25.6149 13.4579L26.3626 2.42988C30.4748 3.73829 33.8392 6.35511 36.0822 9.81305L25.6149 13.4579ZM23.0916 15.8878L24.0262 15.6074L23.9327 16.542C23.6523 16.2617 23.372 16.0747 23.0916 15.8878ZM23.372 24.7663L25.6149 24.8598L28.7925 33.9252L22.4374 26.6355L23.372 24.7663ZM25.0542 23.3645L24.1196 23.271C24.4 22.9906 24.5869 22.7102 24.7738 22.4299L25.0542 23.3645ZM25.428 19.9065C25.428 19.5327 25.3346 19.1588 25.2411 18.8785L26.0822 19.2523L25.428 19.9065ZM27.2972 18.2243L25.3346 17.2897L25.5215 15.1402L34.5869 11.9626L27.2972 18.2243ZM36.2691 24.1121L26.643 23.4579L25.8953 21.4018L27.5776 20L36.2691 24.1121ZM37.1103 11.5888C38.9794 15.2336 39.6336 19.4392 38.7925 23.7383L28.7925 18.8785L37.1103 11.5888ZM27.1103 25.0467L38.1383 25.7944C36.8299 29.9065 34.1196 33.271 30.7551 35.514L27.1103 25.0467ZM25.7084 0.654175L24.7738 4.29903L24.1196 13.9252L22.0635 14.6729L21.5028 16.7289C23.2785 17.1962 24.4 19.0654 23.9327 20.8411C23.4654 22.6168 21.5963 23.7383 19.8205 23.271L19.2598 25.3271L20.7551 27.0093L16.4561 35.7009L15.5215 39.4392C26.1757 42.243 37.2037 35.8878 40.0075 25.2336C42.7177 14.3925 36.3626 3.45791 25.7084 0.654175Z" fill="#41A65D"/>
<path d="M1.03519 15.6075C-0.0863032 20.4673 0.754818 25.3271 2.90435 29.3458L12.3436 21.0281L1.03519 15.6075ZM3.65201 30.7477C6.17538 34.6729 10.0072 37.757 14.6801 39.1589L15.5212 26.6355L3.65201 30.7477ZM25.7081 0.654237L24.7735 4.2991L20.5679 12.9907L22.0632 14.6729L21.5025 16.729C19.7268 16.2617 17.8576 17.2898 17.3903 19.1589C16.923 20.9346 17.9511 22.8038 19.8202 23.2711L19.2595 25.3271L17.2034 26.0748L16.4558 35.701L15.5212 39.4393L25.7081 0.654237ZM17.2034 23.5514L17.11 24.486L18.0445 24.2056C17.7642 23.9253 17.4838 23.7384 17.2034 23.5514ZM1.40902 14.1122L14.0258 14.9533L9.9137 3.08414C5.98846 5.60751 2.90435 9.43928 1.40902 14.1122C1.40902 14.2056 1.40902 14.2056 1.40902 14.1122ZM19.8202 14.3926L19.3529 15.2337C19.7268 15.1402 20.1006 15.1402 20.4744 15.1402L19.8202 14.3926ZM13.5586 20.0935L15.2408 18.5982L14.4931 16.5421L4.86697 15.8879L13.5586 20.0935ZM24.9604 0.467321C20.1006 -0.654174 15.3343 0.186947 11.2221 2.33648L19.5399 11.7757L24.9604 0.467321ZM15.7081 24.9533L15.895 22.7103L13.9324 21.7757L6.64267 28.1309L15.7081 24.9533ZM17.7642 15.2337L18.6987 13.2711L12.3436 5.98134L15.5212 15.1402L17.7642 15.2337ZM15.0539 20.7477L15.895 21.1215C15.8015 20.7477 15.8015 20.4673 15.8015 20.0935L15.0539 20.7477ZM16.0819 16.6355L16.3623 17.5701C16.5492 17.2898 16.7361 17.0094 17.0165 16.729L16.0819 16.6355Z" fill="#41A65D"/>
<path d="M117.298 6.44861H116.27V34.2056H117.298V6.44861Z" fill="white"/>
<path d="M123.559 18.3178V11.7758H124.4V18.3178H123.559Z" fill="#010101"/>
<path d="M126.549 14.299C126.83 13.7383 127.391 13.271 128.045 13.271C128.605 13.271 129.073 13.5514 129.447 14.0187C129.727 14.3925 129.634 15.0467 129.634 15.6074V18.3177H128.886V15.3271C128.886 15.0467 128.886 14.6729 128.792 14.3925C128.605 14.1121 128.232 13.9252 127.951 13.9252C127.577 13.9252 127.204 14.1121 126.923 14.3925C126.643 14.7663 126.549 15.2336 126.549 15.7009V18.2243H125.802V13.3645H126.549V14.299Z" fill="#010101"/>
<path d="M131.503 16.8224C131.596 17.4766 132.344 17.757 132.998 17.757C133.559 17.757 134.213 17.5701 134.213 16.9159C134.213 16.3551 133.652 16.2616 133.279 16.1682L132.437 15.9813C131.69 15.7944 131.036 15.514 131.036 14.6729C131.036 13.6448 131.97 13.271 132.811 13.271C133.652 13.271 134.494 13.5514 134.774 14.4859L134.12 14.6729C133.933 14.1121 133.465 13.9252 132.905 13.9252C132.437 13.9252 131.877 14.1121 131.877 14.6729C131.877 15.2336 132.344 15.3271 132.718 15.4205L133.465 15.514C133.839 15.6074 134.213 15.6074 134.494 15.8878C134.867 16.1682 135.054 16.542 135.054 17.0093C135.054 18.1308 134.026 18.5046 132.998 18.5046C132.064 18.5046 131.129 18.1308 130.849 17.1028L131.503 16.8224Z" fill="#010101"/>
<path d="M138.325 18.3177L137.577 18.4112C136.549 18.4112 136.175 17.757 136.175 16.8224V14.0186H135.334V13.4579H136.175V12.1495L136.923 12.056V13.3644H138.044V13.9252H137.016V16.8224C137.016 17.3831 137.203 17.6635 137.764 17.6635L138.325 17.57V18.3177Z" fill="#010101"/>
<path d="M139.913 12.5234H139.072V11.6823H139.913V12.5234ZM139.82 18.3178H139.072V13.458H139.82V18.3178Z" fill="#010101"/>
<path d="M143.652 18.3177L142.904 18.4112C141.876 18.4112 141.502 17.757 141.502 16.8224V14.0186H140.661V13.4579H141.502V12.1495L142.25 12.056V13.3644H143.371V13.9252H142.25V16.8224C142.25 17.3831 142.437 17.6635 142.998 17.6635L143.558 17.57V18.3177H143.652Z" fill="#010101"/>
<path d="M148.045 18.3178H147.391V17.3832C147.11 17.9439 146.55 18.4112 145.895 18.4112C145.428 18.4112 144.961 18.2243 144.68 17.8505C144.4 17.4767 144.307 16.9159 144.307 16.3552V13.3645H145.054V16.3552C145.054 16.6355 145.054 17.0094 145.241 17.2897C145.428 17.5701 145.709 17.757 145.989 17.757C146.363 17.757 146.737 17.5701 147.017 17.2897C147.297 16.9159 147.391 16.5421 147.391 16.0748V13.458H148.138V18.3178H148.045Z" fill="#010101"/>
<path d="M151.783 18.3177L151.035 18.4112C150.007 18.4112 149.633 17.757 149.633 16.8224V14.0186H148.792V13.4579H149.633V12.1495L150.381 12.056V13.3644H151.502V13.9252H150.381V16.8224C150.381 17.3831 150.568 17.6635 151.128 17.6635L151.689 17.57V18.3177H151.783Z" fill="#010101"/>
<path d="M156.363 16.9159C156.082 17.8504 155.241 18.3177 154.306 18.3177C152.811 18.3177 152.063 17.1028 152.063 15.7944C152.063 14.4859 152.905 13.271 154.306 13.271C155.802 13.271 156.456 14.5794 156.456 15.8878H152.905C152.905 16.2617 152.905 16.6355 153.092 17.0093C153.278 17.4766 153.839 17.757 154.306 17.757C154.961 17.757 155.428 17.3831 155.615 16.8224L156.363 16.9159ZM155.615 15.3271C155.615 14.4859 155.148 13.8317 154.306 13.8317C153.465 13.8317 152.998 14.5794 152.905 15.3271H155.615Z" fill="#010101"/>
<path d="M162.624 14.0187H161.503V18.3178H160.755V14.0187H159.914V13.458H160.755C160.755 12.5234 161.036 11.6823 162.064 11.6823C162.251 11.6823 162.624 11.6823 162.905 11.7757V12.3365C162.718 12.3365 162.531 12.243 162.251 12.243C161.409 12.243 161.409 12.8037 161.409 13.458H162.531V14.0187H162.624Z" fill="#010101"/>
<path d="M165.241 13.271C166.643 13.271 167.391 14.4859 167.391 15.7944C167.391 17.1962 166.643 18.3177 165.148 18.3177C163.652 18.3177 162.998 17.0093 162.998 15.7944C162.998 14.4859 163.839 13.271 165.241 13.271ZM164.12 17.1028C164.306 17.4766 164.774 17.757 165.148 17.757C165.615 17.757 166.082 17.4766 166.269 17.1028C166.456 16.7289 166.549 16.2617 166.549 15.8878C166.549 15.4205 166.456 14.9532 166.269 14.5794C166.082 14.2056 165.615 14.0187 165.241 14.0187C164.774 14.0187 164.306 14.299 164.12 14.6729C163.933 15.0467 163.839 15.514 163.839 15.8878C163.839 16.2617 163.933 16.7289 164.12 17.1028Z" fill="#010101"/>
<path d="M169.166 13.3645V14.486C169.353 13.8318 169.82 13.1776 170.567 13.1776H170.848V14.0187H170.661C170.1 14.0187 169.726 14.2991 169.446 14.7664C169.259 15.1402 169.166 15.4206 169.166 15.7944V18.2243H168.418V13.3645H169.166Z" fill="#010101"/>
<path d="M176.549 18.3178H175.708V12.4299H173.839V11.6823H178.418V12.4299H176.549V18.3178Z" fill="#010101"/>
<path d="M179.914 13.3645V14.486C180.101 13.8318 180.568 13.1776 181.316 13.1776H181.596V14.0187H181.409C180.848 14.0187 180.474 14.2991 180.194 14.7664C180.007 15.1402 179.914 15.4206 179.914 15.7944V18.2243H179.166V13.3645H179.914Z" fill="#010101"/>
<path d="M185.334 15.2336V15.0467C185.334 14.2056 184.96 13.8317 184.119 13.8317C183.465 13.8317 182.904 14.0187 182.811 14.6729L182.157 14.5794C182.25 13.5514 183.372 13.271 184.213 13.271C184.773 13.271 185.334 13.3645 185.708 13.7383C186.082 14.2056 186.082 14.7663 186.082 15.3271V17.1962C186.082 17.5701 186.082 17.9439 186.175 18.2243H185.428L185.334 17.2897C184.96 17.9439 184.4 18.3177 183.652 18.3177C182.717 18.3177 181.97 17.8504 181.97 16.8224C181.97 16.2617 182.344 15.7009 182.904 15.514C183.465 15.2336 184.213 15.2336 184.773 15.2336H185.334ZM185.334 15.7944H184.68C183.932 15.7944 182.717 15.8878 182.717 16.9159C182.717 17.4766 183.278 17.757 183.745 17.757C184.68 17.757 185.334 17.0093 185.334 16.0747V15.7944Z" fill="#010101"/>
<path d="M188.138 14.299C188.418 13.7383 188.979 13.271 189.633 13.271C190.194 13.271 190.661 13.5514 191.035 14.0187C191.315 14.3925 191.222 15.0467 191.222 15.6074V18.3177H190.474V15.3271C190.474 15.0467 190.474 14.6729 190.381 14.3925C190.194 14.1121 189.82 13.9252 189.539 13.9252C189.166 13.9252 188.792 14.1121 188.511 14.3925C188.231 14.7663 188.138 15.2336 188.138 15.7009V18.2243H187.483V13.3645H188.231V14.299H188.138Z" fill="#010101"/>
<path d="M193.092 16.8224C193.185 17.4766 193.933 17.757 194.587 17.757C195.148 17.757 195.802 17.5701 195.802 16.9159C195.802 16.3551 195.241 16.2616 194.867 16.1682L194.026 15.9813C193.279 15.7944 192.624 15.514 192.624 14.6729C192.624 13.6448 193.559 13.271 194.4 13.271C195.241 13.271 196.082 13.5514 196.363 14.4859L195.709 14.6729C195.522 14.1121 195.054 13.9252 194.494 13.9252C194.026 13.9252 193.466 14.1121 193.466 14.6729C193.466 15.2336 193.933 15.3271 194.307 15.4205L195.054 15.514C195.428 15.6074 195.802 15.6074 196.082 15.8878C196.456 16.1682 196.643 16.542 196.643 17.0093C196.643 18.1308 195.615 18.5046 194.587 18.5046C193.652 18.5046 192.718 18.1308 192.438 17.1028L193.092 16.8224Z" fill="#010101"/>
<path d="M198.419 19.9066H197.671V13.458H198.325V14.3925C198.605 13.7383 199.073 13.3645 199.82 13.3645C201.222 13.3645 201.783 14.6729 201.783 15.8879C201.783 16.4486 201.69 17.1028 201.409 17.5701C201.035 18.1309 200.568 18.5047 199.914 18.5047C199.26 18.5047 198.792 18.2243 198.419 17.6636V19.9066ZM199.727 13.9252C199.073 13.9252 198.605 14.486 198.419 15.1402V16.2617C198.419 17.1028 198.979 17.757 199.727 17.757C200.101 17.757 200.568 17.4767 200.755 17.1963C200.942 16.8224 201.035 16.3552 201.035 15.8879C200.942 15.0467 200.755 13.9252 199.727 13.9252Z" fill="#010101"/>
<path d="M204.773 13.271C206.175 13.271 206.923 14.4859 206.923 15.7944C206.923 17.1962 206.175 18.3177 204.68 18.3177C203.184 18.3177 202.53 17.0093 202.53 15.7944C202.53 14.4859 203.278 13.271 204.773 13.271ZM203.652 17.1028C203.839 17.4766 204.306 17.757 204.68 17.757C205.147 17.757 205.614 17.4766 205.801 17.1028C205.988 16.7289 206.082 16.2617 206.082 15.8878C206.082 15.4205 205.988 14.9532 205.801 14.5794C205.614 14.2056 205.147 14.0187 204.773 14.0187C204.306 14.0187 203.839 14.299 203.652 14.6729C203.465 15.0467 203.371 15.514 203.371 15.8878C203.371 16.2617 203.465 16.7289 203.652 17.1028Z" fill="#010101"/>
<path d="M208.699 13.3645V14.486C208.886 13.8318 209.353 13.1776 210.101 13.1776H210.381V14.0187H210.194C209.633 14.0187 209.26 14.2991 208.979 14.7664C208.792 15.1402 208.699 15.4206 208.699 15.7944V18.2243H207.951V13.3645H208.699Z" fill="#010101"/>
<path d="M213.372 18.3177L212.624 18.4112C211.596 18.4112 211.222 17.757 211.222 16.8224V14.0186H210.381V13.4579H211.222V12.1495L211.97 12.056V13.3644H213.091V13.9252H211.97V16.8224C211.97 17.3831 212.157 17.6635 212.717 17.6635L213.278 17.57V18.3177H213.372Z" fill="#010101"/>
<path d="M217.203 15.2336V15.0467C217.203 14.2056 216.83 13.8317 215.988 13.8317C215.334 13.8317 214.773 14.0187 214.68 14.6729L214.026 14.5794C214.119 13.5514 215.241 13.271 216.082 13.271C216.643 13.271 217.203 13.3645 217.577 13.7383C217.951 14.2056 217.951 14.7663 217.951 15.3271V17.1962C217.951 17.5701 217.951 17.9439 218.044 18.2243H217.297L217.203 17.2897C216.83 17.9439 216.269 18.3177 215.521 18.3177C214.587 18.3177 213.839 17.8504 213.839 16.8224C213.839 16.2617 214.213 15.7009 214.773 15.514C215.334 15.2336 216.082 15.2336 216.643 15.2336H217.203ZM217.203 15.7944H216.549C215.801 15.7944 214.587 15.8878 214.587 16.9159C214.587 17.4766 215.147 17.757 215.615 17.757C216.549 17.757 217.203 17.0093 217.203 16.0747V15.7944Z" fill="#010101"/>
<path d="M221.596 18.3177L220.848 18.4112C219.82 18.4112 219.447 17.757 219.447 16.8224V14.0186H218.605V13.4579H219.447V12.1495L220.194 12.056V13.3644H221.316V13.9252H220.194V16.8224C220.194 17.3831 220.381 17.6635 220.942 17.6635L221.503 17.57V18.3177H221.596Z" fill="#010101"/>
<path d="M223.091 12.5234H222.25V11.6823H223.091V12.5234ZM223.091 18.3178H222.343V13.458H223.091V18.3178Z" fill="#010101"/>
<path d="M226.456 13.271C227.858 13.271 228.605 14.4859 228.605 15.7944C228.605 17.1962 227.858 18.3177 226.362 18.3177C224.867 18.3177 224.213 17.0093 224.213 15.7944C224.306 14.4859 225.054 13.271 226.456 13.271ZM225.334 17.1028C225.521 17.4766 225.989 17.757 226.362 17.757C226.83 17.757 227.297 17.4766 227.484 17.1028C227.671 16.7289 227.764 16.2617 227.764 15.8878C227.764 15.4205 227.671 14.9532 227.484 14.5794C227.297 14.2056 226.83 14.0187 226.456 14.0187C225.989 14.0187 225.521 14.299 225.334 14.6729C225.147 15.0467 225.054 15.514 225.054 15.8878C225.054 16.2617 225.147 16.7289 225.334 17.1028Z" fill="#010101"/>
<path d="M230.381 14.299C230.662 13.7383 231.223 13.271 231.877 13.271C232.438 13.271 232.905 13.5514 233.279 14.0187C233.559 14.3925 233.466 15.0467 233.466 15.6074V18.3177H232.718V15.3271C232.718 15.0467 232.718 14.6729 232.624 14.3925C232.438 14.1121 232.064 13.9252 231.783 13.9252C231.409 13.9252 231.036 14.1121 230.755 14.3925C230.475 14.7663 230.381 15.2336 230.381 15.7009V18.2243H229.634V13.3645H230.381V14.299Z" fill="#010101"/>
<path d="M128.886 29.7197C128.606 29.7197 128.419 29.8131 128.138 29.8131C127.577 29.8131 127.391 29.5328 127.017 29.2524C126.456 29.7197 125.989 29.9066 125.241 29.9066C124.774 29.9066 124.213 29.7197 123.746 29.4393C123.278 29.0655 122.998 28.5047 122.998 27.944C122.998 26.9159 123.746 26.2617 124.68 25.9813C124.4 25.6075 124.026 25.0468 124.026 24.5795C124.026 23.7384 124.68 23.1776 125.521 23.1776C126.363 23.1776 127.017 23.6449 127.017 24.5795C127.017 25.4206 126.363 25.8879 125.615 26.2617L127.017 28.3178C127.484 27.7571 127.764 27.0094 127.951 26.2617L128.699 26.4486C128.512 27.3832 128.138 28.2243 127.484 28.8785C127.671 29.0655 127.858 29.2524 128.232 29.2524C128.419 29.2524 128.606 29.2524 128.886 29.1589V29.7197ZM125.148 26.4486C124.493 26.729 123.933 27.1028 123.933 27.8505C123.933 28.7851 124.587 29.2524 125.428 29.2524C125.895 29.2524 126.363 29.0655 126.736 28.6916L125.148 26.4486ZM125.428 25.701L125.802 25.5141C126.176 25.3271 126.549 25.0468 126.549 24.5795C126.549 24.1122 126.176 23.7384 125.615 23.7384C125.148 23.7384 124.867 24.0187 124.867 24.486C124.867 24.8599 125.241 25.3271 125.428 25.701Z" fill="#010101"/>
<path d="M132.904 23.1776H134.96C135.895 23.1776 136.643 23.3645 137.203 24.1122C137.764 24.7664 138.044 25.6075 138.044 26.4486C138.044 27.2898 137.858 28.0374 137.39 28.6916C136.83 29.4393 136.175 29.7197 135.241 29.7197H132.904V23.1776ZM134.96 29.0655C135.708 29.0655 136.362 28.8785 136.736 28.2243C137.016 27.7571 137.203 27.0094 137.203 26.4486C137.203 25.7944 137.016 25.0468 136.643 24.5795C136.175 24.0187 135.708 23.9253 134.96 23.9253H133.745V29.0655H134.96Z" fill="#010101"/>
<path d="M143.091 28.4112C142.811 29.3458 141.97 29.8131 141.035 29.8131C139.54 29.8131 138.792 28.5981 138.792 27.2897C138.792 25.9813 139.633 24.7664 141.035 24.7664C142.53 24.7664 143.185 26.0748 143.185 27.3832H139.633C139.633 27.757 139.633 28.1308 139.82 28.5047C140.007 28.972 140.568 29.2523 141.035 29.2523C141.689 29.2523 142.156 28.8785 142.343 28.3178L143.091 28.4112ZM142.343 26.8224C142.343 25.9813 141.876 25.3271 141.035 25.3271C140.194 25.3271 139.727 26.0748 139.633 26.8224H142.343Z" fill="#010101"/>
<path d="M146.176 29.8132H145.428L143.652 24.9534H144.493L145.895 28.8786L147.204 24.9534H147.858L146.176 29.8132Z" fill="#010101"/>
<path d="M152.531 28.4112C152.25 29.3458 151.409 29.8131 150.474 29.8131C148.979 29.8131 148.231 28.5981 148.231 27.2897C148.231 25.9813 149.073 24.7664 150.474 24.7664C151.97 24.7664 152.624 26.0748 152.624 27.3832H149.073C149.073 27.757 149.073 28.1308 149.259 28.5047C149.446 28.972 150.007 29.2523 150.474 29.2523C151.129 29.2523 151.596 28.8785 151.783 28.3178L152.531 28.4112ZM151.783 26.8224C151.783 25.9813 151.316 25.3271 150.474 25.3271C149.633 25.3271 149.166 26.0748 149.073 26.8224H151.783Z" fill="#010101"/>
<path d="M153.746 29.8132V23.2711H154.494V29.8132H153.746Z" fill="#010101"/>
<path d="M157.951 24.7664C159.353 24.7664 160.101 25.9813 160.101 27.2897C160.101 28.6916 159.353 29.8131 157.858 29.8131C156.362 29.8131 155.708 28.5047 155.708 27.2897C155.708 25.9813 156.456 24.7664 157.951 24.7664ZM156.829 28.5981C157.016 28.972 157.484 29.2523 157.858 29.2523C158.325 29.2523 158.792 28.972 158.979 28.5981C159.166 28.2243 159.259 27.757 159.259 27.3832C159.259 26.9159 159.166 26.4486 158.979 26.0748C158.792 25.7009 158.325 25.514 157.951 25.514C157.484 25.514 157.016 25.7944 156.829 26.1682C156.643 26.5421 156.549 27.0093 156.549 27.3832C156.549 27.757 156.643 28.2243 156.829 28.5981Z" fill="#010101"/>
<path d="M161.97 31.4019H161.223V24.9533H161.877V25.8879C162.157 25.2337 162.625 24.8599 163.372 24.8599C164.774 24.8599 165.335 26.1683 165.335 27.3832C165.335 27.944 165.241 28.5982 164.961 29.0655C164.587 29.6262 164.12 30 163.466 30C162.811 30 162.344 29.7197 161.97 29.1589V31.4019ZM163.279 25.4206C162.625 25.4206 162.157 25.9814 161.97 26.6356V27.7571C161.97 28.5982 162.531 29.2524 163.279 29.2524C163.653 29.2524 164.12 28.972 164.307 28.6916C164.494 28.3178 164.587 27.8505 164.587 27.3832C164.494 26.5421 164.307 25.4206 163.279 25.4206Z" fill="#010101"/>
<path d="M167.017 24.9533V25.8879C167.297 25.3272 167.764 24.8599 168.512 24.8599C169.26 24.8599 169.727 25.3272 169.914 25.9814C170.194 25.3272 170.755 24.8599 171.503 24.8599C171.97 24.8599 172.437 25.1402 172.717 25.5141C172.998 25.8879 172.904 26.4486 172.904 26.9159V29.8131H172.157V26.9159C172.157 26.6356 172.157 26.2617 172.063 25.9814C171.876 25.701 171.596 25.5141 171.222 25.5141C170.848 25.5141 170.474 25.701 170.288 26.0748C170.007 26.4486 170.007 26.8225 170.007 27.2898V29.9066H169.26V26.8225C169.26 26.5421 169.26 26.2617 169.073 25.9814C168.886 25.701 168.605 25.5141 168.231 25.5141C167.858 25.5141 167.577 25.701 167.39 25.9814C167.11 26.2617 167.11 26.729 167.11 27.1029V29.9066H166.362V25.0468H167.017V24.9533Z" fill="#010101"/>
<path d="M178.045 28.4112C177.765 29.3458 176.924 29.8131 175.989 29.8131C174.494 29.8131 173.746 28.5981 173.746 27.2897C173.746 25.9813 174.587 24.7664 175.989 24.7664C177.484 24.7664 178.139 26.0748 178.139 27.3832H174.587C174.587 27.757 174.587 28.1308 174.774 28.5047C174.961 28.972 175.522 29.2523 175.989 29.2523C176.643 29.2523 177.111 28.8785 177.297 28.3178L178.045 28.4112ZM177.297 26.8224C177.297 25.9813 176.83 25.3271 175.989 25.3271C175.148 25.3271 174.681 26.0748 174.587 26.8224H177.297Z" fill="#010101"/>
<path d="M179.914 25.7944C180.194 25.2336 180.755 24.7664 181.409 24.7664C181.97 24.7664 182.437 25.0467 182.811 25.514C183.091 25.8879 182.998 26.5421 182.998 27.1028V29.8131H182.25V26.8224C182.25 26.5421 182.25 26.1682 182.157 25.8879C181.97 25.6075 181.596 25.4206 181.316 25.4206C180.942 25.4206 180.568 25.6075 180.288 25.8879C180.007 26.2617 179.914 26.729 179.914 27.1963V29.7196H179.166V24.8598H179.914V25.7944Z" fill="#010101"/>
<path d="M186.737 29.8131L185.989 29.9066C184.961 29.9066 184.587 29.2524 184.587 28.3178V25.5141H183.746V24.9533H184.587V23.7384L185.335 23.6449V24.9533H186.456V25.5141H185.335V28.4113C185.335 28.972 185.522 29.2524 186.083 29.2524L186.643 29.1589V29.8131H186.737Z" fill="#010101"/>
<path d="M190.288 29.8132V23.2711H192.531C193.092 23.2711 193.653 23.3646 194.12 23.7384C194.587 24.1122 194.774 24.673 194.774 25.2337C194.774 25.701 194.587 26.2618 194.213 26.6356C193.746 27.1029 193.185 27.1964 192.625 27.1964H191.129V29.9066H190.288V29.8132ZM192.531 26.4487C192.905 26.4487 193.279 26.4487 193.559 26.0749C193.839 25.7945 193.933 25.5141 193.933 25.1403C193.933 24.7664 193.746 24.3926 193.466 24.1122C193.185 23.9253 192.905 23.8319 192.531 23.8319H191.129V26.3552H192.531V26.4487Z" fill="#010101"/>
<path d="M197.671 24.7664C199.073 24.7664 199.82 25.9813 199.82 27.2897C199.82 28.6916 199.073 29.8131 197.577 29.8131C196.082 29.8131 195.428 28.5047 195.428 27.2897C195.428 25.9813 196.269 24.7664 197.671 24.7664ZM196.549 28.5981C196.736 28.972 197.203 29.2523 197.577 29.2523C198.045 29.2523 198.512 28.972 198.699 28.5981C198.886 28.2243 198.979 27.757 198.979 27.3832C198.979 26.9159 198.886 26.4486 198.699 26.0748C198.512 25.7009 198.045 25.514 197.671 25.514C197.203 25.514 196.736 25.7944 196.549 26.1682C196.362 26.5421 196.269 27.0093 196.269 27.3832C196.269 27.757 196.362 28.2243 196.549 28.5981Z" fill="#010101"/>
<path d="M201.035 29.8132V23.2711H201.783V29.8132H201.035Z" fill="#010101"/>
<path d="M204.119 24.0187H203.278V23.1776H204.119V24.0187ZM204.026 29.8131H203.278V24.9533H204.026V29.8131Z" fill="#010101"/>
<path d="M209.073 28.1308C208.886 29.1589 208.232 29.8131 207.204 29.8131C205.802 29.8131 205.147 28.5981 205.147 27.2897C205.147 25.9813 205.802 24.7664 207.204 24.7664C208.232 24.7664 208.886 25.4206 209.073 26.4486L208.418 26.5421C208.325 25.8879 207.951 25.3271 207.297 25.3271C206.269 25.3271 205.989 26.3551 205.989 27.1963C205.989 27.9439 206.269 29.1589 207.204 29.1589C207.951 29.1589 208.325 28.5981 208.418 27.9439L209.073 28.1308Z" fill="#010101"/>
<path d="M211.596 30.2805C211.502 30.6543 211.315 30.9347 211.129 31.2151C210.848 31.4954 210.568 31.5889 210.1 31.5889C209.914 31.5889 209.727 31.5889 209.54 31.4954V30.8412C209.727 30.8412 209.914 30.9347 210.007 30.9347C210.755 30.9347 210.942 30.2805 211.129 29.7197L209.446 24.9534H210.194L211.502 28.5982L212.811 24.9534H213.465L211.596 30.2805Z" fill="#010101"/>
</g>
<defs>
<clipPath id="clip0_778_44249">
<rect width="233.645" height="40" fill="white" transform="translate(0.568359)"/>
</clipPath>
</defs>
</svg>
