<svg width="174" height="40" viewBox="0 0 174 40" fill="none" xmlns="http://www.w3.org/2000/svg">
<g clip-path="url(#clip0_735_42894)">
<path d="M46.0952 16.4179L44.7686 16.0896V5.82093L46.0952 5.52242V3.82092H40.3848V5.52242L41.7114 5.82093V16.0896L40.3848 16.4179V18.0896H46.0952V16.4179Z" fill="#00387F"/>
<path d="M51.0275 10.2686C51.2582 10.0895 51.489 9.91042 51.7197 9.82087C51.9504 9.70147 52.21 9.67162 52.4984 9.67162C52.7868 9.67162 53.0175 9.76117 53.1906 9.91043C53.3636 10.0597 53.4501 10.388 53.4501 10.8955V18.1194H56.2765V10.2388C56.2765 9.16415 56.0458 8.41788 55.6132 7.99997C55.1806 7.58206 54.5172 7.34326 53.6232 7.34326C52.9887 7.34326 52.4407 7.46266 52.0081 7.70147C51.5755 7.94027 51.1429 8.23878 50.7679 8.62684L50.5372 7.61192H48.2588V18.1194H51.0563V10.2686H51.0275Z" fill="#00387F"/>
<path d="M62.9676 16.0597C62.8234 16.1194 62.6504 16.1492 62.4485 16.1492C62.1889 16.1492 62.0159 16.0895 61.8717 15.9403C61.7563 15.791 61.6698 15.4925 61.6698 15.0448V9.79102H63.5445V7.58207H61.6698V4.50745L58.8723 4.98506V7.55222H57.834V9.76118H58.8723V15.7015C58.8723 16.2089 58.9299 16.6268 59.0741 16.9552C59.2183 17.2836 59.3914 17.5522 59.651 17.7612C59.8817 17.9701 60.1989 18.1194 60.545 18.1791C60.8911 18.2686 61.2949 18.2985 61.7275 18.2985C62.2178 18.2985 62.5927 18.2388 62.8811 18.1492C63.1695 18.0597 63.4291 17.9403 63.6598 17.8507L63.2849 15.8806C63.2272 15.9701 63.1118 16 62.9676 16.0597Z" fill="#00387F"/>
<path d="M69.7736 18.3583C70.4946 18.3583 71.1579 18.2388 71.7348 18C72.3116 17.7612 72.773 17.4627 73.148 17.1045L71.9366 15.1642C71.6194 15.403 71.3021 15.612 70.9561 15.7911C70.61 15.9702 70.2062 16.0597 69.7159 16.0597C69.3987 16.0597 69.1391 16.0299 68.9372 15.9702C68.7065 15.9105 68.5334 15.7911 68.3892 15.612C68.245 15.4329 68.1296 15.1941 68.0431 14.8956C67.9566 14.5971 67.8989 14.209 67.8701 13.7314H73.321V12.8956C73.321 10.9553 73.0037 9.55228 72.3404 8.65676C71.6771 7.76124 70.5811 7.31348 69.0814 7.31348C68.4181 7.31348 67.8124 7.40303 67.2933 7.61198C66.7741 7.82094 66.3127 8.11945 65.9666 8.56721C65.5917 8.98512 65.3321 9.55228 65.1302 10.2687C64.9283 10.9553 64.8418 11.8209 64.8418 12.806C64.8418 14.7762 65.2456 16.209 66.0243 17.0747C66.8318 17.9403 68.072 18.3583 69.7736 18.3583ZM68.0143 10.6269C68.072 10.3284 68.1585 10.0896 68.245 9.9105C68.3315 9.73139 68.4757 9.61198 68.6199 9.55228C68.793 9.49258 68.966 9.46273 69.1968 9.46273C69.4563 9.46273 69.6871 9.52243 69.8313 9.58214C70.0043 9.67169 70.1197 9.82094 70.235 10C70.3216 10.1791 70.4081 10.4478 70.4369 10.7165C70.4658 11.015 70.4946 11.3732 70.4946 11.7911H67.8701C67.8989 11.3135 67.9566 10.9254 68.0143 10.6269Z" fill="#00387F"/>
<path d="M78.0798 10.6269C78.3105 10.4776 78.5124 10.3284 78.7143 10.2687C78.9162 10.1791 79.2046 10.1493 79.5507 10.1493C79.7526 10.1493 79.9256 10.1791 80.0986 10.2388C80.2717 10.2985 80.4159 10.3582 80.5601 10.4179L81.0504 7.52242C80.9639 7.49257 80.8485 7.46271 80.7043 7.46271C80.5601 7.43286 80.4159 7.43286 80.2717 7.43286C79.7814 7.43286 79.3199 7.55227 78.9162 7.79107C78.5124 8.02988 78.1375 8.38809 77.8491 8.806L77.5895 7.61197H75.2822V18.1194H78.0798V10.6269Z" fill="#00387F"/>
<path d="M85.3185 10.2686C85.5492 10.0895 85.78 9.91042 86.0107 9.82087C86.2414 9.70147 86.501 9.67162 86.7894 9.67162C87.0778 9.67162 87.3085 9.76117 87.4816 9.91043C87.6546 10.0597 87.7411 10.388 87.7411 10.8955V18.1194H90.5675V10.2388C90.5675 9.16415 90.3368 8.41788 89.9042 7.99997C89.4716 7.58206 88.8083 7.34326 87.9142 7.34326C87.2797 7.34326 86.7317 7.46266 86.2991 7.70147C85.8665 7.94027 85.4339 8.23878 85.0589 8.62684L84.8282 7.61192H82.5498V18.1194H85.3474V10.2686H85.3185Z" fill="#00387F"/>
<path d="M96.7109 18.0299C97.0859 17.8209 97.4031 17.5523 97.6627 17.2538C97.7204 17.4627 97.7781 17.6418 97.8357 17.8209C97.8934 18 97.9223 18.0896 97.9223 18.0896H100.143V10.7165C100.143 9.49258 99.8546 8.59706 99.2778 8.0896C98.701 7.58214 97.7781 7.31348 96.5091 7.31348C95.7015 7.31348 94.9805 7.43288 94.346 7.64184C93.7115 7.88064 93.1347 8.17915 92.5579 8.56721L93.5673 10.5374C93.9422 10.2985 94.3748 10.0896 94.8075 9.9105C95.2401 9.73139 95.7304 9.64183 96.2207 9.64183C96.6821 9.64183 96.9994 9.76124 97.1436 10C97.2878 10.2388 97.3454 10.6269 97.3454 11.1344V11.5224H96.7398C95.2112 11.5224 94.1153 11.7911 93.3943 12.3284C92.6732 12.8657 92.3271 13.7314 92.3271 14.9851C92.3271 16.0299 92.5579 16.8359 93.0193 17.4627C93.4808 18.0597 94.2595 18.3583 95.3266 18.3583C95.8746 18.3583 96.336 18.2687 96.7109 18.0299ZM95.1824 14.209C95.2401 14 95.3266 13.8508 95.4708 13.7015C95.615 13.5821 95.8169 13.4627 96.1053 13.403C96.3937 13.3433 96.7398 13.3135 97.2012 13.3135H97.3454V15.7911C97.2012 15.9403 96.9994 16.0597 96.7975 16.1792C96.5956 16.2986 96.3649 16.3284 96.0765 16.3284C95.7015 16.3284 95.442 16.209 95.2977 16C95.1535 15.7911 95.067 15.4329 95.067 14.8956C95.0959 14.6568 95.1247 14.418 95.1824 14.209Z" fill="#00387F"/>
<path d="M106.805 18.2089C107.094 18.1194 107.353 18 107.584 17.9104L107.209 15.9403C107.123 15.9701 107.007 16 106.863 16.0597C106.719 16.1194 106.546 16.1492 106.344 16.1492C106.084 16.1492 105.911 16.0895 105.767 15.9403C105.652 15.791 105.565 15.4925 105.565 15.0448V9.79102H107.44V7.58207H105.565V4.50745L102.768 4.98506V7.55222H101.729V9.76118H102.768V15.7015C102.768 16.2089 102.825 16.6268 102.97 16.9552C103.114 17.2836 103.287 17.5522 103.546 17.7612C103.777 17.9701 104.094 18.1194 104.441 18.1791C104.787 18.2686 105.19 18.2985 105.623 18.2985C106.113 18.3582 106.488 18.3283 106.805 18.2089Z" fill="#00387F"/>
<path d="M109.747 18.0896H112.574V7.58215H108.594V9.4926L109.747 9.76126V18.0896Z" fill="#00387F"/>
<path d="M111.161 6.3881C111.622 6.3881 112.026 6.209 112.343 5.88065C112.689 5.55229 112.833 5.13438 112.833 4.65676C112.833 4.17915 112.66 3.76124 112.343 3.43288C112.026 3.10452 111.622 2.92542 111.132 2.92542C110.67 2.92542 110.267 3.10452 109.949 3.43288C109.632 3.76124 109.459 4.17915 109.459 4.68662C109.459 5.16423 109.632 5.58213 109.949 5.91049C110.267 6.209 110.67 6.3881 111.161 6.3881Z" fill="#00387F"/>
<path d="M122.207 8.59706C121.832 8.14929 121.37 7.82094 120.822 7.61198C120.274 7.40303 119.669 7.31348 118.948 7.31348C118.256 7.31348 117.621 7.40303 117.073 7.61198C116.525 7.82094 116.064 8.11945 115.689 8.56721C115.314 9.01497 115.025 9.58213 114.824 10.2687C114.622 10.9553 114.535 11.7911 114.535 12.7762C114.535 14.7463 114.91 16.1792 115.689 17.0448C116.467 17.9105 117.535 18.3583 118.948 18.3583C119.64 18.3583 120.274 18.2687 120.822 18.0597C121.37 17.8508 121.832 17.5523 122.207 17.1045C122.582 16.6568 122.87 16.0896 123.072 15.403C123.274 14.7165 123.36 13.8806 123.36 12.8956C123.36 11.9105 123.274 11.0747 123.072 10.3583C122.87 9.64184 122.582 9.04482 122.207 8.59706ZM120.303 14.4777C120.274 14.9254 120.188 15.2836 120.073 15.5224C119.957 15.7911 119.813 15.9702 119.64 16.0597C119.467 16.1493 119.236 16.209 118.948 16.209C118.659 16.209 118.429 16.1493 118.256 16.0597C118.083 15.9702 117.938 15.7911 117.823 15.5224C117.708 15.2836 117.621 14.9254 117.592 14.5075C117.563 14.0896 117.535 13.5224 117.535 12.8657C117.535 12.1792 117.563 11.612 117.592 11.1642C117.621 10.7165 117.708 10.3881 117.823 10.1194C117.938 9.85079 118.083 9.70154 118.256 9.61199C118.429 9.52244 118.659 9.46273 118.948 9.46273C119.236 9.46273 119.467 9.49258 119.64 9.58214C119.813 9.67169 119.957 9.82094 120.073 10.0597C120.188 10.2986 120.246 10.6269 120.303 11.0747C120.361 11.4926 120.361 12.0597 120.361 12.7762C120.361 13.4627 120.361 14.0299 120.303 14.4777Z" fill="#00387F"/>
<path d="M128.118 10.2686C128.349 10.0895 128.58 9.91042 128.811 9.82087C129.041 9.70147 129.301 9.67162 129.589 9.67162C129.878 9.67162 130.108 9.76117 130.281 9.91043C130.454 10.0597 130.541 10.388 130.541 10.8955V18.1194H133.367V10.2388C133.367 9.16415 133.137 8.41788 132.704 7.99997C132.271 7.58206 131.608 7.34326 130.714 7.34326C130.08 7.34326 129.532 7.46266 129.099 7.70147C128.666 7.94027 128.234 8.23878 127.859 8.62684L127.628 7.61192H125.35V18.1194H128.147V10.2686H128.118Z" fill="#00387F"/>
<path d="M139.54 11.5522C138.011 11.5522 136.886 11.8209 136.194 12.3582C135.473 12.8955 135.127 13.7612 135.127 15.0149C135.127 16.0597 135.358 16.8657 135.848 17.4925C136.309 18.0895 137.088 18.388 138.126 18.388C138.674 18.388 139.136 18.2686 139.511 18.0597C139.886 17.8507 140.203 17.5821 140.463 17.2836C140.52 17.4925 140.578 17.6716 140.636 17.8507C140.693 18.0298 140.722 18.1194 140.722 18.1194H142.914V10.7462C142.914 9.52236 142.626 8.62685 142.049 8.11938C141.472 7.61192 140.549 7.34326 139.28 7.34326C138.473 7.34326 137.751 7.46267 137.117 7.67162C136.482 7.91043 135.906 8.20893 135.329 8.59699L136.338 10.5671C136.713 10.3283 137.146 10.1194 137.578 9.94027C138.011 9.76117 138.501 9.67162 138.992 9.67162C139.482 9.67162 139.77 9.79102 139.915 10.0298C140.059 10.2686 140.116 10.6567 140.116 11.1642V11.5522H139.54ZM140.145 15.8209C140.001 15.9701 139.799 16.0895 139.597 16.2089C139.395 16.3283 139.165 16.3582 138.876 16.3582C138.501 16.3582 138.242 16.2388 138.098 16.0298C137.953 15.8209 137.867 15.4627 137.867 14.9253C137.867 14.6268 137.896 14.388 137.953 14.2089C138.011 14 138.098 13.8507 138.242 13.7015C138.386 13.5821 138.588 13.4627 138.876 13.403C139.165 13.3433 139.511 13.3134 139.972 13.3134H140.116V15.8209H140.145Z" fill="#00387F"/>
<path d="M149 16.1493H148.856C148.538 16.1493 148.308 16.0896 148.221 16.0001C148.135 15.9105 148.077 15.6419 148.077 15.2538V3.07471H145.279V15.0449C145.279 15.612 145.308 16.1195 145.366 16.5374C145.423 16.9553 145.539 17.2837 145.712 17.5523C145.885 17.821 146.145 18.0299 146.462 18.1493C146.779 18.2687 147.212 18.3284 147.731 18.3284C148.077 18.3284 148.394 18.2986 148.683 18.2389C148.971 18.1792 149.202 18.0896 149.346 18.0299L149.057 16.1493C149.057 16.1493 149.029 16.1493 149 16.1493Z" fill="#00387F"/>
<path d="M38.5967 24.2687H41.5673V35.9104H44.509V24.2687H47.5085V21.6119H38.5967V24.2687Z" fill="#00387F"/>
<path d="M53.6227 25.2239C53.1324 25.2239 52.671 25.3433 52.2672 25.5821C51.8634 25.8209 51.4885 26.1791 51.2001 26.597L50.9405 25.403H48.6621V35.9104H51.4597V28.4478C51.6904 28.2985 51.8923 28.1493 52.0942 28.0896C52.2961 28 52.5845 27.9701 52.9306 27.9701C53.1324 27.9701 53.3055 28 53.4785 28.0597C53.6516 28.1194 53.7958 28.1791 53.94 28.2388L54.4303 25.3433C54.3438 25.3134 54.2284 25.2836 54.0842 25.2836C53.9111 25.2239 53.7669 25.2239 53.6227 25.2239Z" fill="#00387F"/>
<path d="M62.2749 25.9105C61.698 25.403 60.7751 25.1344 59.5061 25.1344C58.6986 25.1344 57.9776 25.2538 57.3431 25.4628C56.7086 25.7016 56.1318 26.0001 55.5549 26.3881L56.5644 28.3583C56.9393 28.1195 57.3719 27.9105 57.8045 27.7314C58.2371 27.5523 58.6986 27.4628 59.2177 27.4628C59.708 27.4628 59.9964 27.5822 60.1406 27.821C60.2848 28.0598 60.3425 28.4478 60.3425 28.9553V29.3433H59.7369C58.2083 29.3433 57.1123 29.612 56.3913 30.1493C55.6703 30.6866 55.3242 31.5523 55.3242 32.7762C55.3242 33.821 55.5549 34.6269 56.0164 35.2538C56.4778 35.8508 57.2566 36.1493 58.2948 36.1493C58.8428 36.1493 59.3042 36.0299 59.6792 35.821C60.0541 35.612 60.3714 35.3433 60.6309 35.0448C60.6886 35.2538 60.7463 35.4329 60.804 35.612C60.8617 35.7911 60.8905 35.8807 60.8905 35.8807H63.0824V28.5075C63.1401 27.3135 62.8517 26.418 62.2749 25.9105ZM60.3425 33.6419C60.1695 33.7911 59.9964 33.9105 59.7945 34.0299C59.5927 34.1493 59.3619 34.1792 59.0735 34.1792C58.6986 34.1792 58.439 34.0598 58.2948 33.8508C58.1506 33.6419 58.0641 33.2837 58.0641 32.7463C58.0641 32.4478 58.0929 32.209 58.1506 32.0001C58.2083 31.7911 58.2948 31.6419 58.439 31.5225C58.5832 31.4031 58.7851 31.2836 59.0735 31.2239C59.3619 31.1642 59.708 31.1344 60.1695 31.1344H60.3137V33.6419H60.3425Z" fill="#00387F"/>
<path d="M70.8698 25.1344C70.2353 25.1344 69.6873 25.2538 69.2547 25.4926C68.8221 25.7314 68.3895 26.0299 68.0146 26.418L67.7838 25.4031H65.4766V35.9105H68.2741V28.0896C68.5049 27.9105 68.7356 27.7613 68.9663 27.6419C69.197 27.5225 69.4566 27.4628 69.745 27.4628C70.0334 27.4628 70.2641 27.5523 70.4372 27.7016C70.6102 27.8508 70.6968 28.1792 70.6968 28.6866V35.9105H73.5232V28.0299C73.5232 26.9553 73.2924 26.209 72.8598 25.7911C72.3984 25.3433 71.735 25.1344 70.8698 25.1344Z" fill="#00387F"/>
<path d="M81.6275 30.3583C81.3968 30.1195 81.0796 29.9105 80.7623 29.7613C80.4162 29.612 80.0701 29.4926 79.6664 29.3732C79.378 29.2836 79.1472 29.224 78.9742 29.1642C78.8011 29.1045 78.6281 29.0448 78.5127 28.9553C78.3974 28.8657 78.3108 28.7762 78.282 28.6866C78.2532 28.5672 78.2243 28.4478 78.2243 28.2687C78.2243 28.0001 78.3108 27.7911 78.5127 27.6419C78.6858 27.5225 78.9453 27.4628 79.2337 27.4628C79.6375 27.4628 80.0124 27.4926 80.3297 27.5822C80.6758 27.6717 81.0219 27.7911 81.3391 27.9702L82.0313 25.7911C81.5987 25.5822 81.1372 25.4329 80.6758 25.3135C80.2143 25.1941 79.6087 25.1344 78.9165 25.1344C77.8205 25.1344 76.9842 25.4031 76.3785 25.9404C75.7728 26.4777 75.4556 27.2836 75.4556 28.3284C75.4556 28.8359 75.5133 29.2538 75.6286 29.612C75.744 29.9702 75.917 30.2687 76.1189 30.5374C76.3208 30.806 76.5804 31.015 76.8976 31.1642C77.186 31.3433 77.5321 31.4627 77.9071 31.5822C78.5704 31.7613 79.003 31.9404 79.2626 32.0896C79.5221 32.2389 79.6375 32.5075 79.6375 32.8657C79.6375 33.4926 79.1761 33.7911 78.282 33.7911C77.8494 33.7911 77.4168 33.7314 77.013 33.5822C76.6092 33.4329 76.2343 33.2538 75.8882 33.015L74.9941 35.2239C75.3979 35.4628 75.917 35.7016 76.5515 35.8807C77.186 36.0896 77.9071 36.1792 78.7434 36.1792C80.0413 36.1792 80.993 35.8807 81.5698 35.2837C82.1467 34.6866 82.4639 33.821 82.4639 32.7165C82.4639 32.1792 82.3774 31.7016 82.2332 31.3135C82.0601 30.9254 81.8871 30.5971 81.6275 30.3583Z" fill="#00387F"/>
<path d="M91.9524 26.2389C91.664 25.821 91.3179 25.5523 90.8853 25.3732C90.4527 25.1941 89.9912 25.1344 89.4432 25.1344C88.9241 25.1344 88.4627 25.2538 88.03 25.4628C87.6263 25.6717 87.2225 26.0001 86.8187 26.418L86.588 25.4031H84.3096V39.8807H87.1071V35.2239C87.3667 35.4628 87.6839 35.6717 88.0589 35.8807C88.4338 36.0896 88.8953 36.1792 89.4432 36.1792C90.0201 36.1792 90.5104 36.0896 90.9141 35.9105C91.3179 35.7314 91.6928 35.4031 91.9524 34.9553C92.2408 34.5075 92.4427 33.9105 92.5869 33.1941C92.7311 32.4478 92.7888 31.5523 92.7888 30.418C92.7888 29.4031 92.7023 28.5374 92.558 27.8508C92.4427 27.1941 92.212 26.6568 91.9524 26.2389ZM89.7605 32.2389C89.7317 32.6568 89.6451 32.9851 89.5298 33.2239C89.4144 33.4628 89.299 33.6419 89.126 33.7314C88.9529 33.821 88.7222 33.8508 88.4627 33.8508C88.1454 33.8508 87.8858 33.7911 87.684 33.6717C87.4532 33.5523 87.2802 33.4329 87.136 33.2837V28.0598C87.309 27.8807 87.5397 27.7613 87.7416 27.6419C87.9724 27.5225 88.2319 27.4628 88.5492 27.4628C88.8087 27.4628 89.0106 27.4926 89.1837 27.5822C89.3567 27.6717 89.4721 27.821 89.5874 28.0598C89.674 28.2986 89.7605 28.5971 89.7893 29.015C89.8182 29.4329 89.847 29.9404 89.847 30.5971C89.8182 31.2538 89.8182 31.821 89.7605 32.2389Z" fill="#00387F"/>
<path d="M101.989 26.418C101.614 25.9702 101.153 25.6419 100.605 25.4329C100.057 25.224 99.451 25.1344 98.73 25.1344C98.0378 25.1344 97.4033 25.224 96.8554 25.4329C96.3074 25.6419 95.8459 25.9404 95.471 26.3881C95.0961 26.8359 94.8077 27.4031 94.6058 28.0896C94.4039 28.7762 94.3174 29.612 94.3174 30.5971C94.3174 32.5672 94.6923 34.0001 95.471 34.8657C96.2497 35.7314 97.3168 36.1792 98.73 36.1792C99.4222 36.1792 100.057 36.0896 100.605 35.8807C101.153 35.6717 101.614 35.3732 101.989 34.9254C102.364 34.4777 102.652 33.9105 102.854 33.2239C103.056 32.5374 103.143 31.7016 103.143 30.7165C103.143 29.7314 103.056 28.8956 102.854 28.1792C102.652 27.4329 102.364 26.8657 101.989 26.418ZM100.086 32.2687C100.057 32.7165 99.9702 33.0747 99.8548 33.3135C99.7395 33.5822 99.5953 33.7613 99.4222 33.8508C99.2492 33.9404 99.0184 34.0001 98.73 34.0001C98.4416 34.0001 98.2109 33.9404 98.0378 33.8508C97.8648 33.7613 97.7206 33.5822 97.6052 33.3434C97.4899 33.1045 97.4034 32.7463 97.3745 32.2986C97.3457 31.8807 97.3168 31.3135 97.3168 30.6568C97.3168 29.9702 97.3457 29.4031 97.3745 28.9553C97.4034 28.5075 97.4899 28.1792 97.6052 27.9105C97.7206 27.6419 97.8648 27.4926 98.0378 27.403C98.2109 27.3135 98.4416 27.2836 98.73 27.2836C99.0184 27.2836 99.2492 27.3135 99.4222 27.403C99.5953 27.4926 99.7395 27.6419 99.8548 27.8807C99.9702 28.1195 100.028 28.4478 100.086 28.8956C100.143 29.3135 100.143 29.8807 100.143 30.5971C100.143 31.2836 100.143 31.8508 100.086 32.2687Z" fill="#00387F"/>
<path d="M110.093 25.2239C109.603 25.2239 109.142 25.3433 108.738 25.5821C108.334 25.8209 107.959 26.1791 107.671 26.597L107.411 25.403H105.133V35.9104H107.93V28.4478C108.161 28.2985 108.363 28.1493 108.565 28.0896C108.767 28 109.055 27.9701 109.401 27.9701C109.603 27.9701 109.776 28 109.949 28.0597C110.122 28.1194 110.266 28.1791 110.411 28.2388L110.901 25.3433C110.814 25.3134 110.699 25.2836 110.555 25.2836C110.382 25.2239 110.238 25.2239 110.093 25.2239Z" fill="#00387F"/>
<path d="M116.899 33.8806C116.755 33.9403 116.582 33.9702 116.38 33.9702C116.121 33.9702 115.948 33.9105 115.803 33.7612C115.688 33.612 115.601 33.3134 115.601 32.8657V27.612H117.476V25.403H115.601V22.3284L112.804 22.806V25.3731H111.766V27.5821H112.804V33.5224C112.804 34.0299 112.862 34.4478 113.006 34.7761C113.15 35.1045 113.352 35.3732 113.583 35.5821C113.842 35.7911 114.131 35.9403 114.477 36C114.823 36.0896 115.227 36.1194 115.659 36.1194C116.149 36.1194 116.524 36.0597 116.813 35.9702C117.101 35.8806 117.361 35.7612 117.591 35.6717L117.217 33.7015C117.159 33.7911 117.043 33.8209 116.899 33.8806Z" fill="#00387F"/>
<path d="M123.966 35.9104H126.936V29.7313H130.311V27.2239H126.936V24.2388H131.205V21.6119H123.966V35.9104Z" fill="#00387F"/>
<path d="M139.77 26.418C139.395 25.9702 138.934 25.6419 138.386 25.4329C137.838 25.224 137.232 25.1344 136.511 25.1344C135.819 25.1344 135.185 25.224 134.637 25.4329C134.089 25.6419 133.627 25.9404 133.252 26.3881C132.877 26.8359 132.589 27.4031 132.387 28.0896C132.185 28.7762 132.099 29.612 132.099 30.5971C132.099 32.5672 132.474 34.0001 133.252 34.8657C134.031 35.7314 135.098 36.1792 136.511 36.1792C137.203 36.1792 137.838 36.0896 138.386 35.8807C138.934 35.6717 139.395 35.3732 139.77 34.9254C140.145 34.4777 140.434 33.9105 140.636 33.2239C140.837 32.5374 140.924 31.7016 140.924 30.7165C140.924 29.7314 140.837 28.8956 140.636 28.1792C140.434 27.4329 140.145 26.8657 139.77 26.418ZM137.867 32.2687C137.838 32.7165 137.751 33.0747 137.636 33.3135C137.521 33.5822 137.377 33.7613 137.203 33.8508C137.03 33.9404 136.8 34.0001 136.511 34.0001C136.223 34.0001 135.992 33.9404 135.819 33.8508C135.646 33.7613 135.502 33.5822 135.386 33.3434C135.271 33.1045 135.185 32.7463 135.156 32.2986C135.127 31.8807 135.098 31.3135 135.098 30.6568C135.098 29.9702 135.127 29.4031 135.156 28.9553C135.185 28.5075 135.271 28.1792 135.386 27.9105C135.502 27.6419 135.646 27.4926 135.819 27.403C135.992 27.3135 136.223 27.2836 136.511 27.2836C136.8 27.2836 137.03 27.3135 137.203 27.403C137.377 27.4926 137.521 27.6419 137.636 27.8807C137.751 28.1195 137.809 28.4478 137.867 28.8956C137.924 29.3135 137.924 29.8807 137.924 30.5971C137.924 31.2836 137.924 31.8508 137.867 32.2687Z" fill="#00387F"/>
<path d="M147.874 25.2239C147.384 25.2239 146.922 25.3433 146.519 25.5821C146.115 25.8209 145.74 26.1791 145.423 26.597L145.163 25.403H142.885V35.9104H145.682V28.4478C145.913 28.2985 146.115 28.1493 146.317 28.0896C146.519 28 146.807 27.9701 147.153 27.9701C147.355 27.9701 147.528 28 147.701 28.0597C147.874 28.1194 148.018 28.1791 148.163 28.2388L148.653 25.3433C148.566 25.3134 148.451 25.2836 148.307 25.2836C148.163 25.2239 148.018 25.2239 147.874 25.2239Z" fill="#00387F"/>
<path d="M155.258 33.1941C155.028 33.3732 154.826 33.5523 154.595 33.6419C154.364 33.7613 154.105 33.821 153.816 33.821C153.499 33.821 153.268 33.7314 153.095 33.5822C152.922 33.4329 152.836 33.0747 152.836 32.5673V25.4031H150.038V33.1344C150.038 34.1792 150.298 34.9553 150.817 35.4329C151.336 35.9404 152.028 36.1792 152.864 36.1792C153.182 36.1792 153.499 36.1493 153.759 36.0896C154.018 36.0299 154.249 35.9404 154.451 35.821C154.653 35.7016 154.854 35.5523 155.028 35.4031C155.201 35.2538 155.374 35.0747 155.576 34.8658L155.806 35.9105H158.085V25.4031H155.287V33.1941H155.258Z" fill="#00387F"/>
<path d="M172.505 25.7613C172.072 25.3433 171.466 25.1344 170.688 25.1344C170.111 25.1344 169.621 25.2538 169.188 25.4628C168.755 25.6717 168.323 25.9702 167.948 26.3583C167.544 25.5523 166.823 25.1344 165.756 25.1344C165.179 25.1344 164.66 25.2538 164.227 25.4628C163.795 25.7016 163.391 26.0001 163.016 26.3583L162.785 25.4031H160.507V35.9105H163.304V28.0896C163.535 27.9105 163.737 27.7314 163.968 27.6419C164.17 27.5225 164.4 27.4628 164.631 27.4628C164.891 27.4628 165.093 27.5225 165.237 27.6717C165.381 27.821 165.439 28.1195 165.439 28.6269V35.9105H168.265V28.0598C168.467 27.8807 168.698 27.7314 168.9 27.6419C169.13 27.5225 169.332 27.4628 169.563 27.4628C169.822 27.4628 170.024 27.5225 170.169 27.6717C170.313 27.821 170.399 28.1195 170.399 28.6269V35.9105H173.197V27.9702C173.139 26.9254 172.937 26.1792 172.505 25.7613Z" fill="#00387F"/>
<path d="M35.482 10.6866C31.9923 3.79107 24.7244 -0.626845 16.7643 0.0895734C8.80426 0.805991 2.37276 6.47764 0.0943325 13.9105C0.0654917 14.0896 0.152014 14.2687 0.325059 14.3284C0.498104 14.3881 0.69999 14.3284 0.786513 14.1791C0.786513 14.1493 0.815353 14.1493 0.815353 14.1194C3.58407 8.65674 9.69833 4.53734 17.0816 3.88062C24.4937 3.19406 31.2136 6.17913 34.8475 11.1045C34.9629 11.2538 35.1648 11.2836 35.3378 11.1941C35.5109 11.0448 35.5685 10.8358 35.482 10.6866Z" fill="#9E9E9F"/>
<path d="M33.0014 16.4478C29.4251 14.0298 24.003 12.7463 18.0907 13.2836C15.9276 13.4925 13.9088 13.9104 12.0053 14.5075C11.5438 14.6567 9.89988 15.2537 9.55379 15.4328C3.95867 17.9104 0.353571 22.0895 0.699661 26.4776C0.930388 29.2239 2.68968 31.6119 5.40071 33.3731C5.54492 33.4627 5.71796 33.4328 5.83333 33.3134C5.94869 33.194 5.97753 32.9851 5.89101 32.8358C5.16999 31.7313 4.70853 30.5075 4.62201 29.2239C4.36244 26 6.20826 22.8955 9.43843 20.4776C9.89988 20.0895 12.2648 18.7463 12.2648 18.7463C15.0335 17.3433 18.3502 16.3582 22.013 16.0298C25.9065 15.6716 29.5982 16.1194 32.6553 17.1343C32.7707 17.1642 32.9149 17.1343 33.0014 17.0448C33.1456 16.8955 33.1456 16.6567 33.0014 16.5074C33.0302 16.4776 33.0302 16.4776 33.0014 16.4478Z" fill="#79BC28"/>
<path d="M12.2939 18.7463C12.7554 22.0896 13.7936 26.0299 15.9279 29.2538C18.1486 32.5971 21.0904 34.806 23.6572 35.3434C26.224 35.8807 28.0699 35.612 29.0793 35.2837C29.2812 35.224 29.4831 35.1344 29.6561 35.0747C29.8003 35.015 29.9445 35.0449 30.0599 35.1643C30.2041 35.3135 30.2041 35.5523 30.0599 35.7016C29.9734 35.7613 29.8868 35.821 29.8003 35.8807C28.9351 36.5374 26.9739 37.7613 25.0416 38.3881C23.0804 39.015 20.6866 39.3434 18.0044 37.8807C15.3222 36.418 13.361 33.6419 12.1209 31.1344C10.8807 28.6269 9.8713 25.1046 9.61173 22.0299C9.55405 21.4926 9.49637 20.6269 9.49637 20.4478C9.49637 20.0598 9.46753 16.4777 9.58289 15.4031C9.66941 14.5374 9.81362 13.612 9.98666 12.5971C10.65 9.10456 12.092 6.62694 12.5247 5.94038L12.5535 5.91052C12.6977 5.76127 12.9284 5.76127 13.0726 5.91052C13.1592 6.00008 13.188 6.14933 13.1592 6.26874C12.8996 7.16426 12.64 8.08963 12.4958 8.98516C12.1786 10.6568 12.0344 12.5075 12.0055 14.4777C12.0344 15.1941 12.1497 17.0449 12.2939 18.7463Z" fill="#00387F"/>
</g>
<defs>
<clipPath id="clip0_735_42894">
<rect width="173.333" height="40" fill="white" transform="translate(0.0078125)"/>
</clipPath>
</defs>
</svg>
