<svg width="155" height="40" viewBox="0 0 155 40" fill="none" xmlns="http://www.w3.org/2000/svg">
<g clip-path="url(#clip0_735_43645)">
<g clip-path="url(#clip1_735_43645)">
<path d="M0.749023 14.6269C0.749023 14.6269 24.5102 11.5224 25.2266 11.403C26.2416 11.2239 27.1968 11.0448 28.0326 10.806C29.9431 10.2687 31.7341 9.49254 33.2863 8.41791C34.7789 7.40299 36.2117 5.91045 37.5848 4.29851C38.4804 3.28358 39.3759 1.91045 40.2714 0.597015V0C39.2565 1.55224 38.2416 2.86567 37.2266 4C35.8535 5.55224 34.4207 6.80597 32.9281 7.76119C31.4356 8.71642 29.7042 9.49254 27.8535 9.97015C27.0177 10.209 26.1222 10.3284 25.1072 10.5075C24.4505 10.6269 23.7938 10.6866 23.1371 10.7463C22.8386 10.7463 0.749023 13.0746 0.749023 13.0746V14.6269Z" fill="#BBBDBF"/>
<path d="M32.6296 10.6269C31.1371 11.4627 29.4057 12.1194 27.4953 12.4776C26.6595 12.6567 25.8236 12.7761 24.8087 12.8955C24.2117 12.9552 23.6147 13.0149 23.0177 13.0746C22.7192 13.0746 22.361 13.1343 22.0625 13.1343C14.7789 13.8508 7.55499 14.5075 0.749023 15.1642V16.7164C7.55499 15.8806 14.8983 14.9851 22.1819 14.1493C22.4804 14.0896 22.8386 14.0896 23.1371 14.0299C23.7341 13.9702 24.3311 13.9105 24.9281 13.7911C25.9431 13.6717 26.8983 13.4926 27.6744 13.3134C29.6445 12.8955 31.4356 12.1791 32.9878 11.2239C34.5401 10.2687 35.8535 9.01494 37.346 7.403C38.2416 6.38807 39.2565 5.01494 40.2117 3.70151V3.10449C39.0774 4.59703 38.0625 5.91046 36.9878 6.98509C35.555 8.59703 34.1222 9.79106 32.6296 10.6269Z" fill="#BBBDBF"/>
<path d="M36.8087 10.2686C35.3759 11.5821 33.8237 12.6567 32.3311 13.4328C30.8386 14.1492 29.1669 14.6866 27.1968 14.9851C26.361 15.1045 25.5251 15.2239 24.5102 15.3433L0.749023 17.2537V18.806L21.8236 16.5373L24.5699 16.2388C25.5848 16.1194 26.4804 16 27.3162 15.8209C29.346 15.4627 31.0774 14.8657 32.6296 14.0895C34.2416 13.2537 35.7938 11.9403 37.2863 10.5074C38.3013 9.55222 39.1968 8.29849 40.2117 7.04476V6.50745C39.0177 7.99998 37.9431 9.19401 36.8087 10.2686Z" fill="#BBBDBF"/>
<path d="M31.0774 18.2686C29.7042 19.0448 28.6893 19.5224 26.7192 19.7015C25.5251 19.8209 24.3311 19.8806 23.1371 19.9403C22.5401 19.9403 22.0028 20 21.4057 20.0597C17.8236 20.2388 14.3013 20.4776 10.7192 20.7164L0.749023 21.4328V22.9851L10.7789 22.0298C14.0028 21.7313 17.7639 21.3731 21.4654 21.0746L24.152 20.8955C25.1669 20.8358 26.0625 20.7164 26.8386 20.597C28.8684 20.3582 30.5998 19.9403 32.152 19.3433C33.8236 18.7462 35.3759 17.7313 36.9281 16.597C38.361 15.5821 40.2714 13.5522 40.2714 13.4925V12.9552C39.0177 14.2089 38.2416 14.9253 36.8684 15.8209C35.1371 17.0149 32.3311 17.6119 31.0774 18.2686Z" fill="#BBBDBF"/>
<path d="M31.5549 21.2537C30.0623 21.6716 28.3907 21.9701 26.4205 22.1492C25.6444 22.2089 24.7489 22.2686 23.7937 22.3283L21.1668 22.4477C14.5996 22.7462 8.03247 23.1045 0.808594 23.4627V25.0149C7.73397 24.4776 14.4802 23.9403 21.2862 23.4627L23.9131 23.2836C24.928 23.2239 25.7638 23.1642 26.5996 23.0448C28.6295 22.8059 30.3608 22.4477 31.8534 21.9701C33.525 21.4328 35.1967 20.6567 36.7489 19.6418C37.8832 18.9254 39.0773 18.0298 40.2713 16.9552C38.9578 18.0895 37.7041 18.3283 36.4504 19.1045C34.8384 20.0597 33.2265 20.7761 31.5549 21.2537Z" fill="#BBBDBF"/>
<path d="M31.3162 23.8208C29.8237 24.1791 28.152 24.4179 26.1819 24.5373C25.4057 24.597 24.5699 24.6567 23.555 24.6567L20.9281 24.7761C14.3013 25.0149 7.61469 25.3134 0.749023 25.6119V27.1641C7.55499 26.6865 14.2416 26.2686 20.9878 25.791L23.6147 25.6119C24.6296 25.5522 25.4654 25.4925 26.2416 25.4328C28.2714 25.2537 29.9431 24.9552 31.4953 24.5373C33.2266 24.0597 34.8983 23.4029 36.5102 22.5671C37.7639 21.9104 38.958 21.1343 40.2117 20.1791V19.5223C38.8386 20.5373 37.5251 21.3134 36.2117 21.9701C34.6595 22.8059 32.9878 23.4029 31.3162 23.8208Z" fill="#BBBDBF"/>
<path d="M31.0774 26.3284C29.5848 26.6269 27.9132 26.806 25.9431 26.8657C25.1669 26.9254 24.3908 26.9254 23.3759 26.9851L0.749023 27.5821V29.1344L20.8087 28.0598L23.4356 27.9404C24.4505 27.8807 25.2863 27.821 26.0625 27.7613C28.0923 27.5821 29.7042 27.403 31.2565 27.0448C32.9878 26.6866 34.7192 26.1493 36.3311 25.4329C37.6445 24.8956 38.8983 24.2389 40.2714 23.403V22.806C38.8386 23.6419 37.4654 24.2986 36.0923 24.8359C34.4804 25.5523 32.8087 26.0299 31.0774 26.3284Z" fill="#BBBDBF"/>
<path d="M30.8983 28.8359C28.0923 29.1941 25.2863 29.2538 22.4804 29.3135C21.8237 29.3135 21.2266 29.3135 20.5699 29.3732L0.749023 29.7314V31.2836L20.6296 30.4478C21.2863 30.4478 21.8834 30.3881 22.5401 30.3881C25.346 30.2687 28.2117 30.1493 31.0177 29.7314C32.8087 29.4329 34.5401 29.015 36.0923 28.4777C37.4057 28.0597 38.7789 27.4627 40.152 26.7463V26.1493C38.7192 26.806 37.2266 27.403 35.8535 27.8209C34.361 28.2388 32.6893 28.6568 30.8983 28.8359Z" fill="#BBBDBF"/>
<path d="M30.7789 31.403C28.152 31.6418 25.5251 31.6418 22.8983 31.6418C22.1222 31.6418 21.2863 31.6418 20.5102 31.6418C13.9431 31.6418 7.37589 31.7015 0.749023 31.7612V33.3135C7.07738 33.0747 13.8237 32.8956 20.5699 32.6567C21.346 32.6567 22.1819 32.597 22.958 32.597C25.5251 32.5373 28.2117 32.4776 30.8386 32.1791C32.6893 32 34.361 31.7015 35.9729 31.2836C37.346 30.9254 38.7789 30.4478 40.2714 29.9105V29.3732C38.7789 29.9105 37.2863 30.3284 35.8535 30.6866C34.2416 31.0448 32.5699 31.2836 30.7789 31.403Z" fill="#BBBDBF"/>
<path d="M30.6595 33.9105C29.5848 33.9702 28.3908 33.9702 27.0774 33.9702C26.5998 33.9702 26.0625 33.9702 25.5848 33.9702L20.4505 33.9105C16.9281 33.9105 13.4654 33.8508 10.1819 33.8508L0.749023 33.9105V35.4627L10.2416 35.2239C13.5251 35.1642 16.9878 35.0448 20.4505 34.9851L25.5848 34.9254C27.0177 34.9254 28.8684 34.8657 30.7192 34.7463C32.5699 34.6269 34.2416 34.4478 35.8535 34.209C37.2863 33.9702 38.7789 33.6716 40.2714 33.3134V32.7761C38.7789 33.1343 37.2266 33.4328 35.7938 33.6119C34.1222 33.7313 32.5102 33.8507 30.6595 33.9105Z" fill="#BBBDBF"/>
<path d="M25.5251 36.3582L20.3908 36.2985C13.8834 36.1791 7.37589 36.0597 0.749023 35.9403V37.4926C7.07738 37.4329 13.7639 37.3732 20.3908 37.3135L25.5251 37.2538C27.2565 37.2538 28.9281 37.1941 30.6595 37.1344C34.1819 37.015 37.2863 36.7761 40.2714 36.3582V35.8209C37.346 36.1194 34.1819 36.2985 30.6595 36.3582C28.9281 36.3582 27.1968 36.3582 25.5251 36.3582Z" fill="#BBBDBF"/>
<path d="M40.2117 39.1045L0.749023 38.0896V39.6418H40.2117V39.1045Z" fill="#BBBDBF"/>
<path d="M36.6893 13.1343C35.1968 14.3283 34.0028 15.2239 32.2117 15.9403C30.5998 16.597 28.8684 16.8358 26.958 17.1343C25.7042 17.3134 24.3908 17.5522 23.1371 17.6716C22.5998 17.7313 22.1222 17.7313 21.5848 17.791L0.749023 19.2836V20.8358L21.5848 18.8059L24.2714 18.5671C25.2863 18.4477 26.1819 18.388 27.0177 18.2089C29.0475 17.9104 30.7789 17.3731 32.3311 16.6567C33.9431 15.9403 35.6147 14.7462 37.1072 13.4925C38.1222 12.597 39.1371 11.5224 40.2117 10.3283V9.79102C38.8983 11.1044 37.8237 12.2388 36.6893 13.1343Z" fill="#BBBDBF"/>
<path d="M56.9883 0C56.9883 0 64.0928 11.2836 65.4062 13.3731C66.7196 15.4627 68.2122 17.0746 73.4659 18.209C78.7196 19.3433 80.9883 19.8209 80.9883 19.8209V20.2388C80.9883 20.2388 77.645 19.5224 73.3465 18.5672C69.048 17.6119 67.3166 17.3134 65.3465 14.5672C63.7346 12.2985 56.9883 2.68657 56.9883 2.68657V0Z" fill="#BBBDBF"/>
<path d="M56.9883 12.8955C56.9883 12.8955 63.436 19.6418 65.3465 21.6119C67.3166 23.7015 69.8838 24.4179 73.4062 25.0746C76.7495 25.6716 80.9883 26.388 80.9883 26.388V26.7463C80.9883 26.7463 76.9883 26.0895 73.4062 25.4925C69.8838 24.8955 67.3763 24.5373 65.3465 22.6866C63.5554 21.0149 57.048 14.9254 57.048 14.9254L56.9883 12.8955Z" fill="#BBBDBF"/>
<path d="M56.9883 16C56.9883 16 63.1375 21.7313 65.3465 23.6418C67.3763 25.4328 68.9883 25.9701 73.4062 26.806C77.8241 27.5821 80.9883 28.0597 80.9883 28.0597V28.4776C80.9883 28.4776 76.9883 27.8209 73.4062 27.2239C69.8241 26.6269 67.4957 26.4478 65.3465 24.6567C62.839 22.6269 56.9883 17.8507 56.9883 17.8507V16Z" fill="#BBBDBF"/>
<path d="M56.9883 19.2239C56.9883 19.2239 64.0331 24.7761 65.3465 25.791C66.6599 26.7463 68.3913 27.8806 73.4062 28.6567C78.4211 29.3731 80.9883 29.7313 80.9883 29.7313V30.1493C80.9883 30.1493 76.451 29.4925 73.4062 29.1343C70.3614 28.7761 68.0331 28.597 65.3465 26.806C62.7196 25.0746 56.9883 21.0149 56.9883 21.0149V19.2239Z" fill="#BBBDBF"/>
<path d="M56.9883 22.3284C56.9883 22.3284 64.0331 27.0448 65.3465 27.7612C66.6599 28.4776 68.2719 29.7314 73.4062 30.3881C78.5405 31.0448 80.9883 31.3433 80.9883 31.3433V31.7612C80.9883 31.7612 76.7495 31.2836 73.4062 30.9254C70.0629 30.5672 67.7943 30.0896 65.3465 28.7164C62.8987 27.3433 56.9883 23.9403 56.9883 23.9403V22.3284Z" fill="#BBBDBF"/>
<path d="M56.9883 25.4926C56.9883 25.4926 63.1972 28.8955 65.3465 29.9105C67.6749 31.1045 69.7047 31.6418 73.4062 32.1194C77.048 32.5373 80.9883 32.9552 80.9883 32.9552V33.3134C80.9883 33.3134 77.3465 32.8955 73.4062 32.5373C69.5256 32.1791 68.1525 32 65.3465 30.7463C62.839 29.612 56.9883 26.9254 56.9883 26.9254V25.4926Z" fill="#BBBDBF"/>
<path d="M56.9874 28.6567C56.9874 28.6567 61.883 30.7463 65.3456 32.1194C68.7486 33.4926 71.3158 33.612 73.4053 33.7911C74.3009 33.9105 80.9277 34.5672 80.9277 34.5672V34.9254C80.9277 34.9254 76.9874 34.6269 73.3456 34.2687C69.7636 33.9702 68.2113 33.7911 65.2859 32.8358C62.3606 31.8806 56.9277 29.9702 56.9277 29.9702L56.9874 28.6567Z" fill="#BBBDBF"/>
<path d="M56.9883 31.8806C56.9883 31.8806 61.9435 33.4329 65.3465 34.3284C68.7495 35.2239 71.854 35.5821 73.4062 35.7015C74.9584 35.8209 80.9883 36.2985 80.9883 36.2985V36.6567C80.9883 36.6567 77.5853 36.4179 73.4062 36.1194C70.0032 35.8806 67.3166 35.6418 65.3465 35.1642C63.1375 34.6866 56.9883 33.194 56.9883 33.194V31.8806Z" fill="#BBBDBF"/>
<path d="M56.9883 35.0448C56.9883 35.0448 61.048 35.7612 65.3465 36.4776C68.5704 37.0149 72.9286 37.3732 73.4062 37.3732C73.8838 37.3732 80.9883 37.9105 80.9883 37.9105V38.2687C80.9883 38.2687 76.451 38.0299 73.4062 37.8508C70.242 37.6717 67.1375 37.4926 65.3465 37.3135C61.3465 36.8955 56.9883 36.3582 56.9883 36.3582V35.0448Z" fill="#BBBDBF"/>
<path d="M56.9883 38.3881C56.9883 38.3881 63.3763 38.6269 65.3465 38.6866C67.3166 38.7463 80.9883 39.2836 80.9883 39.2836V39.6418H56.9883V38.3881Z" fill="#BBBDBF"/>
<path d="M73.4061 19.9403C67.615 18.6866 66.3016 16.597 65.3464 15.2836C64.3911 13.9701 57.0479 3.22388 57.0479 3.22388V5.67164C57.3464 6.02985 63.615 14.2687 65.4061 16.5373C67.3762 19.1045 70.4807 19.7015 73.4658 20.2985C76.4508 20.9552 81.0478 21.8507 81.0478 21.8507V21.4925C80.9881 21.4925 74.8986 20.2985 73.4061 19.9403Z" fill="#BBBDBF"/>
<path d="M73.4061 21.6716C68.6299 20.7164 66.7195 19.2239 65.3464 17.4328C63.9732 15.5821 57.0479 6.50745 57.0479 6.50745V8.7761C57.3464 9.13431 63.6747 16.597 65.3464 18.5671C67.3165 20.8358 70.0628 21.4328 73.4061 22.0298C76.7493 22.6269 80.9881 23.4627 80.9881 23.4627V23.1045C80.9881 23.1045 76.1523 22.2089 73.4061 21.6716Z" fill="#BBBDBF"/>
<path d="M73.4062 23.403C68.451 22.4478 67.436 21.6716 65.3465 19.3433C64.0331 17.9104 57.2868 9.97015 56.9883 9.61194V11.7015C56.9883 11.7015 63.2569 18.3881 65.2868 20.4179C67.9137 23.0448 70.4211 23.2239 73.3465 23.7612C76.2719 24.2985 80.9286 25.1343 80.9286 25.1343V24.7761C80.9883 24.7761 75.3763 23.8209 73.4062 23.403Z" fill="#BBBDBF"/>
<path d="M51.7342 16.4777H17.167V39.5821H51.7342V16.4777Z" fill="#034DA1"/>
<path d="M34.8382 19.7612H36.0322L35.077 20.5373L35.4352 21.7313L34.48 21.0149L33.5247 21.7313L33.883 20.5373L32.9277 19.7612H34.1218L34.48 18.5671L34.8382 19.7612Z" fill="#FFF100"/>
<path d="M34.8382 35.1642H36.0322L35.077 35.8807L35.4352 37.015L34.48 36.2986L33.5247 37.015L33.883 35.8807L32.9277 35.1642H34.1218L34.48 34.0299L34.8382 35.1642Z" fill="#FFF100"/>
<path d="M38.6595 34.1492H39.8535L38.8983 34.8656L39.2565 36L38.3013 35.2836L37.346 36L37.7042 34.8656L36.749 34.1492H37.9431L38.3013 33.0149L38.6595 34.1492Z" fill="#FFF100"/>
<path d="M38.6593 20.7762H39.8534L38.8981 21.4926L39.2564 22.6269L38.3011 21.9105L37.3459 22.6866L37.7638 21.4926L36.8086 20.7762H38.0026L38.3608 19.6418L38.6593 20.7762Z" fill="#FFF100"/>
<path d="M41.5247 23.6418H42.7187L41.7635 24.3582L42.1217 25.4925L41.1665 24.7761L40.2113 25.4925L40.5695 24.3582L39.6143 23.6418H40.8083L41.1665 22.5074L41.5247 23.6418Z" fill="#FFF100"/>
<path d="M41.5247 31.403H42.7187L41.7635 32.1194L42.1217 33.2538L41.1665 32.5373L40.2113 33.2538L40.5695 32.1194L39.6143 31.403H40.8083L41.1665 30.2687L41.5247 31.403Z" fill="#FFF100"/>
<path d="M42.6 27.4627H43.7941L42.8388 28.1791L43.197 29.3134L42.2418 28.597L41.2866 29.3134L41.6448 28.1791L40.6299 27.4627H41.8239L42.1821 26.3284L42.6 27.4627Z" fill="#FFF100"/>
<path d="M30.8987 20.7762H32.0928L31.1375 21.4926L31.4957 22.6269L30.6002 21.9702L29.5853 22.6866L29.9435 21.5523L28.9883 20.8359H30.1823L30.6002 19.7015L30.8987 20.7762Z" fill="#FFF100"/>
<path d="M28.1517 23.6418H29.3457L28.3905 24.3582L28.7487 25.4925L27.7934 24.7761L26.8382 25.4925L27.1964 24.3582L26.2412 23.6418H27.4352L27.7934 22.5074L28.1517 23.6418Z" fill="#FFF100"/>
<path d="M27.137 27.4627H28.331L27.3758 28.1791L27.734 29.3134L26.7788 28.597L25.8236 29.3134L26.1818 28.1791L25.2266 27.4627H26.4206L26.7788 26.3284L27.137 27.4627Z" fill="#FFF100"/>
<path d="M28.1517 31.403H29.3457L28.3905 32.1194L28.7487 33.2538L27.7934 32.5373L26.8382 33.2538L27.1964 32.1194L26.2412 31.403H27.4352L27.7934 30.2687L28.1517 31.403Z" fill="#FFF100"/>
<path d="M30.9583 34.2089H32.1523L31.1971 34.9253L31.5553 36.0597L30.6001 35.3432L29.6449 36.0597L30.0031 34.9253L29.0479 34.2089H30.2419L30.6001 33.0746L30.9583 34.2089Z" fill="#FFF100"/>
</g>
<path d="M86.3613 19.7611C86.3613 19.582 86.421 19.5223 86.6001 19.5223H91.018C91.1971 19.5223 91.2569 19.582 91.2569 19.7611V20.4776C91.2569 20.597 91.1971 20.7164 91.018 20.7164H87.7345V22.8059H90.6598C90.8389 22.8059 90.8986 22.8656 90.8986 23.0447V23.7611C90.8986 23.8805 90.8389 24 90.6598 24H87.7345V26.388H91.0777C91.1972 26.388 91.3166 26.4477 91.3166 26.6268V27.3432C91.3166 27.4626 91.2569 27.582 91.0777 27.582H86.6001C86.421 27.582 86.3613 27.5223 86.3613 27.3432V19.7611Z" fill="#626366"/>
<path d="M97.3466 27.5223H96.5107C96.451 27.5223 96.3913 27.5223 96.3316 27.4626C96.2719 27.4029 96.2719 27.3432 96.2719 27.2835V26.8656C96.1525 26.9253 96.0331 27.0447 95.854 27.1044C95.6749 27.1641 95.5555 27.2835 95.3764 27.3432C95.1973 27.4029 95.0182 27.4626 94.8391 27.5223C94.66 27.582 94.4809 27.582 94.3018 27.582C93.8839 27.582 93.5854 27.5223 93.3466 27.4029C93.1078 27.2835 92.9287 27.1641 92.8092 26.9253C92.6898 26.7462 92.6301 26.5074 92.5704 26.2089C92.5107 25.9104 92.5107 25.6715 92.5107 25.3133V21.7909C92.5107 21.6118 92.5704 21.5521 92.7496 21.5521H93.6451C93.7645 21.5521 93.8839 21.6118 93.8839 21.7909V25.1342C93.8839 25.3133 93.8839 25.4924 93.9436 25.6118C93.9436 25.7312 94.0033 25.8506 94.063 25.9701C94.1227 26.0895 94.2421 26.1492 94.3018 26.2089C94.3615 26.2686 94.5406 26.2686 94.7197 26.2686C94.8391 26.2686 94.9585 26.2686 95.1376 26.2089C95.3167 26.1492 95.4361 26.0895 95.6152 26.0298C95.7943 25.9701 95.9137 25.9104 96.0331 25.8506C96.1525 25.7909 96.2719 25.7312 96.3316 25.6715V21.6715C96.3316 21.6118 96.3316 21.5521 96.3913 21.4924C96.451 21.4327 96.5107 21.4327 96.5704 21.4327H97.4063C97.5854 21.4327 97.6451 21.4924 97.6451 21.6715V27.1044C97.5854 27.4029 97.5257 27.5223 97.3466 27.5223Z" fill="#626366"/>
<path d="M100.391 27.2836C100.391 27.4627 100.331 27.5224 100.152 27.5224H99.2564C99.0773 27.5224 99.0176 27.4627 99.0176 27.2836V21.8508C99.0176 21.6716 99.0773 21.6119 99.2564 21.6119H100.092C100.271 21.6119 100.331 21.6716 100.331 21.8508V22.3881C100.391 22.3284 100.51 22.209 100.689 22.1493C100.809 22.0299 100.988 21.9702 101.167 21.9105C101.346 21.8508 101.525 21.7911 101.644 21.6716C101.824 21.6119 101.943 21.5522 102.122 21.5522C102.182 21.5522 102.241 21.5522 102.301 21.5522C102.361 21.5522 102.361 21.6119 102.421 21.7314L102.48 22.5075C102.48 22.5672 102.48 22.6866 102.48 22.6866C102.48 22.7463 102.421 22.7463 102.241 22.806C102.062 22.8657 101.883 22.8657 101.704 22.9254C101.525 22.9851 101.346 23.0448 101.167 23.0448C100.988 23.1045 100.809 23.1642 100.689 23.2239C100.51 23.2836 100.391 23.3433 100.331 23.3433V27.2836H100.391Z" fill="#626366"/>
<path d="M108.332 24.4775C108.332 24.8357 108.332 25.1939 108.272 25.5521C108.212 25.9103 108.093 26.2686 107.914 26.5671C107.735 26.8656 107.496 27.1044 107.138 27.3432C106.779 27.5223 106.302 27.6417 105.705 27.6417C105.108 27.6417 104.63 27.5223 104.272 27.3432C103.914 27.1641 103.675 26.9253 103.496 26.5671C103.317 26.2686 103.197 25.9103 103.197 25.5521C103.138 25.1939 103.138 24.8357 103.138 24.4775C103.138 24.179 103.138 23.8805 103.197 23.5223C103.257 23.1641 103.376 22.8656 103.556 22.5671C103.735 22.2686 103.974 22.0297 104.332 21.7909C104.69 21.6118 105.108 21.4924 105.705 21.4924C106.302 21.4924 106.779 21.5521 107.078 21.7312C107.436 21.9103 107.675 22.1491 107.854 22.4477C108.033 22.7462 108.153 23.0447 108.212 23.4029C108.272 23.7611 108.332 24.1193 108.332 24.4775ZM106.959 24.5372C106.959 24.2387 106.959 23.9402 106.899 23.7014C106.839 23.4626 106.779 23.2835 106.72 23.1044C106.6 22.9253 106.481 22.8059 106.302 22.7462C106.123 22.6865 105.944 22.6268 105.645 22.6268C105.406 22.6268 105.168 22.6865 105.048 22.7462C104.929 22.8059 104.75 22.9253 104.69 23.1044C104.571 23.2835 104.511 23.4626 104.511 23.7014C104.451 23.9402 104.451 24.2387 104.451 24.5372C104.451 24.8357 104.451 25.1342 104.511 25.373C104.571 25.6118 104.63 25.7909 104.69 25.97C104.75 26.1491 104.929 26.2686 105.048 26.3283C105.168 26.388 105.406 26.4477 105.645 26.4477C105.944 26.4477 106.123 26.388 106.302 26.3283C106.481 26.2686 106.6 26.1491 106.72 25.97C106.839 25.7909 106.899 25.6118 106.899 25.373C106.959 25.1342 106.959 24.8954 106.959 24.5372Z" fill="#626366"/>
<path d="M114.66 24.5372C114.66 25.0148 114.6 25.4327 114.541 25.8506C114.481 26.2088 114.361 26.5671 114.182 26.8059C114.003 27.0447 113.764 27.2835 113.466 27.4029C113.167 27.5223 112.75 27.582 112.272 27.582C112.093 27.582 111.854 27.582 111.556 27.5223C111.317 27.4626 111.018 27.4029 110.72 27.3432V29.4327C110.72 29.4924 110.72 29.5521 110.66 29.6118C110.6 29.6715 110.541 29.6715 110.481 29.6715H109.645C109.526 29.6715 109.466 29.6715 109.466 29.6118C109.466 29.5521 109.406 29.4924 109.406 29.4327V21.8506C109.406 21.6715 109.466 21.6118 109.645 21.6118H110.481C110.541 21.6118 110.6 21.6118 110.66 21.6715C110.72 21.7312 110.72 21.7909 110.72 21.8506V22.2089H110.779C110.899 22.1491 111.018 22.0894 111.138 21.97C111.257 21.9103 111.436 21.7909 111.615 21.7312C111.794 21.6715 111.973 21.6118 112.153 21.5521C112.332 21.4924 112.511 21.4924 112.69 21.4924C113.108 21.4924 113.406 21.5521 113.645 21.7312C113.884 21.8506 114.123 22.0894 114.242 22.3283C114.361 22.5671 114.481 22.9253 114.541 23.2835C114.66 23.6417 114.66 24.0596 114.66 24.5372ZM113.287 24.5372C113.287 24.179 113.287 23.8208 113.227 23.6417C113.167 23.4626 113.108 23.2238 113.048 23.1044C112.988 22.985 112.869 22.8656 112.75 22.8656C112.63 22.8059 112.511 22.8059 112.332 22.8059C112.212 22.8059 112.093 22.8059 111.914 22.8656C111.735 22.9253 111.615 22.9253 111.436 22.985C111.317 23.0447 111.138 23.1044 111.018 23.1641C110.899 23.2238 110.779 23.2835 110.66 23.3432V26.3283C110.958 26.388 111.197 26.4477 111.376 26.5074C111.556 26.5671 111.794 26.5671 112.033 26.5671C112.272 26.5671 112.451 26.5074 112.57 26.4477C112.69 26.388 112.809 26.2686 112.929 26.1491C113.048 25.97 113.108 25.7909 113.108 25.5521C113.287 25.1939 113.287 24.8954 113.287 24.5372Z" fill="#626366"/>
<path d="M116.988 24.8955C116.988 25.194 117.048 25.4328 117.108 25.6716C117.167 25.8507 117.287 26.0298 117.406 26.1493C117.525 26.2687 117.645 26.3284 117.824 26.3881C118.003 26.4478 118.182 26.4478 118.481 26.4478C118.719 26.4478 118.958 26.4478 119.257 26.3881C119.555 26.3284 119.794 26.3284 120.033 26.3284C120.152 26.3284 120.212 26.3284 120.272 26.3284C120.331 26.3284 120.331 26.3881 120.391 26.5075L120.451 26.9254C120.451 26.9851 120.451 27.1045 120.451 27.1642C120.451 27.2239 120.391 27.2836 120.272 27.3433C120.152 27.403 120.033 27.4627 119.854 27.4627C119.675 27.4627 119.555 27.5224 119.376 27.5821C119.197 27.6418 119.018 27.6418 118.839 27.6418C118.66 27.6418 118.481 27.6418 118.361 27.6418C117.764 27.6418 117.346 27.5821 116.988 27.403C116.63 27.2239 116.391 26.9851 116.212 26.7463C116.033 26.4478 115.913 26.1493 115.854 25.791C115.794 25.4328 115.734 25.0746 115.734 24.6567C115.734 24.3582 115.734 24.0597 115.794 23.7015C115.854 23.3433 115.973 22.9851 116.152 22.6866C116.331 22.3881 116.57 22.0896 116.928 21.9104C117.287 21.6716 117.705 21.6119 118.302 21.6119C118.839 21.6119 119.257 21.6716 119.615 21.8507C119.973 22.0298 120.212 22.209 120.391 22.4478C120.57 22.6866 120.69 22.9851 120.749 23.2836C120.809 23.5821 120.869 23.9403 120.869 24.2388C120.869 24.4776 120.869 24.6567 120.749 24.7761C120.63 24.8955 120.51 24.9552 120.272 24.9552H116.988V24.8955ZM118.182 22.5672C117.943 22.5672 117.764 22.6269 117.645 22.6866C117.525 22.7463 117.406 22.8657 117.287 22.9851C117.167 23.1045 117.108 23.2836 117.108 23.4627C117.048 23.6418 117.048 23.8209 117.048 24.0597H119.436C119.436 23.8806 119.436 23.7015 119.376 23.5224C119.316 23.3433 119.257 23.2239 119.197 23.0448C119.137 22.8657 119.018 22.806 118.839 22.7463C118.6 22.6269 118.421 22.5672 118.182 22.5672Z" fill="#626366"/>
<path d="M125.526 26.8059C125.227 27.0447 124.869 27.2238 124.511 27.3432C124.153 27.4626 123.735 27.582 123.317 27.582C123.018 27.582 122.72 27.5223 122.541 27.4626C122.302 27.4029 122.183 27.2835 122.063 27.1044C121.944 26.985 121.824 26.8059 121.824 26.5671C121.765 26.388 121.765 26.1492 121.765 25.8506C121.765 25.1342 121.944 24.6566 122.302 24.2984C122.66 23.9999 123.257 23.8208 123.974 23.8208H125.526V23.5223C125.526 23.3432 125.526 23.2238 125.466 23.0447C125.406 22.9253 125.347 22.8059 125.287 22.7462C125.168 22.6865 125.048 22.6268 124.929 22.5671C124.75 22.5074 124.571 22.5074 124.332 22.5074C124.212 22.5074 124.093 22.5074 123.974 22.5074C123.854 22.5074 123.675 22.5074 123.556 22.5074C123.436 22.5074 123.257 22.5074 123.138 22.5671C123.018 22.5671 122.839 22.5671 122.72 22.6268C122.6 22.6268 122.541 22.6268 122.481 22.6268C122.421 22.6268 122.421 22.5671 122.362 22.4477L122.242 22.0298C122.242 21.9701 122.242 21.9103 122.242 21.8506C122.302 21.7909 122.362 21.7312 122.481 21.6715C122.6 21.6118 122.78 21.6118 122.959 21.5521C123.138 21.4924 123.317 21.4924 123.496 21.4924C123.675 21.4924 123.854 21.4327 124.033 21.4327C124.212 21.4327 124.392 21.4327 124.511 21.4327C125.048 21.4327 125.466 21.4924 125.765 21.6118C126.063 21.7312 126.302 21.8506 126.481 22.0298C126.66 22.2089 126.72 22.4477 126.78 22.7462C126.839 23.0447 126.839 23.3432 126.839 23.6417V25.9701C126.839 26.0895 126.839 26.2089 126.839 26.2686C126.839 26.3283 126.899 26.388 126.899 26.4477C126.899 26.5074 126.959 26.5074 127.018 26.5074C127.078 26.5074 127.138 26.5074 127.257 26.5671C127.317 26.5671 127.377 26.5671 127.436 26.6268C127.496 26.6268 127.496 26.6865 127.496 26.7462V27.2238C127.496 27.3432 127.377 27.4626 127.197 27.4626C127.078 27.4626 127.018 27.4626 126.899 27.5223C126.78 27.5223 126.72 27.5223 126.6 27.5223C126.302 27.5223 126.123 27.4626 125.944 27.3432C125.705 27.2835 125.586 27.1044 125.526 26.8059ZM125.466 24.8357H124.033C123.735 24.8357 123.496 24.8954 123.317 25.0745C123.138 25.1939 123.078 25.4924 123.078 25.8506C123.078 26.0895 123.138 26.2686 123.257 26.388C123.377 26.5074 123.556 26.5671 123.854 26.5671C123.974 26.5671 124.093 26.5671 124.272 26.5074C124.451 26.4477 124.571 26.4477 124.75 26.388C124.929 26.3283 125.048 26.2686 125.168 26.2089C125.287 26.1492 125.466 26.0895 125.526 26.0298V24.8357H125.466Z" fill="#626366"/>
<path d="M133.346 27.4627C133.287 27.5224 133.227 27.5224 133.167 27.5224H132.272C132.093 27.5224 132.033 27.4627 132.033 27.2836V23.9403C132.033 23.5821 131.973 23.2836 131.854 23.1045C131.734 22.8657 131.495 22.806 131.137 22.806C131.018 22.806 130.898 22.806 130.719 22.8657C130.54 22.9254 130.421 22.9851 130.242 23.0448C130.063 23.1045 129.943 23.1642 129.824 23.2239C129.704 23.2836 129.585 23.3433 129.525 23.403V27.403C129.525 27.5821 129.466 27.6418 129.287 27.6418H128.451C128.272 27.6418 128.212 27.5821 128.212 27.403V21.9701C128.212 21.791 128.272 21.7313 128.451 21.7313H129.287C129.466 21.7313 129.525 21.791 129.525 21.9701V22.3284C129.645 22.2687 129.764 22.1493 129.943 22.0895C130.122 22.0298 130.242 21.9104 130.421 21.8507C130.6 21.791 130.779 21.7313 130.958 21.6716C131.137 21.6119 131.316 21.6119 131.495 21.6119C131.913 21.6119 132.212 21.6716 132.451 21.791C132.69 21.9104 132.869 22.0895 132.988 22.2687C133.107 22.4478 133.167 22.7463 133.227 22.9851C133.287 23.2836 133.287 23.5224 133.287 23.8806V27.3433C133.346 27.3433 133.346 27.403 133.346 27.4627Z" fill="#626366"/>
<path d="M86.2412 35.7014C86.2412 35.1641 86.3009 34.6865 86.3606 34.2089C86.4203 33.7313 86.5994 33.2537 86.8382 32.8955C87.077 32.5373 87.3755 32.179 87.7935 31.9402C88.2114 31.7014 88.7487 31.582 89.4651 31.582C89.5845 31.582 89.7636 31.582 89.9427 31.582C90.1218 31.582 90.3009 31.6417 90.5397 31.6417C90.7188 31.6417 90.9576 31.7014 91.1367 31.7611C91.3158 31.8208 91.495 31.8805 91.6741 31.9402C91.7935 31.9999 91.8532 31.9999 91.8532 32.0596C91.8532 32.1193 91.9129 32.179 91.9129 32.2984L91.7935 32.7761C91.7935 32.8358 91.7338 32.8955 91.7338 32.9552C91.6741 33.0149 91.6144 33.0149 91.4949 32.9552C91.1964 32.8955 90.8979 32.8955 90.5397 32.8358C90.1815 32.7761 89.883 32.7761 89.5845 32.7761C89.1666 32.7761 88.8681 32.8358 88.6293 33.0149C88.3905 33.194 88.2114 33.3731 88.0323 33.6119C87.9129 33.8507 87.7935 34.2089 87.7935 34.5074C87.7935 34.8059 87.7337 35.2238 87.7337 35.6417C87.7337 36.0596 87.7338 36.4179 87.7935 36.7164C87.8532 37.0746 87.9129 37.3731 88.092 37.6119C88.2114 37.8507 88.3905 38.0895 88.689 38.2089C88.9278 38.3283 89.2263 38.4477 89.6442 38.4477C90.0024 38.4477 90.3009 38.4477 90.5994 38.388C90.8979 38.3283 91.1964 38.3283 91.5547 38.2686C91.6741 38.2686 91.7338 38.2686 91.7935 38.2686C91.8532 38.3283 91.8532 38.3283 91.9129 38.4477L92.0323 38.9253C92.092 39.1044 92.0323 39.2238 91.8532 39.2835C91.7338 39.3432 91.5546 39.4029 91.3158 39.4626C91.1367 39.5223 90.8979 39.5223 90.7188 39.582C90.5397 39.6417 90.3009 39.6417 90.1218 39.6417C89.9427 39.6417 89.7636 39.6417 89.5845 39.6417C88.9278 39.6417 88.3905 39.5223 87.9726 39.2835C87.5547 39.0447 87.1964 38.7462 87.0173 38.388C86.7785 38.0298 86.5994 37.6119 86.5397 37.1343C86.3009 36.7164 86.2412 36.2387 86.2412 35.7014Z" fill="#626366"/>
<path d="M98.0026 36.597C98.0026 36.9552 98.0026 37.3134 97.9429 37.6716C97.8832 38.0298 97.7638 38.3881 97.5847 38.6866C97.4056 38.9851 97.1668 39.2239 96.8086 39.4627C96.4504 39.6418 95.9728 39.7612 95.3758 39.7612C94.7787 39.7612 94.3011 39.6418 93.9429 39.4627C93.5847 39.2836 93.3459 39.0448 93.1668 38.6866C92.9877 38.3881 92.8683 38.0298 92.8683 37.6716C92.8086 37.3134 92.8086 36.9552 92.8086 36.597C92.8086 36.2985 92.8086 36 92.8683 35.6418C92.928 35.2836 93.0474 34.9851 93.2265 34.6866C93.4056 34.3881 93.6444 34.1493 94.0026 33.9104C94.3608 33.7313 94.7787 33.6119 95.3758 33.6119C95.9728 33.6119 96.4504 33.6716 96.7489 33.8507C97.1071 34.0298 97.3459 34.2687 97.525 34.5672C97.7041 34.8657 97.8235 35.1642 97.8832 35.5224C97.9429 35.8806 98.0026 36.2388 98.0026 36.597ZM96.6295 36.6567C96.6295 36.3582 96.6295 36.0597 96.5698 35.8209C96.5101 35.5821 96.4504 35.403 96.3907 35.2239C96.2713 35.0448 96.1519 34.9254 95.9728 34.8657C95.7937 34.806 95.6146 34.7463 95.3161 34.7463C95.0772 34.7463 94.8384 34.806 94.719 34.8657C94.5996 34.9254 94.4205 35.0448 94.3608 35.2239C94.2414 35.403 94.1817 35.5821 94.1817 35.8209C94.122 36.0597 94.122 36.3582 94.122 36.6567C94.122 36.9552 94.122 37.2537 94.1817 37.4925C94.2414 37.7313 94.3011 37.9104 94.3608 38.0896C94.4205 38.2687 94.5996 38.3881 94.719 38.4478C94.8384 38.5075 95.0772 38.5672 95.3161 38.5672C95.6146 38.5672 95.7937 38.5075 95.9728 38.4478C96.1519 38.3881 96.2713 38.2687 96.3907 38.0896C96.5101 37.9104 96.5698 37.7313 96.5698 37.4925C96.5698 37.2537 96.6295 37.0149 96.6295 36.6567Z" fill="#626366"/>
<path d="M107.734 39.5821C107.734 39.6418 107.674 39.6418 107.555 39.6418H106.719C106.54 39.6418 106.48 39.5821 106.48 39.403V36C106.48 35.5821 106.42 35.2239 106.301 35.1045C106.181 34.9254 105.943 34.8657 105.644 34.8657C105.525 34.8657 105.405 34.8657 105.286 34.9254C105.167 34.9851 104.987 34.9851 104.868 35.0448C104.749 35.1045 104.57 35.1642 104.45 35.2239C104.331 35.2836 104.211 35.3433 104.092 35.403C104.092 35.4627 104.092 35.5224 104.092 35.6418C104.092 35.7612 104.092 35.8806 104.092 36V39.403C104.092 39.4627 104.092 39.5224 104.032 39.5821C103.973 39.6418 103.913 39.6418 103.853 39.6418H102.958C102.838 39.6418 102.779 39.5821 102.779 39.403V35.9403C102.779 35.5821 102.719 35.2836 102.599 35.1045C102.48 34.9254 102.301 34.8657 102.002 34.8657C101.883 34.8657 101.764 34.8657 101.644 34.9254C101.525 34.9851 101.405 34.9851 101.226 35.0448C101.107 35.1045 100.928 35.1642 100.808 35.2239C100.689 35.2836 100.57 35.3433 100.45 35.403V39.403C100.45 39.5821 100.39 39.6418 100.211 39.6418H99.3755C99.2561 39.6418 99.1367 39.5821 99.1367 39.403V33.9701C99.1367 33.791 99.1964 33.7313 99.3755 33.7313H100.211C100.39 33.7313 100.45 33.791 100.45 33.9701V34.3284C100.57 34.2687 100.689 34.1493 100.808 34.0896C100.928 34.0298 101.107 33.9104 101.226 33.8507C101.346 33.791 101.525 33.7313 101.704 33.6716C101.883 33.6119 102.002 33.6119 102.181 33.6119C102.54 33.6119 102.838 33.6716 103.137 33.791C103.435 33.9104 103.674 34.1493 103.853 34.4478C104.152 34.209 104.51 34.0298 104.868 33.8507C105.226 33.6716 105.584 33.6119 106.002 33.6119C106.42 33.6119 106.719 33.6716 106.958 33.791C107.196 33.9104 107.376 34.0896 107.495 34.2687C107.614 34.4478 107.674 34.6866 107.734 34.9851C107.793 35.2836 107.793 35.5224 107.793 35.8209V39.403C107.734 39.4627 107.734 39.5224 107.734 39.5821Z" fill="#626366"/>
<path d="M117.584 39.5821C117.584 39.6418 117.525 39.6418 117.405 39.6418H116.569C116.39 39.6418 116.331 39.5821 116.331 39.403V36C116.331 35.5821 116.271 35.2239 116.151 35.1045C116.032 34.9254 115.793 34.8657 115.495 34.8657C115.375 34.8657 115.256 34.8657 115.137 34.9254C115.017 34.9851 114.838 34.9851 114.719 35.0448C114.599 35.1045 114.42 35.1642 114.301 35.2239C114.181 35.2836 114.062 35.3433 113.943 35.403C113.943 35.4627 113.943 35.5224 113.943 35.6418C113.943 35.7612 113.943 35.8806 113.943 36V39.403C113.943 39.4627 113.943 39.5224 113.883 39.5821C113.823 39.6418 113.763 39.6418 113.704 39.6418H112.808C112.689 39.6418 112.629 39.5821 112.629 39.403V35.9403C112.629 35.5821 112.569 35.2836 112.45 35.1045C112.331 34.9254 112.151 34.8657 111.853 34.8657C111.734 34.8657 111.614 34.8657 111.495 34.9254C111.375 34.9851 111.256 34.9851 111.077 35.0448C110.898 35.1045 110.778 35.1642 110.659 35.2239C110.54 35.2836 110.42 35.3433 110.301 35.403V39.403C110.301 39.5821 110.241 39.6418 110.062 39.6418H109.226C109.107 39.6418 108.987 39.5821 108.987 39.403V33.9701C108.987 33.791 109.047 33.7313 109.226 33.7313H110.062C110.241 33.7313 110.301 33.791 110.301 33.9701V34.3284C110.42 34.2687 110.54 34.1493 110.659 34.0896C110.778 34.0298 110.957 33.9104 111.077 33.8507C111.256 33.791 111.375 33.7313 111.554 33.6716C111.734 33.6119 111.853 33.6119 112.032 33.6119C112.39 33.6119 112.689 33.6716 112.987 33.791C113.286 33.9104 113.525 34.1493 113.704 34.4478C114.002 34.209 114.36 34.0298 114.719 33.8507C115.077 33.6716 115.435 33.6119 115.853 33.6119C116.271 33.6119 116.569 33.6716 116.808 33.791C117.047 33.9104 117.226 34.0896 117.346 34.2687C117.465 34.4478 117.525 34.6866 117.584 34.9851C117.644 35.2836 117.644 35.5224 117.644 35.8209V39.403C117.644 39.4627 117.584 39.5224 117.584 39.5821Z" fill="#626366"/>
<path d="M120.45 32.179C120.45 32.2984 120.45 32.3582 120.45 32.4776C120.45 32.5373 120.391 32.6567 120.331 32.7164C120.271 32.7761 120.212 32.8358 120.092 32.8955C119.973 32.9552 119.853 32.9552 119.734 32.9552C119.555 32.9552 119.435 32.9552 119.376 32.8955C119.256 32.8358 119.197 32.7761 119.137 32.7164C119.077 32.6567 119.077 32.597 119.018 32.4776C119.018 32.4179 119.018 32.2984 119.018 32.2387C119.018 32.0596 119.077 31.8805 119.137 31.7611C119.256 31.6417 119.435 31.582 119.734 31.582C120.033 31.582 120.212 31.6417 120.331 31.7611C120.391 31.8208 120.45 31.9999 120.45 32.179ZM120.391 39.4029C120.391 39.4626 120.391 39.5223 120.331 39.582C120.331 39.6417 120.271 39.6417 120.152 39.6417H119.316C119.137 39.6417 119.077 39.582 119.077 39.4029V33.9701C119.077 33.791 119.137 33.7313 119.316 33.7313H120.152C120.212 33.7313 120.271 33.7313 120.331 33.791C120.331 33.8507 120.391 33.9104 120.391 33.9701V39.4029Z" fill="#626366"/>
<path d="M126.241 37.8506C126.241 38.2088 126.182 38.5073 126.062 38.7462C125.943 38.985 125.764 39.1641 125.525 39.3432C125.286 39.4626 125.047 39.582 124.749 39.6417C124.45 39.7014 124.152 39.7611 123.853 39.7611C123.555 39.7611 123.197 39.7611 122.898 39.7014C122.54 39.6417 122.241 39.582 122.003 39.5223C121.883 39.4626 121.823 39.4029 121.764 39.3432C121.704 39.2835 121.704 39.2238 121.764 39.1044L121.824 38.6865C121.824 38.5671 121.883 38.5073 121.943 38.5073C122.003 38.5073 122.062 38.5073 122.182 38.5073C122.301 38.5073 122.48 38.567 122.6 38.567C122.779 38.567 122.898 38.567 123.077 38.6267C123.256 38.6267 123.376 38.6268 123.495 38.6865C123.615 38.6865 123.734 38.6865 123.853 38.6865C124.212 38.6865 124.51 38.6268 124.689 38.5073C124.868 38.3879 124.928 38.2088 124.928 37.97C124.928 37.8506 124.928 37.7312 124.868 37.6118C124.809 37.4924 124.809 37.4327 124.689 37.373C124.57 37.3133 124.51 37.2536 124.391 37.2536C124.271 37.1939 124.092 37.1939 123.913 37.1342C123.615 37.0745 123.316 37.0148 123.077 36.9551C122.838 36.8954 122.6 36.776 122.361 36.6566C122.182 36.5372 122.003 36.3581 121.883 36.179C121.764 35.9999 121.704 35.7014 121.704 35.4029C121.704 34.8059 121.883 34.3879 122.301 34.0297C122.719 33.7312 123.256 33.5521 123.913 33.5521C124.032 33.5521 124.152 33.5521 124.331 33.5521C124.51 33.5521 124.629 33.5521 124.809 33.6118C124.988 33.6118 125.107 33.6715 125.286 33.6715C125.465 33.6715 125.585 33.7312 125.704 33.7909C125.883 33.8506 126.003 33.97 125.943 34.1491L125.824 34.567C125.824 34.6268 125.764 34.6865 125.704 34.7462C125.644 34.7462 125.585 34.7462 125.465 34.7462C125.226 34.6865 124.928 34.6865 124.629 34.6268C124.331 34.6268 124.092 34.567 123.853 34.567C123.495 34.567 123.197 34.6268 123.077 34.7462C122.958 34.8656 122.898 35.0447 122.898 35.2835C122.898 35.5223 122.958 35.6417 123.137 35.7611C123.316 35.8208 123.555 35.8805 123.913 35.9402C124.212 35.9999 124.45 36.0596 124.749 36.1193C125.047 36.179 125.226 36.2984 125.465 36.4178C125.644 36.5372 125.823 36.7163 125.943 36.9551C126.182 37.1939 126.241 37.4924 126.241 37.8506Z" fill="#626366"/>
<path d="M131.734 37.8506C131.734 38.2088 131.674 38.5073 131.554 38.7462C131.435 38.985 131.256 39.1641 131.017 39.3432C130.778 39.4626 130.54 39.582 130.241 39.6417C129.943 39.7014 129.644 39.7611 129.346 39.7611C129.047 39.7611 128.689 39.7611 128.39 39.7014C128.032 39.6417 127.734 39.582 127.495 39.5223C127.375 39.4626 127.316 39.4029 127.256 39.3432C127.196 39.2835 127.196 39.2238 127.256 39.1044L127.316 38.6865C127.316 38.5671 127.375 38.5073 127.435 38.5073C127.495 38.5073 127.554 38.5073 127.674 38.5073C127.793 38.5073 127.972 38.567 128.092 38.567C128.271 38.567 128.39 38.567 128.569 38.6267C128.749 38.6267 128.868 38.6268 128.987 38.6865C129.107 38.6865 129.226 38.6865 129.346 38.6865C129.704 38.6865 130.002 38.6268 130.181 38.5073C130.36 38.3879 130.42 38.2088 130.42 37.97C130.42 37.8506 130.42 37.7312 130.36 37.6118C130.301 37.4924 130.301 37.4327 130.181 37.373C130.062 37.3133 130.002 37.2536 129.883 37.2536C129.763 37.1939 129.584 37.1939 129.405 37.1342C129.107 37.0745 128.808 37.0148 128.569 36.9551C128.331 36.8954 128.092 36.776 127.853 36.6566C127.674 36.5372 127.495 36.3581 127.375 36.179C127.256 35.9999 127.196 35.7014 127.196 35.4029C127.196 34.8059 127.375 34.3879 127.793 34.0297C128.211 33.7312 128.749 33.5521 129.405 33.5521C129.525 33.5521 129.644 33.5521 129.823 33.5521C130.002 33.5521 130.122 33.5521 130.301 33.6118C130.48 33.6118 130.599 33.6715 130.778 33.6715C130.957 33.6715 131.077 33.7312 131.196 33.7909C131.375 33.8506 131.495 33.97 131.435 34.1491L131.316 34.567C131.316 34.6268 131.256 34.6865 131.196 34.7462C131.137 34.7462 131.077 34.7462 130.957 34.7462C130.719 34.6865 130.42 34.6865 130.122 34.6268C129.823 34.6268 129.584 34.567 129.346 34.567C128.987 34.567 128.689 34.6268 128.569 34.7462C128.45 34.8656 128.39 35.0447 128.39 35.2835C128.39 35.5223 128.45 35.6417 128.629 35.7611C128.808 35.8208 129.047 35.8805 129.405 35.9402C129.704 35.9999 129.943 36.0596 130.241 36.1193C130.54 36.179 130.719 36.2984 130.957 36.4178C131.137 36.5372 131.316 36.7163 131.435 36.9551C131.674 37.1939 131.734 37.4924 131.734 37.8506Z" fill="#626366"/>
<path d="M134.42 32.179C134.42 32.2984 134.42 32.3582 134.42 32.4776C134.42 32.5373 134.36 32.6567 134.301 32.7164C134.241 32.7761 134.181 32.8358 134.062 32.8955C133.943 32.9552 133.823 32.9552 133.704 32.9552C133.525 32.9552 133.405 32.9552 133.346 32.8955C133.226 32.8358 133.166 32.7761 133.107 32.7164C133.047 32.6567 133.047 32.597 132.987 32.4776C132.987 32.4179 132.987 32.2984 132.987 32.2387C132.987 32.0596 133.047 31.8805 133.107 31.7611C133.226 31.6417 133.405 31.582 133.704 31.582C134.002 31.582 134.181 31.6417 134.301 31.7611C134.36 31.8208 134.42 31.9999 134.42 32.179ZM134.36 39.4029C134.36 39.4626 134.36 39.5223 134.301 39.582C134.301 39.6417 134.241 39.6417 134.122 39.6417H133.286C133.107 39.6417 133.047 39.582 133.047 39.4029V33.9701C133.047 33.791 133.107 33.7313 133.286 33.7313H134.122C134.181 33.7313 134.241 33.7313 134.301 33.791C134.301 33.8507 134.36 33.9104 134.36 33.9701V39.4029Z" fill="#626366"/>
<path d="M140.927 36.597C140.927 36.9552 140.927 37.3134 140.868 37.6716C140.808 38.0298 140.689 38.3881 140.51 38.6866C140.33 38.9851 140.092 39.2239 139.733 39.4627C139.375 39.6418 138.898 39.7612 138.301 39.7612C137.704 39.7612 137.226 39.6418 136.868 39.4627C136.51 39.2836 136.271 39.0448 136.092 38.6866C135.912 38.3881 135.793 38.0298 135.793 37.6716C135.733 37.3134 135.733 36.9552 135.733 36.597C135.733 36.2985 135.733 36 135.793 35.6418C135.853 35.2836 135.972 34.9851 136.151 34.6866C136.33 34.3881 136.569 34.1493 136.927 33.9104C137.286 33.7313 137.704 33.6119 138.301 33.6119C138.898 33.6119 139.375 33.6716 139.674 33.8507C140.032 34.0298 140.271 34.2687 140.45 34.5672C140.629 34.8657 140.748 35.1642 140.808 35.5224C140.868 35.8806 140.927 36.2388 140.927 36.597ZM139.554 36.6567C139.554 36.3582 139.554 36.0597 139.495 35.8209C139.435 35.5821 139.375 35.403 139.315 35.2239C139.196 35.0448 139.077 34.9254 138.898 34.8657C138.718 34.806 138.539 34.7463 138.241 34.7463C138.002 34.7463 137.763 34.806 137.644 34.8657C137.524 34.9254 137.345 35.0448 137.286 35.2239C137.166 35.403 137.107 35.5821 137.107 35.8209C137.047 36.0597 137.047 36.3582 137.047 36.6567C137.047 36.9552 137.047 37.2537 137.107 37.4925C137.166 37.7313 137.226 37.9104 137.286 38.0896C137.345 38.2687 137.524 38.3881 137.644 38.4478C137.763 38.5075 138.002 38.5672 138.241 38.5672C138.539 38.5672 138.718 38.5075 138.898 38.4478C139.077 38.3881 139.196 38.2687 139.315 38.0896C139.435 37.9104 139.495 37.7313 139.495 37.4925C139.495 37.2537 139.554 37.0149 139.554 36.6567Z" fill="#626366"/>
<path d="M147.136 39.5821C147.077 39.6418 147.017 39.6418 146.957 39.6418H146.062C145.883 39.6418 145.823 39.5821 145.823 39.403V36.0597C145.823 35.7015 145.763 35.403 145.644 35.2239C145.524 34.9851 145.286 34.9254 144.927 34.9254C144.808 34.9254 144.689 34.9254 144.509 34.9851C144.33 35.0448 144.211 35.1045 144.032 35.1642C143.853 35.2239 143.733 35.2836 143.614 35.3433C143.494 35.403 143.375 35.4627 143.315 35.5224V39.403C143.315 39.5821 143.256 39.6418 143.077 39.6418H142.241C142.062 39.6418 142.002 39.5821 142.002 39.403V33.9701C142.002 33.791 142.062 33.7313 142.241 33.7313H143.077C143.256 33.7313 143.315 33.791 143.315 33.9701V34.3284C143.435 34.2687 143.554 34.1493 143.733 34.0896C143.912 34.0298 144.032 33.9104 144.211 33.8507C144.39 33.791 144.569 33.7313 144.748 33.6716C144.927 33.6119 145.106 33.6119 145.286 33.6119C145.703 33.6119 146.002 33.6716 146.241 33.791C146.48 33.9104 146.659 34.0896 146.778 34.2687C146.897 34.4478 146.957 34.7463 147.017 34.9851C147.077 35.2836 147.077 35.5224 147.077 35.8806V39.403C147.196 39.4627 147.136 39.5224 147.136 39.5821Z" fill="#626366"/>
<path d="M154.48 16.7164H152.51V39.8209H154.48V16.7164Z" fill="#034DA1"/>
</g>
<defs>
<clipPath id="clip0_735_43645">
<rect width="154.03" height="40" fill="white" transform="translate(0.749023)"/>
</clipPath>
<clipPath id="clip1_735_43645">
<rect width="80.597" height="40" fill="white" transform="translate(0.749023)"/>
</clipPath>
</defs>
</svg>
