<svg xmlns="http://www.w3.org/2000/svg" width="81" height="40" viewBox="0 0 81 40" fill="none">
<path d="M56.5581 19.1494V19.2183H56.5237C56.4893 19.1839 56.4893 19.1494 56.4893 19.115L56.5581 19.1494Z" fill="#1B618C"/>
<path d="M56.5241 19.2183H56.5585C56.5585 19.2183 56.5585 19.2527 56.5241 19.2527C56.4897 19.2527 56.5241 19.2183 56.5241 19.2183Z" fill="#1B618C"/>
<path d="M0.935808 33.0293H2.83009C3.07118 33.0293 3.31227 33.0637 3.51892 33.1326C3.69112 33.2015 3.86333 33.2704 4.0011 33.4082C4.13886 33.5115 4.24219 33.6837 4.27663 33.8214C4.34551 33.9937 4.37995 34.1659 4.37995 34.3725C4.37995 34.5792 4.31107 34.8202 4.20774 35.0269C4.06998 35.268 3.89777 35.4402 3.65668 35.5435C3.82889 35.578 3.96665 35.6813 4.06998 35.7846C4.1733 35.8879 4.27663 35.9913 4.34551 36.129C4.41439 36.2668 4.44883 36.3701 4.48328 36.5079C4.51772 36.6112 4.51772 36.749 4.51772 36.8523C4.51772 37.0589 4.48327 37.2656 4.37995 37.4378C4.31107 37.61 4.1733 37.7822 4.03554 37.8855C3.89777 38.0233 3.72556 38.1266 3.55336 38.1611C3.38115 38.2299 3.1745 38.2644 3.00229 38.2644H0.901367V33.0293H0.935808ZM3.72556 34.4414C3.72556 34.2003 3.65668 33.9592 3.48447 33.787C3.27783 33.6148 2.96785 33.5115 2.69232 33.5459H1.5902V35.3369H2.69232C2.96785 35.3713 3.24338 35.268 3.45003 35.0958C3.62224 34.8891 3.72556 34.6825 3.72556 34.4414ZM3.86333 36.8179C3.86333 36.6801 3.82889 36.5768 3.79445 36.439C3.76001 36.3357 3.69112 36.1979 3.5878 36.129C3.48447 36.0257 3.38115 35.9568 3.24338 35.9224C3.10562 35.8535 2.93341 35.8535 2.79565 35.8535H1.55575V37.8511H2.79565C2.96785 37.8511 3.14006 37.8167 3.27783 37.7822C3.41559 37.7478 3.51892 37.6789 3.62224 37.5756C3.69112 37.4722 3.76001 37.3689 3.79445 37.2656C3.86333 37.0589 3.86333 36.9212 3.86333 36.8179Z" fill="#4E6E61"/>
<path d="M8.30571 37.8511H8.82233L8.85678 38.23C8.75345 38.2644 8.65013 38.3333 8.5468 38.3333C8.44348 38.3678 8.30571 38.3678 8.20239 38.3678C8.06462 38.3678 7.9613 38.3333 7.85797 38.2644C7.75465 38.1611 7.72021 38.0234 7.72021 37.8856C7.47912 38.0922 7.23803 38.23 6.92805 38.2989C6.82473 38.3333 6.72141 38.3333 6.61808 38.3678H6.41143C6.23923 38.3678 6.03258 38.3333 5.89481 38.2644C5.75705 38.1956 5.65372 38.1267 5.5504 37.9889C5.48152 37.8856 5.41263 37.7823 5.37819 37.6445C5.34375 37.5412 5.34375 37.4034 5.34375 37.3001C5.34375 36.9901 5.44707 36.7146 5.68816 36.5079C5.99814 36.2668 6.37699 36.1635 6.75585 36.1635L7.72021 36.0946V35.8535C7.75465 35.6125 7.68577 35.3714 7.548 35.1992C7.37579 35.0614 7.1347 34.9925 6.89361 34.9925C6.68697 34.9925 6.51476 35.0269 6.30811 35.0614C6.10146 35.0958 5.92925 35.1647 5.72261 35.1992L5.58484 34.7859C5.82593 34.6825 6.06702 34.6137 6.30811 34.5448C6.5492 34.5103 6.79029 34.4759 7.03138 34.4759C7.37579 34.4414 7.68577 34.5448 7.9613 34.7514C8.20239 34.9925 8.34015 35.3714 8.30571 35.7158V37.8511ZM6.75585 36.5768C6.5492 36.5768 6.34255 36.6457 6.20479 36.7835C6.06702 36.8868 5.99814 37.059 6.03258 37.2312C6.03258 37.4034 6.06702 37.5756 6.20479 37.7134C6.34255 37.8511 6.5492 37.8856 6.72141 37.8856C6.89361 37.8856 7.06582 37.8511 7.23803 37.7478C7.44468 37.6445 7.61688 37.5412 7.75465 37.369V36.4735L6.75585 36.5768Z" fill="#4E6E61"/>
<path d="M11.9568 38.2989V35.8191C11.9568 35.7158 11.9568 35.578 11.9224 35.4747C11.9224 35.3713 11.8879 35.3025 11.8535 35.1991C11.819 35.1303 11.7501 35.0614 11.6468 35.0269C11.5435 34.9925 11.4057 34.958 11.3024 34.958C11.0958 34.958 10.8891 34.9925 10.7169 35.0614C10.5103 35.1303 10.3381 35.1991 10.1658 35.3025V38.2644H9.5459V34.5103H10.1658V34.8203H10.2003C10.4069 34.6825 10.648 34.5792 10.8891 34.5103C11.0958 34.4414 11.3024 34.407 11.5091 34.407C11.7157 34.407 11.9224 34.4414 12.129 34.5103C12.2668 34.5792 12.3701 34.6825 12.4734 34.7858C12.5423 34.8892 12.6112 35.0269 12.6112 35.1647C12.6456 35.3025 12.6456 35.4402 12.6456 35.578V38.23L11.9568 38.2989Z" fill="#4E6E61"/>
<path d="M14.1268 36.0946C14.3679 35.819 14.6434 35.5779 14.8845 35.3024C15.1256 35.0613 15.4011 34.7858 15.6422 34.5103H16.3655C16.1244 34.7514 15.8833 34.9924 15.6422 35.268L14.9189 36.0257C14.9534 36.0946 14.9878 36.129 15.0567 36.1979C15.0911 36.2323 15.16 36.3012 15.1945 36.3701L16.5032 38.3333H15.8144C15.6078 38.0233 15.4011 37.7133 15.1945 37.3689L14.5745 36.4045L14.1612 36.8178V38.2988H13.5068V32.8226H14.1268V35.1991L14.0923 36.0601L14.1268 36.0946Z" fill="#4E6E61"/>
<path d="M21.9449 37.8511H22.4615L22.496 38.23C22.3926 38.2644 22.2893 38.3333 22.186 38.3333C22.0827 38.3678 21.9449 38.3678 21.8416 38.3678C21.7038 38.3678 21.6005 38.3333 21.4972 38.2644C21.3938 38.1611 21.3594 38.0234 21.3594 37.8856C21.1183 38.0922 20.8772 38.23 20.5673 38.2989C20.4639 38.3333 20.3606 38.3333 20.2573 38.3678H20.0506C19.8784 38.3678 19.6718 38.3333 19.4996 38.2644C19.3618 38.1956 19.2585 38.1267 19.1552 37.9889C19.0863 37.8856 19.0174 37.7823 18.9829 37.6445C18.9485 37.5412 18.9485 37.4034 18.9141 37.3001C18.9141 36.9901 19.0174 36.7146 19.2585 36.5079C19.5684 36.2668 19.9473 36.1635 20.3262 36.1635L21.2905 36.0946V35.8535C21.325 35.6125 21.2561 35.3714 21.1183 35.1992C20.9461 35.0614 20.705 34.9925 20.4639 34.9925C20.2573 34.9925 20.0851 35.0269 19.8784 35.0614C19.6718 35.0958 19.4996 35.1647 19.2929 35.1992L19.1552 34.7859C19.3962 34.6825 19.6373 34.6137 19.8784 34.5448C20.1195 34.5103 20.3606 34.4759 20.6361 34.4759C20.9805 34.4414 21.2905 34.5448 21.5661 34.7514C21.8071 34.9925 21.9449 35.3714 21.9105 35.7158L21.9449 37.8511ZM20.3606 36.5768C20.154 36.5768 19.9473 36.6457 19.7751 36.7835C19.6373 36.8868 19.5684 37.059 19.6029 37.2312C19.6029 37.4034 19.6373 37.5756 19.7751 37.7134C19.9129 37.8511 20.1195 37.8856 20.2917 37.8856C20.4639 37.8856 20.6361 37.8511 20.8083 37.7478C20.9805 37.6445 21.1528 37.5412 21.325 37.369V36.4735L20.3606 36.5768Z" fill="#4E6E61"/>
<path d="M24.2181 38.4022C24.0114 38.4022 23.8048 38.3678 23.6326 38.2989C23.4948 38.23 23.3915 38.1267 23.3226 38.0234C23.2537 37.92 23.2193 37.7823 23.1848 37.6445C23.1504 37.5067 23.1504 37.369 23.1504 37.2312V34.5792H23.7703V37.059C23.7703 37.1623 23.7703 37.3001 23.8048 37.4034C23.8048 37.5067 23.8392 37.5756 23.8737 37.6789C23.9081 37.7478 23.977 37.8167 24.0803 37.8512C24.1836 37.8856 24.3214 37.92 24.4247 37.92C24.5969 37.92 24.7691 37.8856 24.9413 37.8167C25.148 37.7478 25.3546 37.6101 25.5268 37.4379V34.5792H26.1468V38.3333H25.5268V37.92C25.3202 38.0922 25.0447 38.2645 24.7691 38.3333C24.6658 38.3678 24.5625 38.4022 24.4592 38.4022C24.3903 38.3678 24.3214 38.4022 24.2181 38.4022Z" fill="#4E6E61"/>
<path d="M27.0768 37.6445C27.2834 37.7478 27.5245 37.8167 27.7312 37.8511C27.9034 37.8855 28.0756 37.8855 28.2133 37.8855C28.3167 37.8855 28.4544 37.8855 28.5577 37.8511C28.6611 37.8167 28.73 37.8167 28.8333 37.7478C28.9022 37.7133 28.971 37.6445 29.0055 37.5756C29.0399 37.4722 29.0744 37.4034 29.0744 37.3C29.0744 37.1967 29.0399 37.1278 29.0055 37.059C28.971 36.9901 28.9022 36.9212 28.8333 36.8867C28.7644 36.8179 28.6611 36.7834 28.5577 36.749L28.2478 36.6457L27.7656 36.4734C27.6278 36.439 27.4901 36.3701 27.3523 36.2668C27.249 36.1979 27.1457 36.0946 27.0768 35.9913C27.0079 35.8535 26.9734 35.7157 26.9734 35.5435C26.9734 35.3713 27.0079 35.2336 27.0768 35.0613C27.1457 34.9236 27.249 34.8203 27.3523 34.7169C27.4901 34.6136 27.6278 34.5447 27.7656 34.5103C27.9378 34.4758 28.11 34.4414 28.2822 34.4414C28.3855 34.4414 28.4544 34.4414 28.5577 34.4414C28.6611 34.4414 28.7644 34.4414 28.8677 34.4758C28.971 34.5103 29.0744 34.5103 29.1777 34.5447C29.281 34.5792 29.3499 34.6136 29.4532 34.6825L29.2466 35.1302C29.0744 35.0614 28.9022 34.9925 28.73 34.958C28.5922 34.9236 28.4544 34.9236 28.3167 34.9236C28.2133 34.9236 28.11 34.9236 28.0411 34.958C27.9722 34.958 27.8689 34.9925 27.8 35.0613C27.7312 35.0958 27.6623 35.1647 27.6278 35.2336C27.5934 35.3024 27.5589 35.4058 27.5589 35.5091C27.5589 35.578 27.5934 35.6813 27.6278 35.7157C27.6967 35.7846 27.7656 35.8191 27.8345 35.8879C27.9034 35.9224 28.0067 35.9913 28.11 35.9913L28.3511 36.0602L28.8333 36.2324C28.971 36.2668 29.1088 36.3701 29.2466 36.439C29.3843 36.5079 29.4532 36.6457 29.5565 36.749C29.6254 36.8867 29.6599 37.059 29.6599 37.2312C29.6599 37.4034 29.6254 37.5756 29.5565 37.7133C29.4877 37.8511 29.3843 37.9544 29.2466 38.0578C29.1088 38.1611 28.9366 38.23 28.7644 38.2644C28.5577 38.2988 28.3855 38.3333 28.1789 38.3333C28.0756 38.3333 27.9378 38.3333 27.8345 38.2988C27.6967 38.2988 27.5934 38.2644 27.4901 38.23C27.3867 38.1955 27.249 38.1955 27.1456 38.1266C27.0423 38.0922 26.939 38.0578 26.8701 37.9889L27.0768 37.6445Z" fill="#4E6E61"/>
<path d="M34.2752 37.6444L34.5852 36.5767L35.6184 33.0637H36.3072L34.6541 38.3333H33.8964L32.2432 33.0637H32.932L33.9997 36.5767L34.3096 37.6444H34.2752Z" fill="#4E6E61"/>
<path d="M38.1671 34.4758C38.3738 34.4758 38.5804 34.5103 38.7871 34.5791C38.9593 34.648 39.097 34.7169 39.2004 34.8202C39.3037 34.9236 39.407 35.0613 39.4759 35.1991C39.5448 35.3368 39.5792 35.4746 39.6137 35.6124C39.6481 35.7501 39.6481 35.8535 39.6825 35.9912C39.6825 36.0946 39.6825 36.1979 39.6825 36.2668V36.5423H37.1683C37.1683 36.7145 37.1683 36.8867 37.2028 37.0245C37.2372 37.1622 37.2716 37.3345 37.375 37.4378C37.4783 37.5755 37.5816 37.6789 37.7194 37.7133C37.8916 37.7822 38.0638 37.8166 38.236 37.8166C38.4427 37.8166 38.6493 37.7822 38.856 37.7477C39.0626 37.6789 39.2692 37.6444 39.4415 37.5411L39.5792 37.9544C39.3726 38.0577 39.1315 38.161 38.8904 38.2299C38.6493 38.2988 38.4082 38.3333 38.1671 38.2988C37.8916 38.2988 37.6161 38.2644 37.3405 38.161C37.1339 38.0577 36.9617 37.92 36.8239 37.7477C36.6861 37.5755 36.6173 37.3689 36.5484 37.1278C36.5139 36.8867 36.4795 36.6456 36.4795 36.3701C36.4795 36.2323 36.4795 36.129 36.5139 35.9912C36.5139 35.8535 36.5484 35.7157 36.6173 35.5779C36.6517 35.4402 36.7206 35.3024 36.7895 35.1646C36.8583 35.0269 36.9617 34.8891 37.0994 34.7858C37.2372 34.6825 37.375 34.5791 37.5472 34.5103C37.7538 34.4758 37.9605 34.4414 38.1671 34.4758ZM38.1671 34.9236C37.9949 34.9236 37.8571 34.958 37.7194 35.0269C37.6161 35.0958 37.4783 35.1991 37.4094 35.3024C37.3405 35.4057 37.2716 35.5435 37.2372 35.6813C37.2028 35.819 37.1683 35.9912 37.1683 36.129H39.097C39.097 35.9568 39.097 35.7846 39.0626 35.6468C39.0282 35.5091 38.9937 35.3713 38.9248 35.268C38.8559 35.1646 38.7526 35.0613 38.6493 35.0269C38.4771 34.958 38.3393 34.9236 38.1671 34.9236Z" fill="#4E6E61"/>
<path d="M41.1981 35.0614C41.3014 34.9925 41.4047 34.8892 41.508 34.8203C41.6114 34.7514 41.7491 34.6825 41.8525 34.6136C41.9558 34.5447 42.0935 34.5103 42.1969 34.4759C42.3002 34.4414 42.4035 34.407 42.5068 34.407C42.5413 34.407 42.6102 34.407 42.6446 34.4414C42.679 34.4759 42.7135 34.5447 42.7135 34.5792C42.7135 34.6136 42.7135 34.6481 42.6791 34.717L42.6446 34.8892C42.6102 34.958 42.6102 34.9925 42.5757 35.0614C42.5413 35.0958 42.5068 35.1647 42.5068 35.1991L41.8525 35.268L41.1981 35.3369V38.2644H40.5781V34.5103H41.1981L41.1636 34.9925L41.1981 35.0614Z" fill="#4E6E61"/>
<path d="M46.054 37.8511H46.5706L46.6051 38.23C46.5018 38.2644 46.3984 38.3333 46.2951 38.3333C46.1918 38.3678 46.054 38.3678 45.9507 38.3678C45.8129 38.3678 45.7096 38.3333 45.6063 38.2644C45.503 38.1611 45.4685 38.0234 45.4685 37.8856C45.2274 38.0922 44.9863 38.23 44.6764 38.2989C44.573 38.3333 44.4697 38.3333 44.3664 38.3678H44.1597C43.9875 38.3678 43.7809 38.3333 43.6087 38.2644C43.4709 38.1956 43.3676 38.1267 43.2643 37.9889C43.1954 37.8856 43.1265 37.7823 43.0921 37.6445C43.0576 37.5412 43.0576 37.4034 43.0576 37.3001C43.0576 36.9901 43.1609 36.7146 43.402 36.5079C43.712 36.2668 44.0909 36.1635 44.4697 36.1635L45.4341 36.0946V35.8535C45.4685 35.6125 45.3996 35.3714 45.2619 35.1992C45.0897 35.0614 44.8486 34.9925 44.6075 34.9925C44.4008 34.9925 44.2286 35.0269 44.022 35.0614C43.8153 35.0958 43.6431 35.1647 43.4365 35.1992L43.2987 34.7859C43.5398 34.6825 43.7809 34.6137 44.022 34.5448C44.2631 34.5103 44.5042 34.4759 44.7452 34.4759C45.0897 34.4414 45.3996 34.5448 45.6752 34.7514C45.9163 34.9925 46.054 35.3714 46.0196 35.7158L46.054 37.8511ZM44.5042 36.5768C44.2975 36.5768 44.0909 36.6457 43.9187 36.7835C43.7809 36.8868 43.712 37.059 43.7464 37.2312C43.7464 37.4034 43.7809 37.5756 43.9187 37.7134C44.0564 37.8511 44.2631 37.8856 44.4353 37.8856C44.6075 37.8856 44.7797 37.8511 44.9519 37.7478C45.1585 37.6445 45.3308 37.5412 45.4685 37.369V36.4735L44.5042 36.5768Z" fill="#4E6E61"/>
<path d="M49.7048 38.2989V35.8191C49.7048 35.7158 49.7048 35.578 49.6704 35.4747C49.6704 35.3713 49.636 35.3025 49.6015 35.1991C49.5671 35.1303 49.4982 35.0614 49.3949 35.0269C49.2915 34.9925 49.1538 34.958 49.0505 34.958C48.8438 34.958 48.6372 34.9925 48.465 35.0614C48.2583 35.1303 48.0861 35.1991 47.9139 35.3025V38.2644H47.2939V34.5103H47.9139V34.8203H47.9483C48.155 34.6825 48.3961 34.5792 48.6372 34.5103C48.8438 34.4414 49.0505 34.407 49.2571 34.407C49.4638 34.407 49.6704 34.4414 49.8771 34.5103C50.0148 34.5792 50.1181 34.6825 50.2215 34.7858C50.2903 34.8892 50.3592 35.0269 50.3592 35.1647C50.3937 35.3025 50.3937 35.4402 50.3937 35.578V38.23L49.7048 38.2989Z" fill="#4E6E61"/>
<path d="M52.1161 33.5804V34.5448H53.2526V34.9925H52.1161V37.1968C52.1161 37.3346 52.1505 37.5068 52.2194 37.6445C52.3227 37.7823 52.4949 37.8512 52.6327 37.8167C52.8738 37.8167 53.1149 37.7479 53.356 37.679L53.4593 38.0923C53.3215 38.1612 53.1493 38.23 53.0115 38.23C52.8393 38.2645 52.7016 38.2989 52.5294 38.2989C51.8405 38.2989 51.4961 37.9889 51.4961 37.369V34.9581H50.9795V34.6137L51.565 34.4415L51.7716 33.6149L52.1161 33.5804Z" fill="#4E6E61"/>
<path d="M57.5572 37.679L57.8327 36.5424L58.3838 34.5448H59.0037L57.9016 38.2989H57.2128L56.6617 36.5424L56.2829 35.1992H56.2484L55.904 36.5424L55.4218 38.2989H54.733L53.6309 34.5448H54.2508L54.7674 36.4735L55.0774 37.679H55.1118L55.4218 36.4391L55.9729 34.5448H56.5928L57.2128 36.5424L57.5227 37.679H57.5572Z" fill="#4E6E61"/>
<path d="M62.6889 36.439C62.6889 36.6801 62.6545 36.9212 62.62 37.1622C62.5856 37.3689 62.4823 37.61 62.3445 37.7822C62.2067 37.9544 62.0345 38.1266 61.8279 38.2299C61.5868 38.3333 61.2768 38.4021 61.0013 38.4021C60.7258 38.4021 60.4847 38.3677 60.2436 38.2299C60.0369 38.1266 59.8647 37.9888 59.7614 37.8166C59.6236 37.6444 59.5548 37.4378 59.4859 37.1967C59.417 36.9556 59.417 36.7145 59.417 36.4734C59.417 36.2323 59.4514 35.9912 59.5203 35.7501C59.5892 35.5091 59.6925 35.3024 59.8303 35.1302C59.9681 34.958 60.1403 34.7858 60.3469 34.6825C60.588 34.5791 60.8635 34.5103 61.1391 34.5103C61.4146 34.5103 61.6901 34.5447 61.9312 34.6825C62.1379 34.7858 62.3101 34.9236 62.4478 35.1302C62.5856 35.3368 62.6545 35.5435 62.7234 35.7501C62.6545 35.9568 62.6889 36.1979 62.6889 36.439ZM62.0345 36.439C62.0345 36.2668 62.0345 36.0946 62.0001 35.9224C61.9657 35.7501 61.9312 35.5779 61.8623 35.4402C61.7935 35.3024 61.6901 35.1991 61.5524 35.0958C61.4146 34.9924 61.2424 34.958 61.0702 34.958C60.898 34.958 60.6913 34.9924 60.5536 35.0958C60.4158 35.1991 60.3125 35.3024 60.2436 35.4402C60.1747 35.5779 60.1058 35.7501 60.0714 35.9224C60.0369 36.0946 60.0369 36.2668 60.0369 36.439C60.0369 36.6112 60.0369 36.8178 60.0714 36.99C60.1058 37.1622 60.1403 37.3 60.2091 37.4378C60.278 37.5755 60.3814 37.6789 60.5191 37.7477C60.6913 37.8511 60.8635 37.8855 61.0702 37.8511C61.2424 37.8511 61.4146 37.8166 61.5524 37.7133C61.6901 37.61 61.7935 37.5067 61.8623 37.3689C61.9312 37.2311 62.0001 37.0589 62.0001 36.9212C62.0001 36.7834 62.0345 36.6112 62.0345 36.439Z" fill="#4E6E61"/>
<path d="M64.2049 35.0614C64.3082 34.9925 64.4116 34.8892 64.5149 34.8203C64.6182 34.7514 64.756 34.6825 64.8593 34.6136C64.9626 34.5447 65.1004 34.5103 65.2037 34.4759C65.307 34.4414 65.4104 34.407 65.5137 34.407C65.5481 34.407 65.617 34.407 65.6514 34.4414C65.6859 34.4759 65.7203 34.5447 65.7203 34.5792C65.7203 34.6136 65.7203 34.6481 65.6859 34.717L65.6514 34.8892C65.617 34.958 65.617 34.9925 65.5826 35.0614C65.5481 35.0958 65.5137 35.1647 65.5137 35.1991L64.8593 35.268L64.2049 35.3369V38.2644H63.585V34.5103H64.2049L64.1705 34.9925L64.2049 35.0614Z" fill="#4E6E61"/>
<path d="M67.0978 33.5804V34.5448H68.2343V34.9925H67.0978V37.1968C67.0978 37.3346 67.1322 37.5068 67.2011 37.6445C67.3044 37.7823 67.4766 37.8512 67.6144 37.8167C67.8555 37.8167 68.0966 37.7479 68.3377 37.679L68.441 38.0923C68.3032 38.1612 68.131 38.23 67.9932 38.23C67.821 38.2645 67.6833 38.2989 67.5111 38.2989C66.8222 38.2989 66.4778 37.9889 66.4778 37.369V34.9581H65.9268V34.6137L66.5123 34.4415L66.7189 33.6149L67.0978 33.5804Z" fill="#4E6E61"/>
<path d="M70.0247 38.4022C69.8181 38.4022 69.6114 38.3678 69.4392 38.2989C69.3014 38.23 69.1981 38.1267 69.1292 38.0234C69.0604 37.92 69.0259 37.7823 68.9915 37.6445C68.957 37.5067 68.957 37.369 68.957 37.2312V34.5792H69.577V37.059C69.577 37.1623 69.577 37.3001 69.6114 37.4034C69.6114 37.5067 69.6459 37.5756 69.6803 37.6789C69.7147 37.7478 69.7836 37.8167 69.887 37.8512C69.9903 37.8856 70.128 37.92 70.2314 37.92C70.4036 37.92 70.5758 37.8856 70.748 37.8167C70.9546 37.7478 71.1613 37.6101 71.3335 37.4379V34.5792H71.9879V38.3333H71.3679V37.92C71.1613 38.0922 70.9202 38.2645 70.6447 38.3333C70.5413 38.3678 70.438 38.4022 70.3347 38.4022C70.1969 38.4022 70.128 38.4022 70.0247 38.4022Z" fill="#4E6E61"/>
<path d="M75.2605 38.2989V35.8191C75.2605 35.7158 75.2605 35.578 75.2261 35.4747C75.2261 35.3713 75.1916 35.3025 75.1572 35.1991C75.1227 35.1303 75.0539 35.0614 74.9505 35.0269C74.8472 34.9925 74.7095 34.958 74.6061 34.958C74.3995 34.958 74.1928 34.9925 74.0206 35.0614C73.814 35.1303 73.6418 35.1991 73.4696 35.3025V38.2644H72.8496V34.5103H73.4696V34.8203H73.504C73.7106 34.6825 73.9517 34.5792 74.1928 34.5103C74.3995 34.4414 74.6061 34.407 74.8128 34.407C75.0194 34.407 75.2261 34.4414 75.4327 34.5103C75.5705 34.5792 75.6738 34.6825 75.7771 34.7858C75.846 34.8892 75.9149 35.0269 75.9149 35.1647C75.9493 35.3025 75.9493 35.4402 75.9493 35.578V38.23L75.2605 38.2989Z" fill="#4E6E61"/>
<path d="M77.2923 36.7834C77.1545 36.7145 77.0167 36.5768 76.9479 36.439C76.8445 36.2323 76.7757 36.0257 76.8101 35.819C76.8101 35.6124 76.8445 35.4057 76.9479 35.1991C77.0167 35.0269 77.1545 34.8891 77.2923 34.7858C77.43 34.6825 77.6022 34.6136 77.7745 34.5447C77.9467 34.5103 78.1189 34.4758 78.3255 34.4758C78.4633 34.4758 78.5666 34.4758 78.7044 34.5103C78.8077 34.5103 78.9455 34.5447 79.0488 34.5792H80.2542V34.9925H79.6687V35.0269C79.7721 35.1302 79.8409 35.2335 79.8754 35.3713C79.9098 35.5091 79.9443 35.6813 79.9443 35.819C79.9443 36.1979 79.7721 36.5423 79.4965 36.7834C79.3588 36.8867 79.1866 36.9901 79.0143 37.0245C78.8077 37.0934 78.601 37.1278 78.3944 37.0934H77.9811C77.8433 37.0934 77.6711 37.0934 77.5334 37.1623C77.43 37.1967 77.3612 37.3 77.3612 37.4034C77.3612 37.4722 77.3956 37.5411 77.4645 37.61C77.5678 37.6444 77.6367 37.6789 77.74 37.6789H78.7388C79.1177 37.6444 79.4965 37.7478 79.8065 37.9544C80.1854 38.2988 80.2887 38.8499 80.0476 39.2976C79.9443 39.4698 79.8409 39.5732 79.6687 39.6765C79.4965 39.7798 79.2899 39.8831 79.0832 39.9176C78.8421 39.9865 78.5666 40.0209 78.3255 39.9865C78.05 39.9865 77.7745 39.952 77.5334 39.8831C77.3612 39.8487 77.1889 39.7454 77.0512 39.642C76.9479 39.5387 76.8445 39.4354 76.8101 39.2976C76.7757 39.1599 76.7412 39.0221 76.7412 38.8843C76.7412 38.6777 76.8101 38.5055 76.9134 38.3333C77.0167 38.1955 77.1201 38.0922 77.2578 38.0233C77.1201 37.9889 77.0167 37.92 76.9134 37.8511C76.8445 37.7478 76.7757 37.61 76.7757 37.4722C76.7757 37.3689 76.7757 37.2656 76.8101 37.1967C76.8445 37.1278 76.879 37.0589 76.9479 36.9901C77.0167 36.9556 77.0856 36.8867 77.1545 36.8867C77.1889 36.8178 77.2578 36.8178 77.2923 36.7834ZM77.74 38.0922C77.6711 38.1266 77.6367 38.1266 77.5678 38.1955C77.4989 38.2299 77.4645 38.2988 77.43 38.3677C77.3956 38.4366 77.3612 38.5055 77.3267 38.5744C77.2923 38.6432 77.2923 38.7121 77.2923 38.781C77.2923 38.8843 77.2923 38.9877 77.3267 39.0565C77.3612 39.1599 77.43 39.2287 77.4989 39.2976C77.6022 39.3665 77.7056 39.4354 77.8433 39.4698C78.0155 39.5043 78.2222 39.5387 78.3944 39.5387C78.6699 39.5732 78.9799 39.4698 79.221 39.3321C79.3932 39.2287 79.531 39.0221 79.4965 38.781C79.4965 38.7121 79.4965 38.6088 79.4621 38.5399C79.4276 38.471 79.3932 38.3677 79.3243 38.2988C79.2554 38.2299 79.1521 38.1611 79.0488 38.1266C78.911 38.0922 78.7388 38.0577 78.601 38.0577H77.74V38.0922ZM79.2899 35.7846C79.2899 35.6813 79.2899 35.578 79.2554 35.4746C79.221 35.3713 79.1865 35.268 79.1177 35.1991C79.0488 35.0958 78.9455 35.0269 78.8421 34.9925C78.7044 34.9236 78.5666 34.9236 78.3944 34.9236C78.1533 34.8891 77.9122 34.9925 77.7056 35.1647C77.5334 35.3369 77.4645 35.578 77.4645 35.7846C77.4645 36.0257 77.5334 36.2323 77.6711 36.4045C77.8433 36.5768 78.05 36.6456 78.2566 36.6456C78.3944 36.6456 78.5322 36.6456 78.6355 36.5768C78.7388 36.5423 78.8421 36.5079 78.9455 36.439C79.0488 36.3701 79.1177 36.2668 79.1521 36.1635C79.2554 36.0257 79.2899 35.9224 79.2899 35.7846Z" fill="#4E6E61"/>
<path d="M69.8184 19.2528C69.8528 19.2528 69.8528 19.2183 69.8528 19.1839C70.2317 17.6684 73.5036 6.30278 74.7435 2.10093C74.8468 1.79095 75.0535 0.895477 75.1224 0.792153C75.2601 0.378856 75.639 0.068883 76.0867 0.0344416C76.2934 1.3087e-07 76.5 0 76.7067 0H79.0831C79.3242 0 79.5653 0.0344415 79.772 0.103324C80.3919 0.275531 80.7363 0.929918 80.5297 1.54986C80.0475 3.37526 72.6081 26.7265 72.4704 27.0021C72.1948 27.5187 71.6782 27.8631 71.0927 27.8976H68.4752C68.3374 27.8976 68.1996 27.8631 68.0963 27.8631C67.7175 27.7942 67.3386 27.5531 67.132 27.2087C66.9253 26.8643 66.7875 26.5199 66.6498 26.141C66.6498 26.141 58.9349 1.79095 58.866 1.58431C58.6594 0.998801 59.0038 0.344414 59.5893 0.137766C59.7615 0.068883 59.9681 0.0344416 60.1748 0.0344416H62.999C63.1712 0.0344416 63.3434 0.0688829 63.5156 0.103324C63.8256 0.172207 64.1011 0.378856 64.2044 0.654387C64.2733 0.792153 69.7839 19.1494 69.8184 19.2528Z" fill="#1B618C"/>
<path d="M26.7666 7.30156C26.7666 6.47497 26.8355 5.68282 27.0421 4.89066C27.2832 3.82298 27.7654 2.85862 28.4542 2.03203C29.2119 1.17099 30.2107 0.551045 31.3129 0.275514C31.8639 0.137748 32.4494 0.0344238 33.0349 0.0344238H41.6109C41.8519 0.0344238 42.0586 0.0688652 42.2997 0.103307C42.7819 0.206631 43.1952 0.585487 43.2985 1.06767C43.3674 1.37764 43.4363 1.68761 43.4363 1.99759V3.7541C43.4363 4.09851 43.4018 4.44293 43.264 4.78734C43.1263 5.20064 42.7819 5.51061 42.3341 5.61393C42.093 5.68282 41.8519 5.71726 41.6109 5.71726H34.9637C34.1371 5.68282 33.3794 6.13056 32.9661 6.85382C32.7939 7.1638 32.6905 7.50821 32.6561 7.88707V25.8655C32.6561 26.141 32.6561 26.4166 32.5872 26.6921C32.5183 27.2776 32.0706 27.7598 31.4851 27.8286C31.2095 27.8975 30.8996 27.8975 30.624 27.8975H28.4887C28.2131 27.8975 27.9376 27.8287 27.6621 27.7253C27.2832 27.5876 27.0077 27.2431 26.9044 26.8643C26.8355 26.6232 26.801 26.3821 26.801 26.1066V25.2455C26.7666 22.2836 26.7666 10.298 26.7666 7.30156Z" fill="#1B618C"/>
<path d="M56.5932 19.1494C56.7654 18.1506 57.0754 17.1863 57.3165 16.1875C57.6265 15.0509 57.9709 13.8799 58.2808 12.7433C58.3497 12.5367 58.4531 12.33 58.6253 12.1578C58.7975 11.9856 59.0386 11.8823 59.2796 11.8823C59.383 11.8823 59.4519 11.9167 59.5552 11.9856C59.7963 12.0889 59.9685 12.2956 60.0374 12.5022C60.4851 14.0176 61.7939 17.8406 61.7939 17.8406C61.9661 18.1851 62.0005 18.5984 61.9316 18.9428C61.8628 19.1839 59.3485 27.0021 59.2796 27.1398C59.1074 27.4842 58.7975 27.7253 58.4186 27.7942C58.1086 27.8631 57.7987 27.8975 57.5231 27.8631H55.2844C55.1122 27.8631 54.9745 27.8287 54.8023 27.7942C54.4234 27.7253 54.079 27.4842 53.8723 27.1743C53.6657 26.8643 53.5279 26.5199 53.3902 26.141L51.9436 21.6636L46.3297 3.7541C46.1919 3.27192 46.0197 2.85862 45.9164 2.41088C45.8475 2.06647 45.7097 1.75649 45.6753 1.41208C45.572 0.998784 45.7442 0.585486 46.0886 0.344397C46.2952 0.172189 46.5708 0.0688654 46.8463 0.0688654C47.0185 0.034424 47.1907 0.0344238 47.3629 0.0344238H49.7049C49.9116 0.0344238 50.1182 0.0688652 50.3249 0.103307C50.6349 0.137748 50.9104 0.309955 51.0826 0.585487C51.3237 0.929901 51.4959 1.27432 51.5992 1.65317C52.8047 5.7517 54.0101 9.85023 55.1811 13.9488C55.6633 15.6019 56.111 17.2551 56.5588 18.9083L56.6277 19.115C56.6277 19.1494 56.6621 19.1839 56.6621 19.2183L56.5932 19.1494Z" fill="#1B618C"/>
<path d="M18.5353 27.932C18.2942 27.932 18.0876 27.8975 17.8465 27.8286C17.3643 27.7253 16.9165 27.4153 16.6755 26.9676C16.5032 26.6921 16.2966 26.4165 16.1244 26.141L9.58052 16.9451C9.37387 16.6352 9.13278 16.3596 8.89169 16.0841C8.54728 15.6019 8.34063 15.0853 8.27175 14.4998C8.23731 14.0865 8.2373 13.7076 8.2373 13.2944C8.27175 12.5711 8.58172 11.9167 9.0639 11.4001C9.51164 10.8835 9.95938 10.3324 10.3382 9.74689L15.8489 1.99757C16.0211 1.72204 16.2277 1.48095 16.4344 1.20541C16.7099 0.792117 17.0887 0.482144 17.5365 0.275496C17.8465 0.13773 18.1909 0.0688477 18.5353 0.0688477H21.5661C21.8072 0.0688477 22.0483 0.103289 22.2894 0.172172C22.6683 0.241054 22.9782 0.585469 22.9438 0.998766C22.9094 1.54983 22.7716 2.06645 22.4961 2.51419C22.4616 2.54863 22.4272 2.61751 22.3927 2.65195L14.4368 13.4666C14.3679 13.5354 14.3334 13.6388 14.2301 13.6732C14.1957 13.6732 14.1957 13.7076 14.2301 13.7421C14.2301 13.7765 14.2646 13.811 14.299 13.811L22.7716 25.5211C22.8405 25.6244 22.9094 25.6933 22.9782 25.7966C23.2882 26.1754 23.426 26.6921 23.3226 27.1742C23.2882 27.4153 23.116 27.622 22.8749 27.7253C22.7027 27.7942 22.4961 27.8631 22.2894 27.8631C22.1172 27.8975 19.1208 27.932 18.5353 27.932Z" fill="#1B618C"/>
<path d="M0.660156 2.13535C0.660156 1.82538 0.694597 1.48096 0.76348 1.17099C0.866805 0.688811 1.21122 0.309955 1.6934 0.172189C1.96893 0.0688651 2.24446 0.0344238 2.55443 0.0344238H4.62092C4.93089 0.0344238 5.24087 0.103307 5.55084 0.172189C5.99858 0.309955 6.34299 0.65437 6.44632 1.10211C6.5152 1.3432 6.54964 1.54985 6.54964 1.79094V2.10091C6.54964 10.0224 6.54964 17.9095 6.54964 25.8311C6.54964 26.141 6.5152 26.4854 6.44632 26.7954C6.34299 27.2431 5.99858 27.622 5.55084 27.7598C5.34419 27.8631 5.1031 27.8975 4.89645 27.932C4.03542 27.9664 3.17438 27.9664 2.31334 27.932C2.1067 27.932 1.90005 27.8975 1.6934 27.8287C1.24566 27.7253 0.901246 27.3465 0.832363 26.8987C0.763481 26.5543 0.729039 26.2099 0.76348 25.8655L0.660156 2.13535Z" fill="#1B618C"/>
<path d="M38.2015 11.9167H39.9924C40.2335 11.9167 40.4402 11.9512 40.6813 12.0201C41.0601 12.1234 41.4045 12.3989 41.5423 12.7778C41.6456 13.0189 41.6801 13.26 41.7145 13.5355C41.7145 13.8455 41.7145 14.121 41.7145 14.431C41.7145 14.8443 41.7145 15.292 41.6801 15.7053C41.6456 15.9464 41.6112 16.153 41.5423 16.3597C41.4045 16.8763 40.9912 17.2552 40.4746 17.3241C40.268 17.3585 40.0613 17.3929 39.8547 17.3929H36.445C36.2039 17.3929 35.9628 17.3585 35.7217 17.2896C35.2395 17.1863 34.8951 16.8419 34.7573 16.3941C34.6885 16.1875 34.654 15.9464 34.6196 15.7053C34.5851 14.982 34.5851 14.2588 34.6196 13.5355C34.6196 13.3633 34.654 13.1911 34.7229 12.9844C34.8262 12.4678 35.274 12.0545 35.7906 11.9856C35.9972 11.9512 36.2039 11.9167 36.4105 11.9167H38.2015Z" fill="#1B618C"/>
<path d="M56.5933 19.1494V19.2183H56.5589C56.5244 19.1839 56.5244 19.1494 56.5244 19.115L56.5933 19.1494Z" fill="#1B618C"/>
</svg>