<svg width="156" height="40" viewBox="0 0 156 40" fill="none" xmlns="http://www.w3.org/2000/svg">
<g clip-path="url(#clip0_735_42893)">
<path fill-rule="evenodd" clip-rule="evenodd" d="M23.4099 17.3606C23.4674 17.5166 23.4966 17.6726 23.4966 17.823C23.4989 18.1579 23.3429 18.4659 23.0758 18.6708C22.8552 18.8386 22.2801 19.201 21.4843 19.3208C21.1377 19.3728 20.8461 19.4311 20.6334 19.4863C20.5389 19.5083 20.4601 19.5312 20.3971 19.5516C20.4365 19.6147 20.4601 19.6856 20.4601 19.7565C20.4601 19.9535 20.2946 20.111 20.0977 20.111C19.9007 20.111 19.7352 19.9535 19.7352 19.7565V19.7407C19.7431 19.5438 19.8061 19.3941 19.9637 19.268C20.0268 19.2286 20.0819 19.205 20.1607 19.1735C20.2395 19.1498 20.3419 19.1183 20.4601 19.0868C20.6965 19.0316 21.0195 18.9607 21.3977 18.9056C22.0831 18.8032 22.6189 18.4723 22.7765 18.3462C22.9419 18.2123 23.0207 18.0547 23.0286 17.8498C23.0286 17.7553 23.0049 17.6529 22.9655 17.5426C22.9261 17.448 22.8395 17.3771 22.6898 17.3141C22.548 17.2668 22.3589 17.2432 22.2171 17.2432C22.1777 17.2432 22.1304 17.2432 22.0989 17.251C21.7916 17.2747 21.4134 17.4795 21.114 17.6686C21.114 17.6686 19.2468 19.5438 19.0655 19.7801C18.8843 20.0244 18.4037 20.631 17.5055 20.702C17.5686 20.7335 17.6158 20.7965 17.6158 20.8674C17.6158 20.9698 17.5371 21.0486 17.4346 21.0486H17.3409L17.593 21.6395H18.4912C18.5857 21.6395 18.67 21.7183 18.67 21.8129C18.67 21.9074 18.5912 21.9941 18.4888 21.9941H14.8409C14.7425 21.9941 14.6629 21.9153 14.6629 21.8129C14.6629 21.7183 14.7417 21.6395 14.8441 21.6395H15.7029L15.9786 21.0565H15.8762C15.7817 21.0565 15.695 20.9777 15.695 20.8832C15.695 20.8123 15.7423 20.7571 15.7974 20.7256L15.7265 20.7177C15.7265 20.7177 14.592 20.3632 13.9144 19.4571C13.7017 19.1813 13.0083 18.2359 12.4411 18.1098L10.3611 17.8341C10.2429 17.8262 10.1562 17.7159 10.1641 17.5977C10.1798 17.4795 10.2823 17.3929 10.4083 17.4007L11.1095 17.4716C11.0465 17.4401 11.0071 17.3692 11.015 17.2904C11.0229 17.2116 11.0938 17.1486 11.1726 17.1407C10.9677 17.1013 10.7708 16.7626 10.7471 16.5577C10.7235 16.345 10.7944 16.0692 10.7944 16.0692C10.7944 16.0692 10.8259 16.2504 10.9914 16.4316C11.1489 16.6207 11.3538 16.6129 11.3538 16.6129C11.3538 16.6129 11.3144 16.5656 11.3065 16.345C11.2671 16.0377 11.6768 15.6438 11.6926 15.7462C11.7714 16.2977 11.9998 16.5026 11.9998 16.5026C11.9998 16.5026 12.0708 16.4789 12.1889 16.2819C12.3071 16.085 12.2283 15.8092 12.2283 15.8092C12.2283 15.8092 12.5829 16.0535 12.5829 16.3765C12.5829 16.6916 12.5514 16.7074 12.5435 16.7547C12.5277 16.8256 12.7956 16.6523 12.835 16.4395C12.8508 16.345 12.9374 16.8177 12.8429 16.9674C12.7011 17.1801 12.5592 17.3219 12.4647 17.3298H12.4568C12.5041 17.3692 12.5356 17.4244 12.5277 17.4874C12.5198 17.5819 12.4411 17.645 12.3544 17.645C12.4332 17.6529 12.5041 17.6686 12.5671 17.6765C12.8665 17.7238 13.4574 17.7632 13.9853 17.7868H14.395C14.3241 17.7553 14.2768 17.6923 14.2768 17.6213C14.2768 17.5189 14.3556 17.4401 14.458 17.4401H15.7265L16.0023 17.0462C15.955 17.0147 15.9235 16.9595 15.9235 16.9044C15.9235 16.8019 16.0023 16.7232 16.1047 16.7232H16.5065C16.412 16.668 16.3568 16.5813 16.3568 16.4632C16.3568 16.2977 16.4908 16.1638 16.6641 16.1638C16.8374 16.1638 16.9714 16.2977 16.9714 16.471C16.9714 16.5892 16.9083 16.6759 16.8217 16.731H17.2629C17.3574 16.731 17.4362 16.8098 17.4362 16.9123C17.4362 16.9753 17.3968 17.0304 17.3417 17.0619L17.5544 17.448H18.9166C19.0191 17.448 19.0978 17.5268 19.0978 17.6292C19.0978 17.708 19.0506 17.771 18.9797 17.7947C19.4366 17.7947 19.7675 17.7868 19.8542 17.7789C20.1741 17.7553 20.4609 17.645 20.6815 17.5347C20.7603 17.4795 20.8525 17.4165 20.9541 17.3535C21.2771 17.1565 21.6868 16.9359 22.1075 16.8886C22.1548 16.8807 22.2037 16.8807 22.2651 16.8807C22.4463 16.8807 22.6748 16.9044 22.8875 16.9832C23.1003 17.0619 23.3209 17.2116 23.417 17.4716L23.4099 17.3606ZM32.3468 21.9129C32.1892 21.972 32.0553 22.0406 31.9426 22.1099C31.804 22.1989 31.6984 22.2864 31.6306 22.3502C31.5968 22.3817 31.5723 22.4077 31.5574 22.4243C31.5495 22.4321 31.544 22.44 31.5416 22.4432C31.5416 22.451 31.54 22.451 31.5392 22.451L31.3186 22.7347L31.098 22.451C31.0744 22.4195 30.5229 21.7656 29.4514 21.7735C28.892 21.7735 28.4744 21.9547 28.1986 22.128C28.0647 22.2147 27.9544 22.3013 27.8914 22.3723L27.8204 22.451L27.8047 22.4747V22.4826L27.5841 22.7583L27.3635 22.4747C27.3398 22.4432 26.7883 21.7892 25.7247 21.7971C25.1653 21.7971 24.7556 21.9704 24.4877 22.1438C24.3538 22.2304 24.2514 22.3171 24.1883 22.388C24.1568 22.4195 24.1332 22.4432 24.1174 22.4668L24.1017 22.4826L23.8811 22.7741L23.6526 22.4826C23.6289 22.4589 23.0774 21.7971 22.0138 21.805C21.415 21.805 21.0447 21.8838 20.8398 21.9468C20.7374 21.9783 20.6744 22.0098 20.635 22.0335L20.6271 22.0413C20.5798 22.128 20.3908 22.4904 20.3908 23.428C20.3908 23.9953 20.572 24.405 20.7453 24.6807C20.832 24.8226 20.9186 24.925 20.9817 24.988C21.0132 25.0274 21.0368 25.051 21.0526 25.0589L21.0683 25.0747L21.0762 25.0826L21.3677 25.311L21.0762 25.5395C21.0605 25.5553 20.3908 26.0832 20.3908 27.1704C20.3908 27.7377 20.572 28.1474 20.7453 28.4232C20.832 28.5571 20.9186 28.6595 20.9817 28.7304C21.0132 28.7619 21.0447 28.7856 21.0605 28.8013L21.0841 28.8171V28.825L21.3677 29.0456L21.0841 29.2741C21.0526 29.3056 20.3986 29.8729 20.3986 30.9365C20.3986 31.5038 20.572 31.9135 20.7453 32.1892C20.832 32.331 20.9186 32.4335 20.9817 32.4965C21.0132 32.5359 21.0447 32.5516 21.0605 32.5674L21.0841 32.5832L21.3677 32.8116L21.0841 33.0401C21.0683 33.0559 20.3986 33.6153 20.3986 34.7026C20.3986 35.2619 20.5798 35.6716 20.7532 35.9474C20.8398 36.0892 20.9265 36.1916 20.9895 36.2547C21.0211 36.2862 21.0526 36.3098 21.0683 36.3256L21.0841 36.3413L21.092 36.3492L21.3756 36.5698L21.092 36.7983C21.0683 36.8219 20.6665 37.1765 20.4932 37.8462C18.6101 38.705 17.0974 39.0595 16.7271 39.0595C16.3883 39.0595 15.0805 38.7601 13.3944 38.0353C13.2526 37.2474 12.772 36.8219 12.7405 36.7983L12.4568 36.5777L12.7405 36.3571H12.7483L12.7641 36.3413L12.835 36.2704C12.9059 36.2074 12.9926 36.105 13.0792 35.9632C13.2526 35.6874 13.4338 35.2777 13.4338 34.7183C13.4417 33.6389 12.7641 33.0716 12.7483 33.0559L12.4726 32.8353L12.7562 32.6147H12.7641L12.7877 32.5989L12.8586 32.528C12.9295 32.465 13.0162 32.3626 13.1029 32.2207C13.2762 31.945 13.4574 31.5353 13.4574 30.9759C13.4653 29.9075 12.8035 29.345 12.772 29.3135L12.4962 29.0889L12.7798 28.8683H12.7877L12.8035 28.8526C12.8192 28.8407 12.8508 28.8132 12.8823 28.7816C12.9453 28.7186 13.032 28.6162 13.1186 28.4783C13.292 28.2026 13.4732 27.7881 13.4732 27.2256C13.4732 26.1462 12.8035 25.6104 12.7877 25.6026L12.4962 25.3741L12.7877 25.1456C12.7877 25.1456 12.7877 25.1409 12.7917 25.1377L12.8074 25.1219C12.8232 25.1141 12.8468 25.0904 12.8783 25.051C12.9414 24.988 13.028 24.8856 13.1147 24.7516C13.288 24.4759 13.4692 24.0662 13.4692 23.4989C13.4692 22.5692 13.2857 22.1989 13.2329 22.1154L13.2226 22.1075C13.1832 22.0855 13.1202 22.0603 13.0178 22.0209C12.8129 21.9578 12.4426 21.879 11.8438 21.879C10.7723 21.879 10.2208 22.533 10.1972 22.5645L9.96869 22.856L9.74809 22.5645C9.74809 22.5566 9.74021 22.5487 9.73233 22.5409L9.66142 22.4699C9.59839 22.4069 9.49597 22.3203 9.36203 22.2336C9.09178 22.0603 8.68445 21.879 8.12506 21.879C7.05354 21.879 6.50991 22.533 6.47839 22.5645L6.25778 22.8481L6.0293 22.5645L6.02694 22.559L6.01118 22.5353C5.99542 22.5196 5.97178 22.4959 5.93239 22.4644C5.86148 22.4014 5.75906 22.3147 5.61724 22.2281C5.3336 22.0547 4.92075 21.8814 4.35663 21.8814C3.28985 21.8735 2.74148 22.5275 2.71548 22.559L2.49488 22.8426L2.26639 22.559V22.5511L2.25063 22.5353L2.17972 22.4644C2.10882 22.4014 2.00639 22.3147 1.86457 22.2281C1.6676 22.1099 1.4076 21.9886 1.07669 21.9255V15.1498C1.4076 15.0867 1.6676 14.9686 1.86457 14.8464C2.00639 14.7598 2.10882 14.6731 2.17972 14.6101L2.25063 14.5392L2.25851 14.5155L2.48306 14.2319L2.70366 14.5155C2.7273 14.547 3.27882 15.201 4.34482 15.201C4.90421 15.201 5.32178 15.0198 5.59754 14.8464C5.73306 14.7519 5.84178 14.6652 5.90482 14.6022C5.94421 14.5707 5.96785 14.5392 5.9836 14.5234C5.99148 14.5155 5.99148 14.5076 5.99936 14.5076V14.4848L6.21997 14.2012L6.44057 14.4848C6.47209 14.5163 7.01572 15.1703 8.08724 15.1703C8.64821 15.1703 9.05633 14.9938 9.32421 14.8157C9.45815 14.729 9.56057 14.6424 9.6236 14.5793L9.69451 14.5061L9.71027 14.4872L9.93088 14.1878L10.1594 14.4793C10.1909 14.5108 10.7345 15.1647 11.806 15.1647C12.4048 15.1647 12.7751 15.0859 12.9823 15.0229C13.0926 14.9835 13.1557 14.952 13.1872 14.9363L13.1951 14.9284C13.2423 14.8417 13.4314 14.4793 13.4314 13.5417C13.4314 12.9823 13.2502 12.5647 13.0769 12.289C12.9902 12.155 12.9035 12.0526 12.8405 11.9896C12.809 11.9549 12.7775 11.9266 12.7617 11.9155C12.7538 11.9076 12.746 11.9076 12.746 11.8998L12.7412 11.8919L12.4497 11.6634L12.7412 11.4428C12.7491 11.427 13.4267 10.8992 13.4188 9.81189C13.4188 9.25249 13.24 8.8428 13.0643 8.56704C12.9776 8.42522 12.8909 8.3228 12.8279 8.25977C12.7964 8.22825 12.7672 8.20462 12.7491 8.18886L12.7255 8.1731V8.16522L12.4418 7.94462L12.7255 7.71613C12.7649 7.68462 13.4188 7.11734 13.4109 6.05371C13.4109 5.48643 13.2376 5.07674 13.0643 4.80098C12.9776 4.66704 12.8909 4.56461 12.8279 4.49371C12.7964 4.45431 12.7728 4.43068 12.7491 4.41492L12.7334 4.39916H12.7176L12.434 4.17855L12.7176 3.95795C12.7334 3.95007 13.4109 3.3828 13.4031 2.29552C13.4031 1.73613 13.2297 1.32643 13.0564 1.05068C13.0012 0.964009 12.954 0.8931 12.8988 0.837948H20.8863C20.8391 0.8931 20.7839 0.964009 20.7288 1.05068C20.5554 1.32643 20.3797 1.73613 20.3797 2.29552C20.3766 3.3828 21.0494 3.94219 21.0652 3.95795L21.3457 4.18643L21.062 4.40704H21.0463C21.0384 4.40704 21.0305 4.41492 21.0226 4.4228L20.9486 4.49371C20.8855 4.55674 20.7989 4.65916 20.7122 4.80098C20.531 5.07674 20.3577 5.48643 20.3577 6.04583C20.3498 7.11734 21.0116 7.67674 21.0431 7.70825L21.3189 7.93674L21.0352 8.15734L21.0274 8.16522C21.0274 8.16522 21.0116 8.1731 21.0116 8.18098L20.9328 8.25189C20.8698 8.31492 20.7831 8.41734 20.6965 8.55916C20.5152 8.83492 20.3419 9.24462 20.3419 9.80401C20.3419 10.8913 21.0116 11.4192 21.0195 11.4349L21.311 11.6555L21.0195 11.884H21.0116L20.9958 11.8998L20.9171 11.9707C20.854 12.0416 20.7674 12.144 20.6807 12.2779C20.5074 12.5537 20.3261 12.9634 20.3261 13.5307C20.3261 14.4604 20.5074 14.8307 20.5625 14.9095L20.5704 14.9173C20.6019 14.941 20.6649 14.9725 20.7674 15.004C20.9722 15.0749 21.3425 15.1458 21.9413 15.1458C23.0049 15.1537 23.5565 14.4998 23.5801 14.4683L23.8086 14.1767L24.0292 14.4761V14.4848L24.0449 14.5061L24.1158 14.577C24.1789 14.64 24.2813 14.7267 24.4152 14.8133C24.6831 14.9867 25.0928 15.16 25.6522 15.16C26.7237 15.16 27.2674 14.5061 27.2989 14.4746L27.5195 14.1909L27.748 14.4706V14.4848L27.7637 14.5006L27.8346 14.5715C27.9055 14.6345 28.008 14.7212 28.1419 14.8078C28.4177 14.9812 28.8352 15.1624 29.3946 15.1624C30.4661 15.1624 31.0177 14.5084 31.0413 14.4769L31.2619 14.1933L31.4904 14.4769L31.5061 14.4982L31.5771 14.5691C31.6401 14.6321 31.7504 14.7188 31.8843 14.8133C31.9946 14.8843 32.1286 14.9473 32.2861 15.0103V21.983L32.3468 21.9129ZM29.3844 24.6847C29.3292 24.847 29.2292 24.9147 29.0661 25.0235C29.0409 25.0392 29.0149 25.0581 28.9897 25.0747C28.7903 25.2165 28.5012 25.2559 28.4972 25.2559C28.4838 25.2638 28.4736 25.2716 28.4736 25.2874C28.476 25.3032 28.487 25.311 28.5004 25.311H28.71C28.8218 25.311 28.996 25.2795 29.0842 25.2638L29.048 25.3347C29.0243 25.3662 28.9692 25.3898 28.8746 25.445C28.8037 25.4844 28.7171 25.5238 28.6068 25.5947C28.3704 25.7286 28.3074 25.7286 28.2995 25.7286H28.2916C28.2758 25.7286 28.2601 25.7286 28.2601 25.7444C28.2522 25.7523 28.2522 25.768 28.268 25.7759L28.2758 25.7838C28.2995 25.7995 28.3704 25.8153 28.4177 25.8153C28.4649 25.8153 28.6855 25.768 28.788 25.7523L28.7564 25.8389C28.7407 25.9019 28.654 26.028 28.5752 26.091C28.5043 26.1462 28.1971 26.2092 28.0789 26.2329C28.0631 26.2329 28.0552 26.2486 28.0552 26.2644C28.0552 26.2801 28.0631 26.288 28.0789 26.2959C28.0789 26.2959 28.2916 26.3274 28.4098 26.3826C28.4255 26.3904 28.4334 26.4062 28.4413 26.4219C28.4571 26.4771 28.4177 26.5638 28.394 26.5953C28.3625 26.6189 28.1813 26.745 28.0789 26.7607C27.9607 26.7844 27.8583 26.8001 27.8583 26.8001C27.8504 26.808 27.8346 26.8159 27.8346 26.8316C27.8346 26.8395 27.8425 26.8553 27.8583 26.8553C27.8583 26.8553 28.1419 26.9419 28.2207 26.9813C28.2207 26.9892 28.2365 27.005 28.2286 27.0444C28.2128 27.0916 28.1813 27.1389 28.1498 27.1783C28.134 27.2098 28.1104 27.2335 28.0946 27.2571C28.0789 27.2886 28.071 27.2886 28.0552 27.2886C28.0316 27.2886 27.9843 27.265 27.9449 27.2335C27.8346 27.1704 27.6771 27.1547 27.6692 27.1547C27.6692 27.1547 27.6534 27.1626 27.6534 27.1704C27.6455 27.1783 27.6455 27.1862 27.6455 27.1941C27.6455 27.202 27.6455 27.265 27.7007 27.3359L27.7874 27.4226C27.8346 27.4777 27.9055 27.5329 27.9134 27.5723C27.9292 27.6116 27.8898 27.7298 27.7874 27.8716C27.6928 27.9977 27.6534 28.0135 27.6219 28.0135C27.614 28.0056 27.614 27.9741 27.614 27.9426C27.614 27.8953 27.5983 27.8244 27.5746 27.7535C27.5195 27.5959 27.4013 27.4698 27.3934 27.4698C27.3855 27.4541 27.3698 27.4541 27.3619 27.462C27.354 27.4698 27.3461 27.4856 27.3461 27.4935C27.4407 27.8007 27.551 28.1474 27.5431 28.1947C27.5352 28.2577 27.4171 28.3365 27.3777 28.3365C27.3698 28.3365 27.3698 28.305 27.3619 28.2892C27.3619 28.2577 27.354 28.2262 27.3383 28.1947C27.3068 28.1238 27.1886 28.0686 27.1728 28.0686C27.1649 28.0607 27.1492 28.0607 27.1492 28.0686C27.1334 28.0686 27.1334 28.0765 27.1334 28.0923C27.1334 28.0923 27.1177 28.2498 27.1649 28.3444C27.1886 28.3916 27.2043 28.431 27.1964 28.4547C27.1964 28.4704 27.1807 28.4783 27.1492 28.4941C27.0625 28.5335 26.968 28.5177 26.9049 28.4626C26.8577 28.431 26.8577 28.431 26.8813 28.3444L26.8892 28.3207C26.9207 28.2104 26.8892 28.1553 26.8577 28.1001L26.8498 28.0923C26.834 28.0686 26.8183 28.0607 26.8025 28.0607C26.7631 28.0607 26.7316 28.1159 26.7237 28.1316V28.1553C26.7395 28.242 26.771 28.4704 26.7474 28.5335C26.7316 28.5807 26.6843 28.5886 26.6055 28.5886C26.5819 28.5886 26.5583 28.5886 26.5425 28.5965C26.4952 28.6044 26.4401 28.5807 26.4086 28.5729C26.4086 28.4704 26.4164 27.9977 26.4086 27.8638C26.4007 27.7298 26.4322 27.6668 26.4637 27.651C26.5189 27.6195 26.8104 27.4226 27.0074 27.068L27.2043 26.7135C27.4328 26.288 27.8189 25.5868 28.0474 25.2716C28.1104 25.3426 28.2128 25.3741 28.2995 25.3426C28.394 25.311 28.4571 25.2165 28.4492 25.1141L28.4413 24.988C28.7643 24.8226 29.2607 24.5389 29.3631 24.468C29.3868 24.4523 29.3946 24.4523 29.3946 24.4523C29.4183 24.4838 29.3474 24.7123 29.3206 24.791L29.3844 24.6847ZM28.2711 31.3454C28.2443 31.3746 28.2049 31.3927 28.1624 31.3927C28.1506 31.3927 28.1403 31.3911 28.134 31.3895L27.3619 31.2138C27.2989 31.1981 27.2516 31.1469 27.2516 31.0838C27.2437 31.0224 27.2831 30.9656 27.3383 30.942L27.4958 30.8813L26.4874 29.9832C26.4401 29.9438 26.4243 29.8886 26.4401 29.8335C26.4558 29.7783 26.4952 29.7389 26.5583 29.7232L27.1177 29.605L26.4401 28.9353V28.9116L26.448 28.6516V28.5886L26.5031 28.6123C26.5268 28.6201 26.5504 28.628 26.5661 28.6516L27.5195 29.605C27.5589 29.6444 27.5746 29.6995 27.5589 29.7547C27.5431 29.8098 27.4958 29.8492 27.4407 29.8571L26.8971 29.9753L27.6692 30.6686L27.7164 30.4953C27.7322 30.4323 27.7874 30.3929 27.8504 30.3929C27.9055 30.3929 27.9607 30.4323 27.9843 30.4874L28.268 31.2359C28.2837 31.2832 28.2758 31.3383 28.2443 31.3777L28.2711 31.3454ZM26.496 32.1096C26.4669 32.0569 26.4196 31.9915 26.3463 31.9245C26.2313 31.8189 26.1052 31.8063 26.0572 31.8063C26.0391 31.8063 26.0288 31.8103 26.0272 31.8103C26.0194 31.8103 26.0099 31.8181 26.0075 31.826C26.0036 31.8339 26.006 31.8457 26.0099 31.8528C26.0115 31.8528 26.0525 31.9095 26.0666 32.0419C26.0934 32.2507 25.9303 32.4878 25.8712 32.5241C25.7562 32.112 25.5608 31.9726 25.5529 31.9678C25.5482 31.9631 25.5427 31.9631 25.5372 31.9631C25.5332 31.9631 25.5293 31.9631 25.5261 31.9655C25.5104 31.971 25.4631 32.0033 25.3843 32.1679C25.3292 32.283 25.3528 32.4138 25.3765 32.4926C25.2898 32.4342 25.1401 32.3082 25.1243 32.1475C25.1007 31.9426 25.1086 31.9032 25.1165 31.8764V31.8591C25.1165 31.8473 25.1165 31.8355 25.1086 31.8276C25.1007 31.8197 25.0928 31.8166 25.0849 31.8166C25.0298 31.8166 24.888 31.9521 24.8722 32.1018C24.8486 32.0829 24.8171 32.045 24.7934 31.9883C24.7698 31.9363 24.7383 31.8355 24.7855 31.7393C24.8486 31.5896 24.9825 31.4762 25.0613 31.436H26.1643C26.2983 31.4912 26.4401 31.6976 26.4716 31.8347C26.4874 31.9292 26.4874 32.0316 26.4874 32.1104L26.496 32.1096ZM24.7107 29.9824L23.7006 30.8806L23.8582 30.942C23.9181 30.9656 23.9551 31.0224 23.9496 31.0838C23.9449 31.1469 23.9008 31.1989 23.8393 31.213L23.0703 31.3895C23.0625 31.3911 23.0514 31.3927 23.0388 31.3927C22.9978 31.3927 22.9585 31.3746 22.9317 31.3454C22.897 31.3036 22.8875 31.2509 22.9057 31.2012L23.1893 30.4567C23.2129 30.4015 23.2657 30.3653 23.3209 30.3653C23.3918 30.37 23.4446 30.411 23.4603 30.4732L23.5052 30.6489L24.2805 29.9556L23.7345 29.8398C23.6809 29.824 23.636 29.7846 23.6203 29.7295C23.6029 29.6743 23.6187 29.6113 23.6581 29.5719L24.6154 28.6186C24.6311 28.6028 24.6516 28.587 24.6784 28.5792L24.7391 28.5555L24.7406 28.6186C24.743 28.7052 24.7485 28.7919 24.7509 28.8786V28.9022L24.0757 29.5719L24.6398 29.6901C24.6949 29.6979 24.7422 29.7452 24.7556 29.8004C24.7714 29.8555 24.7556 29.9186 24.7162 29.9579L24.7107 29.9824ZM25.029 30.7679H26.1809C26.3164 30.7679 26.4275 30.8782 26.4275 31.0137C26.4275 31.1476 26.3172 31.2579 26.1809 31.2579H25.029C24.8927 31.2579 24.7824 31.1476 24.7824 31.0058C24.7824 30.864 24.8927 30.7537 25.029 30.7537V30.7679ZM24.7942 25.107C24.7942 24.9715 24.9045 24.8604 25.04 24.8604H26.1919C26.3274 24.8604 26.4393 24.9707 26.4393 25.1046C26.4393 25.2386 26.3274 25.3489 26.1919 25.3489H25.04C24.9045 25.3489 24.7942 25.2386 24.7942 25.0967V25.107ZM25.0841 25.5088H26.1147C26.1565 25.8523 26.277 26.938 26.277 27.9985C26.277 29.1835 26.1226 30.4267 26.1052 30.5654L26.0974 30.6221H25.0999L25.0944 30.5686C25.0944 30.5567 24.9211 29.2607 24.9211 27.9985C24.9211 26.9175 25.055 25.8113 25.0865 25.5088H25.0841ZM27.5163 24.7012C27.4501 24.7012 27.3966 24.6618 27.3769 24.5988C27.3611 24.5397 27.3832 24.4775 27.4297 24.4436L28.0718 23.9748C28.1112 23.9449 28.1711 23.9393 28.2183 23.9622C28.2546 23.9779 28.2814 24.0095 28.2924 24.0489C28.2955 24.0567 28.2963 24.0725 28.2963 24.0804L28.3302 24.8683C28.3326 24.9313 28.294 24.9864 28.2357 25.0022C28.1781 25.018 28.1096 25.0022 28.0741 24.947L27.9741 24.8131L27.3926 25.9634C27.3666 26.0107 27.3138 26.0422 27.2563 26.0422C27.198 26.0422 27.146 26.0107 27.1185 25.9555L26.8553 25.4355L26.3148 26.3889L26.303 26.2313L26.2794 25.9634L26.2683 25.8452L26.7332 25.0337C26.7647 24.9864 26.812 24.9549 26.8671 24.9549C26.9301 24.9549 26.9774 24.9864 27.0011 25.0416L27.2611 25.5379L27.7023 24.6634L27.5211 24.6713L27.5163 24.7012ZM25.2102 24.2797C25.2102 24.2797 25.1685 24.2222 25.1551 24.089C25.1275 23.8795 25.2914 23.6431 25.3497 23.6084C25.4647 24.0197 25.6601 24.16 25.668 24.1655C25.6758 24.171 25.6837 24.1718 25.6916 24.1678C25.6995 24.1623 25.7546 24.13 25.8255 23.963C25.8728 23.8495 25.8571 23.7187 25.8334 23.6399C25.9122 23.6998 26.0619 23.8243 26.0855 23.9866C26.1092 24.1915 26.1013 24.2309 26.0934 24.2569L26.0855 24.2726C26.0855 24.286 26.0855 24.2963 26.0934 24.3041C26.0934 24.312 26.1092 24.3152 26.1171 24.3152C26.1643 24.3152 26.3061 24.1812 26.3298 24.0315C26.3455 24.0496 26.3771 24.089 26.4007 24.1434C26.4165 24.1907 26.448 24.2931 26.4086 24.3876C26.3377 24.5373 26.2037 24.6476 26.1249 24.687H25.0298C24.8958 24.6319 24.754 24.427 24.7225 24.2852C24.6989 24.1986 24.6989 24.0883 24.7068 24.0095C24.7383 24.0567 24.7855 24.1276 24.8565 24.1907C24.9668 24.2931 25.0928 24.3089 25.148 24.3089H25.1716C25.1795 24.301 25.1874 24.301 25.1952 24.2852C25.1952 24.2773 25.1952 24.2695 25.1874 24.2616L25.2102 24.2797ZM23.9141 25.5695L24.1702 25.0652C24.197 25.0101 24.2466 24.9786 24.3041 24.9786C24.3593 24.9786 24.4121 25.0101 24.4381 25.0573L24.899 25.8689L24.8888 25.9792L24.8651 26.247L24.8517 26.4046L24.312 25.4513L24.0489 25.9634C24.0213 26.0107 23.9701 26.0422 23.9126 26.0422C23.8574 26.0422 23.8023 26.0107 23.7786 25.9555L23.1956 24.8052L23.1011 24.9392C23.0695 24.9864 22.9986 25.0101 22.9435 24.9864C22.8883 24.9628 22.8489 24.9076 22.8489 24.8446L22.8805 24.0567C22.8805 24.0489 22.8883 24.041 22.8883 24.0252C22.9041 23.9858 22.9277 23.9543 22.9671 23.9386C23.0144 23.9149 23.0774 23.9149 23.1168 23.9464L23.7629 24.4113C23.8101 24.4428 23.8338 24.5058 23.818 24.561C23.7944 24.6319 23.7471 24.6713 23.6762 24.6713L23.495 24.6634L23.9441 25.5379L23.9141 25.5695ZM22.7583 26.5386C22.7378 26.507 22.6985 26.4204 22.715 26.3652C22.7229 26.3495 22.7308 26.3337 22.7544 26.3258C22.8726 26.2707 23.0853 26.2392 23.0853 26.2392C23.1011 26.2313 23.1089 26.2234 23.1089 26.2076C23.1089 26.1919 23.1011 26.1761 23.0853 26.1761C22.975 26.1525 22.6677 26.0895 22.5968 26.0343C22.5101 25.9713 22.4314 25.8452 22.4077 25.7822L22.3841 25.6955C22.4865 25.7113 22.715 25.7586 22.7623 25.7586C22.8174 25.7586 22.8805 25.7349 22.912 25.727C22.9198 25.727 22.9198 25.7192 22.9277 25.7192C22.9435 25.7113 22.9435 25.6955 22.9356 25.6798C22.9277 25.664 22.912 25.664 22.9041 25.664C22.8962 25.664 22.8332 25.6719 22.6047 25.5379C22.4944 25.467 22.4077 25.4276 22.3368 25.3883C22.2423 25.341 22.1871 25.3095 22.1714 25.2779L22.1398 25.207C22.2265 25.2228 22.3998 25.2622 22.518 25.2622H22.7308C22.7465 25.2622 22.7544 25.2464 22.7544 25.2386C22.7544 25.2228 22.7465 25.207 22.7308 25.207C22.7308 25.207 22.4392 25.1598 22.2423 25.0258L22.1635 24.9707C21.998 24.8604 21.8956 24.7895 21.8483 24.6319C21.8247 24.5531 21.7538 24.3246 21.7774 24.301C21.7774 24.301 21.7932 24.301 21.8089 24.3167C21.9192 24.3798 22.4077 24.6634 22.7308 24.8289L22.7229 24.9549C22.7229 25.0573 22.778 25.1519 22.8805 25.1834C22.975 25.2149 23.0695 25.1834 23.1326 25.1125C23.3611 25.4198 23.7471 26.121 23.9756 26.5464C24.0623 26.704 24.1332 26.8301 24.1805 26.9089C24.3853 27.2634 24.6689 27.4604 24.7241 27.4919C24.7556 27.4998 24.7871 27.5707 24.7792 27.7046C24.7714 27.8307 24.7792 28.3034 24.7792 28.4058C24.7477 28.4137 24.6926 28.4373 24.6453 28.4295C24.6295 28.4216 24.6059 28.4216 24.5901 28.4216C24.5114 28.4216 24.4641 28.4137 24.4483 28.3664C24.4247 28.2955 24.4562 28.067 24.472 27.9883C24.4798 27.9804 24.472 27.9725 24.472 27.9646C24.4641 27.9489 24.4326 27.8937 24.3932 27.8937C24.3774 27.8937 24.3617 27.9016 24.3459 27.9252L24.338 27.9331C24.3065 27.9883 24.275 28.0355 24.3065 28.1537L24.3144 28.1773C24.338 28.2561 24.338 28.2561 24.2986 28.2955C24.2356 28.3507 24.1332 28.3664 24.0544 28.327C24.0308 28.3113 24.0071 28.3034 24.0071 28.2876C23.9992 28.264 24.015 28.2246 24.0386 28.1773C24.0859 28.0828 24.0701 27.9331 24.0701 27.9252C24.0701 27.9173 24.0701 27.9095 24.0623 27.9016H24.0386C24.0308 27.9095 23.9126 27.9646 23.8732 28.0355C23.8574 28.067 23.8574 28.1064 23.8495 28.1379C23.8495 28.1537 23.8495 28.1852 23.8417 28.1852C23.8101 28.1852 23.692 28.0986 23.6841 28.0434C23.6762 27.9961 23.7786 27.6495 23.8811 27.3422C23.8811 27.3264 23.8811 27.3107 23.8653 27.3107C23.8574 27.3028 23.8417 27.3028 23.8338 27.3107C23.8259 27.3186 23.7077 27.4367 23.6526 27.5943C23.6289 27.6652 23.6132 27.7361 23.6132 27.7913C23.6132 27.8149 23.6053 27.8464 23.5974 27.8622C23.5738 27.8543 23.5344 27.8386 23.4398 27.7204C23.3374 27.5707 23.298 27.4604 23.3138 27.4131C23.3295 27.3737 23.3926 27.3107 23.4477 27.2634L23.5344 27.1767C23.5974 27.1058 23.5974 27.0428 23.5974 27.0349C23.5974 27.027 23.5974 27.0192 23.5895 27.0192C23.5895 27.0113 23.5817 27.0034 23.5738 27.0034C23.5659 27.0113 23.4162 27.0192 23.298 27.0901C23.2586 27.1137 23.2114 27.1452 23.1877 27.1452C23.1798 27.1452 23.172 27.1373 23.1562 27.1137C23.1483 27.0901 23.1247 27.0586 23.1011 27.0349C23.0695 26.9955 23.038 26.9483 23.0301 26.901C23.0223 26.8695 23.038 26.8458 23.0459 26.8458C23.1247 26.8064 23.4083 26.7198 23.4083 26.7198C23.4241 26.7119 23.432 26.704 23.432 26.6883C23.432 26.6725 23.4241 26.6646 23.4083 26.6646C23.4083 26.6646 23.3138 26.6567 23.1956 26.6331C23.0932 26.6095 22.912 26.4834 22.8868 26.4676L22.7583 26.5386ZM2.72021 5.4951C3.12991 5.84965 4.28809 6.73995 5.54081 6.75413H5.63221V4.2014H4.3716V2.98019H5.63221V1.72274H6.84554V2.97704H8.07463V4.19825H6.85421V6.75571L6.94875 6.75413C8.19203 6.73207 9.33603 5.85201 9.74572 5.49983V8.95468C9.33603 8.60801 8.19203 7.72558 6.94875 7.70195H6.85421V10.4438H8.11009V11.665H6.85263V13.1462H5.63142V11.665H4.40233V10.4438H5.633V7.70116L5.54081 7.70352C4.28809 7.71771 3.12991 8.60722 2.72021 8.95625V5.50298V5.4951ZM21.3039 0.310857H0.503906V22.2139C0.503906 24.0788 1.25003 25.9169 2.06391 27.6581C3.33712 30.3881 6.05294 33.8493 9.09809 36.0806C9.299 36.2271 9.50148 36.3681 9.70318 36.506C9.77251 36.5533 9.84106 36.595 9.9096 36.6399C10.042 36.7266 10.1743 36.8133 10.3059 36.8968C10.3926 36.9496 10.4714 36.9976 10.558 37.0465C10.6762 37.1198 10.7944 37.1883 10.9126 37.2569L11.1726 37.4034L11.5035 37.5846C11.5901 37.6319 11.6768 37.6713 11.7635 37.7186C11.8738 37.7737 11.9762 37.821 12.0786 37.8761L12.3386 38.0022L12.6459 38.144L12.8901 38.2543L13.3865 38.467C15.0489 39.1604 16.3332 39.4283 16.6956 39.4283H16.7035C17.0895 39.4204 18.5392 39.1052 20.3829 38.2937C20.5089 38.2386 20.6429 38.1755 20.7689 38.1204L20.9029 38.0573L21.2653 37.884L21.4544 37.7895C21.5962 37.7186 21.738 37.6398 21.8877 37.5689C22.0295 37.4901 22.1635 37.4192 22.3053 37.3404L22.5417 37.1986L22.8962 36.9858L23.1247 36.844C23.2586 36.7652 23.3847 36.6786 23.5108 36.5919C23.5817 36.5525 23.6447 36.5052 23.7077 36.4658C23.9047 36.3319 24.1017 36.198 24.2908 36.0561C27.3398 33.8264 30.0501 30.3676 31.3265 27.6337C32.138 25.8925 32.8865 24.0567 32.8865 22.1895V0.310857H21.3039ZM40.7645 13.6693V0.309282H42.7894V11.8454H49.224V13.6654H40.7645M55.8091 6.29322C55.4521 5.93631 54.966 5.74958 54.4019 5.74958C53.8378 5.74958 53.3698 5.93631 53.0074 6.29322C52.4243 6.87468 52.3455 7.86898 52.3455 8.9011C52.3455 9.93322 52.4165 10.9259 52.9995 11.509C53.354 11.8635 53.8268 12.0715 54.3861 12.0715C54.9455 12.0715 55.434 11.8643 55.7886 11.5082C56.3716 10.9267 56.4425 9.93243 56.4425 8.90031C56.4425 7.86819 56.3637 6.87546 55.7807 6.29243L55.8091 6.29322ZM57.254 12.653C56.6316 13.2912 55.694 13.7781 54.4019 13.7781C53.1019 13.7781 52.188 13.2896 51.5655 12.653C50.6674 11.7154 50.4389 10.5139 50.4389 8.90031C50.4389 7.30643 50.6595 6.10571 51.5655 5.16734C52.1801 4.52916 53.1019 4.04225 54.394 4.04225C55.6861 4.04225 56.6237 4.52916 57.2462 5.16734C58.1443 6.10492 58.3649 7.30643 58.3649 8.90031C58.3649 10.5139 58.1365 11.7154 57.2383 12.653H57.254ZM66.291 13.6654V12.7089C65.6292 13.4219 64.7152 13.7781 63.754 13.7781C62.7771 13.7781 61.9655 13.4598 61.4061 12.9161C60.6734 12.1992 60.4449 11.301 60.4449 10.2295V4.15571H62.3516V9.95292C62.3516 11.4357 63.1946 12.0723 64.2661 12.0723C65.3298 12.0723 66.2358 11.416 66.2358 9.95292V4.15413H68.1504V13.6654H66.2752M74.21 5.7488C72.4845 5.7488 72.26 7.23001 72.26 8.73171C72.26 10.2334 72.4845 11.7154 74.2108 11.7154C75.9362 11.7154 76.1489 10.2342 76.1489 8.73171C76.1489 7.2308 75.9441 5.7488 74.2186 5.7488H74.21ZM73.9854 17.6245C72.5412 17.6245 71.6218 17.2857 70.6275 16.3678L71.8471 15.1482C72.4538 15.7107 72.9738 15.9912 73.9114 15.9912C75.5265 15.9912 76.1489 14.8488 76.1489 13.5724V12.3528C75.4556 13.1785 74.6677 13.4401 73.6908 13.4401C72.7374 13.4401 71.9495 13.1218 71.4217 12.597C70.4998 11.6776 70.358 10.3453 70.358 8.73171C70.358 7.11892 70.5077 5.78662 71.4295 4.86716C71.9574 4.34165 72.7611 4.04225 73.7223 4.04225C74.7386 4.04225 75.5108 4.30383 76.2198 5.16734V4.15413H78.0792V13.6103C78.0792 15.9369 76.5429 17.6245 74.0059 17.6245H73.9854ZM86.4796 13.6654V7.86898C86.4796 6.38777 85.6366 5.74958 84.5666 5.74958C83.4975 5.74958 82.5954 6.40668 82.5954 7.86898V13.6678H80.6824V0.306918H82.5954V5.11062C83.2351 4.3968 84.116 4.04146 85.0914 4.04146C86.0683 4.04146 86.8798 4.35977 87.4392 4.9034C88.172 5.61249 88.4005 6.51855 88.4005 7.58219V13.6567H86.4859M94.8374 5.73855C93.0962 5.73855 92.852 7.20401 92.852 8.89007C92.852 10.5761 93.0962 12.0573 94.8453 12.0573C96.5708 12.0573 96.815 10.5761 96.815 8.88219C96.815 7.19613 96.5708 5.73068 94.8453 5.73068L94.8374 5.73855ZM97.6501 12.924C97.1301 13.4519 96.2871 13.767 95.3259 13.767C94.3174 13.767 93.5295 13.507 92.8126 12.6404V13.6489H90.9295V0.302979H92.8441V5.10904C93.5374 4.28177 94.3253 4.03752 95.3417 4.03752C96.3029 4.03752 97.1301 4.35898 97.6501 4.88055C98.572 5.81813 98.7217 7.33874 98.7217 8.89874C98.7217 10.4745 98.572 11.9951 97.6501 12.9327V12.924ZM105.805 6.29007C105.45 5.93552 104.962 5.74643 104.402 5.74643C103.843 5.74643 103.37 5.93552 103.016 6.29007C102.433 6.8731 102.362 7.86583 102.362 8.89795C102.362 9.93007 102.44 10.9228 103.016 11.5058C103.378 11.8604 103.843 12.0652 104.41 12.0652C104.977 12.0652 105.466 11.8525 105.82 11.4979C106.396 10.9228 106.474 9.92219 106.474 8.89007C106.474 7.85795 106.396 6.86522 105.813 6.28219L105.805 6.29007ZM107.254 12.6483C106.64 13.2864 105.702 13.7749 104.402 13.7749C103.11 13.7749 102.188 13.2864 101.574 12.6483C100.676 11.7107 100.447 10.5052 100.447 8.89007C100.447 7.29855 100.676 6.10098 101.574 5.1634C102.196 4.52522 103.11 4.03674 104.41 4.03674C105.71 4.03674 106.648 4.52522 107.262 5.1634C108.168 6.10098 108.389 7.29855 108.389 8.89007C108.389 10.5052 108.168 11.7028 107.262 12.6404L107.254 12.6483ZM115.787 6.38461C115.354 5.95128 115.023 5.74643 114.361 5.74643C113.329 5.74643 112.47 6.57371 112.47 7.88159V13.6567H110.556V4.15571H112.431V5.18783C112.919 4.51261 113.896 4.04383 114.968 4.04383C115.89 4.04383 116.583 4.28807 117.237 4.94358L115.795 6.38855M123.303 6.29401C122.949 5.93631 122.46 5.75037 121.901 5.75037C121.342 5.75037 120.869 5.93631 120.514 6.29401C119.931 6.87468 119.86 7.86977 119.86 8.90189C119.86 9.93401 119.939 10.9267 120.522 11.5098C120.877 11.8643 121.35 12.0715 121.909 12.0715C122.476 12.0715 122.957 11.8643 123.319 11.5082C123.902 10.9267 123.981 9.93243 123.981 8.90031C123.981 7.86819 123.91 6.87546 123.327 6.29243L123.303 6.29401ZM124.753 12.6522C124.131 13.2904 123.193 13.7789 121.901 13.7789C120.609 13.7789 119.687 13.2904 119.073 12.6522C118.174 11.7146 117.946 10.5139 117.946 8.90031C117.946 7.30643 118.174 6.10571 119.073 5.16734C119.695 4.52916 120.617 4.04225 121.909 4.04225C123.201 4.04225 124.147 4.52916 124.761 5.16734C125.659 6.10492 125.888 7.30643 125.888 8.90031C125.888 10.5139 125.659 11.7154 124.761 12.653L124.753 12.6522ZM133.79 13.6654V12.7089C133.136 13.4219 132.214 13.7781 131.261 13.7781C130.284 13.7781 129.48 13.4598 128.921 12.9161C128.196 12.1992 127.968 11.301 127.968 10.2295V4.15571H129.882V9.95292C129.882 11.4357 130.733 12.0723 131.797 12.0723C132.868 12.0723 133.766 11.416 133.766 9.95292V4.15413H135.681V13.6654H133.806M141.716 5.7488C139.991 5.7488 139.77 7.23001 139.77 8.73171C139.77 10.2334 139.999 11.7154 141.724 11.7154C143.45 11.7154 143.654 10.2342 143.654 8.73171C143.654 7.2308 143.45 5.7488 141.716 5.7488ZM141.496 17.6245C140.054 17.6245 139.132 17.2857 138.139 16.3678L139.36 15.1482C139.959 15.7107 140.487 15.9912 141.425 15.9912C143.04 15.9912 143.662 14.8488 143.662 13.5724V12.3528C142.969 13.1785 142.181 13.4401 141.204 13.4401C140.251 13.4401 139.463 13.1218 138.935 12.597C138.013 11.6776 137.863 10.3453 137.863 8.73171C137.863 7.11892 138.013 5.78662 138.935 4.86716C139.463 4.34165 140.266 4.04225 141.228 4.04225C142.244 4.04225 143.008 4.30383 143.725 5.16734V4.15413H145.585V13.6103C145.585 15.9369 144.048 17.6245 141.519 17.6245H141.496ZM153.983 13.6654V7.86898C153.983 6.38777 153.14 5.74958 152.077 5.74958C151.013 5.74958 150.107 6.40668 150.107 7.86898V13.6678H148.193V0.306918H150.107V5.11062C150.745 4.3968 151.628 4.04146 152.605 4.04146C153.582 4.04146 154.393 4.35977 154.953 4.9034C155.685 5.61249 155.914 6.51855 155.914 7.58219V13.6567H153.999M45.5469 32.5351C42.8272 32.5351 40.7645 30.6796 40.7645 27.9213V19.0655H42.7894V27.8267C42.7894 29.6097 43.8766 30.7167 45.5469 30.7167C47.2172 30.7167 48.3234 29.6097 48.3234 27.8275V19.0663H50.3498V27.9221C50.3498 30.6796 48.2675 32.5351 45.5469 32.5351ZM58.7912 32.4256V26.6347C58.7912 25.1535 57.9466 24.5153 56.8782 24.5153C55.8091 24.5153 54.9085 25.1771 54.9085 26.6347V32.4335H52.994V22.9151H54.8715V23.8716C55.5278 23.1586 56.4472 22.8016 57.4037 22.8016C58.3728 22.8016 59.1843 23.1199 59.7437 23.6652C60.4765 24.3774 60.6971 25.2779 60.6971 26.3471V32.4264H58.7833M63.2317 32.4264H65.1462V22.9151H63.2317V32.4248V32.4264ZM63.1765 21.0376H65.2014V19.0127H63.1765V21.0376ZM71.4492 32.4264H69.8924L66.4052 22.9151H68.4348L70.6803 29.6121L72.9131 22.9151H74.938L71.4477 32.4264M81.6176 25.5978C81.2993 24.884 80.6422 24.3963 79.7425 24.3963C78.8222 24.3963 78.1667 24.8848 77.8468 25.5978C77.6577 26.0099 77.6207 26.3101 77.6026 26.8915H81.8808C81.8429 26.3101 81.8051 26.0091 81.6176 25.5978ZM77.6034 28.2238C77.6034 29.8744 78.4464 30.8869 80.0221 30.8869C81.0937 30.8869 81.6554 30.5875 82.3306 29.9115L83.5518 31.057C82.5765 32.0316 81.657 32.5383 79.9875 32.5383C77.6049 32.5383 75.7093 31.2824 75.7093 27.6613C75.7093 24.5649 77.3048 22.8016 79.7432 22.8016C82.296 22.8016 83.7772 24.6406 83.7772 27.4163V28.2238H77.6057H77.6034ZM91.1289 25.1464C90.6971 24.7154 90.3599 24.5082 89.7028 24.5082C88.6707 24.5082 87.808 25.3355 87.808 26.6473V32.4264H85.8934V22.9151H87.7686V23.9472C88.2571 23.2696 89.234 22.8016 90.2977 22.8016C91.2116 22.8016 91.9128 23.0459 92.5667 23.7022L91.1171 25.144M96.7819 32.5343C95.2219 32.5343 93.914 32.2664 92.7874 31.1634L94.0401 29.9028C94.8122 30.6907 95.8364 30.8955 96.7819 30.8955C97.9637 30.8955 98.8619 30.4779 98.8619 29.5798C98.8619 28.9179 98.5074 28.5476 97.5855 28.4531L96.0649 28.3192C94.2607 28.1458 93.2522 27.3579 93.2522 25.6955C93.2522 23.8204 94.8437 22.7883 96.8292 22.7883C98.271 22.7883 99.4686 23.0876 100.351 23.8519L99.1455 25.0652C98.5468 24.5531 97.7037 24.3719 96.7977 24.3719C95.6316 24.3719 95.0722 24.8604 95.0722 25.5931C95.0722 26.247 95.4504 26.5858 96.388 26.6804L97.7195 26.7907C99.6892 26.9561 100.721 27.8228 100.721 29.4931C100.721 31.4786 99.0352 32.5107 96.7661 32.5107M102.636 32.3925H104.55V22.9151H102.636V32.4248V32.3925ZM102.581 20.9998H104.606V18.9757H102.581V21.0006V20.9998ZM110.002 32.3925C108.214 32.3925 107.395 31.1161 107.395 29.7452V24.3404H106.307V22.9151H107.395V20.1946H109.309V22.9151H111.145V24.3774H109.309V29.6877C109.309 30.381 109.648 30.7939 110.357 30.7939H111.145V32.4264H110.002M116.156 34.3212C115.967 34.8467 115.746 35.2218 115.463 35.503C114.935 36.0278 114.241 36.1964 113.509 36.1964H112.736V34.4709H113.225C114.036 34.4709 114.312 34.2267 114.596 33.4585L115.124 31.9757L111.807 22.9151H113.832L116.101 29.6121L118.315 22.9151H120.355L116.148 34.3212" fill="black"/>
</g>
<defs>
<clipPath id="clip0_735_42893">
<rect width="156" height="40" fill="white" transform="translate(0.0078125)"/>
</clipPath>
</defs>
</svg>
