<svg xmlns="http://www.w3.org/2000/svg" width="163" height="48" viewBox="0 0 163 48" fill="none">
<g clip-path="url(#clip0_725_147259)">
<g clip-path="url(#clip1_725_147259)">
<path d="M20.0685 17.503C20.0685 16.7515 19.8284 16.1697 19.2762 15.8303C18.9401 15.6363 18.2678 15.5636 17.6916 15.5636H13.5859V23.9272H18.0517C19.0841 23.9272 19.9004 24.1697 19.9725 25.0909H20.0685V17.503Z" fill="white"/>
<path d="M20.0685 17.503C20.0685 16.7515 19.8284 16.1697 19.2762 15.8303C18.9401 15.6363 18.2678 15.5636 17.6916 15.5636H13.5859V23.9272H18.0517C19.0841 23.9272 19.9004 24.1697 19.9725 25.0909H20.0685V17.503Z" stroke="#6B7280" stroke-width="1.057" stroke-miterlimit="3.8637"/>
<path d="M20.0684 17.503C20.0684 16.7515 20.3085 16.1697 20.8607 15.8303C21.1968 15.6363 22.0131 15.5636 22.5653 15.5636H26.695V23.9272H22.2052C21.1728 23.9272 20.2124 24.1697 20.1644 25.0909H20.0684V17.503Z" fill="white"/>
<path d="M20.0684 17.503C20.0684 16.7515 20.3085 16.1697 20.8607 15.8303C21.1968 15.6363 22.0131 15.5636 22.5653 15.5636H26.695V23.9272H22.2052C21.1728 23.9272 20.2124 24.1697 20.1644 25.0909H20.0684V17.503Z" stroke="#6B7280" stroke-width="1.057" stroke-miterlimit="3.8637"/>
<path d="M27.5589 16.194V25.0425H21.2204L21.1483 25.2364C21.0283 25.5031 20.8362 25.7697 20.1399 25.7697C19.4437 25.7697 19.2516 25.5031 19.1315 25.2364L19.0595 25.0425H12.721V16.194H12.1448V16.4606L11.5926 16.291C11.5205 16.0728 11.3284 15.9031 11.0884 15.9031C10.8002 15.9031 10.5601 16.1455 10.5601 16.4364C10.5601 16.7273 10.8002 16.9697 11.0884 16.9697C11.2084 16.9697 11.3284 16.9213 11.4245 16.8485L12.1448 17.0667V17.7697L11.5926 17.6728C11.5205 17.4788 11.3284 17.3576 11.1124 17.3576C10.8242 17.3576 10.5842 17.6 10.5842 17.891C10.5842 18.1819 10.8242 18.4243 11.1124 18.4243C11.2564 18.4243 11.4005 18.3516 11.4965 18.2546L12.1448 18.3758V19.1031L11.5926 19.0788C11.4965 18.9334 11.3284 18.8122 11.1364 18.8122C10.8483 18.8122 10.6082 19.0546 10.6082 19.3455C10.6082 19.6364 10.8483 19.8788 11.1364 19.8788C11.3044 19.8788 11.4725 19.7819 11.5685 19.6607L12.1448 19.6849V20.4606L11.5685 20.4849C11.4725 20.3394 11.3284 20.2667 11.1364 20.2667C10.8483 20.2667 10.6082 20.5091 10.6082 20.8C10.6082 21.091 10.8483 21.3334 11.1364 21.3334C11.3284 21.3334 11.4965 21.2364 11.5685 21.091L12.1208 21.0667V21.794L11.4965 21.891C11.4005 21.794 11.2564 21.7213 11.1124 21.7213C10.8242 21.7213 10.5842 21.9637 10.5842 22.2546C10.5842 22.5455 10.8242 22.7879 11.1124 22.7879C11.3284 22.7879 11.5205 22.6667 11.5926 22.4728L12.1208 22.3758V23.0788L11.4245 23.297C11.3284 23.2243 11.2084 23.1758 11.0884 23.1758C10.8002 23.1758 10.5601 23.4182 10.5601 23.7091C10.5601 24 10.8002 24.2425 11.0884 24.2425C11.3284 24.2425 11.5205 24.0728 11.5926 23.8546L12.1208 23.6849V24.3637L11.3525 24.7031C11.2804 24.6546 11.1844 24.6061 11.0643 24.6061C10.7762 24.6061 10.5361 24.8485 10.5361 25.1394C10.5361 25.4304 10.7762 25.6728 11.0643 25.6728C11.3284 25.6728 11.5445 25.4788 11.5685 25.2364L12.0967 24.994V25.6243H18.7234C18.9875 26.0849 19.4437 26.3273 20.1399 26.3273C20.8362 26.3273 21.2924 26.0849 21.5565 25.6243H28.1111V16.194H27.5589Z" fill="#6B7280"/>
<path d="M15.8189 13.2606C14.4984 13.2606 13.418 13.4788 13.418 13.7212C13.418 13.9879 14.4984 14.1818 15.8189 14.1818C17.1394 14.1818 18.2199 13.9636 18.2199 13.7212C18.2199 13.4546 17.1635 13.2606 15.8189 13.2606Z" fill="#6B7280"/>
<path d="M19.132 10.3515L17.7395 11.3454L17.7154 11.4424L18.0516 11.5879C18.1236 11.6121 18.1236 11.6848 18.0756 11.7091L17.2112 12.4606H17.1392L16.515 11.5394C16.467 11.4909 16.491 11.4182 16.563 11.4182L16.9711 11.3454V11.2485L15.8907 9.72119H15.7227L14.6422 11.2485V11.3454L15.0504 11.4182C15.1224 11.4424 15.1464 11.4909 15.0984 11.5394L14.4742 12.4606H14.4021L13.5858 11.7091C13.5618 11.6848 13.5618 11.6363 13.6098 11.5879L13.946 11.4424L13.9219 11.3454L12.4814 10.3515L12.3613 10.4L13.2017 13.0182C13.6338 12.8242 14.6182 12.6788 15.7707 12.6788C16.9231 12.6788 17.9075 12.8242 18.3397 13.0182L19.18 10.4L19.132 10.3515Z" fill="#6B7280"/>
<path d="M20.1402 30.7637C18.8197 30.7637 17.7393 30.9819 17.7393 31.2243C17.7393 31.4909 18.8197 31.6849 20.1402 31.6849C21.4607 31.6849 22.5412 31.4667 22.5412 31.2243C22.5171 30.9819 21.4607 30.7637 20.1402 30.7637Z" fill="#6B7280"/>
<path d="M23.4297 27.8545L22.0371 28.8485V28.9455L22.3733 29.0909C22.4453 29.1152 22.4453 29.1879 22.3973 29.2121L21.5329 29.9636H21.4609L20.8367 29.0424C20.7886 28.9939 20.8127 28.9212 20.8847 28.9212L21.2928 28.8485V28.7515L20.2124 27.2242H20.0444L18.9639 28.7515V28.8485L19.3721 28.9212C19.4441 28.9455 19.4681 28.9939 19.4201 29.0424L18.7959 29.9636H18.7238L17.9075 29.2121C17.8835 29.1879 17.8835 29.1152 17.9315 29.0909L18.2677 28.9455V28.8485L16.8271 27.8545L16.707 27.903L17.5474 30.5212C17.9795 30.3273 18.9639 30.1818 20.1164 30.1818C21.2688 30.1818 22.2532 30.3273 22.6854 30.5212L23.5257 27.903L23.4297 27.8545Z" fill="#6B7280"/>
<path d="M24.4136 13.2606C23.0931 13.2606 22.0127 13.4788 22.0127 13.7212C22.0127 13.9879 23.0931 14.1818 24.4136 14.1818C25.7342 14.1818 26.8146 13.9636 26.8146 13.7212C26.8146 13.4546 25.7342 13.2606 24.4136 13.2606Z" fill="#6B7280"/>
<path d="M27.7267 10.3515L26.3342 11.3454L26.3102 11.4424L26.6463 11.5879C26.7183 11.6121 26.7183 11.6848 26.6703 11.7091L25.806 12.4606H25.7339L25.1097 11.5394C25.0617 11.4909 25.0857 11.4182 25.1577 11.4182L25.5659 11.3454V11.2485L24.4854 9.72119H24.3174L23.237 11.2485V11.3454L23.6451 11.4182C23.7171 11.4424 23.7412 11.4909 23.6931 11.5394L23.0689 12.4606H22.9969L22.1805 11.7091C22.1565 11.6848 22.1565 11.6363 22.2045 11.5879L22.5407 11.4424L22.5167 11.3454L21.0761 10.3515L20.9561 10.4L21.7964 13.0182C22.2286 12.8242 23.2129 12.6788 24.3654 12.6788C25.5179 12.6788 26.5022 12.8242 26.9344 13.0182L27.7747 10.4L27.7267 10.3515Z" fill="#6B7280"/>
<path d="M14.7378 16.9213C14.9539 16.9213 15.1459 16.9698 15.266 17.091C15.362 17.1637 15.434 17.3091 15.434 17.4788C15.434 17.9395 15.0979 18.1334 14.6657 18.1334H14.1855V18.0607C14.3296 18.0607 14.3296 18.0364 14.3296 17.8425V17.2122C14.3296 17.0182 14.3056 16.994 14.1855 16.994V16.9213H14.7378ZM14.6657 17.8182C14.6657 17.9879 14.7138 18.0122 14.7858 18.0122C14.9539 18.0122 15.0979 17.8425 15.0979 17.5031C15.0979 17.1152 14.9058 16.994 14.7378 16.994C14.6897 16.994 14.6657 16.994 14.6657 17.0182C14.6657 17.0182 14.6657 17.0667 14.6657 17.1152V17.8182Z" fill="#6B7280"/>
<path d="M16.827 17.503C16.827 17.8909 16.5629 18.1333 16.2028 18.1333C15.8426 18.1333 15.6025 17.8666 15.6025 17.5272C15.6025 17.2363 15.7946 16.8727 16.2268 16.8727C16.5629 16.8727 16.827 17.1393 16.827 17.503ZM15.9387 17.4545C15.9387 17.7939 16.0587 18.0363 16.2508 18.0363C16.4189 18.0363 16.4909 17.8909 16.4909 17.5515C16.4909 17.1878 16.3708 16.9696 16.2028 16.9696C16.0587 16.9696 15.9387 17.1393 15.9387 17.4545Z" fill="#6B7280"/>
<path d="M18.4355 16.9213V16.994C18.2914 17.0182 18.2914 17.0182 18.2914 17.2122L18.3154 17.8182C18.3154 18.0122 18.3154 18.0364 18.4595 18.0364V18.1092H17.8832V18.0364C18.0273 18.0122 18.0273 18.0122 18.0273 17.8182V17.1637L17.6671 18.0849H17.5711L17.235 17.2364L17.211 17.6485C17.211 17.8182 17.211 17.891 17.211 17.9637C17.211 18.0364 17.259 18.0607 17.379 18.0607V18.1334H16.9229V18.0607C17.0189 18.0607 17.0429 18.0364 17.0669 17.9637C17.0669 17.9152 17.0909 17.8182 17.0909 17.6485L17.1149 17.2849C17.1389 17.0425 17.1149 17.0425 16.9709 17.0182V16.9455H17.403L17.7152 17.6728L18.0033 16.9455H18.4355V16.9213Z" fill="#6B7280"/>
<path d="M19.0353 17.8182C19.0353 18.0122 19.0593 18.0364 19.1793 18.0364V18.1091H18.5791V18.0364C18.6991 18.0364 18.7232 18.0122 18.7232 17.8182V17.2122C18.7232 17.0182 18.6991 16.994 18.5791 16.994V16.9213H19.1793V16.994C19.0593 16.994 19.0353 17.0182 19.0353 17.2122V17.8182Z" fill="#6B7280"/>
<path d="M16.0825 20.3394H15.9145L15.2422 19.4667V19.8061C15.2422 20.0001 15.2422 20.097 15.2662 20.1697C15.2662 20.2425 15.3142 20.2667 15.4343 20.2667V20.3394H14.9781V20.2667C15.0501 20.2667 15.0982 20.2425 15.1222 20.1697C15.1222 20.1213 15.1462 20.0001 15.1462 19.8061V19.4667C15.1462 19.3213 15.1462 19.297 15.0982 19.2485C15.0741 19.2 15.0261 19.2001 14.9541 19.2001V19.1273H15.3623L15.9625 19.9031V19.6607C15.9625 19.4667 15.9625 19.3697 15.9385 19.297C15.9385 19.2243 15.8905 19.2001 15.7704 19.2001V19.1273H16.2266V19.2001C16.1306 19.2001 16.0825 19.2243 16.0825 19.297C16.0825 19.3455 16.0585 19.4667 16.0585 19.6607V20.3394H16.0825Z" fill="#6B7280"/>
<path d="M16.8266 20.3394C16.7066 20 16.5385 19.5637 16.4665 19.3697C16.3945 19.2243 16.3705 19.2001 16.2744 19.2001V19.1273H16.8747V19.2001H16.8026C16.7306 19.2001 16.7306 19.2243 16.7546 19.297C16.7786 19.394 16.9227 19.7576 16.9947 19.9516C17.0427 19.8061 17.1628 19.4425 17.1868 19.3455C17.2348 19.2243 17.2108 19.2243 17.1388 19.2001H17.0907V19.1273H17.5229V19.2001C17.4269 19.2243 17.4029 19.2243 17.3308 19.394C17.3308 19.4182 17.0907 19.9758 16.9707 20.3394H16.8266Z" fill="#6B7280"/>
<path d="M17.6427 19.9515C17.6908 20.0484 17.7868 20.2666 17.9789 20.2666C18.0749 20.2666 18.1469 20.1939 18.1469 20.0727C18.1469 19.9757 18.0749 19.903 17.9549 19.8545L17.9309 19.8302C17.7868 19.7575 17.6187 19.6605 17.6187 19.4666C17.6187 19.2484 17.7628 19.0787 18.0509 19.0787C18.0989 19.0787 18.171 19.0787 18.219 19.103C18.267 19.103 18.291 19.1272 18.315 19.1272C18.315 19.1999 18.339 19.2969 18.363 19.4181L18.291 19.4424C18.243 19.3212 18.195 19.1999 18.0509 19.1999C17.9549 19.1999 17.8828 19.2727 17.8828 19.3696C17.8828 19.4666 17.9549 19.5151 18.0749 19.5636L18.1229 19.5878C18.291 19.6605 18.4351 19.7575 18.4351 19.9757C18.4351 20.1939 18.243 20.3636 17.9789 20.3636C17.9068 20.3636 17.8348 20.3393 17.7868 20.3393C17.7388 20.3151 17.6908 20.3151 17.6668 20.2909C17.6427 20.1939 17.6187 20.0969 17.5947 19.9757L17.6427 19.9515Z" fill="#6B7280"/>
<path d="M15.2667 22.2303C15.2667 22.4243 15.2907 22.4485 15.4108 22.4485V22.5213H14.8105V22.4485C14.9306 22.4485 14.9546 22.4243 14.9546 22.2303V21.6243C14.9546 21.4303 14.9306 21.4061 14.8105 21.4061V21.3334H15.4108V21.4061C15.2907 21.4061 15.2667 21.4303 15.2667 21.6243V22.2303Z" fill="#6B7280"/>
<path d="M15.987 22.2546C15.987 22.3516 15.987 22.4 16.035 22.4243C16.0591 22.4485 16.1071 22.4485 16.1551 22.4485C16.2031 22.4485 16.2991 22.4485 16.3232 22.4C16.3472 22.3758 16.3952 22.3273 16.4192 22.2061L16.4912 22.2303C16.4912 22.3031 16.4432 22.497 16.4192 22.5455H15.5068V22.4728C15.6509 22.4728 15.6509 22.4485 15.6509 22.2546V21.6485C15.6509 21.4546 15.6269 21.4303 15.5068 21.4303V21.3334H16.1071V21.4061C15.987 21.4061 15.963 21.4303 15.963 21.6243V22.2546H15.987Z" fill="#6B7280"/>
<path d="M17.0187 22.2546C17.0187 22.3516 17.0187 22.4 17.0667 22.4243C17.0907 22.4485 17.1387 22.4485 17.1867 22.4485C17.2348 22.4485 17.3308 22.4485 17.3548 22.4C17.3788 22.3758 17.4268 22.3273 17.4509 22.2061L17.5229 22.2303C17.5229 22.3031 17.4749 22.497 17.4509 22.5455H16.5625V22.4728C16.7066 22.4728 16.7066 22.4485 16.7066 22.2546V21.6485C16.7066 21.4546 16.6825 21.4303 16.5625 21.4303V21.3334H17.1627V21.4061C17.0427 21.4061 17.0187 21.4303 17.0187 21.6243V22.2546Z" fill="#6B7280"/>
<path d="M17.8833 22.5455C17.7632 22.2061 17.5952 21.7697 17.5231 21.5758C17.4511 21.4303 17.4271 21.4061 17.3311 21.4061V21.3334H17.9313V21.4061H17.8593C17.7872 21.4061 17.7872 21.4303 17.8112 21.5031C17.8353 21.6 17.9793 21.9637 18.0513 22.1576C18.0994 22.0122 18.2194 21.6485 18.2434 21.5516C18.2914 21.4303 18.2674 21.4303 18.1954 21.4061H18.1474V21.3334H18.5795V21.4061C18.4835 21.4303 18.4595 21.4303 18.3875 21.6C18.3875 21.6243 18.1474 22.1819 18.0273 22.5455H17.8833Z" fill="#6B7280"/>
<path d="M22.5888 16.9213V16.994C22.4447 17.0182 22.4447 17.0182 22.4447 17.2122L22.4687 17.8182C22.4687 18.0122 22.4687 18.0364 22.6128 18.0364V18.1092H22.0366V18.0364C22.1806 18.0122 22.1806 18.0122 22.1806 17.8182V17.1637L21.8205 18.0849H21.7244L21.3883 17.2364L21.3643 17.6485C21.3643 17.8182 21.3643 17.891 21.3643 17.9637C21.3643 18.0364 21.4123 18.0607 21.5324 18.0607V18.1334H21.0762V18.0607C21.1722 18.0607 21.1962 18.0364 21.2202 17.9637C21.2202 17.9152 21.2442 17.8182 21.2442 17.6485L21.2682 17.2849C21.2923 17.0425 21.2682 17.0425 21.1242 17.0182V16.9455H21.5564L21.8685 17.6728L22.1566 16.9455H22.5888V16.9213Z" fill="#6B7280"/>
<path d="M23.1896 17.8182C23.1896 18.0122 23.2136 18.0364 23.3336 18.0364V18.1091H22.7334V18.0364C22.8534 18.0364 22.8775 18.0122 22.8775 17.8182V17.2122C22.8775 17.0182 22.8534 16.994 22.7334 16.994V16.9213H23.3336V16.994C23.2136 16.994 23.1896 17.0182 23.1896 17.2122V17.8182Z" fill="#6B7280"/>
<path d="M24.5337 18.1334H24.3657L23.6934 17.2607V17.6001C23.6934 17.794 23.6934 17.891 23.7174 17.9637C23.7174 18.0364 23.7654 18.0607 23.8855 18.0607V18.1334H23.4293V18.0607C23.5013 18.0607 23.5493 18.0364 23.5733 17.9637C23.5733 17.9152 23.5974 17.8182 23.5974 17.6001V17.2607C23.5974 17.1152 23.5974 17.091 23.5493 17.0425C23.5253 16.994 23.4773 16.994 23.4053 16.994V16.9213H23.8134L24.4137 17.697V17.4546C24.4137 17.2607 24.4137 17.1637 24.3897 17.091C24.3897 17.0182 24.3416 16.994 24.1976 16.994V16.9213H24.6538V16.994C24.5577 16.994 24.5097 17.0182 24.5097 17.091C24.5097 17.1394 24.4857 17.2607 24.4857 17.4546V18.1334H24.5337Z" fill="#6B7280"/>
<path d="M25.3021 18.0363H25.3502C25.4222 18.0363 25.4222 18.0121 25.3982 17.9393L25.3262 17.7454H25.014L24.966 17.9151C24.942 17.9878 24.942 18.0121 25.014 18.0121H25.0621V18.0848H24.6299V18.0121C24.7259 17.9878 24.7499 17.9878 24.822 17.8424L25.1821 16.8969L25.3021 16.8727L25.4222 17.2121C25.4942 17.4303 25.5903 17.6484 25.6383 17.8424C25.6863 18.0121 25.7343 18.0121 25.8304 18.0363V18.109H25.2541V18.0363H25.3021ZM25.0621 17.6484H25.3021L25.1821 17.2848L25.0621 17.6484Z" fill="#6B7280"/>
<path d="M22.5648 20.0243C22.5648 20.2182 22.5889 20.2424 22.7329 20.2424V20.3152H22.0847V20.2424C22.2287 20.2424 22.2527 20.2182 22.2527 20.0243V19.2243H22.2287C22.1087 19.2243 22.0606 19.2485 22.0366 19.2727C22.0126 19.297 21.9886 19.3455 21.9646 19.4424H21.8926C21.8926 19.297 21.9166 19.1515 21.9166 19.0546H21.9646C21.9886 19.1031 22.0126 19.103 22.0606 19.103H22.7809C22.8289 19.103 22.8289 19.1031 22.877 19.0546H22.925C22.925 19.1273 22.925 19.297 22.949 19.4182H22.877C22.853 19.297 22.8289 19.2485 22.8049 19.2243C22.7809 19.2 22.7089 19.1758 22.6369 19.1758H22.5648V20.0243Z" fill="#6B7280"/>
<path d="M23.5255 20.0243C23.5255 20.2182 23.5495 20.2425 23.6696 20.2425V20.3152H23.0693V20.2425C23.1894 20.2425 23.2134 20.2182 23.2134 20.0243V19.4182C23.2134 19.2243 23.1894 19.2001 23.0693 19.2001V19.1273H23.6696V19.2001C23.5495 19.2001 23.5255 19.2243 23.5255 19.4182V20.0243Z" fill="#6B7280"/>
<path d="M25.0624 19.709C25.0624 20.0969 24.7983 20.3393 24.4381 20.3393C24.078 20.3393 23.8379 20.0727 23.8379 19.7333C23.8379 19.4424 24.03 19.0787 24.4621 19.0787C24.7983 19.103 25.0624 19.3454 25.0624 19.709ZM24.174 19.6848C24.174 20.0242 24.2941 20.2666 24.4861 20.2666C24.6542 20.2666 24.7262 20.1212 24.7262 19.7818C24.7262 19.4181 24.5822 19.1999 24.4381 19.1999C24.2701 19.1999 24.174 19.3454 24.174 19.6848Z" fill="#6B7280"/>
<path d="M23.1171 21.3334V21.4061C22.973 21.4303 22.973 21.4303 22.973 21.6243L22.997 22.2303C22.997 22.4243 22.997 22.4485 23.1411 22.4485V22.5213H22.5649V22.4485C22.7089 22.4243 22.7089 22.4243 22.7089 22.2303V21.5758L22.3488 22.497H22.2527L21.9166 21.6485L21.8926 22.0606C21.8926 22.2303 21.8926 22.3031 21.8926 22.3758C21.8926 22.4485 21.9406 22.4728 22.0607 22.4728V22.5455H21.6045V22.4728C21.7005 22.4728 21.7245 22.4485 21.7486 22.3758C21.7486 22.3273 21.7726 22.2303 21.7726 22.0606L21.7966 21.697C21.8206 21.4546 21.7966 21.4546 21.6525 21.4303V21.3334H22.0847L22.3968 22.0606L22.6849 21.3334H23.1171Z" fill="#6B7280"/>
<path d="M23.4054 21.6243C23.4054 21.4303 23.3814 21.4061 23.2613 21.4061V21.3334H24.1257C24.1257 21.3576 24.1257 21.5031 24.1497 21.6485H24.0776C24.0536 21.5516 24.0296 21.5031 24.0056 21.4788C23.9816 21.4546 23.9096 21.4303 23.8135 21.4303H23.7895C23.7175 21.4303 23.7175 21.4303 23.7175 21.5031V21.8667H23.8135C23.9816 21.8667 23.9816 21.8667 24.0056 21.7213H24.0776V22.1576H24.0056C23.9816 21.9879 23.9816 21.9879 23.8135 21.9879H23.7175V22.2788C23.7175 22.3758 23.7175 22.4243 23.7655 22.4485C23.7895 22.4728 23.8375 22.4728 23.8856 22.4728C23.9576 22.4728 24.0296 22.4728 24.0776 22.4243C24.1016 22.4 24.1497 22.3273 24.1737 22.2303L24.2457 22.2546C24.2457 22.3516 24.1977 22.5455 24.1737 22.594H23.2373V22.5213C23.3814 22.497 23.3814 22.497 23.3814 22.3031V21.6243H23.4054Z" fill="#6B7280"/>
<path d="M24.8703 22.4727H24.9184C24.9904 22.4727 24.9904 22.4485 24.9664 22.3757L24.8943 22.1818H24.6062L24.5582 22.3515C24.5342 22.4242 24.5342 22.4485 24.6062 22.4485H24.6543V22.5212H24.2461V22.4485C24.3421 22.4242 24.3661 22.4242 24.4382 22.2788L24.7983 21.3333L24.9184 21.3091L25.0384 21.6485C25.1104 21.8667 25.2065 22.0848 25.2545 22.2788C25.3025 22.4485 25.3505 22.4485 25.4466 22.4485V22.5212H24.8703V22.4727ZM24.6543 22.0606H24.8943L24.7743 21.697L24.6543 22.0606Z" fill="#6B7280"/>
<path d="M18.4838 37.3575C18.4838 37.6242 18.2677 37.8424 18.0036 37.8424C17.7395 37.8424 17.5234 37.6242 17.5234 37.3575C17.5234 37.0909 17.7395 36.8727 18.0036 36.8727C18.2677 36.8727 18.4838 37.0909 18.4838 37.3575Z" fill="#6B7280"/>
<path d="M23.3334 38.1576C23.3334 38.4242 23.1173 38.6424 22.8532 38.6424C22.5891 38.6424 22.373 38.4242 22.373 38.1576C22.373 37.8909 22.5891 37.6727 22.8532 37.6727C23.1173 37.6727 23.3334 37.8909 23.3334 38.1576Z" fill="#6B7280"/>
<path d="M20.5961 3.32115C20.5961 3.58782 20.38 3.806 20.1159 3.806C19.8518 3.806 19.6357 3.58782 19.6357 3.32115C19.6357 3.05449 19.8518 2.8363 20.1159 2.8363C20.38 2.8363 20.5961 3.05449 20.5961 3.32115Z" fill="#6B7280"/>
<path d="M31.9524 7.83026C31.9524 8.09693 31.7123 8.29086 31.4482 8.29086C31.1841 8.29086 30.9681 8.04844 30.9921 7.78178C30.9921 7.51511 31.2322 7.32117 31.4963 7.32117C31.7604 7.34541 31.9524 7.56359 31.9524 7.83026Z" fill="#6B7280"/>
<path d="M8.01566 28.5334C8.20773 28.8 8.30377 29.091 8.27976 29.3819C8.27976 29.7213 8.15971 29.9879 7.55947 30.4L5.83079 31.6364L5.51867 31.1758C5.51867 31.1758 7.29537 29.9152 7.31938 29.891C7.6315 29.6728 7.75155 29.5273 7.75155 29.2849C7.75155 29.1394 7.70353 28.9697 7.58348 28.8C7.41542 28.5576 7.19933 28.4606 6.98325 28.4606C6.81518 28.4606 6.6231 28.5819 6.28697 28.8243L4.67834 29.9394L4.36621 29.4788L5.90282 28.4122C6.33499 28.097 6.67112 27.9031 6.98325 27.9031C7.46344 27.9273 7.79957 28.2182 8.01566 28.5334Z" fill="#6B7280"/>
<path d="M2.49316 25.1393L5.78246 23.9757L5.95053 24.4848L4.07779 26.7878L6.45473 25.8424L6.6228 26.3272L3.38151 27.5878L3.21345 27.0787L5.08619 24.7757L2.66123 25.6242L2.49316 25.1393Z" fill="#6B7280"/>
<path d="M5.46038 21.9759L2.0166 22.4923L2.09772 23.0439L5.5415 22.5275L5.46038 21.9759Z" fill="#6B7280"/>
<path d="M1.89291 18.3273L1.91692 17.7455L5.35028 19.1515L5.32627 19.7091L1.79688 20.7758V20.194L4.65401 19.394L1.89291 18.3273Z" fill="#6B7280"/>
<path d="M5.03823 10.4728C4.55804 10.4728 4.31794 10.7637 4.00582 11.3213L3.59766 12.0485L6.64686 13.7213L6.91097 13.2364L5.63846 12.5334L5.71049 12.3879C5.92658 12 5.99861 11.9273 6.55082 11.9758L7.53521 12.0728L7.82333 11.5637L6.67087 11.4667C6.43078 11.4425 6.26271 11.4182 6.11865 11.4667C6.07063 11.491 6.02262 11.5152 5.95059 11.5637C5.9746 11.491 5.99861 11.4425 5.99861 11.3697C5.99861 11.2728 5.9746 11.1758 5.95059 11.0788C5.87856 10.8849 5.7345 10.7152 5.51842 10.594C5.37436 10.5213 5.20629 10.4728 5.03823 10.4728ZM4.41398 11.5394C4.60606 11.1758 4.77412 11.0304 4.9662 11.0304C5.03823 11.0304 5.15827 11.0546 5.25431 11.1031C5.37436 11.1758 5.49441 11.297 5.51842 11.4182C5.54243 11.4667 5.54243 11.5152 5.54243 11.5637C5.54243 11.7819 5.42238 11.9758 5.30233 12.194L5.2303 12.3152L4.24591 11.7819L4.41398 11.5394Z" fill="#6B7280"/>
<path d="M9.28532 5.17903L8.8457 5.51648L10.9526 8.31489L11.3923 7.97745L9.28532 5.17903Z" fill="#6B7280"/>
<path d="M10.7529 4.14545L12.9858 2.98181L13.2019 3.39393L12.3376 3.85454L13.7061 6.54545L13.2259 6.81211L11.8334 4.1212L10.969 4.58181L10.7529 4.14545Z" fill="#6B7280"/>
<path d="M16.347 1.91518L16.9233 1.74548L16.4671 4.097L16.8272 5.43033L16.299 5.57579L15.9389 4.2667L14.2822 2.52124L14.8585 2.35154L16.0349 3.58791L16.347 1.91518Z" fill="#6B7280"/>
<path d="M26.9346 6.69088L28.6873 3.68481L30.3439 4.67876L30.1038 5.09088L28.9274 4.38785L28.4472 5.21209L29.5516 5.86663L29.3115 6.27875L28.2071 5.62421L27.4148 6.98179L26.9346 6.69088Z" fill="#6B7280"/>
<path d="M35.8426 14.5212L37.1151 12.9939L37.3071 13.5757L36.3708 14.6666L37.7633 14.9818L37.9554 15.5636L36.0346 15.103L34.6901 16.7272L34.498 16.1454L35.5064 14.9333L33.9938 14.5939L33.8018 14.0121L35.8426 14.5212Z" fill="#6B7280"/>
<path d="M34.8584 17.9636L38.3158 17.6727L38.4838 19.6121L38.0036 19.6364L37.8836 18.2545L36.9232 18.3515L37.0433 19.6364L36.5871 19.6849L36.467 18.3758L34.9064 18.497L34.8584 17.9636Z" fill="#6B7280"/>
<path d="M36.3945 21.0667C35.9864 21.0667 35.6262 21.1879 35.3381 21.3818C34.8099 21.7697 34.7139 22.3273 34.7139 22.6424C34.7139 23.8303 35.8183 24.2909 36.6346 24.2909C37.0428 24.2909 37.4029 24.1697 37.691 23.9757C38.2673 23.5394 38.3153 22.9091 38.3153 22.6909C38.3153 21.697 37.3549 21.0667 36.3945 21.0667ZM36.6586 23.7576C35.9864 23.7576 35.1941 23.3939 35.1941 22.6909C35.1941 22.4485 35.2901 22.1091 35.5782 21.8909C35.7943 21.7454 36.0584 21.6485 36.3465 21.6485C36.6826 21.6485 37.3069 21.7454 37.643 22.206C37.7631 22.3515 37.8111 22.5454 37.8111 22.7394C37.8111 23.006 37.691 23.3212 37.4269 23.5394C37.2349 23.6848 36.9708 23.7576 36.6586 23.7576Z" fill="#6B7280"/>
<path d="M34.3776 9.40601C34.0174 9.40601 33.6573 9.52722 33.2971 9.74541C32.6249 10.1818 32.3848 10.7878 32.3848 11.2242C32.3848 11.5151 32.4568 11.806 32.6249 12.0484C32.985 12.6303 33.5612 12.7757 33.9214 12.7757C34.2815 12.7757 34.6657 12.6545 35.0258 12.4363C35.458 12.1696 35.9382 11.6606 35.9382 10.9575C35.9382 10.6666 35.8661 10.3757 35.6981 10.1333C35.3619 9.67267 34.9058 9.40601 34.3776 9.40601ZM33.8253 12.2666C33.5132 12.2666 33.2251 12.1454 33.033 11.8302C32.937 11.6848 32.889 11.4909 32.889 11.3212C32.889 10.9333 33.1291 10.5212 33.5852 10.2303C33.8974 10.0363 34.1855 9.93934 34.4496 9.93934C34.7857 9.93934 35.0498 10.0848 35.2419 10.3757C35.3379 10.5454 35.41 10.7393 35.41 10.909C35.41 11.2969 35.1699 11.6848 34.7377 11.9515C34.4256 12.1696 34.1135 12.2666 33.8253 12.2666Z" fill="#6B7280"/>
<path d="M24.8941 2.18176C24.1738 2.18176 23.5496 2.66661 23.2855 3.53934C23.2375 3.73328 23.1895 3.92722 23.1895 4.12116C23.1895 4.46055 23.2375 4.75146 23.3815 5.01813C23.6936 5.59994 24.2939 5.81813 24.7261 5.81813C24.9902 5.81813 25.2303 5.76964 25.4463 5.64843C26.0226 5.33328 26.4307 4.58176 26.4307 3.85449C26.4307 3.53934 26.3587 3.24843 26.2387 3.006C25.9746 2.47267 25.4463 2.18176 24.8941 2.18176ZM24.7261 5.30903C24.486 5.30903 24.1018 5.18782 23.9097 4.79995C23.8137 4.63025 23.7657 4.38782 23.7657 4.16964C23.7657 3.53934 24.1738 2.66661 24.9421 2.66661C25.3743 2.66661 25.9025 2.98176 25.9025 3.78176C25.9025 4.29086 25.5424 5.30903 24.7261 5.30903Z" fill="#6B7280"/>
<path d="M5.68629 14.9091L6.14247 15.0303L5.61426 16.9697L2.25293 16.0242L2.82916 14.0848L3.28534 14.2061L2.87718 15.6121L3.78954 15.8788L4.14968 14.5939L4.60586 14.7151L4.24572 16L5.30213 16.2909L5.68629 14.9091Z" fill="#6B7280"/>
<path d="M6.55041 7.58792C7.0306 7.03034 7.53479 7.07882 7.53479 7.07882L7.63083 7.53943C7.63083 7.53943 7.24668 7.53943 6.95857 7.87882C6.83852 8.02428 6.76649 8.16973 6.76649 8.31519C6.76649 8.4364 6.81451 8.53337 6.91055 8.6061C7.15064 8.82428 7.5588 8.58185 7.82291 8.48488C8.01498 8.41216 8.3031 8.29094 8.59121 8.29094C8.8073 8.29094 9.02338 8.33943 9.21546 8.53337C9.45555 8.75155 9.55159 8.99397 9.55159 9.28488C9.55159 9.57579 9.43154 9.84246 9.21546 10.1091C8.78329 10.6182 8.18305 10.6667 8.18305 10.6667L8.063 10.2061C8.42314 10.1334 8.68725 9.98791 8.83131 9.79397C8.95135 9.64852 9.02338 9.47883 9.02338 9.35761C9.02338 9.2364 8.97536 9.09095 8.85532 8.99398C8.75928 8.92125 8.66324 8.897 8.54319 8.897C8.32711 8.897 8.063 9.01822 7.82291 9.11519C7.39074 9.28489 6.95857 9.43034 6.55041 9.0667C6.35833 8.87276 6.23828 8.65458 6.23828 8.38792C6.23828 8.12125 6.33432 7.83034 6.55041 7.58792Z" fill="#6B7280"/>
<path d="M33.946 25.6L35.2666 26.206L35.1945 26.3515C35.0265 26.7636 34.9544 26.8363 34.4022 26.8363H33.4178L33.1777 27.3697H34.3302C34.5703 27.3697 34.7384 27.3697 34.8824 27.3212C34.9304 27.2969 34.9784 27.2727 35.0265 27.2242C35.0265 27.2484 35.0025 27.2727 35.0025 27.3212C35.0025 27.4424 35.0265 27.5878 35.0745 27.6848C35.2426 28.0484 35.6507 28.2424 35.9628 28.2424C36.5151 28.2424 36.7311 27.903 36.9952 27.2969C36.9952 27.2727 37.3074 26.5454 37.3074 26.5454L34.1621 25.1151L33.946 25.6ZM35.9868 27.6848C35.8188 27.6848 35.5547 27.5878 35.4586 27.3212C35.4346 27.2484 35.4346 27.1757 35.4346 27.1272C35.4346 26.9333 35.5307 26.7394 35.6267 26.5212L35.6747 26.3757L36.6831 26.8363L36.5631 27.103C36.371 27.5636 36.251 27.6848 35.9868 27.6848Z" fill="#6B7280"/>
<path d="M32.1213 28.9212C31.7612 29.3818 31.4971 29.7939 31.4971 30.303C31.4971 30.7394 31.6891 31.2485 32.1933 31.6606C32.5295 31.9273 32.9136 32.0727 33.2978 32.0727C33.778 32.0727 34.1621 31.9273 34.7624 31.1757L35.3146 30.4727L32.6015 28.2909L32.1213 28.9212ZM33.3458 31.5636C33.0817 31.5636 32.8176 31.4666 32.5295 31.2485C32.2654 31.0303 31.9773 30.6909 31.9773 30.2545C31.9773 29.9394 32.1453 29.6485 32.3854 29.3333L32.6255 29.0424L34.6183 30.6424L34.4743 30.8363C34.0901 31.297 33.826 31.5636 33.3458 31.5636Z" fill="#6B7280"/>
<path d="M40.0205 20.0728C40.0205 9.01823 31.0889 0.024292 20.1406 0.024292C9.16826 0.024292 0.260742 9.01823 0.260742 20.0728C0.260742 26.7152 3.50202 32.8728 8.92817 36.6304C9.45638 38.6425 11.2811 40.1213 13.442 40.1213C14.0182 40.1213 14.5944 40.0001 15.1226 39.8061C15.8429 40.0485 16.6112 40.2425 17.3555 40.4122C17.1394 41.0182 16.8273 41.6001 16.5392 42.1091C16.5392 42.1091 16.5392 42.1091 16.5632 42.1091H16.5392L16.9473 42.5213C17.0434 42.4728 17.1634 42.4243 17.3075 42.4243C17.7156 42.4243 18.0518 42.7637 18.0518 43.1758C18.0518 43.5879 17.7156 43.9273 17.3075 43.9273C16.9473 43.9273 16.6352 43.6849 16.4672 43.4425C16.4672 43.4425 16.3711 43.7819 16.3711 44.2182C16.3711 45.6485 17.9317 47.297 20.0926 48C22.2534 47.3213 23.8141 45.6728 23.8141 44.2182C23.8141 43.7334 23.718 43.4425 23.718 43.4425C23.55 43.6364 23.2858 43.9273 22.8777 43.9273C22.4695 43.9273 22.1334 43.5879 22.1334 43.1758C22.1334 42.7637 22.4695 42.4243 22.8777 42.4243C23.0217 42.4243 23.1418 42.4728 23.2618 42.5455L23.67 42.1334H23.694C23.4779 41.5758 23.3099 41.091 23.1898 40.6061C26.7672 40.1213 29.7924 38.594 32.1694 36.0485C37.1633 32.194 40.0205 26.3758 40.0205 20.0728ZM13.442 39.5637C11.1851 39.5637 9.33633 37.697 9.33633 35.4182C9.33633 34.691 9.52841 34.0364 9.84053 33.4304C10.0566 33.6243 10.2727 33.8182 10.5128 34.0364C10.3207 34.4728 10.2007 34.9334 10.2007 35.4425C10.2007 36.6788 10.8249 37.7213 12.0014 38.4243C12.6737 38.8364 13.442 39.2001 14.2583 39.5152C13.9942 39.5394 13.7301 39.5637 13.442 39.5637ZM20.1406 33.5273C19.3003 33.5273 18.4599 33.4546 17.6196 33.2849C16.8273 31.7091 15.1946 30.691 13.442 30.691C13.0098 30.691 12.6016 30.7637 12.1935 30.8607C8.80812 28.3394 6.79133 24.291 6.79133 20.0485C6.79133 12.6304 12.7697 6.59399 20.1166 6.59399C27.4635 6.59399 33.4419 12.6304 33.4419 20.0485C33.4659 27.491 27.4875 33.5273 20.1406 33.5273ZM23.0938 33.7697C22.6856 34.3516 22.4455 35.1516 22.3975 35.9516C21.125 35.6122 19.9965 35.1758 18.9881 34.7152C19.1802 34.3516 19.7324 34.0849 20.1406 34.0849C21.149 34.0849 22.1334 33.9637 23.0938 33.7697ZM18.8681 34.0364C18.7 34.1576 18.556 34.3273 18.4599 34.4728C17.9557 34.2304 17.3315 33.9152 16.8993 33.6728C17.4996 33.8182 18.2679 33.9637 18.8681 34.0364ZM13.442 31.2728C14.8105 31.2728 16.107 31.9758 16.8513 33.1152C16.203 32.9455 15.5548 32.7273 14.9065 32.4607H14.8825C14.4504 32.2425 13.9702 32.1455 13.466 32.1455C12.3615 32.1455 11.4011 32.6788 10.8009 33.5031C10.5608 33.3576 10.2967 33.2122 10.0566 33.0667C10.8249 31.9758 12.0494 31.2728 13.442 31.2728ZM22.8777 41.8425C22.1334 41.8425 21.5332 42.3758 21.5332 43.1758C21.5332 43.9516 22.1334 44.5091 22.8777 44.5091C22.9977 44.5091 23.0938 44.4849 23.1898 44.4607C23.0458 45.5758 21.7492 46.8122 20.0926 47.3697C18.4599 46.8122 17.1634 45.5516 16.9954 44.4607C17.0914 44.4849 17.2114 44.5091 17.3075 44.5091C18.0998 44.5091 18.652 43.9516 18.652 43.1758C18.652 42.4485 18.0758 41.8667 17.3555 41.8425C17.5716 41.4304 17.7877 40.994 17.9557 40.5091C18.8681 40.6788 19.7565 40.7516 20.5968 40.7516C21.2931 40.7516 21.9413 40.7031 22.5896 40.6546C22.6856 41.0425 22.8057 41.4304 22.9497 41.8425C22.9257 41.8425 22.9017 41.8425 22.8777 41.8425ZM20.5968 40.194C17.9317 40.194 14.5944 39.2728 12.3135 37.9152C11.6172 37.5031 10.8009 36.7273 10.8009 35.4182C10.8009 35.0546 10.8729 34.7152 10.993 34.4243C11.8573 35.1273 12.7217 35.8061 13.2739 36.1213C13.3939 36.194 13.466 36.2182 13.634 36.2182C13.9942 36.2182 14.2823 35.9273 14.2823 35.5637C14.2823 35.297 14.1382 35.0546 13.8981 34.9576C13.4179 34.7394 12.4336 34.3273 11.3771 33.7697C11.8813 33.1152 12.6496 32.6788 13.514 32.6788C13.9221 32.6788 14.3063 32.7758 14.6664 32.9455L15.3867 33.3819C17.7156 34.8122 23.694 38.497 30.8969 36.4607C28.1358 38.9576 24.7744 40.194 20.5968 40.194ZM31.7852 35.5879C28.5439 36.7516 25.5427 36.6546 22.9737 36.0728C23.0698 34.9091 23.5259 33.6728 24.2702 33.4304C29.9365 31.6607 34.0661 26.3273 34.0661 20.0485C34.0661 12.3152 27.8236 6.03641 20.1646 6.03641C12.4816 6.03641 6.26312 12.3152 6.26312 20.0485C6.26312 24.3394 8.25591 28.4364 11.5932 31.0788C10.8009 31.4425 10.1286 32 9.62444 32.7031C9.36034 32.5334 9.12025 32.3394 8.90416 32.1698L8.78411 32.291C8.92817 32.4849 9.16827 32.7273 9.45638 32.994C9.04822 33.697 8.80812 34.5213 8.80812 35.394C8.80812 35.5394 8.80812 35.6607 8.83213 35.8061C3.83816 32.1455 0.88499 26.3031 0.88499 20.0728C0.88499 9.33338 9.55242 0.581865 20.1886 0.581865C30.8248 0.581865 39.4923 9.30914 39.4923 20.0728C39.4202 26.2303 36.6351 31.8788 31.7852 35.5879Z" fill="#6B7280"/>
<path d="M64.8944 31.5151C64.8944 36.8727 60.7887 40.7757 55.6747 40.7757C50.4647 40.7757 46.4551 36.8485 46.4551 31.7091C46.4551 26.3515 50.5607 22.4485 55.6747 22.4485C60.8848 22.4242 64.8944 26.3757 64.8944 31.5151ZM61.9652 31.6121C61.9652 26.7394 59.6123 23.3212 55.6747 23.3212C51.377 23.3212 49.3842 27.4182 49.3842 31.6121C49.3842 36.4848 51.7372 39.8788 55.6747 39.8788C59.9724 39.8788 61.9652 35.7818 61.9652 31.6121Z" fill="#6B7280"/>
<path d="M121.196 31.5151C121.196 36.8727 117.091 40.7757 111.976 40.7757C106.766 40.7757 102.757 36.8485 102.757 31.7091C102.757 26.3515 106.862 22.4485 111.976 22.4485C117.211 22.4242 121.196 26.3757 121.196 31.5151ZM118.267 31.6121C118.267 26.7394 115.914 23.3212 111.976 23.3212C107.679 23.3212 105.686 27.4182 105.686 31.6121C105.686 36.4848 108.039 39.8788 111.976 39.8788C116.274 39.8788 118.267 35.7818 118.267 31.6121Z" fill="#6B7280"/>
<path d="M128.327 31.6848H130.512C133.825 31.6848 134.569 29.5757 134.569 27.5394C134.569 26.0121 133.873 24.5818 132.312 23.903C131.496 23.5636 130.704 23.5636 129.623 23.5636H128.303V31.6848H128.327ZM132.385 34.5454C131.352 33.0667 130.968 32.5333 129.695 32.5333H128.327V38.5454C128.327 39.0303 128.519 39.2727 129.071 39.3697L131.064 39.8061V40.4606H123.213V39.8061L125.014 39.3697C125.542 39.2242 125.734 39.0303 125.734 38.5454V24.6545C125.734 24.1697 125.542 23.9757 125.014 23.8061L123.213 23.3697V22.7394H130.872C132.481 22.7394 133.609 22.8848 134.521 23.2242C136.418 23.9757 137.499 25.7939 137.499 27.5151C137.499 29.697 135.89 31.5151 133.201 32.1454V32.2424C133.729 32.4848 134.041 32.8242 135.938 35.3454L138.339 38.5454C138.675 39.0303 139.131 39.3212 139.659 39.4424L141.412 39.8303V40.4848H137.21C136.73 40.4848 136.466 40.3394 136.034 39.7333L132.385 34.5454Z" fill="#6B7280"/>
<path d="M97.979 28.8H98.6993V34.7151H97.979L97.5468 32.9454C97.4028 32.3151 97.0186 32.0485 96.4184 32.0485H92.1687V38.5454C92.1687 39.0303 92.3608 39.2727 92.913 39.3697L94.9058 39.8061V40.4606H87.0547V39.8061L88.8554 39.3697C89.3836 39.2242 89.5997 39.0303 89.5997 38.5454V24.6545C89.5997 24.1697 89.4076 23.9757 88.8554 23.8303L87.0547 23.3939V22.7394H100.332V27.1757H99.5876L98.7713 24.5091C98.5792 23.8303 98.2911 23.5636 97.6909 23.5636H92.1687V31.2H96.4184C96.9946 31.2 97.3548 30.9576 97.5468 30.303L97.979 28.8Z" fill="#6B7280"/>
<path d="M142.805 40.4606V39.8061L144.605 39.3697C145.134 39.2242 145.35 39.0303 145.35 38.5454V24.6545C145.35 24.1697 145.158 23.9757 144.605 23.8303L142.805 23.3939V22.7394H151.064C153.297 22.7394 154.929 23.0303 156.226 23.6364C159.539 25.1636 161.052 28.4606 161.052 31.7091C161.052 34.8606 159.875 37.8182 156.898 39.3939C155.53 40.1454 153.633 40.4848 151.136 40.4848H142.805V40.4606ZM147.943 23.5636V38.8364C147.943 39.4909 148.087 39.6364 148.735 39.6364H150.872C152.913 39.6364 154.425 39.3454 155.506 38.5454C157.306 37.2121 158.147 34.8121 158.147 31.7576C158.147 28.7515 157.306 25.7939 154.881 24.3636C153.849 23.7576 152.529 23.5636 150.488 23.5636H147.943Z" fill="#6B7280"/>
<path d="M71.7843 39.8304V40.4849H65.5898V39.8304L67.1505 39.4425C67.7267 39.297 68.1348 39.1031 68.519 38.6425L73.8971 31.8546L68.519 24.6546C68.1829 24.1698 67.7507 23.9273 67.1985 23.7576L65.7339 23.3698V22.7152H73.4409V23.3698L71.7843 23.7091C71.2081 23.8061 71.3521 24.0485 71.6402 24.4607L75.6018 30.1819H75.6978L79.7554 24.4607C80.0436 24.0728 80.1396 23.9273 79.6114 23.7819L78.0508 23.394V22.7394H84.2452V23.394L82.6846 23.7819C82.1084 23.9273 81.7002 24.1213 81.3161 24.5576L76.2501 31.0061L81.8683 38.5455C82.2044 39.0304 82.6606 39.2728 83.1888 39.4425L84.6534 39.8304V40.4849H76.9463V39.8304L78.603 39.491C79.1792 39.394 79.0832 39.2001 78.7951 38.7879L74.4974 32.6788H74.4013L70.0556 38.7394C69.7675 39.1273 69.6715 39.2728 70.1997 39.4182L71.7843 39.8304Z" fill="#6B7280"/>
<path d="M53.2976 14.3758C52.8174 14.8606 52.0731 15.2 51.0647 15.2C50.1763 15.2 49.36 14.9091 48.8078 14.3516C48.0395 13.5758 48.0875 12.6061 48.0875 11.5637V6.64246H49.0719V11.9515C49.0719 12.6303 49.0479 13.2849 49.5761 13.794C49.9362 14.1576 50.4885 14.3516 51.1127 14.3516C51.737 14.3516 52.2171 14.1334 52.5293 13.8182C53.1055 13.2364 53.0575 12.6061 53.0575 11.1031V6.6667H54.0419V10.8606C54.0419 12.4122 54.0899 13.5758 53.2976 14.3758Z" fill="#6B7280"/>
<path d="M62.1333 15.0303L58.1237 8.14549L58.1477 15.0303H57.2354V6.64246H58.2678L62.2773 13.5758L62.2533 6.64246H63.1657V15.0303H62.1333Z" fill="#6B7280"/>
<path d="M67.6549 6.64246H66.6465V15.0546H67.6549V6.64246Z" fill="#6B7280"/>
<path d="M73.8734 15.0303H72.721L69.8398 6.64246H70.8963L73.3212 14.0606L75.8182 6.64246H76.7786L73.8734 15.0303Z" fill="#6B7280"/>
<path d="M79.0596 15.0303V6.64246H83.5734V7.4667H80.044V10.2546H83.3573V11.0788H80.044V14.1819H83.6694V15.0303H79.0596Z" fill="#6B7280"/>
<path d="M90.0074 7.90301C89.5272 7.41816 88.903 7.44241 88.2307 7.44241H87.3184V10.5939H87.6545C88.4948 10.5939 89.4072 10.6424 89.9594 10.0606C90.2235 9.79392 90.3916 9.3818 90.3916 8.96968C90.3916 8.48483 90.1995 8.09695 90.0074 7.90301ZM90.9198 15.0303L89.9594 12.8485C89.3592 11.5151 89.0951 11.3697 87.8946 11.3697H87.3184V15.0303H86.334V6.61816H88.1347C89.2391 6.61816 90.0795 6.61816 90.7277 7.27271C91.1359 7.68483 91.376 8.2424 91.376 8.94543C91.376 9.52725 91.2079 10.0121 90.8478 10.4C90.5597 10.7151 90.0554 11.006 89.5032 11.0545C89.7913 11.0788 90.0314 11.2242 90.1995 11.3939C90.4156 11.6121 90.5837 11.9757 90.8238 12.5091L91.9522 15.0303H90.9198Z" fill="#6B7280"/>
<path d="M102.685 6.64246H101.677V15.0546H102.685V6.64246Z" fill="#6B7280"/>
<path d="M108.399 7.4667V15.0303H107.391V7.4667H104.918V6.64246H110.848V7.4667H108.399Z" fill="#6B7280"/>
<path d="M115.65 11.7091V15.0303H114.665V11.7091L112.024 6.64246H113.153L115.218 10.5697L117.21 6.64246H118.291L115.65 11.7091Z" fill="#6B7280"/>
<path d="M127.631 7.34543C125.998 7.34543 124.942 8.72725 124.942 10.8363C124.942 12.9212 126.118 14.3515 127.679 14.3515C129.407 14.3515 130.392 12.8485 130.392 10.7636C130.392 8.70301 129.239 7.34543 127.631 7.34543ZM127.631 15.2C125.47 15.2 123.909 13.406 123.909 10.8848C123.909 8.29089 125.47 6.49695 127.727 6.49695C129.912 6.49695 131.448 8.29089 131.448 10.8121C131.424 13.406 129.864 15.2 127.631 15.2Z" fill="#6B7280"/>
<path d="M135.146 7.4667V10.2546H138.363V11.0546H135.146V15.0303H134.161V6.64246H138.579V7.4667H135.146Z" fill="#6B7280"/>
<path d="M93.9692 8.67884C93.9692 7.39399 95.0016 6.47278 96.4902 6.47278C98.0028 6.47278 98.7471 7.27278 98.8191 7.34551L98.3389 7.95157C98.1468 7.80611 97.4746 7.32126 96.5622 7.32126C95.5058 7.32126 94.9056 7.87884 94.9056 8.63036C94.9056 8.99399 95.0496 9.26066 95.2897 9.47884C95.5778 9.74551 95.986 9.93944 96.4422 10.1334C96.9944 10.4 97.7627 10.691 98.2669 11.2243C98.627 11.5879 98.8911 12.0728 98.8911 12.7273C98.8911 14.1334 97.9308 15.2001 96.2021 15.2001C94.7375 15.2001 93.8011 14.3758 93.7051 14.3031L94.1613 13.6243C94.4014 13.794 95.3137 14.3516 96.1781 14.3516C97.4266 14.3516 97.9067 13.6485 97.9067 12.8243C97.9067 12.4364 97.7387 12.1213 97.4746 11.8788C97.0904 11.491 96.4902 11.2485 95.938 10.9819C95.3857 10.7152 94.8335 10.4485 94.4494 10.0364C94.2333 9.79399 93.9692 9.35763 93.9692 8.67884Z" fill="#6B7280"/>
</g>
</g>
<defs>
<clipPath id="clip0_725_147259">
<rect width="162.424" height="48" fill="white" transform="translate(0.236328)"/>
</clipPath>
<clipPath id="clip1_725_147259">
<rect width="160.864" height="48" fill="white" transform="translate(0.236328)"/>
</clipPath>
</defs>
</svg>