<svg xmlns="http://www.w3.org/2000/svg" width="74" height="48" viewBox="0 0 74 48" fill="none">
<g clip-path="url(#clip0_725_147261)">
<path fill-rule="evenodd" clip-rule="evenodd" d="M73.6042 31.1412V47.6619H0.59082V31.1412H73.6042ZM64.4808 33.4785C61.169 33.4785 58.4845 36.1672 58.4845 39.4817C58.4845 42.797 61.169 45.4857 64.4808 45.4857C67.7919 45.4857 70.4764 42.797 70.4764 39.4817C70.4764 36.1672 67.7919 33.4785 64.4808 33.4785ZM23.2813 33.4784C19.9702 33.4784 17.2857 36.1671 17.2857 39.4817C17.2857 42.7977 19.9702 45.4856 23.2813 45.4856C24.3452 45.4856 25.3444 45.2083 26.2101 44.7222L26.2049 41.8217L26.1886 41.8425C25.507 42.675 24.4706 43.2065 23.311 43.2065C21.2561 43.2065 19.5901 41.5392 19.5901 39.4817C19.5901 37.4248 21.2561 35.7575 23.311 35.7575C24.4662 35.7575 25.4989 36.2845 26.1811 37.1134L26.2041 34.2381C25.34 33.7542 24.343 33.4784 23.2813 33.4784ZM41.43 33.7055L39.1085 33.707V45.3418H41.43L41.4292 40.5182L44.6876 45.3366H47.6208L44.0031 40.5391C44.0031 40.5391 46.6282 40.4231 46.4805 36.8357C46.3588 33.8706 44.1776 33.7055 41.43 33.7055ZM6.94723 33.7055L4.62575 33.707V45.3418H6.94723L6.94575 40.5182L10.2049 45.3366H13.1381L9.52038 40.5391C9.52038 40.5391 12.1455 40.4231 11.9978 36.8357C11.8768 33.8706 9.69485 33.7055 6.94723 33.7055ZM51.7744 33.6278L51.7385 33.6284C51.7344 33.6285 51.7314 33.6286 51.7293 33.6287L48.4589 33.6288V45.2613H51.5443L51.5476 45.2614L51.6568 45.2616C52.4949 45.2509 57.733 44.9647 57.733 39.467C57.733 33.71 52.3419 33.6212 51.7744 33.6278ZM16.2569 33.6284H13.856V45.2572H16.2569V33.6284ZM33.9844 33.6189H31.6481L27.0957 45.2485H29.5946L30.5077 42.9203H34.9295L35.8842 45.2485H38.3512L33.9844 33.6189ZM64.509 35.7576C66.5633 35.7576 68.2292 37.4249 68.2292 39.4817C68.2292 41.5393 66.5633 43.2066 64.509 43.2066C62.4548 43.2066 60.7896 41.5393 60.7896 39.4817C60.7896 37.4249 62.4548 35.7576 64.509 35.7576ZM55.3447 39.467C55.3447 42.9351 52.3638 43.1159 52.143 43.1246L50.7359 43.125V35.7637L52.2073 35.7622C52.2073 35.7622 55.3447 35.8648 55.3447 39.467ZM32.7884 36.7529L34.3979 41.0821H31.1714L32.7884 36.7529ZM42.2563 35.5958C42.7218 35.5958 43.2206 35.6263 43.6193 35.9393C44.3996 36.5518 44.1865 37.9582 43.6483 38.535C43.3713 38.8331 42.7841 38.9059 42.2793 38.9059H41.4047V35.5996L41.4309 35.5993C41.4992 35.5987 41.6954 35.5972 41.9496 35.5963L42.2563 35.5958ZM7.77352 35.5958C8.239 35.5958 8.73715 35.6263 9.13656 35.9393C9.91682 36.5518 9.70301 37.9582 9.16552 38.535C8.8886 38.8331 8.30136 38.9059 7.79653 38.9059H6.92125V35.5996L6.94746 35.5993C7.01588 35.5987 7.21238 35.5972 7.46671 35.5963L7.77352 35.5958Z" fill="#201646"/>
<path fill-rule="evenodd" clip-rule="evenodd" d="M69.7153 3.02952C66.7048 0.654553 61.9134 0.337891 55.9512 0.337891H6.85568V28.7661H31.2576V18.7028H37.8686C40.6496 18.7028 43.5821 20.1516 43.5947 23.7672V28.7661H73.6032C73.6032 21.1335 69.8949 17.1597 61.7976 15.3459C64.9246 15.0107 67.9365 14.9185 70.3047 13.0014C72.4844 11.2367 73.9959 6.65627 69.7153 3.02952ZM43.0335 11.0152C42.2584 11.6523 41.297 11.847 40.1856 11.847H31.3006V7.59437H40.1433C41.3735 7.58173 42.1493 7.77574 43.0335 8.5332C43.6697 9.11598 43.7246 10.3254 43.0335 11.0152ZM0.589844 28.7669H4.52604V0.337891H0.589844V28.7669Z" fill="#201646"/>
</g>
<defs>
<clipPath id="clip0_725_147261">
<rect width="73.0141" height="48" fill="white" transform="translate(0.589844)"/>
</clipPath>
</defs>
</svg>