<svg width="36" height="56" viewBox="0 0 36 56" fill="none" xmlns="http://www.w3.org/2000/svg">
<g clip-path="url(#clip0_735_43644)">
<path d="M13.3135 29.0907C19.6294 24.0051 27.4902 21.2244 35.5991 21.2074H0.338867L13.3135 29.0907Z" fill="#00D29A"/>
<path d="M16.954 17.932H28.5712C28.6327 17.9321 28.6919 17.9086 28.7367 17.8664C28.7814 17.8242 28.8083 17.7664 28.8118 17.705V14.6884C28.8083 14.6269 28.7814 14.5692 28.7367 14.527C28.6919 14.4848 28.6327 14.4613 28.5712 14.4614H21.0602C20.9987 14.4615 20.9394 14.438 20.8947 14.3958C20.8499 14.3536 20.8231 14.2958 20.8196 14.2344V10.8591C20.8202 10.7957 20.8458 10.7351 20.8908 10.6904C20.9359 10.6458 20.9968 10.6208 21.0602 10.6208H26.5987C26.6602 10.6209 26.7194 10.5974 26.7642 10.5552C26.8089 10.5129 26.8358 10.4552 26.8393 10.3938V7.50649C26.8358 7.44507 26.8089 7.38731 26.7642 7.3451C26.7194 7.30288 26.6602 7.27941 26.5987 7.27951H21.0602C21.0284 7.27951 20.9969 7.27321 20.9676 7.26098C20.9382 7.24874 20.9116 7.23082 20.8892 7.20823C20.8669 7.18565 20.8492 7.15886 20.8372 7.1294C20.8253 7.09995 20.8193 7.06842 20.8196 7.03663V3.97684C20.8202 3.91342 20.8458 3.85281 20.8908 3.80817C20.9359 3.76354 20.9968 3.7385 21.0602 3.73851H28.5712C28.6327 3.7386 28.6919 3.71513 28.7367 3.67292C28.7814 3.6307 28.8083 3.57294 28.8118 3.51152V0.535718C28.8083 0.474294 28.7814 0.416539 28.7367 0.374321C28.6919 0.332103 28.6327 0.308632 28.5712 0.30873H16.954C16.8921 0.308047 16.8323 0.331258 16.787 0.373535C16.7418 0.415812 16.7146 0.4739 16.7111 0.535718V17.6823C16.7099 17.7149 16.7153 17.7473 16.727 17.7777C16.7386 17.8081 16.7564 17.8358 16.7791 17.8592C16.8018 17.8825 16.829 17.901 16.8591 17.9135C16.8891 17.9261 16.9214 17.9323 16.954 17.932Z" fill="#00D29A"/>
<path d="M2.70139 16.7721C4.05196 17.7186 5.8792 18.218 8.00153 18.218C9.96043 18.218 11.7173 17.6959 12.9544 16.7471C13.5859 16.2727 14.0952 15.6546 14.4402 14.9441C14.7852 14.2335 14.956 13.451 14.9383 12.6613C14.9383 10.0623 13.4084 8.44392 10.2578 7.71756L6.62599 6.88225C5.42523 6.62575 4.8101 6.02424 4.8101 5.09586C4.8101 3.91553 5.86105 3.15058 7.48627 3.15058C9.21819 3.15058 10.0762 3.98816 10.5029 4.81213C10.5234 4.85088 10.5541 4.88325 10.5918 4.90567C10.6294 4.9281 10.6725 4.93971 10.7163 4.93924H14.3776C14.4138 4.93873 14.4495 4.92997 14.4818 4.91361C14.5142 4.89726 14.5424 4.87374 14.5643 4.84485C14.5861 4.81596 14.6011 4.78246 14.6081 4.74689C14.6151 4.71133 14.6139 4.67464 14.6046 4.63962C14.2753 3.41617 13.5586 2.33231 12.5617 1.55032C11.2951 0.53342 9.52462 0 7.45677 0C5.5183 0 3.7773 0.549309 2.5493 1.54578C1.9421 2.02872 1.45427 2.645 1.12362 3.34685C0.792965 4.04869 0.628377 4.81726 0.642612 5.59296C0.642612 8.13749 2.12257 9.69689 5.16647 10.3597L8.73697 11.1042C9.79473 11.3448 10.7799 11.733 10.7799 12.9519C10.7799 14.223 9.64492 15.047 7.91982 15.047C6.36723 15.047 5.25045 14.4318 4.742 13.306C4.72186 13.2634 4.68955 13.2277 4.64915 13.2035C4.60875 13.1792 4.56207 13.1675 4.51501 13.1698H0.581325C0.544834 13.1702 0.508925 13.179 0.476368 13.1955C0.44381 13.212 0.415474 13.2357 0.393542 13.2649C0.371611 13.2941 0.356671 13.3279 0.349874 13.3637C0.343077 13.3996 0.344604 13.4365 0.354338 13.4717C0.733232 14.8093 1.56228 15.9751 2.70139 16.7721Z" fill="#00D29A"/>
<path d="M35.3929 0.297377H31.6771C31.6154 0.29672 31.5559 0.320004 31.511 0.362335C31.4662 0.404667 31.4395 0.462746 31.4365 0.524364V17.6823C31.4395 17.7439 31.4662 17.802 31.511 17.8444C31.5559 17.8867 31.6154 17.91 31.6771 17.9093H35.3929C35.4544 17.9094 35.5137 17.8859 35.5584 17.8437C35.6032 17.8015 35.63 17.7437 35.6335 17.6823V0.535713C35.6329 0.472295 35.6073 0.411677 35.5622 0.367044C35.5172 0.322412 35.4563 0.297374 35.3929 0.297377Z" fill="#00D29A"/>
<path d="M35.7492 21.2074H35.5858C31.0937 21.128 26.3406 22.1562 22.164 23.8654C18.9775 25.171 15.996 26.9293 13.3115 29.0861L35.7469 42.7054L35.7492 21.2074Z" fill="url(#paint0_linear_735_43644)"/>
<path d="M0.338867 21.2074V56H0.350217C0.350217 45.1545 5.40068 35.4713 13.3157 29.0884L0.338867 21.2074Z" fill="url(#paint1_linear_735_43644)"/>
</g>
<defs>
<linearGradient id="paint0_linear_735_43644" x1="13.3569" y1="20.8079" x2="43.4123" y2="35.78" gradientUnits="userSpaceOnUse">
<stop stop-color="#00D29A" stop-opacity="0"/>
<stop offset="1" stop-color="#00D29A"/>
</linearGradient>
<linearGradient id="paint1_linear_735_43644" x1="6.83978" y1="43.6451" x2="6.57874" y2="20.8987" gradientUnits="userSpaceOnUse">
<stop stop-color="#00D29A" stop-opacity="0"/>
<stop offset="1" stop-color="#00D29A"/>
</linearGradient>
<clipPath id="clip0_735_43644">
<rect width="35.41" height="56" fill="white" transform="translate(0.338867)"/>
</clipPath>
</defs>
</svg>
