<svg width="99" height="40" viewBox="0 0 99 40" fill="none" xmlns="http://www.w3.org/2000/svg">
<path d="M28.0771 5.66638H29.7923V21.0591H38.1253V22.7008H28.0771V5.66638Z" fill="#6FA2C2"/>
<path d="M46.043 5.57812C48.4511 5.57812 50.4608 6.44309 52.0719 8.15535C53.6831 9.88527 54.4974 12.0035 54.4974 14.5102C54.4974 16.9991 53.6831 19.1174 52.0719 20.865C50.4608 22.5949 48.4858 23.4775 46.1643 23.4775C43.8082 23.4775 41.8332 22.6125 40.2047 20.8826C38.5935 19.1527 37.7793 17.0521 37.7793 14.5984C37.7793 12.9568 38.1431 11.4387 38.8881 10.0441C39.633 8.64962 40.6378 7.55518 41.9025 6.76083C43.1845 5.98413 44.5531 5.57812 46.043 5.57812ZM46.1123 7.23744C44.9343 7.23744 43.8255 7.57283 42.7861 8.22596C41.7293 8.8791 40.915 9.76171 40.326 10.8738C39.737 11.9859 39.4424 13.2215 39.4424 14.5984C39.4424 16.6284 40.1008 18.3407 41.4001 19.7352C42.6994 21.1298 44.276 21.8358 46.1297 21.8358C47.3597 21.8358 48.5031 21.5181 49.5426 20.865C50.582 20.2295 51.4136 19.3469 51.9853 18.2348C52.5743 17.1227 52.8689 15.887 52.8689 14.5278C52.8689 13.1686 52.5743 11.9506 51.9853 10.8561C51.3963 9.76171 50.5647 8.8791 49.5079 8.22596C48.4338 7.57283 47.3077 7.23744 46.1123 7.23744Z" fill="#6FA2C2"/>
<path d="M70.4525 9.00262L69.2571 10.0265C68.5988 9.05558 67.8192 8.33184 66.901 7.83757C65.9828 7.34331 64.978 7.09618 63.8692 7.09618C62.6739 7.09618 61.5478 7.41392 60.5256 8.06705C59.5035 8.72019 58.7066 9.6028 58.1349 10.6972C57.5632 11.7917 57.286 13.0273 57.286 14.4042C57.286 16.4872 57.9097 18.2171 59.1743 19.6116C60.439 21.0062 62.0329 21.6946 63.9559 21.6946C66.0694 21.6946 67.8365 20.759 69.2571 18.8879L70.4525 19.9117C69.7076 20.9885 68.7547 21.8358 67.6286 22.4183C66.5026 23.0009 65.2552 23.3009 63.8519 23.3009C61.2186 23.3009 59.1224 22.3124 57.5978 20.3177C56.3158 18.6408 55.6748 16.6107 55.6748 14.2453C55.6748 11.7564 56.4544 9.65576 57.9963 7.94349C59.5381 6.24887 61.4785 5.38391 63.8173 5.38391C65.2206 5.38391 66.5026 5.70165 67.6286 6.31948C68.8067 6.97261 69.7422 7.85523 70.4525 9.00262Z" fill="#6FA2C2"/>
<path d="M79.3925 5.98413L87.3964 23.0185H85.5427L82.8401 17.4051H75.4425L72.7746 23.0185H70.8516L78.9594 5.98413H79.3925ZM79.1673 9.60284L76.2221 15.7635H82.0951L79.1673 9.60284Z" fill="#6FA2C2"/>
<path d="M86.79 7.66109V5.98413H97.9296V7.66109H93.2347V23.0362H91.485V7.66109H86.79Z" fill="#6FA2C2"/>
<path d="M28.0596 27.3964H29.9653C31.0567 27.3964 31.8016 27.4493 32.1828 27.5376C32.7372 27.6788 33.1876 27.9436 33.5341 28.3672C33.8806 28.7909 34.0538 29.3028 34.0538 29.9383C34.0538 30.5738 33.8806 31.1033 33.5514 31.5093C33.2049 31.9153 32.7372 32.1978 32.1481 32.339C31.715 32.4449 30.9008 32.4979 29.7054 32.4979H29.0124V36.9286H28.0596V27.3964ZM29.0124 28.3319V31.5623L30.6409 31.5799C31.2992 31.5799 31.7843 31.527 32.0788 31.4034C32.3907 31.2799 32.6159 31.0857 32.7891 30.8209C32.9624 30.5561 33.049 30.256 33.049 29.9383C33.049 29.6205 32.9624 29.3205 32.7891 29.0557C32.6159 28.7909 32.3907 28.5967 32.0962 28.4908C31.819 28.3849 31.3512 28.3143 30.6929 28.3143H29.0124V28.3319Z" fill="#6FA2C2"/>
<path d="M42.9063 29.8676V36.9109H42.0054V35.6929C41.6243 36.1518 41.1912 36.5049 40.7234 36.7344C40.2557 36.9638 39.7186 37.0874 39.1642 37.0874C38.1594 37.0874 37.2932 36.7344 36.5829 36.0106C35.8726 35.2869 35.5088 34.4043 35.5088 33.3628C35.5088 32.339 35.8726 31.474 36.5829 30.7502C37.2932 30.0265 38.1594 29.6735 39.1816 29.6735C39.7706 29.6735 40.2903 29.797 40.7581 30.0442C41.2258 30.2913 41.6416 30.662 42.0054 31.1562V29.8676H42.9063ZM39.2509 30.5737C38.7485 30.5737 38.2807 30.6973 37.8476 30.9444C37.4145 31.1916 37.068 31.5446 36.8254 31.9859C36.5656 32.4272 36.4443 32.9038 36.4443 33.4157C36.4443 33.91 36.5656 34.3866 36.8254 34.8456C37.0853 35.3045 37.4318 35.6576 37.8649 35.9047C38.298 36.1518 38.7658 36.2754 39.2509 36.2754C39.7533 36.2754 40.221 36.1518 40.6715 35.9047C41.1219 35.6576 41.4684 35.3222 41.7109 34.8809C41.9535 34.4572 42.0747 33.9806 42.0747 33.4334C42.0747 32.6214 41.7975 31.9329 41.2605 31.3857C40.7234 30.8385 40.0478 30.5737 39.2509 30.5737Z" fill="#6FA2C2"/>
<path d="M44.6221 29.8676H45.5576V30.8915C45.8348 30.4855 46.1293 30.1854 46.4411 29.9735C46.753 29.7794 47.0648 29.6735 47.4113 29.6735C47.6712 29.6735 47.931 29.7617 48.2255 29.9206L47.7405 30.6796C47.5499 30.5914 47.394 30.5561 47.2554 30.5561C46.9435 30.5561 46.649 30.6796 46.3718 30.9268C46.0946 31.1739 45.8694 31.5623 45.7308 32.0918C45.6096 32.4978 45.5576 33.3098 45.5576 34.5278V36.9109H44.6221V29.8676Z" fill="#6FA2C2"/>
<path d="M49.7845 27.2551H50.7027V29.8677H52.1579V30.6444H50.7027V36.9109H49.7845V30.6444H48.5371V29.8677H49.7845V27.2551Z" fill="#6FA2C2"/>
<path d="M53.5264 29.8676H54.4446V31.1386C54.8084 30.662 55.2068 30.2913 55.6573 30.0618C56.1077 29.8147 56.5928 29.7087 57.1125 29.7087C57.6496 29.7087 58.1173 29.85 58.5331 30.1147C58.9489 30.3795 59.2434 30.7502 59.4513 31.1915C59.6592 31.6328 59.7458 32.3566 59.7458 33.3098V36.9462H58.8276V33.5746C58.8276 32.7626 58.793 32.2154 58.7237 31.9506C58.6197 31.4916 58.4119 31.1386 58.1173 30.8914C57.8228 30.6443 57.4244 30.5384 56.9393 30.5384C56.3849 30.5384 55.8825 30.7149 55.4494 31.0856C55.0163 31.4563 54.7218 31.8976 54.5832 32.4272C54.4965 32.7802 54.4446 33.4157 54.4446 34.3513V36.9285H53.5264V29.8676Z" fill="#6FA2C2"/>
<path d="M67.6627 34.5807L68.425 34.9867C68.1651 35.481 67.888 35.8693 67.5415 36.1871C67.195 36.5048 66.8312 36.7166 66.4154 36.8755C65.9996 37.0344 65.5318 37.105 65.0121 37.105C63.8514 37.105 62.9505 36.7343 62.2922 35.9752C61.6338 35.2162 61.3047 34.3689 61.3047 33.4157C61.3047 32.5154 61.5819 31.7211 62.1363 31.0326C62.8292 30.15 63.7821 29.691 64.9601 29.691C66.1728 29.691 67.143 30.15 67.8706 31.0503C68.3904 31.6857 68.6502 32.4977 68.6502 33.4686H62.2575C62.2749 34.2806 62.5347 34.9514 63.0544 35.481C63.5569 36.0105 64.1979 36.2753 64.9428 36.2753C65.3066 36.2753 65.6531 36.2047 65.9996 36.0812C66.3461 35.9576 66.6406 35.7987 66.8658 35.5869C67.091 35.3751 67.3856 35.0397 67.6627 34.5807ZM67.6627 32.6919C67.5415 32.2153 67.3682 31.827 67.1257 31.5269C66.8831 31.2268 66.5886 30.9973 66.2075 30.8208C65.8264 30.6443 65.4279 30.556 64.9948 30.556C64.3018 30.556 63.6955 30.7855 63.193 31.2268C62.8292 31.5445 62.552 32.0388 62.3615 32.6919H67.6627Z" fill="#6FA2C2"/>
<path d="M70.0361 29.8676H70.9716V30.8915C71.2488 30.4855 71.5434 30.1854 71.8552 29.9735C72.167 29.7794 72.4789 29.6735 72.8254 29.6735C73.0852 29.6735 73.3451 29.7617 73.6396 29.9206L73.1545 30.6796C72.964 30.5914 72.808 30.5561 72.6694 30.5561C72.3576 30.5561 72.0631 30.6796 71.7859 30.9268C71.5087 31.1739 71.2835 31.5623 71.1449 32.0918C71.0236 32.4978 70.9716 33.3098 70.9716 34.5278V36.9109H70.0361V29.8676Z" fill="#6FA2C2"/>
<path d="M77.971 30.6443L77.382 31.2445C76.8969 30.7679 76.4118 30.5384 75.9441 30.5384C75.6496 30.5384 75.3897 30.6443 75.1818 30.8385C74.9739 31.0327 74.87 31.2622 74.87 31.5269C74.87 31.7564 74.9566 31.9683 75.1298 32.1801C75.3031 32.3919 75.6669 32.639 76.2213 32.9215C76.8969 33.2745 77.3647 33.6099 77.6072 33.9277C77.8498 34.263 77.971 34.6337 77.971 35.0397C77.971 35.6223 77.7631 36.1165 77.3647 36.5049C76.9489 36.9109 76.4465 37.1051 75.8228 37.1051C75.407 37.1051 75.0259 37.0168 74.6448 36.8403C74.2636 36.6637 73.9691 36.4166 73.7266 36.1165L74.2983 35.4634C74.766 35.993 75.2684 36.2401 75.7882 36.2401C76.152 36.2401 76.4638 36.1165 76.7237 35.8871C76.9836 35.6576 77.1048 35.3751 77.1048 35.0574C77.1048 34.7926 77.0182 34.5631 76.845 34.369C76.6717 34.1748 76.2906 33.9277 75.7015 33.6099C75.0605 33.2745 74.6274 32.9568 74.3849 32.639C74.1424 32.3213 74.0384 31.9506 74.0384 31.5446C74.0384 31.015 74.229 30.5561 74.5928 30.203C74.9566 29.85 75.4244 29.6735 75.9961 29.6735C76.6544 29.6911 77.3127 30.0089 77.971 30.6443Z" fill="#6FA2C2"/>
<path d="M79.6001 27.1492H80.5183V31.1386C80.8821 30.662 81.2979 30.2913 81.731 30.0618C82.1814 29.8147 82.6492 29.7087 83.1689 29.7087C83.706 29.7087 84.1737 29.85 84.5895 30.1147C85.0053 30.3795 85.2998 30.7502 85.5077 31.1915C85.7156 31.6328 85.8022 32.3566 85.8022 33.3098V36.9462H84.884V33.5746C84.884 32.7626 84.8494 32.2154 84.7801 31.9506C84.6588 31.4916 84.4682 31.1386 84.1564 30.8914C83.8619 30.662 83.4634 30.5384 82.9783 30.5384C82.424 30.5384 81.9216 30.7149 81.4884 31.0856C81.0553 31.4563 80.7608 31.8976 80.6222 32.4272C80.5356 32.7802 80.4836 33.4157 80.4836 34.3513V36.9285H79.5654V27.1492H79.6001Z" fill="#6FA2C2"/>
<path d="M88.0711 26.9727C88.279 26.9727 88.4523 27.0433 88.6082 27.1845C88.7641 27.3257 88.8334 27.5022 88.8334 27.7141C88.8334 27.9259 88.7641 28.0847 88.6082 28.2436C88.4523 28.4025 88.279 28.4554 88.0711 28.4554C87.8632 28.4554 87.69 28.3848 87.5514 28.2436C87.4128 28.1024 87.3262 27.9259 87.3262 27.7141C87.3262 27.5022 87.3955 27.3257 87.5514 27.1845C87.7073 27.0433 87.8632 26.9727 88.0711 26.9727ZM87.6207 29.8676H88.5389V36.9109H87.6207V29.8676Z" fill="#6FA2C2"/>
<path d="M90.4443 29.8676H91.3625V31.1562C91.7263 30.662 92.1421 30.2913 92.6099 30.0442C93.0776 29.797 93.5974 29.6735 94.1864 29.6735C95.1912 29.6735 96.0574 30.0265 96.7851 30.7502C97.4954 31.474 97.8592 32.339 97.8592 33.3628C97.8592 34.4043 97.4954 35.2869 96.7851 36.0106C96.0748 36.7344 95.2085 37.0874 94.2037 37.0874C93.632 37.0874 93.1123 36.9638 92.6445 36.7344C92.1768 36.5049 91.7437 36.1518 91.3625 35.6929V39.4881H90.4443V29.8676ZM94.0998 30.5737C93.3029 30.5737 92.6445 30.8562 92.1075 31.4034C91.5704 31.9506 91.2932 32.639 91.2932 33.451C91.2932 33.9806 91.4145 34.4749 91.657 34.8985C91.8996 35.3222 92.2461 35.6576 92.6965 35.9224C93.1469 36.1871 93.6147 36.2931 94.1171 36.2931C94.6022 36.2931 95.0699 36.1695 95.5031 35.9224C95.9362 35.6752 96.2827 35.3222 96.5425 34.8632C96.8024 34.4043 96.9237 33.9277 96.9237 33.4334C96.9237 32.9391 96.8024 32.4625 96.5425 32.0036C96.2827 31.5623 95.9535 31.2092 95.5204 30.9621C95.07 30.6973 94.6022 30.5737 94.0998 30.5737Z" fill="#6FA2C2"/>
<path d="M23.3007 8.6465L19.3477 10.3156L19.7058 11.1961L23.6588 9.52709L23.3007 8.6465Z" fill="#6FA2C2"/>
<path d="M7.01616 28.4537L3.0791 30.116L3.43722 30.9966L7.37427 29.3343L7.01616 28.4537Z" fill="#6FA2C2"/>
<path d="M13.8369 11.5269H12.9014V17.0167H13.8369V11.5269Z" fill="#FABC1B"/>
<path d="M13.9062 23.4774H12.9707V28.9673H13.9062V23.4774Z" fill="#FABC1B"/>
<path fill-rule="evenodd" clip-rule="evenodd" d="M13.9229 13.0272C13.3858 13.2214 12.7448 13.0979 12.3117 12.6565C11.7053 12.0387 11.7053 11.0502 12.3117 10.4324C12.918 9.81454 13.8882 9.81454 14.4946 10.4324C14.9277 10.8737 15.049 11.5268 14.8584 12.074L21.0605 18.3935C22.1 19.4527 22.8796 20.653 23.3993 21.9416C23.9537 23.2832 24.2136 24.7307 24.2136 26.1605C24.2136 29.1967 23.0009 31.9505 21.0432 33.9452C19.0855 35.9399 16.3829 37.1755 13.4031 37.1755C11.9999 37.1755 10.5966 36.8931 9.2626 36.3459C7.99792 35.8163 6.80253 35.0219 5.78039 33.9805L3.75344 31.9328C3.21638 32.127 2.57538 32.0034 2.14227 31.5621C1.53591 30.9443 1.53591 29.9558 2.14227 29.3379C2.74862 28.7201 3.71879 28.7201 4.32514 29.3379C4.75825 29.7792 4.87952 30.4324 4.68895 30.9796L6.69859 33.0449C7.59945 33.9628 8.63892 34.6513 9.76501 35.1279C10.9257 35.6221 12.1558 35.8516 13.3858 35.8516C16.0018 35.8516 18.3752 34.7572 20.0904 33.0096C21.8055 31.262 22.8623 28.8437 22.8623 26.1782C22.8623 24.9249 22.6197 23.6716 22.1346 22.4712C21.6669 21.3238 20.9912 20.2647 20.0904 19.3468L13.9229 13.0272ZM3.68414 30.8737C3.92668 30.6265 3.92668 30.2382 3.68414 29.9911C3.4416 29.7439 3.06046 29.7439 2.81792 29.9911C2.57538 30.2382 2.57538 30.6265 2.81792 30.8737C3.06046 31.1032 3.4416 31.1032 3.68414 30.8737ZM13.8362 11.9681C14.0788 11.721 14.0788 11.3326 13.8362 11.0855C13.5937 10.8384 13.2126 10.8384 12.97 11.0855C12.7275 11.3326 12.7275 11.721 12.97 11.9681C13.2126 12.2152 13.5937 12.2152 13.8362 11.9681Z" fill="#6FA2C2"/>
<path d="M13.4031 37.4579C11.9305 37.4579 10.5099 37.1755 9.15862 36.6106C7.82465 36.0458 6.61194 35.2338 5.5898 34.1746L3.68411 32.2329C3.07776 32.3917 2.40211 32.1976 1.95167 31.7386C1.24137 31.0149 1.24137 29.8322 1.95167 29.1084C2.66197 28.3847 3.82271 28.3847 4.53301 29.1084C4.98344 29.5674 5.15669 30.2382 5.01809 30.8736L6.92378 32.8154C7.79 33.6804 8.77749 34.3688 9.90357 34.8277C11.0297 35.3044 12.2077 35.5338 13.4204 35.5338H13.6803C16.0537 35.4632 18.2539 34.4924 19.9344 32.7801C21.6668 31.0149 22.6197 28.6495 22.6197 26.1428V25.8781C22.585 24.7307 22.3598 23.6009 21.9267 22.5418C21.459 21.3944 20.8006 20.3706 19.9344 19.5056L13.8535 13.3273C13.2472 13.4862 12.5715 13.3097 12.1211 12.833C11.4108 12.1093 11.4108 10.9266 12.1211 10.2029C12.4676 9.84981 12.918 9.65564 13.4031 9.65564C13.8882 9.65564 14.3386 9.84981 14.6851 10.2029C15.1355 10.6618 15.3088 11.3326 15.1702 11.9681L21.2511 18.1817C22.2905 19.2408 23.0875 20.4588 23.6418 21.8357C24.1962 23.2126 24.4907 24.6601 24.4907 26.1605V26.4429C24.4214 29.3556 23.278 32.074 21.2511 34.1393C19.2241 36.2046 16.5388 37.3697 13.6803 37.4403L13.4031 37.4579ZM3.84003 31.5974L5.98826 33.7686C6.97575 34.7748 8.11916 35.5515 9.38384 36.0811C10.6139 36.593 11.9132 36.8754 13.2472 36.8931H13.4204C16.2443 36.8931 18.8776 35.781 20.8699 33.751C22.8276 31.7563 23.919 29.1437 23.9537 26.337V25.8781C23.919 24.5541 23.6592 23.2655 23.1567 22.0299C22.637 20.7413 21.8574 19.5762 20.8872 18.57L14.5465 12.1446L14.5985 11.9857C14.7717 11.5091 14.6505 10.9796 14.304 10.6265C14.0614 10.3794 13.7496 10.2382 13.4031 10.2382C13.0566 10.2382 12.7448 10.3794 12.5022 10.6265C12.2597 10.8736 12.1211 11.1914 12.1211 11.5444C12.1211 11.8975 12.2597 12.2152 12.5022 12.4623C12.8487 12.8154 13.3685 12.939 13.8362 12.7624L13.9921 12.7095L20.3155 19.1525C21.2164 20.0705 21.9267 21.1649 22.4291 22.3653C22.9142 23.5833 23.1741 24.8542 23.1741 26.1781V26.4606C23.1048 29.0202 22.1 31.4032 20.3329 33.2214C18.4965 35.1102 16.0364 36.134 13.4378 36.134H13.1606C11.9652 36.0987 10.8044 35.8516 9.69568 35.3926C8.51762 34.8984 7.44351 34.1746 6.54264 33.2567L4.41174 31.0678L4.46371 30.9089C4.61963 30.4323 4.51568 29.9028 4.1692 29.5497C3.66679 29.0378 2.86986 29.0378 2.36746 29.5497C1.86505 30.0616 1.86505 30.8736 2.36746 31.3856C2.71394 31.7386 3.23368 31.8622 3.70144 31.6856L3.84003 31.5974ZM3.251 31.3326C3.00846 31.3326 2.80057 31.2443 2.62732 31.0678C2.45408 30.8913 2.36746 30.6795 2.36746 30.4323C2.36746 30.1852 2.45408 29.9734 2.62732 29.7969C2.80057 29.6203 3.00846 29.5321 3.251 29.5321C3.49354 29.5321 3.70144 29.6203 3.87468 29.7969C4.22117 30.1499 4.22117 30.7148 3.87468 31.0678C3.70144 31.2443 3.47622 31.3326 3.251 31.3326ZM3.251 30.0969C3.16438 30.0969 3.07776 30.1322 3.00846 30.2029C2.93916 30.2735 2.90451 30.3441 2.90451 30.45C2.90451 30.5559 2.93916 30.6265 3.00846 30.6971C3.12973 30.8207 3.35495 30.8207 3.47622 30.6971C3.59749 30.5736 3.59749 30.3441 3.47622 30.2205C3.42425 30.1322 3.33762 30.0969 3.251 30.0969ZM13.4031 12.427C13.1779 12.427 12.9527 12.3388 12.7794 12.1623C12.4329 11.8092 12.4329 11.2443 12.7794 10.8913C12.9527 10.7148 13.1606 10.6265 13.4031 10.6265C13.6456 10.6265 13.8535 10.7148 14.0268 10.8913C14.3733 11.2443 14.3733 11.8092 14.0268 12.1623C13.8535 12.3388 13.6283 12.427 13.4031 12.427ZM13.4031 11.1914C13.3165 11.1914 13.2299 11.2267 13.1606 11.2973C13.0393 11.4209 13.0393 11.6503 13.1606 11.7739C13.2818 11.8975 13.5071 11.8975 13.6283 11.7739C13.7496 11.6503 13.7496 11.4209 13.6283 11.2973C13.5763 11.2267 13.4897 11.1914 13.4031 11.1914Z" fill="#6FA2C2"/>
<path d="M13.4039 37.2638C11.966 37.2638 10.5627 36.9814 9.22876 36.4165C7.9121 35.8693 6.73405 35.0573 5.71191 34.0335L3.73692 32.0211C3.16522 32.1976 2.50689 32.0564 2.0911 31.6151C1.4501 30.962 1.4501 29.9029 2.0911 29.2497C2.73211 28.5966 3.77157 28.5966 4.41257 29.2497C4.84568 29.691 5.0016 30.3442 4.81104 30.9443L6.78602 32.9567C7.66956 33.8393 8.67438 34.5454 9.81779 35.022C10.9612 35.4986 12.1566 35.7458 13.4039 35.7458H13.4906C15.968 35.7281 18.2894 34.7219 20.0392 32.939C21.8063 31.1385 22.7764 28.7378 22.7764 26.1782V26.09C22.7591 24.8543 22.5166 23.654 22.0661 22.5242C21.5984 21.3592 20.9054 20.3177 20.0392 19.4351L13.9063 13.1332C13.3346 13.3274 12.6763 13.1685 12.2432 12.7272C11.9314 12.4095 11.7581 11.9858 11.7581 11.5445C11.7581 11.1032 11.9314 10.6796 12.2432 10.3618C12.555 10.0441 12.9708 9.86755 13.4039 9.86755C13.8371 9.86755 14.2528 10.0441 14.5647 10.3618C14.9978 10.8031 15.1537 11.4563 14.9631 12.0564L21.1133 18.323C22.1354 19.3645 22.9324 20.5648 23.4694 21.9064C24.0238 23.2656 24.301 24.6954 24.301 26.1606V26.2488C24.2837 29.1791 23.1403 31.9329 21.1133 34.0158C19.069 36.0988 16.3837 37.2462 13.4906 37.2638H13.4039ZM3.7889 31.8093L5.8505 33.9099C6.85532 34.9161 8.01605 35.7104 9.29806 36.2577C10.5801 36.7872 11.9314 37.0697 13.3173 37.0873H13.4039C16.2625 37.0873 18.9651 35.9576 20.9747 33.8923C22.9843 31.8446 24.0931 29.1438 24.1104 26.2665V26.09C24.0931 24.6778 23.8332 23.3009 23.2962 21.9946C22.7591 20.6707 21.9795 19.488 20.9747 18.4642L14.7379 12.1094L14.7552 12.0564C14.9458 11.5269 14.8072 10.909 14.4088 10.503C13.8371 9.92051 12.9189 9.92051 12.3472 10.503C12.07 10.7855 11.914 11.1562 11.914 11.5445C11.914 11.9329 12.07 12.3036 12.3472 12.586C12.7456 12.992 13.3346 13.1332 13.8717 12.939L13.9237 12.9214L20.1605 19.2762C21.044 20.1765 21.737 21.2533 22.2221 22.436C22.7071 23.6187 22.9497 24.8896 22.9497 26.1782V26.2665C22.9324 28.8437 21.9275 31.2444 20.1431 33.0803C18.3241 34.9337 15.9333 35.9399 13.3693 35.9399H13.2827C12.0526 35.9223 10.8573 35.6751 9.71384 35.1985C8.55311 34.7043 7.51364 33.9982 6.61277 33.0979L4.55117 30.9973L4.56849 30.9443C4.75906 30.4148 4.62047 29.7969 4.22201 29.4086C3.6503 28.8261 2.73211 28.8261 2.1604 29.4086C1.5887 29.9911 1.5887 30.9267 2.1604 31.5092C2.55886 31.9152 3.14789 32.0564 3.66762 31.8623L3.7889 31.8093ZM3.25184 31.1385C3.06127 31.1385 2.88803 31.0679 2.74943 30.9267C2.61084 30.7855 2.54154 30.6089 2.54154 30.4148C2.54154 30.2206 2.61084 30.0441 2.74943 29.9029C3.0093 29.6381 3.47706 29.6381 3.73692 29.9029C4.01411 30.1853 4.01411 30.6266 3.73692 30.909C3.61565 31.0679 3.44241 31.1385 3.25184 31.1385ZM3.25184 29.9029C3.11324 29.9029 2.99197 29.9558 2.88803 30.0617C2.78408 30.1676 2.73211 30.2912 2.73211 30.4324C2.73211 30.5736 2.78408 30.6972 2.88803 30.8031C3.0786 30.9973 3.42508 30.9973 3.61565 30.8031C3.82354 30.5913 3.82354 30.2736 3.61565 30.0617C3.51171 29.9735 3.39043 29.9029 3.25184 29.9029ZM13.4039 12.2506C13.2307 12.2506 13.0401 12.18 12.9015 12.0388C12.7629 11.8976 12.6936 11.721 12.6936 11.5269C12.6936 11.3327 12.7629 11.1562 12.9015 11.0149C13.1787 10.7325 13.6118 10.7325 13.889 11.0149C14.0276 11.1562 14.0969 11.3327 14.0969 11.5269C14.0969 11.721 14.0276 11.8976 13.889 12.0388C13.7678 12.18 13.5945 12.2506 13.4039 12.2506ZM13.4039 11.0149C13.2653 11.0149 13.1441 11.0679 13.0401 11.1738C12.8322 11.3856 12.8322 11.7034 13.0401 11.9152C13.2307 12.1094 13.5772 12.1094 13.7678 11.9152C13.9756 11.7034 13.9756 11.3856 13.7678 11.1738C13.6638 11.0679 13.5425 11.0149 13.4039 11.0149Z" fill="#6FA2C2"/>
<path d="M13.4208 37.5462C11.9309 37.5462 10.493 37.2638 9.14169 36.6813C7.79038 36.1164 6.57767 35.2868 5.53821 34.2276L3.66717 32.3212C3.0435 32.4624 2.36784 32.2682 1.90008 31.7916C1.53627 31.4209 1.3457 30.9267 1.3457 30.4147C1.3457 29.8852 1.53627 29.4086 1.90008 29.0379C2.2639 28.6672 2.74898 28.473 3.25139 28.473C3.77112 28.473 4.23888 28.6672 4.60269 29.0379C5.05313 29.4968 5.26102 30.2029 5.12242 30.8384L6.99346 32.7448C7.84236 33.6098 8.82985 34.2806 9.93861 34.7395C11.0474 35.1985 12.2254 35.4456 13.4208 35.4456H13.5248C15.9155 35.428 18.1677 34.4571 19.8655 32.7095C21.5806 30.962 22.5335 28.6142 22.5335 26.1429V26.037C22.5161 24.8543 22.2909 23.6892 21.8405 22.5771C21.39 21.4474 20.7144 20.4412 19.8828 19.5763L13.8193 13.4333C13.1956 13.5745 12.5026 13.3803 12.0522 12.9037C11.6884 12.533 11.4978 12.0387 11.4978 11.5268C11.4978 10.9973 11.6884 10.5207 12.0522 10.15C12.416 9.77926 12.9011 9.58508 13.4035 9.58508C13.9232 9.58508 14.391 9.77926 14.7548 10.15C15.2226 10.6266 15.4131 11.315 15.2745 11.9505L21.3207 18.1111C22.3602 19.1703 23.1745 20.4059 23.7288 21.7828C24.2832 23.1773 24.5777 24.6425 24.5777 26.1429V26.2312C24.5604 29.232 23.3824 32.0564 21.3034 34.1923C19.2245 36.3106 16.4526 37.4933 13.5074 37.5286L13.4208 37.5462ZM3.85774 31.4915L6.04062 33.7157C7.01078 34.7042 8.1542 35.4809 9.40155 36.0105C10.6489 36.5401 11.9656 36.8049 13.3169 36.8225H13.3862C16.1927 36.8225 18.8087 35.7104 20.7837 33.7157C22.7413 31.721 23.8155 29.0908 23.8501 26.2841V25.8428C23.8155 24.5542 23.5383 23.3009 23.0705 22.1182C22.5508 20.8296 21.7885 19.6822 20.8183 18.676L14.443 12.1623L14.5296 11.9328C14.6855 11.4915 14.5816 10.9973 14.2524 10.6795C13.7846 10.2029 13.0397 10.2029 12.5892 10.6795C12.364 10.909 12.2428 11.2091 12.2428 11.5268C12.2428 11.8446 12.364 12.1447 12.5892 12.3741C12.9184 12.7095 13.3862 12.8154 13.8193 12.6566L14.0445 12.5683L20.3852 19.0643C21.3034 19.9999 22.0137 21.0944 22.5161 22.3124C23.0185 23.5304 23.2611 24.8366 23.2611 26.1605V26.2665C23.2438 28.8966 22.2216 31.3856 20.3852 33.2567C18.5142 35.1632 16.0541 36.2047 13.4208 36.2047H13.3169C12.0522 36.187 10.8222 35.9399 9.66142 35.4456C8.46603 34.9514 7.39192 34.21 6.47373 33.2921L4.27353 31.0679L4.34283 30.8384C4.49875 30.3971 4.3948 29.9028 4.06563 29.5851C3.59788 29.1085 2.85293 29.1085 2.40249 29.5851C1.93473 30.0617 1.93473 30.8207 2.40249 31.2797C2.71433 31.5974 3.19941 31.721 3.63252 31.5621L3.85774 31.4915ZM3.25139 31.4209C2.99152 31.4209 2.74898 31.315 2.55841 31.1385C2.36784 30.9443 2.28122 30.6972 2.28122 30.4324C2.28122 30.1676 2.38517 29.9205 2.55841 29.7263C2.73166 29.5498 2.99152 29.4439 3.25139 29.4439C3.51125 29.4439 3.77112 29.5498 3.94436 29.7263C4.3255 30.1146 4.3255 30.7501 3.94436 31.1385C3.7538 31.315 3.51125 31.4209 3.25139 31.4209ZM3.25139 30.1853C3.18209 30.1853 3.13012 30.2029 3.07814 30.2559C3.02617 30.3088 3.00885 30.3618 3.00885 30.4324C3.00885 30.503 3.02617 30.556 3.07814 30.6089C3.16477 30.6972 3.32069 30.6972 3.40731 30.6089C3.45928 30.556 3.47661 30.503 3.47661 30.4324C3.47661 30.3618 3.45928 30.3088 3.40731 30.2559C3.37266 30.2206 3.32069 30.1853 3.25139 30.1853ZM13.4035 12.533C13.1436 12.533 12.9011 12.4271 12.7105 12.2506C12.5199 12.0564 12.4333 11.8093 12.4333 11.5445C12.4333 11.2797 12.5373 11.0326 12.7105 10.8384C13.0917 10.45 13.7153 10.45 14.0965 10.8384C14.287 11.0326 14.3737 11.2797 14.3737 11.5445C14.3737 11.8093 14.2697 12.0564 14.0965 12.2506C13.9232 12.4271 13.6634 12.533 13.4035 12.533ZM13.4035 11.2974C13.3342 11.2974 13.2822 11.315 13.2302 11.368C13.1436 11.4562 13.1436 11.6151 13.2302 11.7034C13.3169 11.7916 13.4728 11.7916 13.5594 11.7034C13.6114 11.6504 13.6287 11.5974 13.6287 11.5268C13.6287 11.4562 13.6114 11.4033 13.5594 11.3503C13.5248 11.315 13.4728 11.2974 13.4035 11.2974Z" fill="#6FA2C2"/>
<path fill-rule="evenodd" clip-rule="evenodd" d="M13.0573 21.5709C13.3864 21.4473 13.7849 21.5179 14.0621 21.8004C14.4432 22.1887 14.4432 22.8242 14.0621 23.1949C13.681 23.5833 13.0919 23.5833 12.7108 23.1949C12.4336 22.9125 12.3643 22.5065 12.4856 22.1534L8.65688 18.1817C8.01587 17.5109 7.53079 16.7518 7.21895 15.9398C6.87246 15.1102 6.69922 14.2099 6.69922 13.3096C6.69922 11.4032 7.44417 9.67329 8.65688 8.40232C9.86958 7.14901 11.5327 6.37231 13.3691 6.37231C14.2353 6.37231 15.1016 6.54884 15.9158 6.90188C16.6954 7.23727 17.423 7.73154 18.064 8.38467L19.3114 9.67329C19.6406 9.54972 20.039 9.62033 20.2989 9.90276C20.68 10.2911 20.68 10.9266 20.2989 11.2973C19.9177 11.6856 19.3287 11.6856 18.9476 11.2973C18.6704 11.0149 18.6011 10.6089 18.7224 10.2558L17.475 8.9672C16.9206 8.38467 16.2796 7.96102 15.5866 7.66093C14.8763 7.36084 14.1141 7.20197 13.3518 7.20197C11.7406 7.20197 10.268 7.89041 9.21126 8.98485C8.15447 10.0793 7.49614 11.615 7.49614 13.292C7.49614 14.0863 7.65206 14.8807 7.94658 15.6221C8.22377 16.3458 8.65688 17.0166 9.21126 17.5815L13.0573 21.5709ZM19.3807 10.3441C19.2421 10.5029 19.2421 10.7501 19.3807 10.8913C19.5193 11.0502 19.7618 11.0502 19.9177 10.8913C20.0563 10.7324 20.0563 10.4853 19.9177 10.3441C19.7618 10.1852 19.5193 10.1852 19.3807 10.3441ZM13.1092 22.2417C12.9707 22.4006 12.9707 22.6477 13.1092 22.7889C13.2478 22.9478 13.4904 22.9478 13.6463 22.7889C13.7849 22.63 13.7849 22.3829 13.6463 22.2417C13.4904 22.0828 13.2478 22.0828 13.1092 22.2417Z" fill="#FABC1B"/>
<path d="M13.369 23.7069C13.0572 23.7069 12.7626 23.5833 12.5548 23.3538C12.2776 23.0537 12.1563 22.6301 12.2429 22.2241L8.50084 18.3406C7.85984 17.6698 7.35743 16.8931 7.01094 16.0281C6.68178 15.2161 6.50854 14.3688 6.49121 13.5039V13.4509C6.49121 13.3979 6.49121 13.345 6.49121 13.292V13.0802C6.54318 11.2444 7.25349 9.54975 8.50084 8.24349C9.7482 6.93722 11.394 6.21348 13.1611 6.16052H13.369C14.2699 6.16052 15.1707 6.33704 16.0023 6.70774C16.8339 7.06079 17.5788 7.5727 18.2198 8.24349L19.3806 9.44384C19.7617 9.35558 20.1775 9.47915 20.4547 9.76158C20.9051 10.2205 20.9051 10.9972 20.4547 11.4562C20.2295 11.6857 19.935 11.8092 19.6404 11.8092C19.3286 11.8092 19.0341 11.6857 18.8262 11.4562C18.549 11.1561 18.4277 10.7325 18.5143 10.3265L17.3536 9.1261C16.8339 8.57888 16.2102 8.15523 15.5346 7.85514C14.8416 7.55505 14.1313 7.41383 13.3863 7.41383H13.2304C11.7752 7.44914 10.4239 8.06697 9.40171 9.14375C8.34492 10.2558 7.75589 11.721 7.75589 13.292V13.4509C7.77322 14.1746 7.91181 14.8807 8.189 15.5339C8.46619 16.2576 8.88198 16.8931 9.40171 17.4403L13.1438 21.3238C13.5249 21.2355 13.9407 21.3591 14.2352 21.6415C14.6857 22.1005 14.6857 22.8772 14.2352 23.3362C13.9754 23.5833 13.6808 23.7069 13.369 23.7069ZM6.907 13.4862C6.92432 14.3159 7.09757 15.1279 7.39208 15.8869C7.72124 16.6989 8.189 17.4227 8.79536 18.0581L12.7107 22.1182L12.676 22.2417C12.5721 22.5242 12.6414 22.8419 12.8493 23.0537C12.9879 23.1949 13.1784 23.2832 13.369 23.2832C13.5596 23.2832 13.7501 23.1949 13.8887 23.0537C14.1832 22.7536 14.1832 22.2417 13.8887 21.9416C13.6808 21.7298 13.3863 21.6592 13.1091 21.7651L12.9879 21.8181L9.07255 17.7404C8.51817 17.1579 8.06773 16.4694 7.77322 15.7104C7.46138 14.9513 7.30546 14.1393 7.30546 13.3097V13.0979C7.35743 11.4915 7.98111 9.99106 9.07255 8.86132C10.216 7.66096 11.7405 7.00783 13.3517 7.00783H13.5596C14.2872 7.02548 14.9975 7.18435 15.6731 7.48444C16.4008 7.80218 17.0591 8.26114 17.6308 8.84366L18.9648 10.2382L18.9301 10.3618C18.8262 10.6442 18.8955 10.9619 19.1034 11.1738C19.242 11.315 19.4325 11.4032 19.6231 11.4032C19.831 11.4032 20.0043 11.315 20.1428 11.1738C20.4374 10.8737 20.4374 10.3618 20.1428 10.0617C19.935 9.84984 19.6404 9.77923 19.3632 9.88515L19.242 9.9381L17.908 8.54358C17.3016 7.92575 16.6087 7.43148 15.8291 7.09609C15.0841 6.77835 14.2872 6.60183 13.4729 6.58418H13.369C11.6366 6.58418 10.0254 7.29027 8.79536 8.54358C7.59997 9.77923 6.92432 11.4209 6.907 13.1861V13.4862ZM13.369 23.1067C13.2131 23.1067 13.0745 23.0361 12.9532 22.9302C12.728 22.7007 12.728 22.3123 12.9532 22.0829C13.0572 21.9769 13.2131 21.9063 13.369 21.9063C13.5249 21.9063 13.6635 21.9769 13.7848 22.0829C14.01 22.3123 14.01 22.7007 13.7848 22.9302C13.6808 23.0537 13.5249 23.1067 13.369 23.1067ZM13.2477 22.3829C13.1784 22.4536 13.1784 22.5771 13.2477 22.6477C13.317 22.7183 13.421 22.7183 13.4903 22.6477C13.5596 22.5771 13.5596 22.4536 13.4903 22.3829C13.4556 22.3476 13.421 22.33 13.369 22.33C13.317 22.33 13.2824 22.3476 13.2477 22.3829ZM19.6404 11.2091C19.4845 11.2091 19.3459 11.1385 19.2247 11.0325C18.9994 10.8031 18.9994 10.4147 19.2247 10.1852C19.3286 10.0793 19.4845 10.0087 19.6404 10.0087C19.7964 10.0087 19.935 10.0793 20.0562 10.1852C20.2814 10.4147 20.2814 10.8031 20.0562 11.0325C19.935 11.1561 19.7964 11.2091 19.6404 11.2091ZM19.5192 10.4853C19.4499 10.5559 19.4499 10.6795 19.5192 10.7501C19.5885 10.8207 19.6924 10.8207 19.7617 10.7501C19.831 10.6795 19.831 10.5559 19.7617 10.4853C19.7271 10.45 19.6924 10.4324 19.6404 10.4324C19.5885 10.4324 19.5538 10.45 19.5192 10.4853Z" fill="#FABC1B"/>
<path d="M13.369 23.7422C13.0572 23.7422 12.7453 23.6186 12.5374 23.3891C12.2602 23.089 12.139 22.6654 12.2256 22.2594L8.50084 18.3759C7.85984 17.7051 7.35743 16.9284 7.01094 16.0634C6.6991 15.2691 6.52586 14.4218 6.49121 13.5568V13.4686C6.49121 13.4156 6.49121 13.3803 6.49121 13.3273V13.0979C6.54318 11.2797 7.25349 9.56741 8.50084 8.26114C9.7482 6.95487 11.394 6.23113 13.1438 6.16052H13.369C14.2872 6.16052 15.1707 6.33704 16.0023 6.70774C16.8339 7.06079 17.5788 7.59035 18.2198 8.24349L19.3632 9.44384C19.7617 9.35558 20.1602 9.47915 20.4547 9.77923C20.9051 10.2558 20.9051 11.0325 20.4547 11.5092C20.2295 11.7386 19.935 11.8622 19.6231 11.8622C19.3113 11.8622 18.9994 11.7386 18.7915 11.5092C18.5144 11.2091 18.3931 10.7854 18.4797 10.3794L17.3363 9.17906C16.8166 8.63184 16.1929 8.20818 15.5172 7.92575C14.8416 7.62566 14.114 7.48444 13.369 7.48444H13.2131C11.7752 7.51975 10.4239 8.13757 9.40171 9.19671C8.34492 10.3088 7.75589 11.7739 7.75589 13.3273V13.4862C7.77322 14.2099 7.91181 14.8984 8.189 15.5692C8.46619 16.2753 8.88198 16.9107 9.40171 17.458L13.1265 21.3415C13.5249 21.2532 13.9407 21.3768 14.2179 21.6769C14.6683 22.1535 14.6683 22.9302 14.2179 23.4068C13.9927 23.6009 13.6982 23.7422 13.369 23.7422ZM6.94165 13.4862C6.95897 14.3159 7.13221 15.1102 7.42673 15.8869C7.75589 16.6989 8.22365 17.4227 8.81268 18.0405L12.7453 22.1182L12.6933 22.2594C12.6067 22.5418 12.6587 22.8419 12.8666 23.0537C13.1438 23.3362 13.6115 23.3362 13.8887 23.0537C14.1659 22.7536 14.1659 22.277 13.8887 21.9769C13.6982 21.7651 13.4036 21.7122 13.1265 21.8004L12.9879 21.8534L9.05522 17.7757C8.48352 17.1932 8.05041 16.5047 7.73857 15.728C7.42673 14.9513 7.27081 14.1393 7.27081 13.3097V13.0802C7.32278 11.4738 7.94646 9.99106 9.0379 8.84366C10.1813 7.64331 11.7232 6.99018 13.3344 6.99018H13.5596C14.2872 7.02548 14.9802 7.18435 15.6558 7.46679C16.4008 7.78453 17.0591 8.24349 17.6135 8.82601L18.9648 10.2205L18.9128 10.3618C18.8262 10.6442 18.8782 10.9443 19.0861 11.1561C19.3632 11.4385 19.831 11.4385 20.1082 11.1561C20.3854 10.856 20.3854 10.3794 20.1082 10.0793C19.9176 9.86749 19.6231 9.79689 19.3632 9.9028L19.2247 9.95576L17.8733 8.56123C17.267 7.9434 16.574 7.44914 15.7944 7.11374C15.0495 6.796 14.2525 6.61948 13.4556 6.60183H13.3344C11.6192 6.60183 9.99074 7.29027 8.77803 8.56123C7.58265 9.79689 6.92432 11.4385 6.88967 13.1685L6.94165 13.4862ZM13.369 23.1243C13.2131 23.1243 13.0572 23.0537 12.9359 22.9478C12.7107 22.7007 12.7107 22.3123 12.9359 22.0652C13.1611 21.8357 13.5596 21.8357 13.8021 22.0652C14.0273 22.3123 14.0273 22.7007 13.8021 22.9478C13.6808 23.0714 13.5422 23.1243 13.369 23.1243ZM13.369 22.3476C13.3344 22.3476 13.2997 22.3653 13.2651 22.3829C13.2131 22.4359 13.2131 22.5418 13.2651 22.6124C13.317 22.6654 13.4036 22.6654 13.4729 22.6124C13.5249 22.5595 13.5249 22.4536 13.4729 22.3829C13.4383 22.3653 13.4037 22.3476 13.369 22.3476ZM19.6404 11.2444C19.4845 11.2444 19.3286 11.1738 19.2073 11.0678C18.9821 10.8207 18.9821 10.4324 19.2073 10.1852C19.4325 9.95576 19.831 9.95576 20.0735 10.1852C20.2988 10.4324 20.2988 10.8207 20.0735 11.0678C19.9523 11.1738 19.7964 11.2444 19.6404 11.2444ZM19.6404 10.4677C19.6058 10.4677 19.5711 10.4853 19.5365 10.503C19.4845 10.5559 19.4845 10.6618 19.5365 10.7325C19.5885 10.7854 19.6751 10.7854 19.7444 10.7325C19.7964 10.6795 19.7964 10.5736 19.7444 10.503C19.7097 10.4677 19.6751 10.4677 19.6404 10.4677Z" fill="#FABC1B"/>
<path d="M13.3686 23.954C12.9875 23.954 12.641 23.7952 12.3811 23.5304C12.0693 23.2126 11.9307 22.7537 11.9827 22.33L8.32723 18.5348C7.6689 17.8463 7.14917 17.0343 6.78536 16.1517C6.49084 15.3927 6.30027 14.5983 6.26562 13.7687V13.4686C6.26562 13.4156 6.26562 13.3803 6.26562 13.3274V13.0979C6.3176 11.2268 7.06255 9.46153 8.34455 8.11996C9.57459 6.81369 11.2031 6.05464 12.9355 5.94873H13.3686C14.3042 5.94873 15.2223 6.14291 16.0886 6.5136C16.9548 6.8843 17.7171 7.41387 18.3754 8.1023L19.4495 9.2144C19.8826 9.16144 20.3157 9.30266 20.6102 9.6204C21.1473 10.1853 21.1473 11.0855 20.6102 11.6504C20.3504 11.9152 20.0039 12.0741 19.6227 12.0741C19.2416 12.0741 18.8951 11.9152 18.6353 11.6504C18.3407 11.3327 18.1848 10.8737 18.2368 10.4501L17.1627 9.32031C16.6603 8.79074 16.0712 8.38474 15.4129 8.1023C14.7546 7.81987 14.0616 7.67865 13.3513 7.67865H13.1954C11.8094 7.71396 10.5101 8.29648 9.52261 9.33796C8.50047 10.3971 7.92877 11.8269 7.92877 13.3274V13.4862C7.94609 14.1747 8.08469 14.8455 8.34455 15.4809C8.62174 16.1694 9.00288 16.7872 9.52261 17.2991L13.1781 21.0944C13.6112 21.0414 14.0443 21.1826 14.3388 21.5004C14.8759 22.0652 14.8759 22.9655 14.3388 23.5304C14.0963 23.7952 13.7498 23.954 13.3686 23.954ZM6.68141 13.4862V13.5392C6.69874 14.3865 6.87198 15.1985 7.18382 15.9752C7.51298 16.8225 7.99807 17.5639 8.63907 18.217L12.4504 22.1711L12.4331 22.2771C12.3638 22.6125 12.4678 22.9832 12.693 23.2126C12.8835 23.4068 13.1261 23.5127 13.386 23.5127C13.6458 23.5127 13.8884 23.4068 14.0789 23.2126C14.4601 22.8243 14.4601 22.1711 14.0789 21.7828C13.8537 21.5357 13.5072 21.4298 13.1781 21.5004L13.0741 21.518L9.26275 17.5639C8.72569 16.999 8.29258 16.3459 7.99807 15.6045C7.72088 14.9161 7.58228 14.1923 7.56496 13.4509V13.2744C7.56496 11.6504 8.17131 10.1323 9.26275 8.98492C10.3022 7.90813 11.7228 7.2903 13.2127 7.23734H13.3686C14.1309 7.23734 14.8932 7.39621 15.6035 7.6963C16.3138 7.99639 16.9375 8.4377 17.4918 9.00257L18.7219 10.2912L18.7046 10.3971C18.6353 10.7325 18.7392 11.1032 18.9644 11.3327C19.155 11.5268 19.3975 11.6328 19.6574 11.6328C19.9173 11.6328 20.1598 11.5268 20.3504 11.3327C20.7315 10.9443 20.7315 10.2912 20.3504 9.90283C20.1252 9.6557 19.7787 9.54979 19.4495 9.6204L19.3456 9.63805L18.1155 8.36709C17.4918 7.71396 16.7642 7.21969 15.95 6.86665C15.1357 6.5136 14.2695 6.33708 13.386 6.33708H13.1607C11.4629 6.39004 9.85178 7.11378 8.65639 8.36709C7.44368 9.6204 6.75071 11.2974 6.69874 13.0626V13.2921C6.69874 13.3274 6.69874 13.3803 6.69874 13.4333L6.68141 13.4862ZM13.3686 23.4774C13.1261 23.4774 12.8835 23.3715 12.7103 23.195C12.4504 22.9302 12.3638 22.5418 12.4851 22.1888V22.1711L8.67372 18.1817C8.05004 17.5286 7.56496 16.7872 7.23579 15.9576C6.92395 15.1632 6.75071 14.3335 6.73338 13.4862V13.1862C6.76803 11.3856 7.46101 9.69101 8.67372 8.42005C9.92108 7.11378 11.6015 6.39004 13.3686 6.39004H13.4899C14.3388 6.40769 15.153 6.58421 15.9153 6.9196C16.7122 7.255 17.4399 7.76691 18.0635 8.40239L19.3282 9.70866H19.3456C19.6747 9.58509 20.0559 9.67335 20.3157 9.93814C20.6795 10.3088 20.6795 10.9267 20.3157 11.315C20.1425 11.4915 19.8999 11.5974 19.6574 11.5974C19.4149 11.5974 19.1723 11.4915 18.9991 11.315C18.7392 11.0502 18.6526 10.6619 18.7738 10.3088V10.2912L17.5265 8.98492C16.9721 8.42005 16.3484 7.97874 15.6208 7.67865C14.9798 7.39621 14.2868 7.255 13.5939 7.21969H13.3686C11.8094 7.21969 10.3369 7.85517 9.2281 9.02022C8.17131 10.1147 7.56496 11.5621 7.51298 13.1155V13.345C7.51298 14.1394 7.6689 14.9337 7.96342 15.6751C8.25793 16.4165 8.69104 17.0873 9.2281 17.6522L13.0568 21.6416H13.0741C13.4033 21.518 13.7844 21.6063 14.0443 21.8711C14.4081 22.2418 14.4081 22.8596 14.0443 23.2479C13.8537 23.3715 13.6285 23.4774 13.3686 23.4774ZM13.3686 22.1005C13.2647 22.1005 13.1607 22.1358 13.0914 22.2241C12.9355 22.383 12.9355 22.6478 13.0914 22.8066C13.2474 22.9655 13.5072 22.9655 13.6631 22.8066C13.8191 22.6478 13.8191 22.383 13.6631 22.2241C13.5765 22.1358 13.4726 22.1005 13.3686 22.1005ZM19.6401 10.2029C19.5361 10.2029 19.4322 10.2382 19.3629 10.3265C19.207 10.4854 19.207 10.7501 19.3629 10.909C19.5188 11.0679 19.7787 11.0679 19.9346 10.909C20.0905 10.7501 20.0905 10.4854 19.9346 10.3265C19.848 10.2559 19.744 10.2029 19.6401 10.2029ZM13.3686 22.8772C13.282 22.8772 13.1781 22.8419 13.1261 22.7713C12.9875 22.6301 12.9875 22.4006 13.1261 22.2594C13.2647 22.1182 13.4899 22.1182 13.6285 22.2594C13.7671 22.4006 13.7671 22.6301 13.6285 22.7713C13.5592 22.8419 13.4726 22.8772 13.3686 22.8772ZM13.3686 22.4536C13.3513 22.4536 13.334 22.4536 13.3167 22.4712C13.2993 22.4889 13.2993 22.5242 13.3167 22.5418C13.334 22.5595 13.386 22.5595 13.4033 22.5418C13.4206 22.5242 13.4206 22.4889 13.4033 22.4712C13.4033 22.4536 13.386 22.4536 13.3686 22.4536ZM19.6401 10.9796C19.5534 10.9796 19.4495 10.9443 19.3975 10.8737C19.2589 10.7325 19.2589 10.503 19.3975 10.3618C19.5361 10.2206 19.7613 10.2206 19.8999 10.3618C20.0385 10.503 20.0385 10.7325 19.8999 10.8737C19.8306 10.9443 19.7267 10.9796 19.6401 10.9796ZM19.6401 10.556C19.6227 10.556 19.6054 10.556 19.5881 10.5736C19.5708 10.5913 19.5708 10.6266 19.5881 10.6442C19.6054 10.6619 19.6574 10.6619 19.6747 10.6442C19.692 10.6266 19.692 10.5913 19.6747 10.5736C19.6747 10.5736 19.6574 10.556 19.6401 10.556Z" fill="#FABC1B"/>
<path fill-rule="evenodd" clip-rule="evenodd" d="M13.6805 17.8994C13.3514 18.023 12.9529 17.9524 12.6757 17.6699C12.2946 17.2816 12.2946 16.6461 12.6757 16.2754C13.0568 15.887 13.6459 15.887 14.027 16.2754C14.3042 16.5578 14.3735 16.9638 14.2522 17.3169L18.0809 21.2886C18.7219 21.9594 19.207 22.7185 19.5188 23.5305C19.848 24.3778 20.0213 25.278 20.0213 26.196C20.0213 28.1024 19.2763 29.8323 18.0636 31.1033C16.8509 32.3566 15.1877 33.1333 13.3514 33.1333C12.4851 33.1333 11.6189 32.9568 10.8047 32.6037C10.0251 32.2683 9.29745 31.7741 8.65644 31.1209L7.40909 29.8323C7.07992 29.9559 6.68146 29.8853 6.42159 29.6028C6.04046 29.2145 6.04046 28.579 6.42159 28.2083C6.80273 27.8376 7.39176 27.82 7.7729 28.2083C8.05009 28.4908 8.11939 28.8968 7.99812 29.2498L9.24547 30.5384C9.79985 31.1209 10.4409 31.5446 11.1338 31.8447C11.8441 32.1448 12.6064 32.3036 13.3687 32.3036C14.9799 32.3036 16.4524 31.6152 17.5092 30.5208C18.566 29.4263 19.2243 27.8906 19.2243 26.2136C19.2243 25.4193 19.0684 24.6249 18.7739 23.8835C18.4967 23.1598 18.0636 22.489 17.5092 21.9241L13.6805 17.8994ZM7.33979 29.1439C7.47838 28.985 7.47838 28.7379 7.33979 28.5967C7.20119 28.4378 6.95865 28.4378 6.80273 28.5967C6.66414 28.7555 6.66414 29.0027 6.80273 29.1439C6.95865 29.2851 7.20119 29.2851 7.33979 29.1439ZM13.6112 17.2463C13.7498 17.0874 13.7498 16.8403 13.6112 16.699C13.4726 16.5402 13.2301 16.5402 13.0742 16.699C12.9356 16.8579 12.9356 17.105 13.0742 17.2463C13.2301 17.3875 13.4726 17.3875 13.6112 17.2463Z" fill="#FABC1B"/>
<path d="M13.3512 33.3098C12.4504 33.3098 11.5495 33.1333 10.7179 32.7626C9.88636 32.4095 9.14141 31.8976 8.50041 31.2268L7.33967 30.0265C6.95854 30.1148 6.54275 29.9912 6.26556 29.7088C5.81513 29.2498 5.81513 28.4731 6.26556 28.0141C6.49078 27.7847 6.78529 27.6611 7.07981 27.6611C7.39165 27.6611 7.68616 27.7847 7.89405 28.0141C8.17125 28.3142 8.29252 28.7379 8.20589 29.1439L9.36663 30.3442C9.88636 30.8915 10.51 31.3151 11.1857 31.6152C11.8787 31.9153 12.589 32.0565 13.3339 32.0565H13.4898C14.9451 32.0212 16.2964 31.4034 17.3359 30.3266C18.3926 29.2145 18.9817 27.7494 18.9817 26.1783V26.0194C18.9644 25.2957 18.8258 24.5896 18.5486 23.9365C18.2714 23.2127 17.8556 22.5772 17.3359 22.03L13.5938 18.1465C13.2126 18.2348 12.7969 18.1112 12.5023 17.8288C12.0519 17.3698 12.0519 16.5931 12.5023 16.1342C12.7276 15.9047 13.0221 15.7811 13.3166 15.7811C13.6284 15.7811 13.9229 15.9047 14.1308 16.1342C14.408 16.4343 14.5293 16.8579 14.4427 17.2639L18.1848 21.1474C18.8258 21.8182 19.3282 22.5949 19.6747 23.4599C20.0038 24.2719 20.1771 25.1192 20.1944 25.9841V26.0371C20.1944 26.09 20.1944 26.143 20.1944 26.196V26.4078C20.1424 28.2436 19.4321 29.9382 18.1848 31.2445C16.9374 32.5508 15.2916 33.2745 13.5245 33.3275L13.3512 33.3098ZM7.46094 29.5499L8.79492 30.9444C9.40128 31.5622 10.0943 32.0565 10.8739 32.3919C11.6188 32.7096 12.4157 32.8862 13.23 32.9038H13.3339C15.0664 32.9038 16.6775 32.1977 17.9076 30.9444C19.1029 29.7088 19.7786 28.0671 19.7959 26.3019V26.0018C19.7786 25.1721 19.6054 24.3601 19.3108 23.6011C18.9817 22.7891 18.5139 22.0653 17.9076 21.4298L13.9922 17.3698L14.0269 17.2463C14.1308 16.9638 14.0615 16.6461 13.8537 16.4343C13.7151 16.293 13.5245 16.2048 13.3339 16.2048C13.1434 16.2048 12.9528 16.293 12.8142 16.4343C12.5197 16.7343 12.5197 17.2463 12.8142 17.5464C13.0221 17.7582 13.3166 17.8288 13.5938 17.7229L13.7151 17.6699L17.6304 21.7476C18.1848 22.3301 18.6352 23.0185 18.9297 23.7776C19.2415 24.5366 19.3975 25.3486 19.3975 26.1783V26.3901C19.3455 27.9965 18.7218 29.4969 17.6304 30.6267C16.487 31.827 14.9624 32.4802 13.3512 32.4802H13.1433C12.4157 32.4625 11.7054 32.3036 11.0298 32.0035C10.3021 31.6858 9.64382 31.2268 9.07211 30.6443L7.73813 29.2498L7.77278 29.1262C7.87673 28.8438 7.80743 28.5261 7.59954 28.3142C7.46094 28.173 7.27038 28.0847 7.07981 28.0847C6.88924 28.0847 6.69867 28.173 6.56008 28.3142C6.26556 28.6143 6.26556 29.1262 6.56008 29.4263C6.76797 29.6381 7.06248 29.7088 7.33967 29.6028L7.46094 29.5499ZM7.07981 29.4616C6.92389 29.4616 6.78529 29.391 6.66402 29.2851C6.4388 29.0556 6.4388 28.6673 6.66402 28.4378C6.76797 28.3319 6.92389 28.2613 7.07981 28.2613C7.23573 28.2613 7.37432 28.3319 7.49559 28.4378C7.72081 28.6673 7.72081 29.0556 7.49559 29.2851C7.39165 29.391 7.23573 29.4616 7.07981 29.4616ZM7.07981 28.6849C7.02783 28.6849 6.99319 28.7026 6.95854 28.7379C6.88924 28.8085 6.88924 28.9321 6.95854 29.0027C7.02783 29.0733 7.13178 29.0733 7.20108 29.0027C7.27038 28.9321 7.27038 28.8085 7.20108 28.7379C7.16643 28.7026 7.13178 28.6849 7.07981 28.6849ZM13.3512 17.564C13.1953 17.564 13.0567 17.4934 12.9355 17.3875C12.7102 17.158 12.7102 16.7697 12.9355 16.5402C13.0394 16.4343 13.1953 16.3637 13.3512 16.3637C13.5072 16.3637 13.6458 16.4343 13.767 16.5402C13.9922 16.7697 13.9922 17.158 13.767 17.3875C13.6458 17.4934 13.5072 17.564 13.3512 17.564ZM13.3512 16.7873C13.2993 16.7873 13.2646 16.805 13.23 16.8403C13.1607 16.9109 13.1607 17.0344 13.23 17.105C13.2646 17.1404 13.2993 17.158 13.3512 17.158C13.4032 17.158 13.4379 17.1404 13.4725 17.105C13.5418 17.0344 13.5418 16.9109 13.4725 16.8403C13.4379 16.805 13.4032 16.7873 13.3512 16.7873Z" fill="#FABC1B"/>
<path d="M13.3512 33.345C12.4331 33.345 11.5495 33.1685 10.7179 32.7978C9.88636 32.4448 9.14141 31.9152 8.50041 31.2621L7.357 30.0617C6.95854 30.15 6.56008 30.0264 6.26556 29.7263C5.81513 29.2497 5.81513 28.473 6.26556 27.9964C6.49078 27.7669 6.78529 27.6433 7.09713 27.6433C7.40897 27.6433 7.72081 27.7669 7.9287 27.9964C8.20589 28.2965 8.32717 28.7201 8.24054 29.1261L9.38395 30.3265C9.90369 30.8737 10.5274 31.2974 11.203 31.5798C11.8787 31.8799 12.6063 32.0211 13.3512 32.0211H13.5072C14.9451 31.9858 16.2964 31.368 17.3359 30.3088C18.3926 29.1967 18.9817 27.7316 18.9817 26.1782V26.0193C18.9644 25.2956 18.8258 24.6072 18.5486 23.9364C18.2714 23.2303 17.8556 22.5948 17.3359 22.0476L13.6111 18.1641C13.2126 18.2523 12.7969 18.1288 12.5197 17.8287C12.0692 17.3521 12.0692 16.5754 12.5197 16.0988C12.7449 15.8693 13.0394 15.7457 13.3512 15.7457C13.6631 15.7457 13.9749 15.8693 14.1828 16.0988C14.46 16.3989 14.5813 16.8225 14.4947 17.2285L18.2194 21.112C18.8604 21.7828 19.3628 22.5595 19.7093 23.4245C20.0211 24.2188 20.1944 25.0661 20.229 25.9311V26.0193C20.229 26.0723 20.229 26.1076 20.229 26.1606V26.39C20.1771 28.2082 19.4668 29.9205 18.2194 31.2267C16.972 32.533 15.3262 33.2568 13.5765 33.3274L13.3512 33.345ZM7.46094 29.5321L8.81225 30.9267C9.4186 31.5445 10.1116 32.0388 10.8912 32.3741C11.6361 32.6919 12.433 32.8684 13.23 32.8861H13.3512C15.0664 32.8861 16.6949 32.1976 17.9076 30.9267C19.1029 29.691 19.7613 28.0493 19.7959 26.3194V26.0193C19.7786 25.1897 19.6054 24.3953 19.3108 23.6186C18.9817 22.8066 18.5139 22.0829 17.9249 21.4651L13.9922 17.3521L14.0442 17.2109C14.1308 16.9284 14.0789 16.6283 13.871 16.4165C13.5938 16.1341 13.126 16.1341 12.8488 16.4165C12.5716 16.7166 12.5716 17.1932 12.8488 17.4933C13.0394 17.7051 13.3339 17.7757 13.6111 17.6698L13.7497 17.6169L17.665 21.7122C18.2367 22.2947 18.6698 22.9832 18.9817 23.7599C19.2935 24.5365 19.4494 25.3486 19.4494 26.1782V26.4077C19.3975 28.014 18.7738 29.4968 17.6823 30.6442C16.5389 31.8446 14.9971 32.4977 13.3859 32.4977H13.1607C12.4331 32.4624 11.7401 32.3035 11.0644 32.0211C10.3195 31.7034 9.66114 31.2444 9.10676 30.6619L7.75546 29.2674L7.80743 29.1261C7.89406 28.8437 7.84208 28.5436 7.63419 28.3318C7.357 28.0493 6.88924 28.0493 6.61205 28.3318C6.33486 28.6319 6.33486 29.1085 6.61205 29.4086C6.80262 29.6204 7.09713 29.6734 7.357 29.5851L7.46094 29.5321ZM7.07981 29.4792C6.92389 29.4792 6.76797 29.4086 6.6467 29.3027C6.42148 29.0555 6.42148 28.6672 6.6467 28.42C6.87191 28.1906 7.27038 28.1906 7.51292 28.42C7.73814 28.6672 7.73814 29.0555 7.51292 29.3027C7.39165 29.4262 7.25305 29.4792 7.07981 29.4792ZM7.07981 28.7025C7.04516 28.7025 7.01051 28.7201 6.97586 28.7378C6.92389 28.7907 6.92389 28.8967 6.97586 28.9673C7.02783 29.0202 7.11446 29.0202 7.18375 28.9673C7.23573 28.9143 7.23573 28.8084 7.18375 28.7378C7.14911 28.7201 7.11446 28.7025 7.07981 28.7025ZM13.3512 17.5816C13.1953 17.5816 13.0394 17.511 12.9181 17.405C12.6929 17.1579 12.6929 16.7696 12.9181 16.5224C13.1434 16.2929 13.5418 16.2929 13.7844 16.5224C14.0096 16.7696 14.0096 17.1579 13.7844 17.405C13.6631 17.5286 13.5072 17.5816 13.3512 17.5816ZM13.3512 16.8049C13.3166 16.8049 13.2819 16.8225 13.2473 16.8402C13.1953 16.8931 13.1953 16.999 13.2473 17.0696C13.2993 17.1226 13.3859 17.1226 13.4552 17.0696C13.5072 17.0167 13.5072 16.9108 13.4552 16.8402C13.4205 16.8225 13.3859 16.8049 13.3512 16.8049Z" fill="#FABC1B"/>
<path d="M13.3514 33.5392C12.4159 33.5392 11.4977 33.3451 10.6315 32.9744C9.76527 32.6037 9.003 32.0741 8.34467 31.3857L7.27056 30.2736C6.83745 30.3265 6.40434 30.1853 6.10982 29.8676C5.57277 29.3027 5.57277 28.4024 6.10982 27.8376C6.36969 27.5728 6.71618 27.4139 7.09731 27.4139C7.47845 27.4139 7.82494 27.5728 8.08481 27.8376C8.37932 28.1553 8.53524 28.6143 8.48327 29.0379L9.55738 30.1676C10.0598 30.6972 10.6488 31.1032 11.3071 31.3857C11.9655 31.6681 12.6585 31.8093 13.3688 31.8093H13.5247C14.9106 31.774 16.21 31.1915 17.1974 30.15C18.2196 29.0909 18.7913 27.661 18.7913 26.1606V26.0017C18.774 25.3133 18.6354 24.6425 18.3755 24.007C18.0983 23.3186 17.7172 22.7007 17.1974 22.1888L13.542 18.3936C13.1089 18.4466 12.6758 18.3053 12.3813 17.9876C11.8442 17.4227 11.8442 16.5225 12.3813 15.9576C12.6411 15.6928 12.9876 15.5339 13.3688 15.5339C13.7499 15.5339 14.0964 15.6928 14.3562 15.9576C14.6681 16.2753 14.8067 16.7343 14.7547 17.1579L18.4102 20.9532C19.0685 21.6416 19.5882 22.436 19.952 23.3362C20.2465 24.0953 20.4371 24.8896 20.4718 25.7193V26.0194C20.4718 26.0723 20.4718 26.1076 20.4718 26.1606V26.3901C20.4198 28.2612 19.6748 30.0264 18.3928 31.368C17.1628 32.6566 15.5343 33.4157 13.8019 33.5216L13.3514 33.5392ZM7.40915 29.8323L8.63919 31.1032C9.26287 31.7564 9.99049 32.2506 10.8047 32.6037C11.619 32.9567 12.4852 33.1332 13.3688 33.1332H13.594C15.2918 33.0803 16.9029 32.3565 18.0983 31.1032C19.311 29.8499 20.004 28.1729 20.056 26.4077V26.1782C20.056 26.1429 20.056 26.09 20.056 26.037V25.9488C20.0386 25.1015 19.8654 24.2895 19.5536 23.5128C19.2244 22.6654 18.7393 21.924 18.0983 21.2709L14.2869 17.2992L14.3043 17.1932C14.3736 16.8579 14.2696 16.4872 14.0444 16.2577C13.8538 16.0635 13.6113 15.9576 13.3514 15.9576C13.0916 15.9576 12.849 16.0635 12.6585 16.2577C12.2773 16.646 12.2773 17.2992 12.6585 17.6875C12.8837 17.9346 13.2302 18.0406 13.5593 17.9699L13.6633 17.9523L17.4746 21.9064C18.0117 22.4713 18.4448 23.1244 18.7393 23.8658C19.0165 24.5542 19.1551 25.278 19.1724 26.0194V26.1959C19.1724 27.8199 18.5661 29.338 17.4746 30.4854C16.4178 31.5975 14.9972 32.2153 13.5073 32.2683H13.3514C12.5892 32.2683 11.8269 32.1094 11.1166 31.8093C10.4063 31.5092 9.7826 31.0679 9.22822 30.503L7.99818 29.2144L8.01551 29.1085C8.08481 28.7731 7.98086 28.4024 7.75564 28.1729C7.56507 27.9788 7.32253 27.8729 7.06267 27.8729C6.8028 27.8729 6.56026 27.9788 6.36969 28.1729C5.98855 28.5613 5.98855 29.2144 6.36969 29.6028C6.59491 29.8499 6.9414 29.9558 7.27056 29.8852L7.40915 29.8323ZM13.2302 33.0803C12.3813 33.0626 11.567 32.8861 10.8047 32.5507C10.0078 32.2153 9.28019 31.7034 8.65651 31.0679L7.39183 29.7616H7.37451C7.04534 29.8852 6.6642 29.797 6.40434 29.5322C6.04053 29.1615 6.04053 28.5436 6.40434 28.1553C6.57758 27.9788 6.82012 27.8729 7.06267 27.8729C7.30521 27.8729 7.54775 27.9788 7.72099 28.1553C7.98086 28.4201 8.06748 28.8084 7.94621 29.1615V29.1791L9.19357 30.4854C9.74795 31.0503 10.3716 31.4916 11.0993 31.7917C11.7403 32.0741 12.4332 32.2153 13.1262 32.2506H13.3514C14.9106 32.2506 16.3832 31.6151 17.492 30.4501C18.5487 29.3556 19.1551 27.9082 19.2071 26.3548V26.1253C19.2071 25.3309 19.0512 24.5366 18.7566 23.7952C18.4621 23.0538 18.029 22.383 17.492 21.8181L13.6633 17.8287H13.6459C13.3168 17.9523 12.9356 17.864 12.6758 17.5992C12.312 17.2286 12.312 16.6107 12.6758 16.2224C12.849 16.0459 13.0916 15.9399 13.3341 15.9399C13.5766 15.9399 13.8192 16.0459 13.9924 16.2224C14.2523 16.4872 14.3389 16.8755 14.2176 17.2286V17.2462L18.0463 21.2356C18.67 21.8887 19.1551 22.6301 19.4843 23.4598C19.7961 24.2541 19.9693 25.0838 19.9867 25.9311V26.2312C19.952 28.0317 19.259 29.7263 18.0463 30.9973C16.799 32.3036 15.1185 33.0273 13.3514 33.0273L13.2302 33.0803ZM7.07999 28.4554C6.97604 28.4554 6.8721 28.4907 6.8028 28.5789C6.64688 28.7378 6.64688 29.0026 6.8028 29.1615C6.95872 29.3203 7.21859 29.3203 7.37451 29.1615C7.53043 29.0026 7.53043 28.7378 7.37451 28.5789C7.28788 28.4907 7.18394 28.4554 7.07999 28.4554ZM13.3514 16.5578C13.2475 16.5578 13.1435 16.5931 13.0742 16.6813C12.9183 16.8402 12.9183 17.105 13.0742 17.2639C13.2302 17.4227 13.49 17.4227 13.6459 17.2639C13.8019 17.105 13.8019 16.8402 13.6459 16.6813C13.5593 16.5931 13.4554 16.5578 13.3514 16.5578ZM7.07999 29.2321C6.99337 29.2321 6.88942 29.1968 6.83745 29.1262C6.69885 28.9849 6.69885 28.7555 6.83745 28.6143C6.97604 28.473 7.20126 28.473 7.33986 28.6143C7.47845 28.7555 7.47845 28.9849 7.33986 29.1262C7.27056 29.1791 7.18394 29.2321 7.07999 29.2321ZM7.07999 28.8084C7.06267 28.8084 7.04534 28.8084 7.02802 28.8261C7.01069 28.8437 7.01069 28.879 7.02802 28.8967C7.04534 28.9143 7.09732 28.9143 7.11464 28.8967C7.13196 28.879 7.13196 28.8437 7.11464 28.8261C7.11464 28.8084 7.09732 28.8084 7.07999 28.8084ZM13.3514 17.3345C13.2648 17.3345 13.1609 17.2992 13.1089 17.2286C12.9703 17.0873 12.9703 16.8579 13.1089 16.7166C13.2475 16.5754 13.4727 16.5754 13.6113 16.7166C13.7499 16.8579 13.7499 17.0873 13.6113 17.2286C13.542 17.2992 13.438 17.3345 13.3514 17.3345ZM13.3514 16.9108C13.3341 16.9108 13.3168 16.9108 13.2995 16.9285C13.2821 16.9461 13.2821 16.9814 13.2995 16.9991C13.3168 17.0167 13.3688 17.0167 13.3861 16.9991C13.4034 16.9814 13.4034 16.9461 13.3861 16.9285C13.3861 16.9108 13.3688 16.9108 13.3514 16.9108Z" fill="#FABC1B"/>
<path d="M7.1844 29.6204C7.59583 29.6204 7.92935 29.2806 7.92935 28.8613C7.92935 28.4421 7.59583 28.1023 7.1844 28.1023C6.77298 28.1023 6.43945 28.4421 6.43945 28.8613C6.43945 29.2806 6.77298 29.6204 7.1844 29.6204Z" fill="white"/>
<path d="M7.18393 29.9029C7.13195 29.9029 7.06266 29.9029 7.01068 29.8852C6.4563 29.7793 6.09249 29.2497 6.19644 28.6849C6.30038 28.12 6.82011 27.7493 7.3745 27.8552C7.92888 27.9611 8.29269 28.4907 8.18874 29.0556C8.0848 29.5322 7.66901 29.9029 7.18393 29.9029ZM7.18393 28.3671C6.95871 28.3671 6.75082 28.5437 6.69884 28.7731C6.64687 29.0379 6.83744 29.3027 7.09731 29.3557C7.35717 29.4086 7.61704 29.2144 7.66901 28.9497C7.72098 28.6849 7.53042 28.4201 7.27055 28.3671C7.2359 28.3671 7.20125 28.3671 7.18393 28.3671Z" fill="#FABC1B"/>
<path d="M13.4041 23.3362C13.8156 23.3362 14.1491 22.9964 14.1491 22.5772C14.1491 22.158 13.8156 21.8181 13.4041 21.8181C12.9927 21.8181 12.6592 22.158 12.6592 22.5772C12.6592 22.9964 12.9927 23.3362 13.4041 23.3362Z" fill="white"/>
<path d="M13.4037 23.6187C13.3517 23.6187 13.2824 23.6187 13.2304 23.601C12.676 23.4951 12.3122 22.9656 12.4162 22.4007C12.5201 21.8358 13.0398 21.4651 13.5942 21.571C14.1486 21.677 14.5124 22.2065 14.4085 22.7714C14.3565 23.0362 14.2179 23.2833 13.9927 23.4422C13.8194 23.5481 13.6115 23.6187 13.4037 23.6187ZM13.4037 22.083C13.1784 22.083 12.9705 22.2595 12.9186 22.489C12.8666 22.7537 13.0572 23.0185 13.317 23.0715C13.4383 23.0891 13.5769 23.0715 13.6808 22.9832C13.7848 22.9126 13.8541 22.789 13.8887 22.6655C13.9407 22.4007 13.7501 22.1359 13.4903 22.083C13.473 22.083 13.4383 22.083 13.4037 22.083Z" fill="#FABC1B"/>
<path d="M13.3524 17.7934C13.7638 17.7934 14.0973 17.4535 14.0973 17.0343C14.0973 16.6151 13.7638 16.2753 13.3524 16.2753C12.9409 16.2753 12.6074 16.6151 12.6074 17.0343C12.6074 17.4535 12.9409 17.7934 13.3524 17.7934Z" fill="white"/>
<path d="M13.3519 18.0582C13.2999 18.0582 13.2306 18.0582 13.1787 18.0405C12.6243 17.9346 12.2605 17.4051 12.3644 16.8402C12.4164 16.5754 12.555 16.3283 12.7802 16.1694C13.0054 16.0105 13.2653 15.9576 13.5425 15.9929C14.0968 16.0988 14.4607 16.6284 14.3567 17.1932C14.3047 17.458 14.1661 17.7051 13.9409 17.864C13.7677 18.0052 13.5598 18.0582 13.3519 18.0582ZM13.3519 16.5401C13.248 16.5401 13.1613 16.5754 13.0747 16.6284C12.9708 16.699 12.9015 16.8225 12.8668 16.9461C12.8148 17.2109 13.0054 17.4757 13.2653 17.5286C13.3865 17.5463 13.5251 17.5286 13.6291 17.4404C13.733 17.3698 13.8023 17.2462 13.837 17.1226C13.889 16.8578 13.6984 16.5931 13.4385 16.5401C13.4039 16.5401 13.3865 16.5401 13.3519 16.5401Z" fill="#FABC1B"/>
<path d="M19.5018 11.3856C19.9132 11.3856 20.2467 11.0458 20.2467 10.6266C20.2467 10.2074 19.9132 9.86755 19.5018 9.86755C19.0904 9.86755 18.7568 10.2074 18.7568 10.6266C18.7568 11.0458 19.0904 11.3856 19.5018 11.3856Z" fill="white"/>
<path d="M19.5013 11.6504C19.4493 11.6504 19.38 11.6504 19.3281 11.6328C18.7737 11.5269 18.4099 10.9973 18.5138 10.4324C18.6178 9.86756 19.1375 9.49686 19.6919 9.60278C20.2463 9.70869 20.6101 10.2383 20.5061 10.8031C20.4195 11.2974 19.9864 11.6504 19.5013 11.6504ZM19.5013 10.1323C19.2761 10.1323 19.0682 10.3089 19.0162 10.5383C18.9643 10.8031 19.1548 11.0679 19.4147 11.1209C19.6746 11.1738 19.9344 10.9797 19.9864 10.7149C20.0384 10.4501 19.8478 10.1853 19.5879 10.1323C19.5706 10.1323 19.536 10.1323 19.5013 10.1323Z" fill="#FABC1B"/>
<path d="M23.4688 7.29037C23.3302 7.29037 23.2089 7.30802 23.0877 7.34333L21.2166 5.43688C20.1771 4.3954 18.9818 3.56574 17.6478 3.00087C16.3831 2.47131 15.0491 2.18887 13.6632 2.15356H13.4033C10.4408 2.15356 7.66893 3.31861 5.57267 5.45454C3.49374 7.59046 2.33301 10.4148 2.33301 13.4334V13.6981C2.36766 15.1103 2.64485 16.4695 3.16458 17.7582C3.71896 19.1174 4.51588 20.353 5.55535 21.3945L11.6189 27.5728C11.5842 27.714 11.5669 27.8552 11.5669 27.9965C11.5669 28.985 12.3638 29.797 13.334 29.797C14.3042 29.797 15.1011 28.985 15.1011 27.9965C15.1011 27.0079 14.3042 26.1959 13.334 26.1959C13.1954 26.1959 13.0741 26.2136 12.9529 26.2489L6.872 20.0706C6.02311 19.2056 5.34746 18.1818 4.8797 17.0344C4.44659 15.9753 4.22137 14.8455 4.18672 13.6981V13.4334C4.18672 10.9267 5.13956 8.56133 6.88933 6.79611C8.56979 5.08384 10.7873 4.09531 13.1608 4.04236H13.4206C14.6333 4.04236 15.8287 4.28949 16.9548 4.74845C18.0809 5.22506 19.0684 5.89584 19.9346 6.77845L21.771 8.64959C21.7363 8.79081 21.719 8.93203 21.719 9.07325C21.719 10.0618 22.5159 10.8738 23.4861 10.8738C24.4563 10.8738 25.2532 10.0618 25.2532 9.07325C25.2532 8.08472 24.439 7.29037 23.4688 7.29037ZM14.0443 28.0141C14.0443 28.4201 13.7325 28.7379 13.334 28.7379C12.9355 28.7379 12.6237 28.4201 12.6237 28.0141C12.6237 27.6081 12.9355 27.2904 13.334 27.2904C13.7325 27.2904 14.0443 27.6081 14.0443 28.0141ZM23.4688 9.79699C23.0703 9.79699 22.7585 9.47925 22.7585 9.07325C22.7585 8.66725 23.0703 8.3495 23.4688 8.3495C23.8672 8.3495 24.1791 8.66725 24.1791 9.07325C24.1791 9.47925 23.8499 9.79699 23.4688 9.79699Z" fill="#6FA2C2"/>
<path d="M13.3514 30.0794C12.2253 30.0794 11.3245 29.1438 11.3245 28.0141C11.3245 27.9082 11.3418 27.8022 11.3591 27.6787L5.39953 21.6063C4.34274 20.5295 3.51117 19.2762 2.93946 17.864C2.43705 16.6284 2.15986 15.3221 2.09057 13.9805L2.07324 13.4333C2.07324 10.3442 3.2513 7.4492 5.39953 5.26033C7.54776 3.07145 10.389 1.87109 13.4207 1.87109H13.6806C15.0839 1.9064 16.4525 2.18883 17.7518 2.73605C19.1205 3.31858 20.3505 4.14823 21.4073 5.22502L23.1744 7.02555C23.2783 7.0079 23.3649 7.0079 23.4689 7.0079C24.595 7.0079 25.4958 7.94347 25.4958 9.07321C25.4958 10.203 24.5777 11.1385 23.4689 11.1385C22.3428 11.1385 21.4419 10.203 21.4419 9.07321C21.4419 8.9673 21.4593 8.86139 21.4766 8.73782L19.7268 6.95494C18.8952 6.10763 17.9251 5.4545 16.8336 4.99554C15.7422 4.53658 14.5988 4.3071 13.4207 4.3071H13.1609C10.874 4.37771 8.70849 5.31328 7.08 6.99025C5.39953 8.72017 4.46401 10.9973 4.46401 13.4333V13.6981C4.49866 14.8102 4.72388 15.9046 5.13966 16.9285C5.5901 18.0406 6.2311 19.0291 7.06267 19.8764L13.0396 25.9664C13.1435 25.9488 13.2475 25.9488 13.3341 25.9488C14.4602 25.9488 15.3611 26.8843 15.3611 28.0141C15.3784 29.1438 14.4602 30.0794 13.3514 30.0794ZM2.6103 13.5392V13.6804C2.64495 15.0573 2.92214 16.3812 3.42455 17.6346C3.9616 18.9585 4.7412 20.1588 5.76334 21.1827L11.9482 27.4845L11.9135 27.6434C11.8789 27.7846 11.8615 27.8905 11.8615 27.9964C11.8615 28.8261 12.5199 29.5145 13.3514 29.5145C14.1657 29.5145 14.8413 28.8437 14.8413 27.9964C14.8413 27.1668 14.183 26.4783 13.3514 26.4783C13.2475 26.4783 13.1435 26.496 13.0223 26.5136L12.8663 26.5489L6.68154 20.2471C5.79799 19.3468 5.10501 18.2877 4.63725 17.1226C4.18682 16.0282 3.94428 14.8632 3.92695 13.6804V13.4157C3.92695 10.8384 4.91445 8.40243 6.69886 6.56659C8.4313 4.80137 10.7181 3.79519 13.1609 3.72458H13.4207C14.6681 3.72458 15.8981 3.97171 17.0589 4.44832C18.2196 4.92493 19.2417 5.63102 20.1253 6.53129L22.0829 8.54364L22.0483 8.70251C22.0136 8.84373 21.9963 8.94965 21.9963 9.05556C21.9963 9.88521 22.6546 10.5737 23.4862 10.5737C24.3005 10.5737 24.9761 9.90287 24.9761 9.05556C24.9761 8.20825 24.3178 7.53747 23.4862 7.53747C23.3823 7.53747 23.2783 7.55512 23.157 7.57277L23.0185 7.60808L21.0435 5.59572C20.0387 4.57189 18.8606 3.77754 17.5613 3.23032C16.3312 2.7184 15.0146 2.43597 13.6806 2.40066H13.4207C10.5449 2.40066 7.82495 3.54806 5.79799 5.63102C3.75371 7.71399 2.62762 10.4677 2.62762 13.398L2.6103 13.5392ZM13.3514 29.0026C12.8144 29.0026 12.3639 28.5613 12.3639 27.9964C12.3639 27.4492 12.7971 26.9902 13.3514 26.9902C13.8885 26.9902 14.3389 27.4316 14.3389 27.9964C14.3216 28.5613 13.8885 29.0026 13.3514 29.0026ZM13.3514 27.5728C13.1089 27.5728 12.9183 27.7669 12.9183 28.0141C12.9183 28.2612 13.1089 28.4554 13.3514 28.4554C13.594 28.4554 13.7845 28.2612 13.7845 28.0141C13.7845 27.7669 13.5766 27.5728 13.3514 27.5728ZM23.4689 10.0794C22.9318 10.0794 22.4814 9.63808 22.4814 9.07321C22.4814 8.52599 22.9145 8.06703 23.4689 8.06703C24.0059 8.06703 24.4564 8.50834 24.4564 9.07321C24.4564 9.62043 24.0059 10.0794 23.4689 10.0794ZM23.4689 8.63191C23.2263 8.63191 23.0358 8.82608 23.0358 9.07321C23.0358 9.32034 23.2263 9.51452 23.4689 9.51452C23.7114 9.51452 23.902 9.32034 23.902 9.07321C23.902 8.82608 23.7114 8.63191 23.4689 8.63191Z" fill="#6FA2C2"/>
<path d="M3.25152 31.6857C3.93085 31.6857 4.48155 31.1246 4.48155 30.4324C4.48155 29.7402 3.93085 29.1791 3.25152 29.1791C2.57219 29.1791 2.02148 29.7402 2.02148 30.4324C2.02148 31.1246 2.57219 31.6857 3.25152 31.6857Z" fill="white"/>
<path d="M3.25146 32.2153C2.2813 32.2153 1.48438 31.4033 1.48438 30.4148C1.48438 29.4263 2.2813 28.6143 3.25146 28.6143C4.22163 28.6143 5.01855 29.4263 5.01855 30.4148C5.00123 31.421 4.22163 32.2153 3.25146 32.2153ZM3.25146 29.7087C2.853 29.7087 2.54116 30.0264 2.54116 30.4324C2.54116 30.8384 2.853 31.1562 3.25146 31.1562C3.64993 31.1562 3.96177 30.8384 3.96177 30.4324C3.96177 30.0264 3.6326 29.7087 3.25146 29.7087Z" fill="#6FA2C2"/>
<path d="M13.4039 29.2674C14.0832 29.2674 14.6339 28.7062 14.6339 28.0141C14.6339 27.3219 14.0832 26.7607 13.4039 26.7607C12.7245 26.7607 12.1738 27.3219 12.1738 28.0141C12.1738 28.7062 12.7245 29.2674 13.4039 29.2674Z" fill="white"/>
<path d="M13.4038 29.797C12.4336 29.797 11.6367 28.985 11.6367 27.9965C11.6367 27.0079 12.4336 26.1959 13.4038 26.1959C14.374 26.1959 15.1709 27.0079 15.1709 27.9965C15.1536 29.0026 14.374 29.797 13.4038 29.797ZM13.4038 27.2904C13.0053 27.2904 12.6935 27.6081 12.6935 28.0141C12.6935 28.4201 13.0053 28.7378 13.4038 28.7378C13.8023 28.7378 14.1141 28.4201 14.1141 28.0141C14.1141 27.6081 13.7849 27.2904 13.4038 27.2904Z" fill="#6FA2C2"/>
<path d="M13.4039 12.7802C14.0832 12.7802 14.6339 12.2191 14.6339 11.5269C14.6339 10.8347 14.0832 10.2736 13.4039 10.2736C12.7245 10.2736 12.1738 10.8347 12.1738 11.5269C12.1738 12.2191 12.7245 12.7802 13.4039 12.7802Z" fill="white"/>
<path d="M13.4038 13.3274C12.4336 13.3274 11.6367 12.5154 11.6367 11.5268C11.6367 10.5383 12.4336 9.72632 13.4038 9.72632C14.374 9.72632 15.1709 10.5383 15.1709 11.5268C15.1536 12.5154 14.374 13.3274 13.4038 13.3274ZM13.4038 10.8031C13.0053 10.8031 12.6935 11.1208 12.6935 11.5268C12.6935 11.9329 13.0053 12.2506 13.4038 12.2506C13.8023 12.2506 14.1141 11.9329 14.1141 11.5268C14.1141 11.1385 13.7849 10.8031 13.4038 10.8031Z" fill="#6FA2C2"/>
<path d="M23.4693 10.3266C24.1486 10.3266 24.6993 9.76544 24.6993 9.07326C24.6993 8.38107 24.1486 7.81995 23.4693 7.81995C22.79 7.81995 22.2393 8.38107 22.2393 9.07326C22.2393 9.76544 22.79 10.3266 23.4693 10.3266Z" fill="white"/>
<path d="M23.4692 10.8738C22.4991 10.8738 21.7021 10.0618 21.7021 9.07323C21.7021 8.08471 22.4991 7.27271 23.4692 7.27271C24.4394 7.27271 25.2363 8.08471 25.2363 9.07323C25.2363 10.0618 24.4394 10.8738 23.4692 10.8738ZM23.4692 8.34949C23.0708 8.34949 22.7589 8.66723 22.7589 9.07323C22.7589 9.47924 23.0708 9.79698 23.4692 9.79698C23.8677 9.79698 24.1795 9.47924 24.1795 9.07323C24.1795 8.66723 23.8504 8.34949 23.4692 8.34949Z" fill="#6FA2C2"/>
</svg>
