<svg width="203" height="40" viewBox="0 0 203 40" fill="none" xmlns="http://www.w3.org/2000/svg">
<g clip-path="url(#clip0_735_42896)">
<mask id="mask0_735_42896" style="mask-type:luminance" maskUnits="userSpaceOnUse" x="0" y="0" width="41" height="40">
<path d="M25.0278 32.73C27.6466 32.6978 30.1322 32.3145 32.3322 31.5756C32.8855 31.3889 33.4144 31.1822 33.9144 30.9589C33.3022 32.4534 32.4033 33.7 31.2311 34.6267C28.9189 36.3289 26.1911 37.4967 23.23 37.9422C23.97 36.6622 24.5678 34.8533 25.0278 32.73ZM12.7022 36.3611C12.6478 36.3156 12.5889 36.2734 12.5222 36.2422C11.4922 35.74 11.0755 33.4434 11.6122 29.9311C13.5922 30.8211 15.7478 31.5267 18.0133 32.01C19.73 32.3767 21.4411 32.6033 23.1133 32.6911C22.2933 36.2556 21.2422 38.1278 20.5455 38.1278C20.5011 38.1278 20.4578 38.1356 20.4155 38.1422C17.6555 38.1234 15.04 37.4889 12.7022 36.3611ZM3.13887 25.0067C2.97998 24.4045 2.88109 23.79 2.83998 23.1656C3.45998 24.0478 4.21442 24.9078 5.11331 25.7389C6.47109 26.9922 8.0822 28.1145 9.87776 29.0767C9.51109 31.1278 9.40776 32.9867 9.63887 34.4845C6.54442 32.1445 4.22887 28.8322 3.13887 25.0067ZM26.1955 20.0256C26.1955 19.3011 26.1844 18.5734 26.1633 17.8489C28.4711 17.6956 30.6078 17.0956 32.3566 16.09C33.9766 19.2945 34.8455 22.6756 34.8389 25.8667C34.8378 26.7911 34.7578 27.67 34.6111 28.5C33.7778 29.01 32.8189 29.4522 31.74 29.8167C29.8244 30.4611 27.6666 30.8122 25.3789 30.8711C25.93 27.5745 26.1955 23.7467 26.1955 20.0256ZM18.4022 30.1978C16.1044 29.7056 13.9333 28.9756 11.9678 28.0522C12.6133 25.1478 13.8155 21.6289 15.72 17.7222C15.9966 17.1567 16.2789 16.6 16.5666 16.0556C17.8989 16.6534 19.3489 17.1278 20.8689 17.4522C22.0233 17.7 23.1789 17.8345 24.3089 17.8734C24.33 18.5689 24.3389 19.2856 24.3389 20.0256C24.3389 24.3934 23.99 28.0189 23.4855 30.8522C21.8278 30.78 20.12 30.5634 18.4022 30.1978ZM6.37331 24.3778C4.79776 22.9222 3.71442 21.38 3.1622 19.8489C3.59998 18.1334 4.44664 16.4111 5.6922 14.7611C6.87331 13.1967 8.34331 11.7878 10.0289 10.5767C10.5155 11.4556 11.1966 12.3134 12.0644 13.1267C12.8889 13.8989 13.85 14.5989 14.9155 15.2111C14.6222 15.7678 14.3355 16.3334 14.0555 16.9089C12.41 20.2811 11.0666 23.9 10.2778 27.1822C8.8122 26.3567 7.49554 25.4167 6.37331 24.3778ZM24.9355 7.14113C27.0444 8.71113 28.9778 10.7367 30.5944 13.1056C30.9011 13.5545 31.19 14.0111 31.4644 14.4722C29.9833 15.3289 28.1078 15.8411 26.0866 15.9845C25.9155 12.7834 25.5366 9.70335 24.9355 7.14113ZM21.2578 15.6389C19.9155 15.3534 18.64 14.9411 17.4644 14.4245C19.1955 11.3967 21.0878 8.76446 22.9555 6.8078C23.5389 9.10335 24.0278 12.19 24.2344 16.0167C23.2511 15.9756 22.2511 15.8522 21.2578 15.6389ZM13.3322 11.7734C12.5644 11.0556 11.9822 10.3067 11.59 9.55447C13.3278 8.50891 15.2511 7.65669 17.3 7.04002C18.5189 6.67335 19.7522 6.40224 20.9822 6.21446C19.2066 8.20446 17.4333 10.7322 15.8078 13.5878C14.8789 13.0511 14.0466 12.4434 13.3322 11.7734ZM9.34331 5.86335C9.31776 5.95669 9.29109 6.05224 9.26998 6.15002C9.0822 7.02446 9.10442 7.92113 9.32442 8.81002C7.32887 10.1867 5.59331 11.8145 4.21109 13.6434C3.78998 14.2 3.41331 14.7689 3.0722 15.3411C4.09998 11.5434 6.33554 8.23891 9.34331 5.86335ZM11.0833 6.53669C11.2889 5.57446 11.8678 4.71446 12.7622 4.00335C14.9278 3.35669 17.4466 3.51224 20.0944 4.48113C18.98 4.67446 17.8655 4.93224 16.7666 5.26446C14.7211 5.8778 12.79 6.7178 11.0211 7.7378C10.9811 7.33224 11 6.93002 11.0833 6.53669ZM26.1311 4.09335C26.7678 3.68113 27.3544 3.39891 27.8444 3.28224C28.7744 3.65446 29.6966 4.13113 30.5711 4.73335C29.1678 4.38224 27.6755 4.16891 26.1311 4.09335ZM23.0066 2.1078C23.7589 2.19224 24.5622 2.32113 25.3878 2.51335C24.8711 2.79113 24.3355 3.1378 23.79 3.55446C23.5478 3.00669 23.2866 2.52446 23.0066 2.1078ZM20.9966 2.83558C20.1578 2.51446 19.3289 2.26558 18.5111 2.0878C19.1666 2.01446 19.83 1.97224 20.5055 1.97224C20.8211 1.97558 21.2089 2.35558 21.6144 3.09002C21.4089 3.00224 21.2033 2.91558 20.9966 2.83558ZM0.588867 20.0578C0.588867 21.9534 0.861089 23.7856 1.35776 25.5245C1.38776 25.6411 1.41665 25.7578 1.45109 25.8745C1.45776 25.8956 1.46776 25.9156 1.47553 25.9389C3.99109 34.0734 11.5822 39.9989 20.5311 39.9989C24.6711 39.9989 28.5189 38.73 31.71 36.5634C31.7422 36.5445 31.7744 36.5289 31.8033 36.5089C31.9922 36.38 32.1755 36.2445 32.3533 36.1022C36.0233 33.3922 38.7322 29.4556 39.8744 24.9011C39.9389 24.6922 39.9944 24.4789 40.0411 24.2634C40.0522 24.2111 40.0555 24.1622 40.0578 24.1111C40.33 22.8011 40.4722 21.4456 40.4722 20.0589C40.4722 17.3678 39.9455 14.7556 38.9044 12.2978C38.7044 11.8256 38.1611 11.6045 37.6889 11.8056C37.2166 12.0034 36.9966 12.5489 37.1955 13.02C38.1389 15.2478 38.6166 17.6167 38.6166 20.0589C38.6166 21.5556 38.4311 23.0089 38.0855 24.4011C37.8111 25.2789 37.33 26.0911 36.6644 26.8289C36.6811 26.5145 36.6911 26.1967 36.6922 25.8711C36.7 22.3134 35.7155 18.5556 33.8911 15.0234C35.2289 13.8745 36.0833 12.4545 36.3755 10.8667C36.4689 10.3634 36.1355 9.88002 35.6322 9.78669C35.1278 9.69224 34.6444 10.0256 34.5511 10.53C34.3578 11.58 33.8122 12.5434 32.9589 13.3611C32.6933 12.9222 32.4178 12.4878 32.1255 12.06C30.4978 9.67335 28.5633 7.60891 26.4466 5.96113C29.2411 6.14558 31.8233 6.82224 33.9033 7.98446C34.2289 8.17002 34.6622 8.16446 34.9678 7.91002C35.3611 7.58224 35.4144 6.99557 35.0844 6.60224C32.0966 2.42335 26.9289 0.117798 20.5289 0.117798C9.53553 0.116687 0.588867 9.06224 0.588867 20.0578Z" fill="white"/>
</mask>
<g mask="url(#mask0_735_42896)">
<path d="M40.4722 0.116699H0.588867V39.9989H40.4722V0.116699Z" fill="url(#paint0_radial_735_42896)"/>
</g>
<path d="M48.4004 32.2222V25.4478H49.736V32.2222H48.4004Z" fill="#00AEEF"/>
<path d="M50.9268 32.2222V25.4478H53.4901C54.8756 25.4478 55.6768 25.9722 55.6768 27.2366C55.6768 28.4378 54.9623 28.6433 54.6223 28.6433V28.6611C55.0768 28.6611 56.1334 29.0589 56.1334 30.3222C56.1334 31.7378 55.0201 32.2222 53.7712 32.2222H50.9268ZM53.3368 28.2755C54.0612 28.2755 54.3034 27.9166 54.3034 27.3944C54.3034 26.8511 53.9445 26.5333 53.1501 26.5333H52.2601V28.2755H53.3368ZM53.479 31.1378C54.1479 31.1378 54.6523 30.9278 54.6523 30.1811C54.6523 29.4833 54.1379 29.2144 53.4523 29.2144H52.2612V31.1378H53.479Z" fill="#00AEEF"/>
<path d="M62.5937 32.2033C62.5937 32.2033 62.3437 32.27 61.897 32.27C59.8448 32.27 60.407 29.6866 58.9737 29.6866H58.2604V32.2222H56.9248V25.4478H59.3037C60.9681 25.4478 61.8592 26.0589 61.8592 27.5789C61.8592 28.5755 61.2104 29.1044 60.687 29.3C61.3837 29.8711 61.4237 31.1855 62.3126 31.1855H62.5926L62.5937 32.2033ZM59.1492 28.6811C59.9537 28.6811 60.5437 28.3111 60.5437 27.6166C60.5437 26.94 60.0692 26.53 59.257 26.53H58.2604V28.6811H59.1492Z" fill="#00AEEF"/>
<path d="M63.1826 32.2222V25.4478H65.1671C66.946 25.4478 68.5337 26.4078 68.5337 28.9522C68.5337 31.3611 67.1004 32.2211 65.4548 32.2211H63.1826V32.2222ZM65.4448 31.1378C66.4826 31.1378 67.206 30.3833 67.206 28.9322C67.206 27.4311 66.5693 26.5311 65.1459 26.5311H64.5171V31.1378H65.4448Z" fill="#00AEEF"/>
<path d="M72.5017 30.6744C71.805 30.6744 71.2539 30.1133 71.2539 29.4155C71.2539 28.7188 71.805 28.1588 72.5017 28.1588C73.1972 28.1588 73.7584 28.7188 73.7584 29.4155C73.7584 30.1133 73.1972 30.6744 72.5017 30.6744Z" fill="#00AEEF"/>
<path d="M76.7861 32.2222V25.4478H78.1217V32.2222H76.7861Z" fill="#00AEEF"/>
<path d="M79.3096 32.2222V25.4478H81.2929C83.074 25.4478 84.6607 26.4078 84.6607 28.9522C84.6607 31.3611 83.2296 32.2211 81.584 32.2211H79.3096V32.2222ZM81.5751 31.1378C82.6118 31.1378 83.3385 30.3833 83.3385 28.9322C83.3385 27.4311 82.6996 26.5311 81.2774 26.5311H80.6485V31.1378H81.5751Z" fill="#00AEEF"/>
<path d="M89.0748 30.5311H86.6715L86.1004 32.2211H84.707L87.1948 25.4478H88.5581L91.0459 32.2211H89.6626L89.0748 30.5311ZM87.0315 29.5133H88.7348L87.8737 27.0544L87.0315 29.5133Z" fill="#00AEEF"/>
<path d="M44.8613 9.00781H54.9302V11.0734H51.2324V21.4334H48.5624V11.0734H44.8624L44.8613 9.00781Z" fill="#002F54"/>
<path d="M56.3447 21.4334V9.00781H59.0136V13.9123H63.7125V9.00781H66.4136V21.4334H63.7469V15.9767H59.0136V21.4334H56.3447Z" fill="#002F54"/>
<path d="M68.5869 9.00781H76.918V11.0734H71.2569V13.9823H76.558V16.0467H71.2569V19.3689H77.108V21.4334H68.588L68.5869 9.00781Z" fill="#002F54"/>
<path d="M90.1721 9.00781H93.1821L95.351 18.3534H95.3854L97.3832 9.00781H99.9299L96.7632 21.4334H93.8043L91.5676 11.9667H91.5332L89.121 21.4334H86.0943L83.0654 9.00781H85.8199L87.7288 18.3534H87.7654L90.1721 9.00781Z" fill="#002F54"/>
<path d="M100.837 15.2211C100.837 11.5556 102.695 8.7478 106.807 8.7478C110.918 8.7478 112.779 11.5545 112.779 15.2211C112.779 18.8878 110.918 21.69 106.807 21.69C102.692 21.69 100.837 18.8867 100.837 15.2211ZM103.674 15.2211C103.674 17.3522 104.174 19.7622 106.806 19.7622C109.439 19.7622 109.939 17.3522 109.939 15.2211C109.939 13.0856 109.439 10.6745 106.806 10.6745C104.174 10.6745 103.674 13.0867 103.674 15.2211Z" fill="#002F54"/>
<path d="M117.208 21.4334H114.539V9.00781H119.821C121.957 9.02448 124.142 9.71226 124.142 12.2445C124.142 13.8611 123.092 14.93 121.561 15.2556V15.2911C123.61 15.5145 123.61 16.77 123.834 18.4923C123.956 19.2845 124.057 20.7478 124.556 21.4334H121.612C121.39 20.3334 121.268 19.2145 121.149 18.0945C121.079 17.4078 120.906 16.4611 120.03 16.4278H117.209V21.4334H117.208ZM117.208 14.36H119.442C120.616 14.34 121.302 13.7578 121.302 12.6545C121.302 11.5545 120.616 11.0889 119.442 11.0723H117.208V14.36Z" fill="#002F54"/>
<path d="M126.179 21.4334V9.00781H128.848V19.3689H134.234V21.4334H126.179Z" fill="#002F54"/>
<path d="M135.683 9.00775H139.918C143.788 8.97442 146.198 10.9 146.198 15.2211C146.198 19.54 143.788 21.4666 139.918 21.4322H135.683V9.00775ZM138.349 19.3677H139.726C142.895 19.4022 143.36 17.1978 143.36 15.2211C143.36 13.2411 142.895 11.0389 139.726 11.0733H138.349V19.3677Z" fill="#002F54"/>
<path d="M152.951 21.4334V9.00784H157.616C159.836 8.87006 162.108 9.80117 162.108 12.2267C162.108 13.5856 161.159 14.5334 159.921 14.9445V14.9801C161.489 15.3078 162.657 16.3923 162.657 18.2145C162.657 20.6756 159.557 21.5723 157.649 21.4334H152.951ZM157.701 19.3678C158.958 19.3678 159.818 19.1434 159.818 17.7156C159.818 16.2878 158.959 16.0634 157.701 16.0634H155.617V19.3689H157.701V19.3678ZM157.701 14.0001C158.82 14.0001 159.438 13.5345 159.438 12.5367C159.438 11.5367 158.819 11.0745 157.701 11.0745H155.617V14.0012L157.701 14.0001Z" fill="#002F54"/>
<path d="M163.49 21.4334L167.984 9.00781H171.15L175.468 21.4334H172.786L171.89 18.8H166.968L166.037 21.4334H163.49ZM171.218 16.7356L169.515 11.4345H169.479L167.656 16.7356H171.218Z" fill="#002F54"/>
<path d="M184.269 21.4334L179.364 11.1067L179.329 11.1423V21.4334H176.835V9.00782H180.792L185.527 18.7834L185.561 18.7467V9.00671H188.056V21.4334H184.269Z" fill="#002F54"/>
<path d="M192.914 14.3778H192.948L197.079 9.00781H200.194L195.633 14.5667L200.59 21.4334H197.269L192.949 15.1H192.915V21.4334H190.248V9.00781H192.915V14.3778H192.914Z" fill="#002F54"/>
</g>
<defs>
<radialGradient id="paint0_radial_735_42896" cx="0" cy="0" r="1" gradientUnits="userSpaceOnUse" gradientTransform="translate(38.7047 7.54604) scale(33.0304 33.0305)">
<stop stop-color="white"/>
<stop offset="0.0598" stop-color="#E7F6FD"/>
<stop offset="0.1829" stop-color="#AFE2FA"/>
<stop offset="0.3589" stop-color="#37C6F4"/>
<stop offset="0.544" stop-color="#00AEEF"/>
<stop offset="1" stop-color="#002F54"/>
</radialGradient>
<clipPath id="clip0_735_42896">
<rect width="202.222" height="40" fill="white" transform="translate(0.588867)"/>
</clipPath>
</defs>
</svg>
