<svg width="90" height="32" viewBox="0 0 90 32" fill="none" xmlns="http://www.w3.org/2000/svg">
<g clip-path="url(#clip0_735_42892)">
<path d="M90.0081 2.4079C90.0081 2.88413 89.8669 3.34968 89.6023 3.74565C89.3378 4.14163 88.9617 4.45025 88.5217 4.6325C88.0817 4.81475 87.5976 4.86243 87.1305 4.76952C86.6634 4.67661 86.2344 4.44727 85.8976 4.11053C85.5609 3.77378 85.3315 3.34473 85.2386 2.87765C85.1457 2.41057 85.1935 1.92642 85.3757 1.48644C85.5579 1.04646 85.8665 0.670396 86.2625 0.405814C86.6585 0.141232 87.1241 7.08339e-06 87.6003 7.08339e-06C87.9167 -0.000761338 88.2301 0.0609976 88.5226 0.181733C88.8151 0.302468 89.0809 0.479809 89.3046 0.703555C89.5284 0.927301 89.7057 1.19304 89.8264 1.48553C89.9472 1.77801 90.0089 2.09147 90.0081 2.4079Z" fill="white"/>
<path d="M49.3044 26.748H47.043V29.0785C47.0717 29.6722 47.3261 30.2325 47.7542 30.6447C48.1824 31.057 48.7518 31.2901 49.3461 31.2964C49.9405 31.3027 50.5147 31.0817 50.9515 30.6785C51.3882 30.2754 51.6544 29.7206 51.6956 29.1276C51.6914 28.4962 51.4376 27.892 50.9897 27.447C50.5417 27.002 49.9358 26.7522 49.3044 26.7522" fill="white"/>
<path d="M16.8357 13.5518C16.195 13.5604 15.5772 13.3141 15.118 12.8671C14.6589 12.4202 14.3961 11.8091 14.3875 11.1684C14.3789 10.5277 14.6252 9.90982 15.0721 9.45069C15.5191 8.99155 16.1301 8.72877 16.7708 8.72016H9.61292V1.26929H4.81379V8.72016H0.189453V13.5518H4.80964V23.6586C4.80964 31.4998 10.7191 32.0042 13.9851 32.0042C14.7027 31.9986 15.4194 31.9552 16.1324 31.8743V27.1401H14.7175C13.1228 27.1401 9.6096 26.8147 9.6096 22.9428V13.5684H16.8507C16.9806 13.5518 16.9156 13.5518 16.8341 13.5518" fill="#1B85BB"/>
<path d="M85.29 26.7481V29.0586C85.3163 29.6527 85.5687 30.2143 85.9955 30.6283C86.4222 31.0424 86.9911 31.2777 87.5857 31.286C88.1803 31.2943 88.7556 31.075 89.1937 30.673C89.6319 30.271 89.8999 29.7167 89.9427 29.1236C89.9433 28.8101 89.8817 28.4997 89.7615 28.2102C89.6413 27.9207 89.4649 27.6579 89.2426 27.437C89.0202 27.2161 88.7563 27.0415 88.466 26.9233C88.1757 26.805 87.8648 26.7455 87.5514 26.7481H85.29Z" fill="white"/>
<path d="M87.5529 26.7456C88.1826 26.742 88.788 26.9884 89.2362 27.4306C89.6845 27.8728 89.9391 28.4747 89.9442 29.1044C89.9117 26.664 89.9442 8.73596 89.9442 8.73596H85.3057V26.7456H87.5529Z" fill="#F29987"/>
<path d="M85.2899 29.0886V26.7781H79.9048V16.2077C79.9048 11.7016 75.6916 8.02439 70.518 8.02439C67.8959 7.99217 65.366 8.99108 63.4732 10.806C61.5824 8.98615 59.0527 7.98133 56.4285 8.00774C56.1843 7.99701 55.9396 8.00258 55.6961 8.02439C50.9461 8.31737 47.2065 11.7698 47.04 15.9472V26.7481H49.3014C49.6141 26.7457 49.924 26.8055 50.2133 26.924C50.5026 27.0425 50.7655 27.2174 50.9865 27.4384C51.2076 27.6595 51.3825 27.9224 51.501 28.2117C51.6195 28.501 51.6793 28.8109 51.6769 29.1236C51.6793 29.2884 51.6574 29.4528 51.612 29.6113C51.6773 29.4005 51.7101 29.1811 51.7093 28.9604V16.1428C51.7418 14.2559 53.8891 12.6612 56.4269 12.6612C58.9488 12.6612 61.0637 14.2226 61.1286 16.0937V31.3533L65.8137 31.37V16.0895C65.8786 14.2185 68.0102 12.6571 70.5155 12.6571C73.0698 12.6571 75.233 14.2676 75.233 16.1711V28.6625C75.2117 29.0023 75.2588 29.3429 75.3716 29.6642C75.4844 29.9854 75.6605 30.2808 75.8896 30.5327C76.1186 30.7845 76.396 30.9879 76.7051 31.1306C77.0142 31.2733 77.3489 31.3524 77.6892 31.3633H87.5346C86.9368 31.3527 86.3668 31.1084 85.9468 30.6828C85.5268 30.2572 85.2901 29.6841 85.2874 29.0861" fill="#F2B704"/>
<path d="M19.24 11.1438C19.24 11.6232 19.0978 12.0917 18.8316 12.4903C18.5653 12.8888 18.1868 13.1995 17.744 13.383C17.3011 13.5664 16.8139 13.6145 16.3437 13.521C15.8736 13.4276 15.4418 13.1968 15.1028 12.8579C14.7638 12.5191 14.5329 12.0873 14.4393 11.6172C14.3456 11.1471 14.3935 10.6598 14.5768 10.2169C14.7601 9.77402 15.0707 9.39542 15.4691 9.129C15.8676 8.86258 16.3361 8.7203 16.8154 8.72013C17.1343 8.71826 17.4503 8.77967 17.7452 8.90081C18.0401 9.02194 18.308 9.20039 18.5334 9.42583C18.7589 9.65127 18.9373 9.91921 19.0585 10.2141C19.1796 10.509 19.2418 10.825 19.24 11.1438Z" fill="white"/>
<path d="M47.0429 29.0561V26.7456H42.8622C42.0299 26.7456 41.6586 26.4202 41.6586 25.786V8.75264H36.8595V19.1807C36.8271 20.3035 36.7621 21.1333 36.6806 21.8C36.6462 22.0842 36.5973 22.3664 36.5341 22.6456C36.4531 23.0146 36.3203 23.3702 36.1395 23.7018C36.1395 23.7185 36.1229 23.7185 36.1229 23.7343C35.7191 24.5697 35.1017 25.2836 34.3331 25.8035C33.5646 26.3234 32.6723 26.6309 31.7466 26.6948C29.9405 26.8904 27.9887 26.4834 27.1913 25.5396C26.6545 24.9054 26.1501 24.3685 26.1992 22.1721V11.1281C26.1988 10.8012 26.1321 10.4778 26.0029 10.1774C25.8738 9.87713 25.685 9.60617 25.448 9.38101C25.211 9.15585 24.9308 8.98117 24.6243 8.86758C24.3177 8.75399 23.9913 8.70384 23.6648 8.72018H17.0895C17.0508 8.71768 17.0119 8.72336 16.9755 8.73683C17.5895 8.77235 18.1666 9.04154 18.5884 9.48916C19.0102 9.93678 19.2446 10.5289 19.2436 11.1439C19.2389 11.7693 18.9947 12.3692 18.5612 12.82C18.1277 13.2709 17.5379 13.5384 16.9131 13.5676H20.1833C20.3331 13.5453 20.486 13.557 20.6307 13.6019C20.7753 13.6467 20.9081 13.7236 21.019 13.8267C21.13 13.9298 21.2163 14.0566 21.2716 14.1976C21.3269 14.3386 21.3498 14.4902 21.3385 14.6413V23.3448C21.3385 29.5106 23.9412 31.9834 28.806 31.9834C32.5515 31.9834 35.6551 31.5439 36.8587 29.4615C36.8715 29.4465 36.8824 29.43 36.8911 29.4124C36.8912 29.4409 36.8968 29.4692 36.9078 29.4956C37.0127 30.0302 37.3011 30.5113 37.7232 30.8558C38.1452 31.2004 38.6743 31.3866 39.2191 31.3824H49.3218C48.7128 31.3709 48.1327 31.1206 47.7064 30.6855C47.2802 30.2504 47.0419 29.6652 47.0429 29.0561Z" fill="#0FAEC6"/>
</g>
<defs>
<clipPath id="clip0_735_42892">
<rect width="89.8184" height="32" fill="white" transform="translate(0.189453)"/>
</clipPath>
</defs>
</svg>
