<svg width="126" height="32" viewBox="0 0 126 32" fill="none" xmlns="http://www.w3.org/2000/svg">
<g clip-path="url(#clip0_735_43646)">
<path d="M110.463 18.9561L112.466 13.6564L112.816 13.957C114.045 14.9613 115.713 15.8145 117.289 15.848C118.697 15.881 119.386 15.5056 119.198 14.3145C119.059 13.4241 118.054 13.2676 117.427 13.1437L116.049 12.8683C113.368 12.3679 111.115 10.7144 111.115 7.58325C111.115 2.84846 115.197 0.193222 119.302 0.193222C121.461 0.193222 123.438 0.742035 125.291 1.94676L123.552 6.64253C122.598 5.95556 121.153 4.98867 119.324 4.92158C118.723 4.8989 117.347 5.21446 117.788 6.61162C117.978 7.2063 118.831 7.45626 119.354 7.58325L120.909 7.95844C123.815 8.63455 125.917 10.2886 125.917 13.6685C125.917 18.4285 121.809 20.7849 117.728 20.7849C115.348 20.7849 112.591 20.1079 110.463 18.9561Z" fill="#DAAE06"/>
<path d="M102.113 0.517847H108.985V20.4863H102.113V0.517847Z" fill="#DAAE06"/>
<path d="M94.2312 0.517847H101.394L94.0794 20.4863H88.2688L80.9795 0.517847H88.1166L91.175 12.5672L94.2312 0.517847Z" fill="#DAAE06"/>
<path d="M64.0195 20.4863H71.284L71.8344 17.9789H77.02L77.7088 20.4863H84.9748L78.1721 0.517847H70.5534L64.0195 20.4863ZM74.4396 6.28183C74.5666 7.13213 75.817 13.2426 75.817 13.2426H73.071L74.4396 6.28183Z" fill="#DAAE06"/>
<path d="M53.0965 14.7529H53.5666C55.8711 14.7529 57.5805 13.3699 57.5805 10.7647C57.5805 7.95856 56.0651 6.39344 53.5341 6.39344H53.0965V14.7529ZM46.1816 0.517847H53.2212C59.6101 0.517847 64.4931 3.45148 64.4931 10.7901C64.4931 16.7032 60.5124 20.4863 54.9248 20.4863L46.1816 20.4756V0.517847Z" fill="#DAAE06"/>
<path d="M41.9993 1.1445L42.3715 4.42027C42.4598 5.19901 42.9027 7.06504 42.3562 6.81477C42.0115 6.66073 41.73 5.81357 41.4481 5.06364C41.305 4.68206 40.6242 2.87876 40.4459 2.74622C39.5865 2.10152 37.4403 1.37687 35.9886 1.37044C31.585 1.35369 28.6722 4.6012 28.6722 10.3643C28.6722 14.4962 30.6513 19.4558 35.6865 19.4558C37.4905 19.4558 40.9459 18.8877 41.8868 16.3216C42.3106 15.1596 42.7004 14.128 42.9823 14.44C43.19 14.6696 42.9192 15.5997 42.7937 16.1C42.2001 18.4803 42.168 19.2006 41.9798 19.293C39.705 20.4344 36.7881 20.8104 34.2341 20.8104C26.1166 20.8104 23.3115 16.0749 23.3115 11.3411C23.3115 3.1241 28.3595 -0.276871 36.187 0.0185337C38.1648 0.0920506 40.1445 0.444372 41.9993 1.1445Z" fill="#DAAE06"/>
<path d="M18.0251 1.50825L16.7265 1.05479C16.2885 0.661659 16.8204 0.55261 16.8204 0.55261C16.8204 0.55261 18.6993 0.900148 23.3815 0.505064C23.3815 0.505064 23.7882 0.584852 23.5056 0.915066L21.9713 1.57251C20.9704 2.00909 20.9704 1.75852 20.9704 2.85476L20.9619 13.0311C20.9619 20.9898 12.8649 20.8103 11.2868 20.8103C10.5365 20.8103 3.1696 20.8103 3.1696 14.4212V3.6501C3.1696 1.77122 3.36982 1.82217 2.74556 1.6012L0.866678 0.895941C0.866678 0.895941 0.54992 0.446198 1.1159 0.475039C2.65068 0.552608 4.87442 0.882208 10.0413 0.505064C10.0413 0.505064 10.4947 0.614918 10.1971 0.943602L8.69495 1.38306C7.50472 1.91599 7.66235 1.50825 7.63022 2.72957L7.66698 13.3507C7.66698 15.9559 9.00738 19.179 13.1653 19.179C18.9037 19.179 18.9573 14.2171 18.9573 13.1142L18.9672 2.59149C19.0284 1.60119 18.9037 1.88386 18.0251 1.50825Z" fill="#DAAE06"/>
<path d="M125.621 22.8988H2.51367V23.567H125.621V22.8988Z" fill="#DAAE06"/>
<path d="M2.68945 26.2392H3.23317C3.47522 26.2392 3.49749 26.5894 3.49749 27.5403V29.5886C3.49749 30.5607 3.59625 32 5.80443 32C7.23704 32 8.13948 31.1334 8.13948 29.7111V26.4226C8.13948 26.2834 8.2426 26.2392 8.35001 26.2392H8.69219V25.9607H7.00467V26.2392H7.49221C7.7709 26.2392 7.79018 26.7844 7.79018 27.2069V29.4278C7.79018 30.1543 7.76191 31.6215 5.8527 31.6215C5.17407 31.6215 4.28206 31.2447 4.28206 29.885V26.3828C4.28206 26.3021 4.31568 26.2392 4.42012 26.2392H4.83624V25.9607H2.68945V26.2392ZM10.6895 25.9607H9.35109V26.2392H9.63364C10.0719 26.2392 10.1527 26.5534 10.1527 27.2993V31.3632C10.1527 31.5002 10.0518 31.5498 9.94216 31.5498H9.59956V31.8234H11.2875V31.5498H10.8006C10.5222 31.5498 10.5031 31.0034 10.5031 30.5788V26.8576H10.5222L14.5243 31.6776L14.6306 31.8031C14.6985 31.8797 14.7336 31.9078 14.7611 31.9078C14.8291 31.9078 14.8368 31.8434 14.8368 31.7629V26.4226C14.8368 26.2834 14.9362 26.2392 15.0496 26.2392H15.3891V25.9607H13.7017V26.2392H14.1899C14.4673 26.2392 14.4818 26.7844 14.4818 27.2069V30.531H14.4673L10.6895 25.9607ZM17.8286 26.3828C17.8286 26.3021 17.8626 26.2392 17.9656 26.2392H18.3817V25.9607H16.2391V26.2392H16.7844C17.0243 26.2392 17.0443 26.5894 17.0443 27.5403V31.4004C17.0443 31.4842 17.005 31.5498 16.9023 31.5498H16.4682V31.8234H18.6094V31.5498H18.0885C17.8469 31.5498 17.8286 31.1962 17.8286 30.2475V26.3828ZM24.8737 25.9607H23.1151V26.2392H23.6456C23.8053 26.2392 23.8779 26.2647 23.8779 26.3961C23.8779 26.7434 23.4507 27.8095 22.2705 30.6822C21.0876 27.8095 20.4388 26.3771 20.4388 26.2961C20.4388 26.2392 20.4786 26.2392 20.5361 26.2392H21.0338V25.9607H19.0367V26.2392H19.2588C19.5632 26.2392 19.6156 26.2732 19.9335 27.026L21.8919 31.7629C21.9557 31.9263 21.9826 32 22.0488 32C22.1399 32 22.1708 31.8797 22.2502 31.6776L24.3583 26.3411C24.3964 26.2392 24.4098 26.2392 24.469 26.2392H24.8737V25.9607ZM26.0619 31.4004C26.0619 31.4842 26.0277 31.5498 25.924 31.5498H25.4928V31.8234H29.8887C29.9984 31.4554 30.1168 31.0829 30.1168 31.0034C30.1168 30.9578 30.0835 30.9037 30.045 30.9037C29.981 30.9037 29.9613 30.9578 29.9383 31.0034C29.7789 31.2594 29.4161 31.493 27.8493 31.493H27.2315C26.9504 31.493 26.8503 31.493 26.8503 30.3485V28.7683H28.0128C29.0657 28.7683 29.1558 28.7782 29.1558 29.0261V29.3494H29.4078V27.7894H29.1558V28.1497C29.1558 28.426 28.8718 28.4664 27.9219 28.4664H26.8503V26.4609C26.8503 26.3678 26.8968 26.2961 27.0341 26.2961H27.9414C29.4017 26.2961 29.5576 26.5432 29.5837 26.6517C29.6021 26.7763 29.6178 26.8198 29.693 26.8198C29.7789 26.8004 29.8083 26.7763 29.8887 25.9607H25.2619V26.2392H25.8055C26.0462 26.2392 26.0619 26.5894 26.0619 27.5403V31.4004ZM32.3624 28.8896V26.4226C32.3624 26.3021 32.4918 26.2961 32.573 26.2961H33.048C33.777 26.2961 34.4324 26.8273 34.4324 27.6949C34.4324 28.6023 33.6191 28.8896 32.8238 28.8896H32.3624ZM31.5772 31.4004C31.5772 31.4842 31.5393 31.5498 31.4403 31.5498H31.0062V31.8234H33.1474V31.5498H32.6215C32.3814 31.5498 32.3624 31.1962 32.3624 30.2475V29.1668H33.048C34.7373 31.8192 34.8404 31.8234 35.0526 31.8234H36.1124V31.5498H35.8809C35.6138 31.5498 35.3005 31.2447 33.777 29.0349C34.5879 28.8896 35.2168 28.378 35.2168 27.5476C35.2168 26.3771 34.1718 25.9607 33.3619 25.9607H30.7757V26.2392H31.3187C31.5615 26.2392 31.5772 26.5894 31.5772 27.5403V31.4004ZM38.4424 26.1182C38.7355 26.1182 39.4814 26.2199 39.5472 26.6183C39.5579 26.6825 39.5701 26.755 39.657 26.755C39.7312 26.755 39.7614 26.6973 39.7614 26.6323C39.7614 26.4134 39.7442 26.185 39.7312 25.9607C39.4362 25.8229 39.0782 25.7835 38.6887 25.7835C37.7016 25.7835 36.594 26.3678 36.594 27.4765C36.594 28.6023 37.722 28.962 38.1374 29.1112C39.0507 29.442 39.5858 29.7559 39.5858 30.467C39.5858 31.2992 38.8268 31.6668 38.0871 31.6668C37.6369 31.6668 36.7765 31.4748 36.6466 30.9578C36.6308 30.8734 36.605 30.7803 36.5098 30.7803C36.4378 30.7803 36.398 30.8286 36.398 30.8936C36.398 30.977 36.4378 31.1688 36.536 31.74C36.9632 31.9078 37.5269 32 37.9765 32C39.5009 32 40.202 30.9959 40.202 30.1898C40.202 29.2009 39.6428 28.822 38.4587 28.3887C37.8731 28.169 37.1846 27.9282 37.1846 27.1775C37.1846 26.495 37.8242 26.1182 38.4424 26.1182ZM42.4217 26.3828C42.4217 26.3021 42.4542 26.2392 42.5594 26.2392H42.9736V25.9607H40.8331V26.2392H41.3771C41.6154 26.2392 41.6356 26.5894 41.6356 27.5403V31.4004C41.6356 31.4842 41.5974 31.5498 41.4987 31.5498H41.0646V31.8234H43.2066V31.5498H42.676C42.4358 31.5498 42.4217 31.1962 42.4217 30.2475V26.3828ZM46.7707 26.2961H47.0017C48.0823 26.2961 48.6075 26.4864 48.6981 26.7665C48.7172 26.8198 48.757 26.8961 48.8285 26.8961C48.8855 26.8961 48.9318 26.8654 48.9318 26.8004C48.9318 26.7434 48.8018 26.3411 48.6713 25.9607H44.0829C43.9578 26.3411 43.8251 26.7434 43.8251 26.8004C43.8251 26.8654 43.869 26.8961 43.926 26.8961C44.0002 26.8961 44.037 26.8198 44.0565 26.7665C44.1467 26.4864 44.6746 26.2961 45.7509 26.2961H45.985V31.4004C45.985 31.4842 45.951 31.5498 45.8477 31.5498H45.1535V31.8234H47.738V31.5498H47.0293C46.7894 31.5498 46.7707 31.1962 46.7707 30.2475V26.2961ZM52.3575 29.2786L53.8714 26.515C53.9357 26.3961 53.982 26.2392 54.13 26.2392H54.4551V25.9607H52.7721V26.2392H53.3111C53.4166 26.2392 53.4943 26.2467 53.4943 26.3497C53.4943 26.5261 53.3631 26.7938 52.2278 28.9297C51.5332 27.7057 50.7422 26.3598 50.7422 26.2732C50.7422 26.2392 50.826 26.2392 50.8895 26.2392H51.314V25.9607H49.2363V26.2392H49.5488C49.7087 26.2392 49.7542 26.2467 49.8536 26.3771C50.1964 26.8117 50.5104 27.4487 51.573 29.304V31.4004C51.573 31.4842 51.5332 31.5498 51.4361 31.5498H51.0011V31.8234H53.1424V31.5498H52.6126C52.3728 31.5498 52.3575 31.1962 52.3575 30.2475V29.2786ZM60.3173 32C62.151 32 63.3919 30.5472 63.3919 28.8052C63.3919 27.006 62.3362 25.7835 60.4795 25.7835C58.6427 25.7835 57.4046 27.2358 57.4046 28.9812C57.4046 30.7803 58.4591 32 60.3173 32ZM60.2779 26.0907C61.3692 26.0907 62.607 26.9765 62.607 29.0651C62.607 30.7442 61.7651 31.697 60.5174 31.697C59.4288 31.697 58.1902 30.8107 58.1902 28.7195C58.1902 27.0408 59.0329 26.0907 60.2779 26.0907ZM64.0475 26.2392H64.5925C64.8335 26.2392 64.8546 26.5894 64.8546 27.5403V31.4004C64.8546 31.4842 64.8186 31.5498 64.7142 31.5498H64.2808V31.8234H66.424V31.5498H65.8969C65.657 31.5498 65.6383 31.1962 65.6383 30.2475V28.7683H66.8042C67.8564 28.7683 67.9467 28.7782 67.9467 29.0261V29.3494H68.1919V27.7894H67.9467V28.1497C67.9467 28.426 67.6606 28.4664 66.7097 28.4664H65.6383V26.4609C65.6383 26.3678 65.6846 26.2961 65.8204 26.2961H66.7269C68.188 26.2961 68.3433 26.5432 68.3724 26.6517C68.3904 26.7763 68.4061 26.8198 68.4837 26.8198C68.5629 26.8004 68.5958 26.7763 68.6742 25.9607H64.0475V26.2392ZM77.2434 26.0995C76.748 25.9052 76.2175 25.7835 75.6594 25.7835C73.7351 25.7835 72.0834 27.1334 72.0834 29.1172C72.0834 31.0388 73.3683 32 75.2054 32C75.9165 32 76.7098 31.8352 77.3256 31.5316C77.3658 30.9466 77.3845 30.8107 77.3845 30.7248C77.3845 30.6705 77.3658 30.6045 77.2935 30.6045C77.1902 30.6045 77.1791 30.6986 77.1715 30.7718C77.1072 31.29 76.1945 31.6668 75.3592 31.6668C74.217 31.6668 72.9238 30.7345 72.9238 29.018C72.9238 27.4105 73.9053 26.1182 75.6005 26.1182C76.1563 26.1182 76.9236 26.3678 76.9691 26.6973C76.9894 26.8367 76.9951 26.8775 77.0758 26.8775C77.1715 26.8775 77.1791 26.8473 77.2434 26.0995ZM81.5037 29.6288C81.8842 30.7442 82.1417 31.3901 82.1417 31.4554C82.1417 31.5214 82.0766 31.5498 82.0074 31.5498H81.5136V31.8234H83.5776V31.5498H83.3049C83.065 31.5498 82.9552 31.4185 82.7441 30.8361C82.2905 29.6086 81.1445 26.5261 81.1445 26.1277C81.1445 25.9513 81.3051 25.9607 81.3051 25.8389C81.3051 25.7747 81.2661 25.7464 81.2133 25.7464C81.1609 25.7464 80.9008 25.8134 80.671 25.8679L78.3339 31.4004C78.2803 31.5214 78.1449 31.5498 78.0068 31.5498H77.8194V31.8234H79.6875V31.5498H79.1019C78.9669 31.5498 78.8705 31.5002 78.8705 31.3108C78.8705 31.0505 79.2037 30.1476 79.406 29.6288H81.5037ZM81.3759 29.2932H79.5361L80.5581 26.8367L81.3759 29.2932ZM86.1304 25.9607H83.9865V26.2392H84.5315C84.7714 26.2392 84.7893 26.5894 84.7893 27.5403V31.4004C84.7893 31.4842 84.7549 31.5498 84.6528 31.5498H84.2194V31.8234H88.6128C88.7226 31.4554 88.8423 31.0829 88.8423 31.0034C88.8423 30.9578 88.8056 30.9037 88.77 30.9037C88.7035 30.9037 88.687 30.9578 88.6622 31.0034C88.503 31.2594 88.14 31.493 86.5749 31.493H85.9579C85.6756 31.493 85.5754 31.493 85.5754 30.3485V26.3828C85.5754 26.3021 85.6121 26.2392 85.715 26.2392H86.1304V25.9607ZM90.8095 26.3828C90.8095 26.3021 90.8481 26.2392 90.9484 26.2392H91.3695V25.9607H89.2233V26.2392H89.7687C90.0108 26.2392 90.0281 26.5894 90.0281 27.5403V31.4004C90.0281 31.4842 89.9883 31.5498 89.8865 31.5498H89.457V31.8234H91.5982V31.5498H91.0715C90.8325 31.5498 90.8095 31.1962 90.8095 30.2475V26.3828ZM92.4998 26.2392H93.046C93.2858 26.2392 93.3015 26.5894 93.3015 27.5403V31.4004C93.3015 31.4842 93.2671 31.5498 93.1665 31.5498H92.7323V31.8234H94.8763V31.5498H94.3484C94.107 31.5498 94.0906 31.1962 94.0906 30.2475V28.7683H95.2523C96.3072 28.7683 96.3952 28.7782 96.3952 29.0261V29.3494H96.6484V27.7894H96.3952V28.1497C96.3952 28.426 96.1144 28.4664 95.1616 28.4664H94.0906V26.4609C94.0906 26.3678 94.1354 26.2961 94.2742 26.2961H95.1803C96.635 26.2961 96.7956 26.5432 96.8247 26.6517C96.8427 26.7763 96.8591 26.8198 96.9345 26.8198C97.0175 26.8004 97.0427 26.7763 97.1257 25.9607H92.4998V26.2392ZM100.593 32C102.43 32 103.67 30.5472 103.67 28.8052C103.67 27.006 102.615 25.7835 100.755 25.7835C98.9189 25.7835 97.6823 27.2358 97.6823 28.9812C97.6823 30.7803 98.7365 32 100.593 32ZM100.556 26.0907C101.645 26.0907 102.884 26.9765 102.884 29.0651C102.884 30.7442 102.042 31.697 100.795 31.697C99.7038 31.697 98.4698 30.8107 98.4698 28.7195C98.4698 27.0408 99.3071 26.0907 100.556 26.0907ZM105.873 28.8896V26.4226C105.873 26.3021 106.001 26.2961 106.087 26.2961H106.557C107.282 26.2961 107.939 26.8273 107.939 27.6949C107.939 28.6023 107.125 28.8896 106.334 28.8896H105.873ZM105.088 31.4004C105.088 31.4842 105.051 31.5498 104.949 31.5498H104.517V31.8234H106.655V31.5498H106.128C105.891 31.5498 105.873 31.1962 105.873 30.2475V29.1668H106.557C108.245 31.8192 108.347 31.8234 108.559 31.8234H109.624V31.5498H109.393C109.121 31.5498 108.809 31.2447 107.282 29.0349C108.1 28.8896 108.729 28.378 108.729 27.5476C108.729 26.3771 107.679 25.9607 106.87 25.9607H104.283V26.2392H104.829C105.069 26.2392 105.088 26.5894 105.088 27.5403V31.4004ZM111.221 25.9607H109.878V26.2392H110.164C110.604 26.2392 110.683 26.5534 110.683 27.2993V31.3632C110.683 31.5002 110.58 31.5498 110.474 31.5498H110.131V31.8234H111.82V31.5498H111.331C111.053 31.5498 111.033 31.0034 111.033 30.5788V26.8576H111.053L115.051 31.6776L115.163 31.8031C115.227 31.8797 115.264 31.9078 115.291 31.9078C115.358 31.9078 115.368 31.8434 115.368 31.7629V26.4226C115.368 26.2834 115.466 26.2392 115.578 26.2392H115.921V25.9607H114.232V26.2392H114.722C114.996 26.2392 115.014 26.7844 115.014 27.2069V30.531H114.996L111.221 25.9607ZM118.36 26.3828C118.36 26.3021 118.396 26.2392 118.496 26.2392H118.911V25.9607H116.769V26.2392H117.315C117.557 26.2392 117.573 26.5894 117.573 27.5403V31.4004C117.573 31.4842 117.538 31.5498 117.433 31.5498H116.999V31.8234H119.141V31.5498H118.619C118.376 31.5498 118.36 31.1962 118.36 30.2475V26.3828ZM123.365 29.6288C123.745 30.7442 123.997 31.3901 123.997 31.4554C123.997 31.5214 123.934 31.5498 123.871 31.5498H123.374V31.8234H125.439V31.5498H125.165C124.924 31.5498 124.815 31.4185 124.599 30.8361C124.147 29.6086 123.006 26.5261 123.006 26.1277C123.006 25.9513 123.166 25.9607 123.166 25.8389C123.166 25.7747 123.122 25.7464 123.076 25.7464C123.024 25.7464 122.762 25.8134 122.532 25.8679L120.195 31.4004C120.141 31.5214 120.005 31.5498 119.862 31.5498H119.678V31.8234H121.545V31.5498H120.966C120.825 31.5498 120.73 31.5002 120.73 31.3108C120.73 31.0505 121.065 30.1476 121.263 29.6288H123.365ZM123.233 29.2932H121.395L122.42 26.8367L123.233 29.2932Z" fill="#114781"/>
</g>
<defs>
<clipPath id="clip0_735_43646">
<rect width="125.139" height="32" fill="white" transform="translate(0.77832)"/>
</clipPath>
</defs>
</svg>
