<svg xmlns="http://www.w3.org/2000/svg" width="153" height="48" viewBox="0 0 153 48" fill="none">
<path d="M71.6474 15.7874H76.6577V25.4726C76.6577 26.39 76.5165 27.3074 76.2166 28.1894C75.9167 29.0362 75.4404 29.7948 74.8053 30.4299C74.2408 31.0121 73.5527 31.4708 72.7941 31.7707C71.6651 32.1588 70.4831 32.3352 69.2834 32.3176C68.419 32.3176 67.5546 32.2647 66.6901 32.1588C65.8786 32.0882 65.0847 31.8589 64.3438 31.5061C63.691 31.1532 63.0912 30.6769 62.6149 30.0947C62.1386 29.5478 61.7681 28.9127 61.5388 28.2247C61.2565 27.3426 61.0977 26.4076 61.0801 25.4726V15.7874H66.0903V25.702C66.0903 26.584 66.3373 27.2897 66.8313 27.7837C67.3252 28.2776 68.0133 28.5246 68.8777 28.5246C69.7421 28.5246 70.4125 28.2776 70.9065 27.7837C71.4004 27.2897 71.6474 26.6017 71.6474 25.702V15.7874Z" fill="#019EDB"/>
<path d="M81.2617 15.7874H85.9544L92.0761 24.7846V15.7874H96.8216V32.053H92.0937L86.0073 23.1263V32.053H81.2794V15.7874H81.2617Z" fill="#019EDB"/>
<path d="M101.532 15.7874H114.993V19.2628H106.56V21.8384H114.375V25.1551H106.56V28.3659H115.24V32.053H101.532V15.7874Z" fill="#019EDB"/>
<path d="M130.023 25.402L134.434 26.7251C134.187 27.8365 133.711 28.895 133.04 29.8124C132.423 30.6239 131.611 31.2766 130.676 31.6824C129.741 32.1058 128.542 32.3175 127.077 32.3175C125.313 32.3175 123.867 32.0529 122.737 31.5413C121.608 31.0297 120.638 30.1299 119.844 28.8245C119.05 27.519 118.627 25.8783 118.627 23.8495C118.627 21.168 119.35 19.0863 120.779 17.6396C122.208 16.193 124.237 15.4697 126.848 15.4697C128.894 15.4697 130.5 15.8755 131.682 16.7046C132.864 17.5338 133.728 18.804 134.293 20.5152L129.847 21.5032C129.741 21.1151 129.582 20.7446 129.353 20.4094C129.088 20.0389 128.736 19.739 128.33 19.5273C127.906 19.3156 127.448 19.2098 126.971 19.2098C125.825 19.2098 124.96 19.6684 124.36 20.5858C123.902 21.2738 123.672 22.3323 123.672 23.7789C123.672 25.5784 123.937 26.8133 124.502 27.4837C125.066 28.1541 125.825 28.4893 126.813 28.4893C127.765 28.4893 128.506 28.2246 128.983 27.6778C129.459 27.1309 129.794 26.4252 130.023 25.402Z" fill="#019EDB"/>
<path d="M138.086 15.7874H151.564V19.2628H143.131V21.8384H150.964V25.1551H143.149V28.3659H151.829V32.053H138.104L138.086 15.7874Z" fill="#019EDB"/>
<path fill-rule="evenodd" clip-rule="evenodd" d="M28.4955 16.44C26.4884 16.44 24.8613 18.0671 24.8613 20.0742C24.8613 22.0813 26.4884 23.7084 28.4955 23.7084C30.5026 23.7084 32.1296 22.0813 32.1296 20.0742C32.1296 18.0671 30.5026 16.44 28.4955 16.44ZM24.332 20.0742C24.332 17.7748 26.1961 15.9108 28.4955 15.9108C30.7949 15.9108 32.6589 17.7748 32.6589 20.0742C32.6589 22.3736 30.7949 24.2376 28.4955 24.2376C26.1961 24.2376 24.332 22.3736 24.332 20.0742Z" fill="#019EDB"/>
<path fill-rule="evenodd" clip-rule="evenodd" d="M28.4957 12.8411C24.501 12.8411 21.2626 16.0795 21.2626 20.0742C21.2626 24.0689 24.501 27.3073 28.4957 27.3073C32.4904 27.3073 35.7288 24.0689 35.7288 20.0742C35.7288 16.0795 32.4904 12.8411 28.4957 12.8411ZM20.7334 20.0742C20.7334 15.7872 24.2087 12.3119 28.4957 12.3119C32.7827 12.3119 36.2581 15.7872 36.2581 20.0742C36.2581 24.3612 32.7827 27.8365 28.4957 27.8365C24.2087 27.8365 20.7334 24.3612 20.7334 20.0742Z" fill="#019EDB"/>
<path fill-rule="evenodd" clip-rule="evenodd" d="M28.4961 8.94234C22.3481 8.94234 17.3642 13.9262 17.3642 20.0742C17.3642 26.2222 22.3481 31.2061 28.4961 31.2061C34.6441 31.2061 39.628 26.2222 39.628 20.0742C39.628 13.9262 34.6441 8.94234 28.4961 8.94234ZM16.835 20.0742C16.835 13.634 22.0558 8.41309 28.4961 8.41309C34.9364 8.41309 40.1572 13.634 40.1572 20.0742C40.1572 26.5145 34.9364 31.7354 28.4961 31.7354C22.0558 31.7354 16.835 26.5145 16.835 20.0742Z" fill="#019EDB"/>
<path fill-rule="evenodd" clip-rule="evenodd" d="M28.4954 5.32588C20.3501 5.32588 13.747 11.929 13.747 20.0743C13.747 28.2196 20.3501 34.8227 28.4954 34.8227C36.6408 34.8227 43.2439 28.2196 43.2439 20.0743C43.2439 11.929 36.6408 5.32588 28.4954 5.32588ZM13.2178 20.0743C13.2178 11.6367 20.0578 4.79663 28.4954 4.79663C36.9331 4.79663 43.7731 11.6367 43.7731 20.0743C43.7731 28.5119 36.9331 35.352 28.4954 35.352C20.0578 35.352 13.2178 28.5119 13.2178 20.0743Z" fill="#019EDB"/>
<path fill-rule="evenodd" clip-rule="evenodd" d="M28.496 1.3741C18.1682 1.3741 9.79585 9.74644 9.79585 20.0742C9.79585 30.4021 18.1682 38.7744 28.496 38.7744C38.8238 38.7744 47.1962 30.4021 47.1962 20.0742C47.1962 9.74644 38.8238 1.3741 28.496 1.3741ZM9.2666 20.0742C9.2666 9.45414 17.8759 0.844849 28.496 0.844849C39.1161 0.844849 47.7254 9.45414 47.7254 20.0742C47.7254 30.6944 39.1161 39.3036 28.496 39.3036C17.8759 39.3036 9.2666 30.6944 9.2666 20.0742Z" fill="#019EDB"/>
<path fill-rule="evenodd" clip-rule="evenodd" d="M28.7607 1.05652V16.2813H28.2314V1.05652H28.7607Z" fill="#019EDB"/>
<path fill-rule="evenodd" clip-rule="evenodd" d="M28.7607 23.7966V39.0214H28.2314V23.7966H28.7607Z" fill="#019EDB"/>
<path fill-rule="evenodd" clip-rule="evenodd" d="M47.5667 20.3388H32.3066V19.8096H47.5667V20.3388Z" fill="#019EDB"/>
<path fill-rule="evenodd" clip-rule="evenodd" d="M24.632 20.3388H9.38965V19.8096H24.632V20.3388Z" fill="#019EDB"/>
<path fill-rule="evenodd" clip-rule="evenodd" d="M42.0905 6.83621L31.2939 17.6153L30.9199 17.2407L41.7166 6.46167L42.0905 6.83621Z" fill="#019EDB"/>
<path fill-rule="evenodd" clip-rule="evenodd" d="M15.2759 6.46204L26.0373 17.2411L25.6628 17.615L14.9014 6.83597L15.2759 6.46204Z" fill="#019EDB"/>
<path fill-rule="evenodd" clip-rule="evenodd" d="M14.9014 33.2949L25.6628 22.5159L26.0373 22.8898L15.2759 33.6688L14.9014 33.2949Z" fill="#019EDB"/>
<path fill-rule="evenodd" clip-rule="evenodd" d="M41.7166 33.6692L30.9199 22.8902L31.2939 22.5156L42.0905 33.2947L41.7166 33.6692Z" fill="#019EDB"/>
<path d="M14.2061 2.75012C12.2656 3.50871 10.2191 4.2673 8.94892 6.24317C8.22561 7.38988 8.11976 8.76593 7.53759 9.96556C8.59609 8.95998 9.831 8.21903 10.7484 7.0194C11.8245 5.59043 12.7948 4.00268 14.2061 2.75012ZM42.7856 2.75012C44.1969 3.98504 45.1496 5.59043 46.2257 7.0194C47.1255 8.21903 48.3604 8.95998 49.4365 9.94792C48.8543 8.74828 48.7485 7.38988 48.0252 6.22553C46.7726 4.2673 44.6909 3.50871 42.7856 2.75012ZM9.00184 5.37873C8.01391 5.62571 7.20239 6.26081 6.46145 7.07233C4.92662 8.78357 5.05011 11.2887 5.26181 13.5292C5.31474 14.1996 5.2971 14.8699 5.20889 15.5227C5.70285 14.5171 6.42616 13.6527 7.32589 12.9823C9.31939 11.4651 11.507 9.52452 11.5422 6.94884C10.8895 8.80121 8.89599 9.57744 7.53759 10.8476C6.84956 11.4827 6.32031 12.2766 5.96748 13.1587L5.91455 13.1234C6.07333 12.3825 6.39088 11.7121 6.60258 11.0064C7.18475 9.03055 7.09655 6.70185 9.00184 5.37873ZM47.9546 5.37873C49.8599 6.68421 49.7541 9.03055 50.3362 10.9888C50.5479 11.6944 50.8655 12.3825 51.0243 13.1058L50.9713 13.1411C50.6361 12.259 50.0893 11.4651 49.4012 10.83C48.0605 9.5598 46.0493 8.80121 45.3789 6.94884C45.4142 9.52452 47.6018 11.4651 49.5953 12.9823C50.495 13.6527 51.2183 14.5171 51.7123 15.5227C51.6241 14.8699 51.6064 14.1996 51.6594 13.5292C51.8711 11.2887 51.9945 8.76593 50.4597 7.07233C49.7717 6.24317 48.9425 5.60807 47.9546 5.37873ZM4.92662 8.87178C4.8737 8.87178 4.85606 8.90706 4.80313 8.9247C3.49765 10.6183 2.59792 12.4707 2.59792 14.7464C2.59792 17.5515 4.22096 19.5097 4.41501 22.1559C4.82077 19.4038 7.13183 17.4456 8.33146 15.0287C8.79014 14.0584 9.09005 13.0352 9.21354 11.9767C9.03713 12.4354 8.7725 12.8411 8.41967 13.1763C6.8672 14.6582 5.03247 16.1049 4.67964 18.1866C4.64436 18.4865 4.59143 18.7864 4.52086 19.0863C4.4503 19.1216 4.4503 19.0334 4.43266 19.0157L4.62671 16.4224C4.82077 13.9173 3.48001 11.1123 4.92662 8.87178ZM52.0122 8.87178C53.4765 11.0946 52.1357 13.8996 52.3297 16.4224L52.5238 19.0157C52.4885 19.0334 52.4885 19.1039 52.4356 19.0863C52.365 18.7864 52.3121 18.4865 52.2768 18.1866C51.924 16.1049 50.0893 14.6406 48.5368 13.1763C48.184 12.8411 47.9017 12.4354 47.7253 11.9767C47.8488 13.0352 48.1487 14.0584 48.6074 15.0287C49.807 17.4456 52.118 19.4038 52.5238 22.1559C52.7179 19.5097 54.3409 17.5515 54.3409 14.7464C54.3409 12.4707 53.4588 10.6183 52.1357 8.9247C52.1004 8.88942 52.0651 8.85413 52.0122 8.87178ZM2.10396 15.8755C1.80405 16.5283 1.68056 17.2516 1.50414 17.9749C1.15131 19.8096 1.50414 21.7678 1.99811 23.4438C2.61557 25.5608 4.69728 27.0603 5.73814 29.0009L5.87927 29.1244C5.7205 28.0659 5.64993 26.9368 5.94984 25.9489C6.40852 24.3435 6.97305 22.791 7.27296 21.1151C7.5023 19.8272 7.76693 18.3806 7.62579 17.1281C7.44938 17.7985 7.27296 18.4688 6.90249 19.051C5.49115 21.2386 4.04454 23.7966 5.03247 26.5487C5.01483 26.584 4.97955 26.6193 4.94426 26.6016C4.55615 25.6843 4.46794 24.6434 4.20331 23.6731C3.51529 21.0445 1.53942 18.8746 2.10396 15.8755ZM54.8525 15.8755C55.4347 18.8746 53.4412 21.0445 52.7531 23.6378C52.4885 24.6081 52.4003 25.649 52.0122 26.5664C51.9769 26.584 51.9416 26.5487 51.924 26.5134C52.9119 23.7437 51.4653 21.1856 50.054 19.0157C49.6835 18.4512 49.5071 17.7808 49.3307 17.0928C49.1719 18.3453 49.4365 19.792 49.6835 21.0798C49.9834 22.7381 50.5479 24.3082 51.0066 25.9136C51.3065 26.9192 51.2183 28.0483 51.0772 29.0891L51.2183 28.9656C52.2592 27.025 54.3409 25.5255 54.9583 23.4085C55.4523 21.7149 55.8051 19.7743 55.4523 17.9396C55.2935 17.2692 55.1701 16.5283 54.8525 15.8755ZM7.30825 23.3556C7.57287 25.0668 6.88485 26.584 6.72607 28.207C6.60258 29.4949 6.81428 30.7827 7.34353 31.9647C7.5023 32.2999 7.76693 32.5998 7.85514 32.935C7.37881 32.4587 6.9907 31.9294 6.6555 31.3472C5.05011 28.7186 1.64527 27.025 1.39829 23.8319C1.2748 25.2432 1.39829 26.7428 1.87462 28.013C2.52736 29.7595 3.79756 31.1003 5.24417 32.247C6.74371 33.429 8.54316 34.364 9.90157 35.3872C9.63694 34.6992 9.1959 34.0817 9.01949 33.3584C8.24325 30.1123 8.68429 26.3547 7.30825 23.3556ZM49.6835 23.3556C48.2898 26.3547 48.7308 30.13 47.937 33.376C47.7606 34.0993 47.3195 34.7168 47.0549 35.4048C48.4309 34.364 50.2127 33.4466 51.7123 32.2646C53.1589 31.1179 54.4291 29.7771 55.0818 28.0306C55.5582 26.7781 55.6817 25.2785 55.5582 23.8495C55.3288 27.0427 51.9416 28.7363 50.3186 31.3472C49.9834 31.9294 49.5953 32.4587 49.119 32.935C49.1895 32.5998 49.4718 32.2999 49.6306 31.9647C50.1598 30.7827 50.3892 29.4949 50.248 28.207C50.1069 26.5664 49.4365 25.0492 49.6835 23.3556ZM9.03713 28.8068C10.2191 31.1532 9.70751 34.1875 11.2247 36.3928C11.7363 37.0984 12.3361 37.7335 12.9889 38.2981L12.9536 38.3333C12.389 38.0511 11.8598 37.6806 11.3835 37.2572C8.73722 35.0343 4.71492 34.7521 3.12717 31.1355C3.55057 33.7818 5.66757 36.1458 7.94334 37.6277C10.1133 39.039 12.883 38.8802 15.2823 39.6741C13.0594 37.8923 12.7242 35.1931 11.7363 32.8468C11.1188 31.4002 10.1133 30.077 9.03713 28.8068ZM47.9193 28.8068C46.8608 30.077 45.8553 31.4002 45.2378 32.8644C44.2499 35.2108 43.9147 37.9099 41.6918 39.6917C44.0911 38.8979 46.8608 39.0566 49.0308 37.6453C51.3065 36.1634 53.4059 33.7994 53.8469 31.1532C52.2592 34.7697 48.2369 35.052 45.573 37.2748C45.0967 37.6982 44.5674 38.0511 44.0029 38.351L43.9676 38.3157C44.6203 37.7512 45.2202 37.1161 45.7318 36.4104C47.2666 34.1699 46.755 31.1532 47.9193 28.8068ZM12.8654 34.5227C14.312 36.481 14.7354 39.3036 17.3816 40.3092C17.858 40.4856 18.3872 40.5209 18.793 40.7679C18.2814 40.8561 17.8403 40.6797 17.364 40.5915C13.9415 39.8682 9.77808 40.8032 7.22004 37.8923C8.19033 39.7976 10.1838 41.2971 12.1068 41.9322C15.0882 42.9202 18.1931 41.8087 20.9805 41.1207C21.3863 41.0149 21.8803 41.0502 22.2507 40.909C20.6983 40.5915 19.1987 40.1151 17.9814 39.0214C16.2526 37.4336 14.7354 35.7577 12.8654 34.5227ZM44.0911 34.5227C42.2387 35.7577 40.7039 37.4336 38.975 39.0214C37.7754 40.1151 36.2582 40.5915 34.7057 40.909C35.0762 41.0502 35.5702 41.0149 35.9759 41.1207C38.781 41.8087 41.8682 42.9202 44.8497 41.9322C46.7726 41.2971 48.7661 39.7976 49.7364 37.8923C47.1607 40.8032 42.9973 39.8682 39.5748 40.5915C39.0985 40.6973 38.6575 40.8561 38.1459 40.7679C38.5516 40.5033 39.0985 40.4856 39.5572 40.3092C42.2211 39.3036 42.6268 36.4633 44.0911 34.5227ZM25.6908 40.8385C23.0622 40.8385 20.7335 42.1087 18.4225 43.0613C16.3408 43.9257 13.5887 43.7493 11.7363 42.4791C12.6537 43.6258 13.8709 44.3315 15.1235 44.8078C17.4698 45.7428 20.2043 45.0195 22.1978 43.7493C23.6268 42.832 24.8617 41.5265 26.5729 41.5265C26.8728 41.5265 27.1727 41.5618 27.4727 41.6323C25.0734 42.6026 22.8858 44.2786 21.1922 45.9192C21.5274 46.2897 21.8979 46.6249 22.286 46.9248C24.1913 44.9666 26.3436 42.832 28.4959 41.9499C30.6482 42.832 32.8004 44.949 34.6881 46.9248C35.0762 46.6249 35.4467 46.2897 35.7819 45.9192C34.0883 44.2962 31.9007 42.6026 29.5014 41.6323C29.8014 41.5618 30.1013 41.5265 30.4012 41.5265C32.1124 41.5265 33.3473 42.832 34.7763 43.7493C36.7698 45.0195 39.5043 45.7428 41.8506 44.8078C43.1032 44.3315 44.3381 43.6258 45.2378 42.4791C43.3854 43.7493 40.6333 43.9257 38.5516 43.0613C36.2582 42.1087 33.9119 40.8385 31.2833 40.8385C30.3306 40.8385 29.378 40.9972 28.4606 41.2795C27.5609 40.9972 26.6259 40.8385 25.6908 40.8385Z" fill="#019EDB"/>
<path d="M32.1299 6.38438L31.9888 6.29618C31.9888 6.29618 31.7771 6.27853 31.7771 6.20797V6.19033C31.7594 6.17268 31.6536 6.33146 31.583 6.38438C31.6536 6.41967 31.7241 6.45495 31.7947 6.49023C31.9006 6.47259 32.0064 6.5608 32.0417 6.66665C32.0417 6.71958 32.2534 6.70193 32.2534 6.70193L32.271 6.5608L32.1299 6.38438Z" fill="#019EDB"/>
<path d="M38.8691 14.2526C38.8691 14.2702 38.9044 14.2526 38.8691 14.2526V14.2526Z" fill="#019EDB"/>
<path d="M31.5307 6.38431C31.5483 6.40195 31.566 6.40195 31.5836 6.38431C31.4954 6.33139 31.4248 6.31375 31.5307 6.38431Z" fill="#019EDB"/>
<path d="M31.3711 7.00183V7.17825L31.5651 7.19589L31.5122 7.03711L31.3711 7.00183Z" fill="#019EDB"/>
<path d="M31.16 6.349H31.1424L30.9307 6.31372V6.43721L31.0718 6.45485L31.1953 6.64891L31.2835 6.57835L31.16 6.36665V6.349Z" fill="#019EDB"/>
<path d="M33.5417 8.88946C33.4535 8.88946 33.2771 8.76597 33.3123 8.69541C33.3476 8.62484 32.9772 8.53663 32.9772 8.53663C32.9772 8.53663 32.6596 8.21908 32.7655 8.25436C32.8713 8.28965 32.8184 8.11323 32.8184 8.11323C32.7302 8.13087 32.6243 8.13087 32.5361 8.13087C32.4832 8.11323 32.5008 7.93681 32.5008 7.93681C32.4303 7.91917 32.3773 7.90153 32.3068 7.91917C32.2891 7.91917 32.2891 7.91917 32.2715 7.93681C32.2715 7.98974 32.3597 7.98974 32.395 8.11323C32.4303 8.23672 32.4126 8.43078 32.589 8.46606C32.7655 8.50135 32.8007 8.55427 32.8184 8.62484C32.836 8.69541 33.0477 8.71305 33.0477 8.71305L33.2065 8.80126L33.6652 9.18937V9.0306C33.6652 9.04824 33.6652 8.88946 33.5417 8.88946Z" fill="#019EDB"/>
<path d="M37.3698 6.20789L37.652 6.2961C37.652 6.2961 38.0049 6.7195 38.0049 6.5078C37.9696 5.90798 37.6873 5.90798 37.5991 5.78449C37.5638 5.74921 37.5285 5.73157 37.4756 5.73157C37.3168 5.73157 37.0875 5.83742 37.1228 5.94327C37.1228 6.0844 37.2286 6.19025 37.3698 6.20789Z" fill="#019EDB"/>
<path d="M38.428 12.8765C38.3927 12.9294 38.4103 13 38.4633 13.0176C38.4809 13.0176 38.4809 13.0353 38.4986 13.0353C38.5162 13.0353 38.5338 13.0529 38.5515 13.0529C38.622 13.0529 38.7103 13.0882 38.7632 13.1411C38.8514 13.1764 38.9043 13.247 38.9572 13.3175L39.1513 13.2646C39.1513 13.2646 39.1689 13.0706 39.0984 13.1235C39.0278 13.1764 38.9572 12.9824 38.8867 13C38.8161 13.0176 38.7632 12.9118 38.6926 12.8236C38.622 12.7354 38.6397 12.7001 38.5338 12.6472C38.4986 12.6119 38.4633 12.5942 38.4103 12.5942C38.3751 12.5942 38.3574 12.6119 38.3574 12.6472C38.3927 12.7354 38.4809 12.7707 38.428 12.8765Z" fill="#019EDB"/>
<path d="M31.5124 6.04908L31.3889 6.01379L31.3359 6.17257L31.4241 6.22549L31.5124 6.04908Z" fill="#019EDB"/>
<path d="M39.0106 13.4586L38.7812 13.4763C38.8342 13.5645 38.9577 13.6174 38.9577 13.7056C38.9577 13.7938 38.9224 13.8467 39.0459 13.8644C39.1694 13.882 39.2399 13.8467 39.2752 13.9526C39.3105 14.0584 39.3105 14.1819 39.2929 14.2878C39.2752 14.376 39.3105 14.4818 39.4163 14.4818C39.5222 14.4818 39.5398 14.4995 39.5398 14.57C39.5398 14.6406 39.6633 14.3583 39.6633 14.3583C39.5928 14.2878 39.5398 14.1996 39.4869 14.0937C39.4869 14.0937 39.3987 13.8115 39.3987 13.7762C39.3987 13.7409 39.2576 13.688 39.2046 13.688C39.1164 13.635 39.0459 13.5468 39.0106 13.4586Z" fill="#019EDB"/>
<path d="M37.6342 12.012L37.599 11.8533H37.5107V12.0473L37.6342 12.012Z" fill="#019EDB"/>
<path d="M40.1045 18.1689L40.1927 18.2218L40.2456 18.0983L40.1574 18.0454L40.1045 18.1689Z" fill="#019EDB"/>
<path d="M39.6449 14.9582C39.592 14.9935 39.5567 15.0817 39.4862 15.1346C39.4156 15.1876 39.6096 15.2758 39.6096 15.3287C39.6096 15.3816 39.6449 15.6815 39.6449 15.6815C39.6449 15.6815 39.7861 15.7345 39.8037 15.8227C39.8213 15.9109 39.8037 16.052 39.8566 16.0873C39.9096 16.1226 40.033 16.1755 39.9978 16.2637C39.9801 16.3343 39.9625 16.4225 39.9625 16.4931L40.0507 16.6695L40.2095 16.7577C40.2095 16.7577 40.2624 16.299 40.1742 16.2637C40.086 16.2284 40.1212 15.9814 40.1212 15.9814C40.1212 15.9814 40.2095 15.611 40.0683 15.611C39.9272 15.611 40.033 15.4169 39.9272 15.3463C39.8213 15.2758 39.8919 15.0112 39.839 14.9406C39.7861 14.87 39.8037 14.7642 39.6979 14.7112L39.6802 14.6936C39.6096 14.7112 39.6802 14.9229 39.6449 14.9582Z" fill="#019EDB"/>
<path d="M40.3335 17.5339L40.21 17.5162L40.1924 17.675L40.3335 17.6927V17.5339Z" fill="#019EDB"/>
<path d="M36.7875 13.9526C36.7875 13.9526 36.7522 14.3231 36.6287 14.4113H36.3641C36.3994 14.4643 36.4347 14.5172 36.4876 14.5701C36.5405 14.623 36.6817 14.7465 36.5405 14.8347C36.3994 14.9229 36.5582 14.8877 36.5582 14.8877C36.5582 14.8877 36.5405 15.2934 36.3641 15.2405C36.1877 15.1876 36.1348 15.4698 36.1348 15.5228C36.1348 15.5757 36.8228 15.6286 36.7169 15.5228C36.664 15.4698 36.8051 15.3287 36.8051 15.3287C36.8051 15.3287 37.2638 15.364 37.3697 15.364C37.4755 15.364 37.5461 15.3463 37.4932 15.2405C37.4402 15.1346 37.2638 15.1523 37.2638 15.1523C37.1227 15.1876 36.9639 15.1699 36.8228 15.0994C36.6111 14.9759 36.8581 14.9406 36.911 14.9406C36.9639 14.9406 37.1227 14.7994 37.0521 14.7112C36.9816 14.623 37.0521 14.429 37.0521 14.5172C37.0521 14.6054 37.2638 14.6407 37.3168 14.5701C37.352 14.4643 37.3168 14.3584 37.2285 14.2878C37.1403 14.2349 37.405 14.1996 37.3168 14.0938C37.2638 14.0232 37.2285 13.9526 37.1933 13.8821C37.0698 13.9703 36.911 13.9879 36.7875 13.9526Z" fill="#019EDB"/>
<path d="M39.963 28.1189L39.9277 28.2424C39.9454 28.2424 39.9454 28.26 39.963 28.26L39.9807 28.3659C39.963 28.3835 39.963 28.3835 39.963 28.4012L40.0512 28.4894C40.1042 28.4364 40.1218 28.3659 40.1218 28.2953C40.0865 28.2247 40.0336 28.1542 39.963 28.1189Z" fill="#019EDB"/>
<path d="M40.1045 27.8896L40.2809 27.9072V27.7308L40.1045 27.7131V27.8896Z" fill="#019EDB"/>
<path d="M38.9223 22.0501C39.0105 22.0677 39.0811 22.103 39.0105 21.8737C38.9929 21.8031 38.9223 21.7678 38.8518 21.7678C38.693 21.7502 38.4989 21.8737 38.5519 21.9619C38.6224 22.103 38.8341 22.0324 38.9223 22.0501Z" fill="#019EDB"/>
<path d="M36.646 25.7196H36.5049V26.0901H36.646V25.7196Z" fill="#019EDB"/>
<path d="M26.4323 7.09003C26.4323 7.09003 26.7145 7.10767 26.7498 7.17824C26.7851 7.2488 26.9615 7.26644 26.9792 7.19588C26.9968 7.12531 27.0674 7.01946 26.891 7.01946C26.7145 7.01946 26.7498 6.93125 26.6969 6.86069C26.6793 6.8254 26.5558 6.80776 26.4499 6.8254C26.3441 6.84304 26.2559 6.84304 26.2559 6.87833C26.3088 6.96654 26.3617 7.0371 26.4323 7.09003Z" fill="#019EDB"/>
<path d="M20.1159 3.33233L19.9219 2.94421L20.1159 3.33233Z" fill="#019EDB"/>
<path d="M21.6858 8.0603L21.6152 8.14851L21.7034 8.25436L21.7917 8.18379L21.6858 8.0603Z" fill="#019EDB"/>
<path d="M34.7764 15.0992V15.2051L34.9528 15.1875V15.064L34.7764 15.0992Z" fill="#019EDB"/>
<path d="M38.9219 19.4215L39.1336 19.4744V19.351L38.9572 19.3157L38.9219 19.4215Z" fill="#019EDB"/>
<path d="M37.6342 14.4642H37.5107V14.6054H37.6342V14.4642Z" fill="#019EDB"/>
<path d="M37.8991 14.5701L37.7756 14.5348L37.7227 14.6406L37.8109 14.7112L37.8991 14.5701Z" fill="#019EDB"/>
<path d="M37.1579 13.6527V13.5469L36.9814 13.5645V13.6704L37.1579 13.6527Z" fill="#019EDB"/>
<path d="M31.777 2.45029L31.8123 2.41501L32.024 2.29152L31.9534 2.18567L31.777 2.30916L31.6359 2.22095L31.6006 2.3268L31.7241 2.41501L31.777 2.45029Z" fill="#019EDB"/>
<path d="M37.4047 13.688H37.2812V13.7762H37.4047V13.688Z" fill="#019EDB"/>
<path d="M35.3411 15.3816L35.2705 15.5227L35.394 15.5757L35.4293 15.4345L35.3411 15.3816Z" fill="#019EDB"/>
<path d="M35.6581 15.6991C35.5876 15.6991 35.517 15.7168 35.4464 15.7168C35.3759 15.7168 35.3582 15.805 35.4464 15.9108L35.6758 15.8755C35.6758 15.8755 35.8522 15.7873 35.8169 15.7344C35.7816 15.6815 35.7464 15.6991 35.6581 15.6991Z" fill="#019EDB"/>
<path d="M38.4457 19.4745L38.3927 19.5098L38.2516 19.598L38.1281 19.5098L38.0752 19.6156L38.2163 19.7038L38.2516 19.7391L38.2693 19.7038L38.3927 19.6509V19.6862L38.5162 19.6333L38.4809 19.5451L38.4457 19.4745Z" fill="#019EDB"/>
<path d="M27.3668 22.7734L27.1904 22.7911L27.2081 23.0733L27.3316 23.1616L27.5433 23.2145C27.5433 23.2145 27.8255 23.1263 27.8608 22.8969L27.4198 22.8793L27.3668 22.7734Z" fill="#019EDB"/>
<path d="M29.0432 21.415C29.1314 21.4326 29.0608 21.1327 29.0608 21.1327L28.708 21.3973C28.8844 21.415 28.9021 21.5914 28.9197 21.6796C28.955 21.8384 28.955 21.3973 29.0432 21.415Z" fill="#019EDB"/>
<path d="M30.0483 26.7781L30.1894 26.5487L30.0836 26.5134L29.9248 26.6016L30.013 26.6722L30.0483 26.7781Z" fill="#019EDB"/>
<path d="M32.3943 25.9136L32.3413 25.8254L32.2002 25.9136L32.2531 26.0195L32.3943 25.9136Z" fill="#019EDB"/>
<path d="M30.1361 21.415C30.2243 21.4679 30.4007 21.3444 30.2949 21.2738C30.0126 21.0798 30.0302 20.8152 29.942 20.6387C29.9244 20.6035 29.8891 20.5682 29.8538 20.5505C29.8185 20.5505 29.7833 20.5682 29.7656 20.6387V20.9034C29.8715 21.0798 29.995 21.2562 30.1361 21.415Z" fill="#019EDB"/>
<path d="M27.0144 19.2098L26.8027 19.1921L26.7498 19.298H26.6615V19.4391H26.7498L26.785 19.5626L26.6968 19.6332L26.6615 19.739L26.5204 19.7743L26.1676 20.1095L26.1323 20.2683L26.0441 20.4094L25.9206 20.6917L25.5148 20.727L25.4619 21.0798L25.5148 21.3797L25.8677 21.5208L25.903 21.3091L25.9912 21.2562L26.0441 21.0622L26.097 20.921L26.2205 20.7799L26.2558 20.6211L26.4498 20.5153L26.6968 20.4623L26.785 20.3565L26.838 20.1095V19.9331L26.9262 19.8272L27.1555 19.7214V19.3509H27.0497L27.0144 19.2098Z" fill="#019EDB"/>
<path d="M20.4515 22.0325C20.4162 22.0325 20.3633 22.0678 20.3633 22.103C20.3633 22.1383 20.3986 22.1912 20.4338 22.1912C20.4691 22.1912 20.5221 22.156 20.5221 22.1207C20.5397 22.0678 20.4868 22.0325 20.4515 22.0325Z" fill="#019EDB"/>
<path d="M28.0016 24.3436C28.0016 24.3436 27.931 24.4671 27.8252 24.3436C27.8075 24.3259 27.7899 24.3259 27.7722 24.3259C27.684 24.3259 27.5958 24.6258 27.5605 24.6964C27.5605 24.6964 27.6135 24.8552 27.684 24.8552C27.7546 24.8375 27.8252 24.8199 27.8957 24.7846C27.9839 24.767 28.0016 24.6611 28.0192 24.52C28.0545 24.4671 28.0369 24.3965 28.0016 24.3436Z" fill="#019EDB"/>
<path d="M37.1757 29.4949C37.0875 29.442 37.2639 29.5831 37.3168 29.6713C37.3521 29.7242 37.405 29.7419 37.4579 29.7242L37.5109 29.6713C37.5285 29.6007 37.5461 29.5125 37.5461 29.442L37.4226 29.3185C37.3697 29.4773 37.2462 29.5478 37.1757 29.4949Z" fill="#019EDB"/>
<path d="M38.9753 29.7771L38.8871 29.6889L38.8695 29.1949C38.9577 28.9303 38.499 28.5598 38.4637 28.648C38.4284 28.7362 38.1814 28.6657 38.1814 28.7362C38.1814 28.8068 38.0226 29.1949 38.0932 29.3361C38.0932 29.3537 38.0932 29.3537 38.1109 29.3537L37.9344 29.83C37.8815 29.9359 37.8286 30.0241 37.8462 30.0947L38.0227 30.1829L38.0403 30.5181C38.1638 30.6415 38.4637 30.6415 38.693 30.6063L39.0106 30.2711C39.0106 30.0594 38.9753 29.7771 38.9753 29.7771Z" fill="#019EDB"/>
<path d="M28.1426 24.2025C28.1426 24.2201 28.0721 24.3789 28.1603 24.4142C28.2485 24.4494 28.2132 24.4671 28.2661 24.5024L28.2132 24.6082C28.1426 24.52 28.0897 24.6788 28.1426 24.7317C28.1956 24.7846 28.0368 24.7493 28.0368 24.8023C28.0368 24.8552 27.9839 24.8905 28.0368 24.9258C28.0897 24.961 28.0191 24.9787 27.9662 25.014C27.9133 25.0493 28.2132 25.0669 28.2132 25.0669C28.2132 25.0669 28.1603 24.9434 28.2308 24.9434H28.2661L28.3191 24.1848L28.1426 24.2025Z" fill="#019EDB"/>
<path d="M33.1354 14.7112C33.1354 14.623 32.9414 14.5348 32.959 14.6582C32.9766 14.7817 32.8179 14.8347 32.7826 14.7994C32.7473 14.7641 32.6238 14.9052 32.6238 14.9052C32.6238 14.9581 32.5885 15.0464 32.712 15.064C32.8355 15.0816 33.0296 14.9758 33.0648 15.0993C33.0825 15.1346 33.0825 15.1698 33.0825 15.2051L33.4 14.8699C33.3648 14.817 33.1354 14.7817 33.1354 14.7112Z" fill="#019EDB"/>
<path d="M34.4583 15.2404C34.4407 15.1698 34.229 14.8699 34.1055 14.8523L34.4583 15.2757V15.2404Z" fill="#019EDB"/>
<path d="M33.8943 15.311C33.9649 15.3287 34.0354 15.3463 34.106 15.3639L33.7708 14.9758L33.418 15.3463H33.5062C33.6473 15.3287 33.7532 15.3287 33.8943 15.311Z" fill="#019EDB"/>
<path d="M26.4851 27.9072L26.3087 27.9601L26.1852 28.1365L25.9559 28.2247L25.9206 28.6305L25.7971 28.7187V28.8951L25.656 28.9304V29.0186L25.4619 29.0362L25.5678 29.3361L25.7265 29.4243C25.9912 29.4596 25.8853 29.7948 25.8853 29.7948L26.0441 29.8125L26.1323 30.0241L26.2911 30.3417C26.344 30.571 26.5204 30.5181 26.6086 30.5005C26.6968 30.4828 26.7674 30.7298 26.7674 30.7298L27.5436 30.7475C27.5436 30.7475 27.5083 30.8357 27.6318 30.8709C27.8435 30.9062 28.0552 30.9239 28.2669 30.9239L28.7256 30.8004C28.8315 30.7475 28.9373 30.7298 29.0608 30.7298C29.1667 30.7298 29.2902 30.7651 29.3784 30.818C29.5195 30.9062 29.7136 30.9239 29.8723 30.8709L30.084 31.1356L30.3134 31.559L30.3487 31.6472L30.6838 31.7354L30.9132 31.7883L31.0014 32.1235L31.1778 32.1411L31.2307 32.3528C31.4424 32.5116 31.1778 32.8468 31.1778 32.8468V33.2702L31.3366 33.3584L31.3189 33.5172L31.5659 33.7818L31.8482 33.7995L32.3245 34.3111L32.8185 34.6639L33.1537 34.7698L33.2419 35.0873L33.4007 35.0697L33.5241 34.9815L33.9828 34.9638L34.2122 34.7521L34.4768 34.7168L36.3115 33.1644L36.435 32.5293V32.3352C36.7879 32.0706 36.8055 31.6295 36.4703 31.5943C36.2233 31.559 36.3292 31.2943 36.5585 31.2591L36.6996 31.2061V31.0297L37.1407 30.624V30.3064L36.1704 29.5125C35.9763 29.442 35.9587 29.195 36.0293 28.9657L36.5585 27.8189C36.5409 27.5367 36.4879 27.2544 36.435 26.9898L36.2762 26.9016L36.3115 26.4253H36.0998L35.747 26.8839L35.7117 27.0074L35.4647 27.4132C35.1119 27.5367 34.7238 27.5543 34.3533 27.4661C34.2122 27.3779 34.0534 27.3073 33.8946 27.2368C33.8946 27.2368 33.5771 26.9721 33.5241 27.0604C33.4712 27.1486 33.189 26.9721 33.189 27.0251C33.189 27.078 32.942 26.8839 32.942 26.8839L32.5539 26.7428L32.8361 26.6899L32.7832 26.4958C32.8008 26.4782 32.8008 26.4782 32.8185 26.4782L33.2772 26.7075C33.3301 26.7957 33.5947 26.7604 33.5947 26.7604L33.6829 26.8487C33.7888 26.831 33.877 26.8663 33.9475 26.9369C34.0358 27.0604 34.5474 26.9545 34.5474 26.9545L34.6885 27.078L34.9002 27.1662L35.253 27.1838L35.5353 26.7957L35.6411 26.6899L35.6235 26.4605L35.7646 26.337V26.143L35.8881 26.1077L35.9058 25.6843L35.994 25.6667V24.7317L35.7117 24.4494C35.6941 24.5376 35.3765 24.5376 35.3765 24.5376C35.3765 24.5376 35.2883 24.6787 35.2354 24.6787C35.1825 24.6787 35.3236 24.8551 35.2707 24.961C35.2354 25.0316 35.1648 25.0668 35.0766 25.0845L34.7943 25.1727L34.7061 25.2609H34.3886L34.3709 25.0845C34.4062 25.0492 34.4239 24.9963 34.4592 24.961L34.7061 24.8904L34.9002 24.8022L34.9884 24.6082C35.006 24.4141 35.253 24.4317 35.253 24.4317C35.253 24.4317 35.6941 24.0613 35.7117 23.8849C35.7294 23.7084 35.8881 23.2145 36.1528 23.2145H36.6644C36.8584 23.1263 36.8055 22.8793 36.8055 22.8793L37.0701 22.844L37.1054 22.9851C37.1054 22.9851 37.4582 23.0204 37.4935 22.9675C37.5288 22.9146 37.617 22.7734 37.7052 22.8264C37.7934 22.8793 38.111 22.6852 38.111 22.6852C38.1286 22.5441 38.6049 22.597 38.6049 22.597L38.6579 22.4206C38.552 22.2618 38.4109 22.103 38.2698 21.9619C38.2168 21.9619 37.8993 21.6796 37.864 21.7855C37.5464 21.6973 37.5817 21.2739 37.5817 21.2739L37.4582 20.9916C37.4582 20.8329 37.176 20.4977 37.1054 20.5329C37.0172 20.48 36.9643 20.3742 36.9643 20.2683L37.3347 19.8096C37.3524 19.792 37.3524 19.7744 37.37 19.7567L37.4582 19.4744L37.7758 19.3862L37.8111 19.1216L37.6699 19.104C37.6699 19.104 37.864 18.7511 37.9522 18.7511C38.2168 18.7511 38.4815 18.7511 38.7461 18.7159C38.8343 18.5924 38.8872 18.4512 38.9225 18.3101C38.9225 18.2572 39.0813 18.2219 39.1342 18.2219C39.2224 18.1513 39.3106 18.0631 39.3635 17.9573C39.3988 17.8691 39.2753 17.3927 39.1871 17.4633C39.1166 17.5339 39.0107 17.5691 38.9225 17.5868L38.8696 17.7985L38.7814 17.8867C38.799 17.9573 38.799 18.0102 38.7814 18.0808C38.7637 18.2219 38.5873 18.2925 38.5873 18.2925L38.4991 18.3807C38.3227 18.3983 38.1463 18.3983 37.9698 18.3807C37.8993 18.3454 37.864 18.2395 37.8993 18.169C37.9169 18.116 37.9698 18.0808 38.0228 18.0808C38.1463 18.0984 38.0051 17.7456 38.0051 17.7456L38.1639 17.7279C38.1639 17.7279 38.1815 17.3751 38.2521 17.3751C38.3227 17.3751 38.2345 17.2516 38.1639 17.1987C38.0933 17.1457 37.9875 16.934 37.8993 16.9693C37.7758 16.987 37.6347 16.987 37.5112 16.9693L37.4582 17.0928L37.2465 17.1281C37.2465 17.1281 37.2642 17.2869 37.2289 17.3222C37.1054 17.4633 36.6644 17.7456 36.8584 17.2692L36.9113 17.1457V16.9693L36.5585 16.9517C36.5585 16.9517 36.3821 16.8988 36.3821 16.8106C36.3821 16.7576 36.3645 16.6871 36.3645 16.6341L35.9587 16.1755L35.4647 16.1225L35.4294 16.0343L35.1472 15.999C35.1119 15.9814 35.059 15.9638 35.0237 15.9461L34.565 16.0872C34.5297 16.1402 34.5297 16.2107 34.5474 16.2813C34.6003 16.5636 34.7061 16.6871 34.5121 16.6871C34.4062 16.7047 34.3004 16.6341 34.2827 16.5283C34.2827 16.5283 34.124 16.4754 34.124 16.5459C34.124 16.6165 34.071 16.7753 34.124 16.8635C34.1769 16.9517 34.0358 17.0575 33.9828 17.0046C33.9299 16.9517 33.7711 16.7753 33.8064 16.7223C33.8417 16.6694 33.5418 16.2989 33.8417 16.2284C34.1416 16.1578 33.8241 15.999 33.9299 15.9461L34.0887 15.8579H34.2475L34.3357 15.7697L34.0887 15.7344L33.9299 15.7168L33.6476 15.6991C33.4889 15.805 33.3654 15.9461 33.2948 16.1225C33.1713 16.3872 32.8714 16.1049 32.8714 15.9285L32.201 15.9461C32.1305 15.9461 32.0775 15.9461 32.007 15.9285C31.954 16.1049 31.6894 15.9108 31.76 15.7873C31.8129 15.7344 31.8306 15.6638 31.8482 15.5933L31.76 15.5756L31.6365 15.7873C31.3719 15.7873 31.2837 15.9461 31.3542 16.052C31.4248 16.1578 31.266 16.0343 31.2307 16.1755C31.1955 16.3166 31.2484 16.3166 31.3719 16.3695C31.4954 16.4224 31.3189 16.4224 31.3895 16.5283C31.4424 16.5636 31.513 16.5812 31.5836 16.5812L31.4248 16.74C31.3366 16.7753 31.2307 16.7753 31.1425 16.7576C31.1425 16.7929 31.1249 16.8282 31.0896 16.8458C30.7721 16.5989 30.4369 16.3872 30.0664 16.2284C30.1193 16.1755 30.2252 16.1755 30.2781 16.052C30.331 15.8579 30.3663 15.6815 30.4016 15.4874C30.4016 15.4874 30.084 15.4698 30.084 15.5756C30.084 15.6815 29.8723 15.7344 29.8723 15.7344C29.8723 15.7344 29.7136 15.7873 29.7841 15.8755C29.8547 15.9638 29.6606 15.999 29.6606 15.999C29.6606 16.0343 29.6783 16.0696 29.6783 16.1049L28.4786 16.4048L28.5139 16.8635L28.3022 16.7929H28.1611L28.1082 16.6694L27.9847 16.6518V17.0752L28.1082 17.1634L28.1787 17.2516L28.3728 17.2692L28.4081 17.4986L28.902 17.5162L28.955 17.6044L29.2372 17.6221L29.8018 18.1866L29.7665 18.363L29.6783 18.4159C29.7136 18.5571 29.4136 18.4689 29.4136 18.4689V18.5924L29.5548 18.61L29.6959 18.6982L29.89 18.363C30.1017 18.2219 30.2075 18.4159 30.2075 18.5394C30.2075 18.6629 30.1193 18.6276 30.1193 18.6276V18.9099L30.2252 18.9452C30.3134 19.0334 30.3134 19.1745 30.2252 19.2627C30.2075 19.2804 30.1722 19.298 30.1546 19.3157L30.1017 19.5097C30.0487 19.6861 29.837 19.6509 29.837 19.6509L29.7488 19.7744L29.5195 19.8273L29.9782 19.8802C30.0311 19.7214 30.137 19.6861 30.1899 19.7567C30.2252 19.8273 30.2428 19.8978 30.2428 19.9684L30.3663 19.9861L30.3487 20.1978L30.4721 20.233V20.8681L30.6133 21.0269C30.8426 20.9387 30.8426 21.0798 30.7368 21.168C30.6309 21.2562 30.7015 21.5914 30.7015 21.5914L30.6133 21.6796V21.8384L30.4898 21.9266V22.156C30.331 22.0678 30.1546 22.0678 29.9958 22.156C29.8194 22.0325 29.4489 22.0678 29.4489 22.1736C29.5548 22.3324 29.3078 22.3677 29.3078 22.3677L29.1667 22.5264C29.2549 22.7205 29.0785 22.7381 29.0785 22.7381V23.1086L28.8491 23.338L28.8668 23.6908L29.4666 24.0436L29.5019 24.0789H29.6783L29.6959 23.9907L29.6077 23.532V23.1086L29.8018 22.8969C29.8194 22.8969 29.8194 22.8793 29.837 22.8793C29.9958 22.8793 29.9605 23.2674 29.9429 23.4085L29.9605 23.9025C29.9605 23.9378 29.9782 23.9731 29.9782 24.0083L30.0664 24.0436L29.89 24.1848L29.7312 24.3612L29.5371 24.3083L29.3078 24.2906L29.2196 24.1495L29.0785 24.1318L29.0608 24.4141L28.9726 24.5376L28.7433 24.7669C28.9902 24.7669 28.8315 24.8904 28.708 24.9434L28.2493 25.1021C28.2317 25.0845 28.1964 25.0845 28.1611 25.0845V25.2256L28.0023 25.2433L28.1434 25.402L28.2493 25.4197V25.7725C28.2493 26.0371 27.6142 25.8607 27.5436 25.7902L27.526 26.143L27.4025 26.1606L27.4201 26.39L27.4025 26.7252L27.6142 26.6899V26.831L28.1434 26.8487L28.2493 26.7428L28.708 26.2488L28.902 26.0371L29.3431 25.9489C29.3784 25.7549 29.5724 25.9842 29.5724 25.9842C29.7665 25.9666 29.8018 26.1077 29.8018 26.1077L30.0664 26.143C30.2781 26.1959 30.1546 26.2312 30.1546 26.3018C30.1546 26.3547 30.1899 26.39 30.2428 26.39C30.2604 26.39 30.2604 26.39 30.2781 26.39L30.3134 26.1253L30.4369 26.143L30.3134 26.0019L30.1017 25.9136L29.8723 25.8254C29.7136 25.6137 29.9076 25.649 30.0664 25.6667H30.3134C30.4369 25.8254 30.5251 25.9842 30.5956 26.1606C30.5956 26.2488 30.7368 26.2841 30.7368 26.2841L30.9132 26.2665L30.9661 26.4076H31.1425L31.1955 26.5311H31.5483L31.5659 26.3547L31.2484 26.3018L31.2307 26.1077L31.019 26.0724C30.9308 25.7372 31.072 25.649 31.1778 25.7902L31.3013 25.8078L31.266 25.5255L31.4072 25.4902L31.3719 25.0845L31.2484 25.0492V24.8551L31.7423 24.8728C31.7071 24.7493 31.7247 24.6258 31.76 24.5023H31.9011L31.9188 24.5905L32.5186 24.6434H32.5362C32.7656 24.7846 32.6597 24.961 32.5715 24.9963C32.5009 25.0139 32.4304 25.0316 32.3598 25.0316L32.3245 25.1198L31.8305 25.1551L31.7953 25.3491C31.6541 25.3315 31.513 25.4373 31.4954 25.5785V25.5961C31.4954 25.649 31.4954 25.6843 31.513 25.7372C31.5483 25.8254 31.5483 25.9136 31.513 26.0019L31.7247 26.0901L31.9893 26.0019C32.0246 25.8078 32.201 25.7725 32.3598 25.649C32.5186 25.5255 32.7656 25.8607 32.695 26.0195C32.6774 26.0371 32.6773 26.0548 32.6773 26.0724C32.3774 26.2841 32.0599 26.4605 31.7423 26.6193C31.2307 26.8663 30.6838 27.0604 30.1193 27.1838L30.1017 27.1662L29.89 27.1133L29.8723 26.8134C29.837 26.6193 29.4666 26.6193 29.4842 26.7604C29.5019 26.9016 28.7962 26.8134 28.7785 26.8134L28.3199 27.1486L27.967 27.1838L27.8083 27.2721L27.7553 27.1486H27.5966L27.5083 27.2721L26.7498 27.5896C26.6968 27.6425 26.6792 27.6778 26.6968 27.6955C26.6615 27.8013 26.4851 27.9072 26.4851 27.9072ZM32.6068 23.8496C32.6244 23.7437 32.6244 23.6379 32.6244 23.532C32.6068 23.4791 32.7479 23.4085 32.8361 23.4085C32.889 23.4085 32.9243 23.4262 32.9067 23.4967C32.8714 23.5849 32.8714 23.6732 32.9067 23.7614C32.9949 23.6555 33.136 23.6202 33.2595 23.7084C33.3124 23.7437 33.3301 23.7966 33.3477 23.8496C33.3301 23.9201 33.4889 23.9554 33.5771 23.9025C33.6653 23.8496 33.7888 24.0789 33.7535 24.1848C33.7182 24.2906 33.3654 24.273 33.3477 24.1671C33.3301 24.0613 33.2595 24.0789 33.2242 24.1495C33.1537 24.2024 33.0655 24.22 32.9773 24.2024L32.889 24.1142C32.9067 24.0966 32.9067 24.0613 32.889 24.0436C32.8714 24.026 32.8361 24.026 32.7832 24.026L32.6068 23.8496Z" fill="#019EDB"/>
<path d="M42.6269 13.0882C42.6269 13.0882 42.3623 12.8941 42.3623 12.8059C42.3623 12.7177 42.0977 12.5237 42.0977 12.4355C42.0977 12.3472 41.833 12.2061 41.8683 12.1179C41.9036 12.0297 41.7272 11.8356 41.7272 11.8356L41.4449 11.5534L41.4096 11.377L41.1803 11.3593L40.7216 10.7948L40.7393 10.636L40.5981 10.6184V10.3714L40.457 10.2832L40.2453 10.2655L39.8395 9.80685L39.8042 9.59515H39.5925L39.6278 9.25996L39.4867 8.74835C39.4161 8.76599 39.3632 8.76599 39.2926 8.74835C39.1515 8.69542 39.3456 8.55429 39.3456 8.55429V8.39551L39.2221 8.27202C39.2221 8.27202 38.9045 8.30731 38.8692 8.25438C38.834 8.14853 38.7987 8.04268 38.781 7.93683L38.7634 7.60164L38.6223 7.54872L38.6046 7.42522L38.3929 7.44287V7.19588L38.2694 7.1606L38.1459 7.10767L38.1283 6.87833L37.7049 6.86069L37.5638 6.66663L37.405 6.43729L36.911 6.40201L36.7875 6.27852L36.5935 6.24323L36.4523 6.19031L36.3994 6.27852L36.0289 6.29616L36.0113 6.41965C35.7996 6.47257 35.5702 6.49022 35.3409 6.47257L34.9528 6.79012C34.9351 6.86069 34.8999 6.91362 34.8646 6.91362C34.7764 6.91362 34.8117 7.17824 34.8117 7.17824C34.9175 7.17824 35.0234 7.17824 35.1292 7.19588C35.2174 7.21352 35.2174 7.42522 35.2174 7.42522C35.4997 7.40758 35.6232 7.7957 35.5879 7.90155C35.5526 8.0074 35.7114 7.98976 35.7114 7.98976C35.7114 8.11325 35.6937 8.25438 35.6761 8.37787C35.6408 8.46608 35.9407 8.51901 35.9936 8.6425C36.0289 8.81891 35.9936 9.01297 35.9054 9.17175C35.8525 9.18939 36.0642 9.25996 36.0466 9.34816C36.0289 9.43637 36.0995 9.34816 36.1348 9.50694C36.1701 9.66571 36.1877 9.84213 36.1877 10.0009L36.4523 10.0185C36.4876 9.75392 36.9816 9.75392 37.0698 9.78921C37.3873 9.9127 37.652 10.4243 37.652 10.5302C37.652 10.636 37.4403 10.6713 37.4403 10.6713L37.4579 10.7948L37.6167 11.2887C37.8813 11.4475 38.093 11.818 38.0577 11.8886C38.0224 11.9591 38.2871 11.9415 38.2871 11.9415C38.3223 11.5887 38.6575 11.7121 38.6752 11.818C38.6928 11.9238 38.7634 12.1885 38.7634 12.1885L38.8516 12.3649L38.9927 12.506L39.2044 12.4884L39.2574 12.6119L39.522 12.6472C39.6102 12.7354 39.6808 12.8236 39.7513 12.9294C39.769 12.9823 40.0689 12.9647 40.1394 12.9823C40.21 13 40.3335 13.0706 40.3511 13.1588C40.3864 13.247 40.4393 13.3352 40.4923 13.4234C40.4923 13.4234 40.7216 13.4763 40.7569 13.5645C40.7922 13.6527 40.8275 13.7409 40.8804 13.8291L41.0744 13.9879L41.0921 14.1643L41.3038 14.182L41.3567 14.4113L41.7095 14.3937L41.9036 14.2525L42.0624 14.1467L42.3799 13.7233C42.4152 13.6174 42.4681 13.5116 42.6093 13.5469C42.7504 13.5822 42.6269 13.0882 42.6269 13.0882Z" fill="#019EDB"/>
<path d="M39.9981 18.0102C39.9452 17.9573 40.0511 17.675 40.0511 17.675C40.104 17.5692 40.104 17.4633 40.0511 17.3575C39.9981 17.2163 40.0334 17.0576 40.1393 16.9517L39.9805 16.8635L39.8217 16.8459L39.6982 16.8635C39.6629 16.74 39.6277 16.6165 39.5747 16.493L39.6629 16.5107V16.3872L39.5218 16.3519C39.5042 16.2637 39.4689 16.1755 39.4336 16.1049L39.416 15.6992L39.2748 15.611L39.3101 15.4522L39.1513 15.3993L39.2395 15.1346L39.0984 14.8524H38.9044C38.8161 14.6759 38.7103 14.4819 38.6221 14.3055C38.6397 14.2878 38.675 14.2702 38.7103 14.2702C38.8161 14.2525 38.8514 14.2349 38.8691 14.2349L38.8514 14.0232L38.675 13.8997L38.6221 13.6704C38.6221 13.6704 38.4104 13.7057 38.428 13.8291C38.428 13.8468 38.4104 13.8821 38.3927 13.8821L37.9693 13.247C37.9693 13.2293 37.987 13.2293 37.987 13.2117C38.0752 13.0706 38.0223 12.9823 37.8988 12.9471C37.7753 12.9118 37.7576 12.9118 37.7224 12.753C37.6871 12.6648 37.6165 12.5942 37.5283 12.559L37.4754 12.3296L37.3342 12.4178L37.1049 12.1532L37.1755 11.9239C37.1225 11.9239 37.0696 11.8709 37.0343 11.818L36.8226 11.4122C36.7521 11.3593 36.6815 11.3417 36.6462 11.377C36.558 11.4299 36.5933 10.9712 36.5933 10.9712C36.5933 10.9712 36.7697 10.8477 36.8579 10.9183C36.9461 10.9888 36.2052 9.94799 36.0464 10.0362C35.8876 10.1244 35.5524 9.94799 35.5524 9.75393C35.5524 9.55987 34.8468 8.97769 34.8468 8.97769C34.8468 8.97769 34.6174 8.81892 34.5822 8.94241C34.5469 9.0659 34.4587 9.13647 34.5822 9.20704C34.7056 9.2776 34.6704 9.11883 34.8115 9.24232C34.9526 9.36581 35.1996 9.55987 35.0938 9.66572C35.0408 9.73629 34.9703 9.78921 34.8821 9.82449L35.0232 9.98327H35.2349L35.2702 10.3185C35.2702 10.3185 35.4995 10.442 35.5524 10.5831C35.5877 10.6537 35.5877 10.7242 35.5877 10.7948L35.3937 11.2358C35.4113 11.324 35.4819 11.3946 35.5701 11.4299L35.6583 11.4475C35.7112 11.5005 35.7818 11.5534 35.8347 11.6063V11.7827C36.0111 11.7827 36.1523 11.8886 36.2228 12.0473L36.558 12.3825C36.6462 12.4707 36.6286 12.4884 36.7344 12.559L36.8403 12.6119C36.8932 12.6824 36.9638 12.753 37.0343 12.8236L36.9814 12.8765C36.9814 13.0882 37.0873 13.0353 37.1931 13.0176C37.2284 13.0529 37.246 13.1058 37.2813 13.1411C37.299 13.2646 37.299 13.4587 37.493 13.4234H37.5107C37.7576 13.7586 37.987 14.1114 38.1987 14.4642L38.2163 14.4819C38.2516 14.5348 38.2869 14.5877 38.3045 14.6583C38.2693 14.6759 38.2516 14.7112 38.234 14.7465L37.9164 14.7818V15.0993L37.7576 15.1523L37.7753 15.3463L37.987 15.3287C37.987 15.3287 37.987 15.558 38.0399 15.4698C38.0928 15.3816 38.5868 15.4875 38.5339 15.7344C38.5162 15.8227 39.0278 16.0873 38.9573 16.4048C38.9926 16.4225 39.0278 16.4225 39.0455 16.4401C39.1337 16.7047 39.2219 16.987 39.2925 17.2516L39.2572 17.3222C39.2748 17.3398 39.3101 17.3575 39.3278 17.3751C39.3807 17.6221 39.4512 17.8691 39.4865 18.0984C39.4689 18.3101 39.4336 18.5218 39.3101 18.5748C39.0808 18.7159 39.3278 18.6277 39.3278 18.6277L39.2925 19.0511C39.3454 19.2451 39.4512 19.1393 39.5042 19.0511C39.5395 19.0158 39.5571 18.9629 39.5924 18.9276L39.9629 18.1866C40.0158 18.1161 40.0158 18.0455 39.9981 18.0102Z" fill="#019EDB"/>
<path d="M34.1937 9.80676C34.1584 9.66563 34.3525 9.61271 34.4583 9.77148L34.6524 9.75384L34.6877 9.57742L34.423 9.36572H34.2113C34.2113 9.36572 34.1937 9.5245 34.0526 9.45393C33.9996 9.41865 33.9467 9.40101 33.8761 9.40101C33.7703 9.38336 33.7879 9.59506 33.8232 9.70091L34.2113 9.91261C34.229 9.87733 34.2113 9.84205 34.1937 9.80676Z" fill="#019EDB"/>
<path d="M28.8484 6.59601C28.866 6.5078 28.8836 6.5078 29.0071 6.47252C29.1306 6.43723 28.9895 6.20789 28.866 6.24317C28.7954 6.26082 28.7072 6.22553 28.6543 6.17261V6.70186C28.7249 6.70186 28.7954 6.66657 28.8484 6.59601Z" fill="#019EDB"/>
<path d="M26.0791 22.8087C26.1321 22.7205 26.2379 22.6499 26.3438 22.6323L26.3967 22.4911L26.9259 22.5088C26.9259 22.4206 26.9965 22.3677 27.0847 22.3677C27.1376 22.3677 27.1906 22.4206 27.2082 22.4735C27.2082 22.5617 27.4023 22.4911 27.4023 22.4911L27.5434 22.2795H27.7551L27.7727 22.0501L27.8609 21.9972V21.6444C28.0374 21.6091 28.1609 21.4327 28.1256 21.2562L28.2138 21.168L28.1785 21.0269C28.0197 20.974 28.0903 20.8328 28.1961 20.8681C28.302 20.9034 28.055 20.6917 28.055 20.6917C27.9315 20.7799 27.8433 20.5682 27.8433 20.5682H27.5258V20.3036L27.4905 20.039L27.2082 19.8978L26.9965 20.0919L26.9612 20.3742V20.5506L26.7672 20.5859L26.7319 21.1151L26.5731 21.168L26.5907 21.3621L26.3791 21.415L26.1674 21.4679L26.1321 21.7326L25.9733 21.8208L25.8851 22.0501L25.7969 22.6146L26.0262 22.844C26.0615 22.844 26.0791 22.8263 26.0791 22.8087Z" fill="#019EDB"/>
<path d="M27.8433 17.3751C27.614 17.3751 27.8433 17.1987 27.8433 17.1987L27.8786 16.9164H27.6669L27.6316 16.493L27.0671 16.1755L27.0494 15.9638L27.1376 15.9108L26.9789 15.8579L26.8554 16.0167L26.8201 16.1931L26.626 16.2284V16.3166H26.5025V16.4224C26.2203 16.5812 25.9556 16.7753 25.7087 16.987H25.0559L24.8619 16.9693C24.7737 17.1458 24.5972 16.9517 24.5972 16.9517C24.562 16.8282 24.2797 16.9517 24.2797 16.9517C24.2797 17.1634 23.9092 16.8635 23.9092 16.8635L23.2388 16.3695C22.8507 16.0167 22.2685 16.4577 22.2509 16.5636C22.2685 16.7224 22.1274 16.7224 22.0039 16.6871L21.5452 16.5812C21.457 16.5812 21.3865 16.5989 21.3512 16.6694C21.2982 16.8282 21.0336 16.7929 21.0336 16.7929L20.9983 16.8811L20.8043 16.9164L20.769 17.0399L20.5397 17.0752L21.1218 17.0575C21.2806 17.0399 21.0689 17.3927 20.9631 17.3751L20.6984 17.3927L20.6102 17.4809H20.3632L20.2397 17.6397L19.8693 17.6221C19.8693 17.6221 19.6576 17.7985 19.6752 17.8514C19.6929 17.9043 19.6399 18.0808 19.587 18.0808C19.5341 18.0808 19.4106 18.2572 19.4459 18.3101C19.4812 18.363 19.3224 18.5747 19.3224 18.5747L19.2871 18.7688L19.1812 18.8041V19.3333L18.9519 19.4921V19.7214L18.8461 19.8449L18.6344 20.3036L18.652 20.4095L18.3697 20.727L18.405 21.0446L18.2286 21.0975L18.1933 21.2386L18.1051 21.6444L18.2992 21.662C18.3874 21.6267 18.3874 21.9266 18.2992 21.9443C18.211 21.9619 18.0169 22.0678 18.1227 22.1383C18.2286 22.2089 17.8052 22.1913 17.8052 22.0854C17.8052 21.9796 17.5759 21.8561 17.5229 21.909C17.47 21.9619 17.4347 21.8737 17.3994 21.8208L16.9055 21.662C16.7643 21.6797 16.6232 21.7149 16.4821 21.7502L16.3939 22.0678C16.1822 22.1031 16.041 22.4559 16.041 22.4559C15.8646 22.5088 15.7235 22.7382 15.7941 22.7911C15.8646 22.844 15.7058 22.8793 15.7058 22.8793V23.3203L15.6176 23.4615L15.6353 23.9201C15.7588 23.9201 15.7235 24.1318 15.7235 24.1318C15.5294 24.1495 15.5647 24.4141 15.5647 24.4141L15.1589 24.5552L15.0707 24.6787L14.5944 24.6611L14.4533 24.8022L13.924 24.6611H13.3595L13.3242 24.5729L13.1302 24.5376L13.1125 24.3259L12.8303 24.3435L12.7773 24.467L12.4598 24.4847C12.4774 24.6787 12.1422 24.9786 12.1069 24.8904C12.0717 24.8022 11.86 24.6082 11.9482 24.5552C12.0717 24.52 12.1775 24.5023 12.301 24.467V24.3259L11.5777 24.3083L11.4895 24.4318L11.1896 24.4494V24.7669L11.0484 24.8022C10.9602 24.8552 11.0661 25.0845 11.0661 25.0845C11.2072 25.2256 11.0484 25.4373 11.0484 25.4373C10.925 25.5608 11.1367 25.7725 11.1367 25.7725C11.2954 25.8078 11.0484 25.9313 11.0484 25.9313C11.0661 26.0371 11.1014 26.1254 11.1896 26.1959C11.1367 26.2665 11.1367 26.39 11.2249 26.4429L11.2425 26.4605C11.2601 26.4605 11.2601 26.4782 11.2778 26.4782L11.2954 26.8134L11.4366 26.9016V27.1133L11.5248 27.2544H11.8423L11.8247 26.7605C11.5601 26.4429 12.054 26.3723 12.0717 26.4782C12.0893 26.584 12.301 26.6546 12.301 26.6546C12.3363 26.9545 12.6715 27.1133 12.7597 26.831C12.8479 26.5488 12.9361 26.7075 12.989 26.8487C13.1125 27.0251 13.2537 27.1839 13.4124 27.325H13.73L13.7653 27.6073C14.1005 27.5896 14.1887 27.6249 14.3298 28.0659C14.3827 28.3306 14.5768 28.5423 14.8238 28.6305L15.0884 28.6128C15.0884 28.3835 15.353 28.6481 15.353 28.7716C15.353 28.8951 15.8823 29.3361 15.8823 29.3361L16.4115 29.4596L16.4997 29.5478L17.3465 29.8301H17.4347C17.4524 29.7419 17.5229 29.689 17.6111 29.689C17.7876 29.7066 17.9463 29.8125 18.0345 29.9712C18.0698 30.0242 18.1051 30.0771 18.158 30.13L18.652 30.2888C18.6873 30.3417 18.7049 30.3946 18.7049 30.4476C18.7402 30.7475 18.8813 30.6769 18.8813 30.6769L19.9928 30.6593L20.3809 30.3241L21.3688 30.3064C21.8628 30.2888 21.5629 29.6008 21.457 29.6008C21.4041 29.5302 21.3688 29.442 21.4041 29.3538L20.4338 27.8542C20.275 27.6955 20.1163 27.519 19.9751 27.3426C20.0104 27.2544 20.0457 27.1839 20.081 27.0956C20.3456 26.9369 20.028 26.6899 20.028 26.6899C20.028 26.5135 19.9751 26.3371 19.8869 26.1783C19.6752 26.0195 19.587 25.7549 19.6399 25.4903V25.1727C19.3577 24.8904 19.7634 24.8552 19.7634 24.8552C19.834 24.714 19.7987 24.5376 19.6752 24.4494L19.6576 24.1848L19.34 24.1495L19.3047 23.2321L18.5991 22.2265C18.4579 22.1913 18.5638 21.9443 18.5638 21.9443C18.7402 21.8561 18.5285 21.6091 18.5285 21.6091L18.5109 21.1857L18.9166 21.1504L19.0048 20.9916H19.1989L19.1812 20.48C19.1989 20.4095 19.2695 20.3389 19.34 20.3212H19.4282C19.4635 20.3212 19.4988 20.3389 19.5164 20.3565L19.7811 20.3742L19.7987 20.3212L19.9575 19.8626V19.8449L19.7458 19.8273C19.5164 19.6861 19.6223 19.1745 19.6223 19.1745C19.7281 18.9981 19.9046 18.8746 20.0986 18.8393C20.2045 18.8393 20.328 18.8746 20.4162 18.9276L20.6808 18.9099C20.7337 18.9452 20.7866 18.9981 20.8219 19.0687C20.7866 19.2451 20.7866 19.4392 20.769 19.6156C20.7514 19.6509 20.7337 19.6685 20.7161 19.7038L20.6631 19.8626L20.6808 20.3212L20.769 20.8152L20.522 21.0446C20.3103 21.168 20.3103 21.4327 20.5397 21.5032C20.6984 21.5209 20.6279 21.8914 20.3985 21.6444C20.081 21.6444 20.4867 21.909 20.4691 21.8914C20.7866 22.0501 20.7161 21.7149 20.7161 21.7149L20.8925 21.5738L21.3159 21.3268C21.4747 21.415 21.5982 21.5385 21.6687 21.6973C21.6687 21.7502 22.445 21.7149 22.445 21.7149C22.5861 21.8384 22.6919 22.0148 22.7272 22.2089C22.9389 21.9266 23.3976 22.1913 23.0624 22.35C23.38 22.5441 23.38 22.7205 23.38 22.7205C23.6269 22.6323 23.6269 22.844 23.6269 22.8969C23.6622 22.8087 23.6975 22.7029 23.7152 22.6147C23.4329 22.403 24.1033 22.3324 23.9092 22.7029L23.7857 22.8793L23.9798 23.0381L23.9974 23.4967C24.4208 23.4615 24.315 22.9322 24.315 22.9322L24.509 22.8969C24.509 22.7205 24.6502 22.8087 24.6502 22.8087C24.562 22.35 24.7384 22.1383 24.8619 22.0678L25.1794 21.7149C25.1971 21.6267 25.2147 21.5385 25.2147 21.4503C25.0383 21.3621 25.1265 21.0975 25.3382 21.3268C25.5499 21.5562 25.2147 20.8505 25.2147 20.8505L25.0559 20.7094L24.8442 20.6741L24.3855 20.727L24.262 20.7623L24.2268 20.6741L24.1386 20.9211H23.7857L23.7681 20.6917L23.9798 20.6388L24.068 20.5153L24.1033 20.3565H24.315L24.7737 19.8802C24.8089 19.8449 24.8619 19.8449 24.8971 19.8626L25.0206 19.9508L25.1971 20.0919L25.2147 20.2154L25.0912 20.2683L25.0736 20.4271L25.1265 20.6564H25.2853C25.3205 20.48 25.497 20.3742 25.6734 20.4095C25.7439 20.4271 25.8145 20.48 25.8674 20.5329L25.9909 20.2507C25.7263 20.1095 25.9909 19.8978 26.0615 19.9861C26.1321 20.0743 26.3085 19.7214 26.3085 19.7214C26.3085 19.7214 26.4496 19.8978 26.3085 19.6685C26.2379 19.5627 26.2556 19.4215 26.3614 19.3333C26.379 19.3333 26.379 19.3157 26.3967 19.3157C26.3614 19.0863 26.6437 19.1216 26.6437 19.1216L26.6613 18.8041L26.3967 18.7864C26.3438 19.0687 26.1144 18.8217 26.2203 18.7688C26.3085 18.7159 26.379 18.6629 26.4496 18.5924V18.3983L26.5731 18.363L26.5907 18.169H26.873L27.1376 18.0455L27.1906 17.9573L27.4552 17.9396L27.8433 17.5868V17.3751Z" fill="#019EDB"/>
<path d="M20.8926 21.5385L21.3336 21.2915L20.8926 21.5385Z" fill="#019EDB"/>
<path d="M17.2227 34.2935L17.3814 34.5404L17.3991 34.7169L17.6108 34.7698L17.6637 34.8933L17.8048 34.8051L17.7166 34.5581L17.452 34.3464L17.2227 34.2935Z" fill="#019EDB"/>
<path d="M27.1374 33.6054L27.2256 33.4996L27.2785 33.4467L27.2256 33.3938L27.0139 33.3055L26.9609 33.4114L27.1021 33.4643L27.0491 33.5172L27.1374 33.6054Z" fill="#019EDB"/>
<path d="M25.6383 31.8942L25.5148 32L25.4619 32.0529L25.5501 32.0882L25.6736 32.1941L25.7265 32.0882L25.6736 32.0353L25.7265 32L25.6383 31.8942Z" fill="#019EDB"/>
<path d="M12.0005 27.8012V28.0659H12.124L12.0887 27.766L11.9476 27.713V27.6072H11.8594V27.8012H12.0005Z" fill="#019EDB"/>
<path d="M13.2183 29.2656L13.3947 29.4597L13.5005 29.3185L13.3418 29.0363L13.2183 28.9128L13.13 28.6482L12.8125 28.5247L12.9713 28.8599L13.0418 29.0363L13.2183 29.2656Z" fill="#019EDB"/>
<path d="M45.0791 26.1077L44.9556 26.0901C44.9379 26.1783 44.9732 26.3018 45.0614 26.3018L45.0791 26.1783V26.1077Z" fill="#019EDB"/>
<path d="M45.6613 25.6137C45.679 25.6314 45.7143 25.6314 45.7495 25.6314L45.7319 25.5079C45.7495 25.5079 45.7495 25.5079 45.7495 25.5255V25.5079C45.7495 25.4726 45.7319 25.4197 45.7142 25.3844L45.6084 25.4373C45.626 25.455 45.626 25.4902 45.626 25.5255C45.6437 25.5608 45.6437 25.5961 45.6613 25.6137Z" fill="#019EDB"/>
<path d="M45.6609 25.8254C45.6256 25.7548 45.6079 25.6666 45.5903 25.5961L45.4668 25.6137C45.5021 25.7372 45.5374 25.8431 45.5374 25.8607L45.6609 25.8254Z" fill="#019EDB"/>
<path d="M44.4796 23.6732C44.462 23.6732 44.4267 23.6555 44.409 23.6555C44.3208 23.6555 44.2503 23.6908 44.1797 23.7437L44.2503 23.8319C44.3032 23.7967 44.3561 23.779 44.4267 23.779V23.7614L44.5502 23.7437C44.5678 23.7084 44.5149 23.6908 44.4796 23.6732Z" fill="#019EDB"/>
<path d="M44.9026 26.3018C44.8497 26.3194 44.8144 26.337 44.7792 26.3723C44.6557 26.4429 44.7086 26.7428 44.7792 26.6722C44.8497 26.6017 44.9379 26.6722 44.9556 26.4605C44.9556 26.3194 44.9379 26.3018 44.9026 26.3018Z" fill="#019EDB"/>
<path d="M29.5717 15.7697V15.6285H29.4482L29.4835 15.7873L29.5717 15.7697Z" fill="#019EDB"/>
<path d="M30.6654 15.4345L30.6301 15.3286L30.5771 15.3463L30.6301 15.4697L30.6654 15.4345Z" fill="#019EDB"/>
<path d="M31.4034 15.1779L30.9805 15.1975L30.9862 15.3209L31.4091 15.3012L31.4034 15.1779Z" fill="#019EDB"/>
<path d="M30.8071 15.3111L30.7895 15.1346L30.666 15.1699L30.7189 15.3287L30.8071 15.3111Z" fill="#019EDB"/>
<path d="M28.9018 15.2405H28.7783V15.3463L28.9018 15.364V15.2405Z" fill="#019EDB"/>
<path d="M29.4664 15.4344H29.3076V15.5579H29.4664V15.4344Z" fill="#019EDB"/>
<path d="M29.1665 15.311L29.043 15.2933L29.0254 15.3992L29.1312 15.4345L29.1665 15.311Z" fill="#019EDB"/>
<path d="M32.254 3.06764C32.1658 3.08528 32.0599 3.10292 31.9717 3.08528H31.6189C31.6012 3.01471 31.5307 2.99707 31.4424 2.99707C31.3719 2.99707 31.319 3.03235 31.266 3.08528C31.2484 3.17349 31.1249 3.17349 31.1249 3.17349L30.6839 3.20877C30.6486 3.33226 30.4192 3.40283 30.4016 3.33226C30.3487 3.15585 30.1193 3.54396 30.3663 3.61453C30.5251 3.66745 30.7015 3.66745 30.8603 3.61453L30.9132 3.49104L31.8835 3.50868C31.9364 3.45575 31.9717 3.38519 32.007 3.31462C32.007 3.31462 32.2363 3.22641 32.3422 3.27934C32.448 3.33226 32.3775 3.01471 32.254 3.06764Z" fill="#019EDB"/>
<path d="M30.4541 4.30256L30.2072 4.05558V3.82624L30.119 3.73803L30.0307 3.45576L29.7838 3.36755L29.5191 3.45576L29.2545 3.63218L28.9723 3.66746L28.8135 3.84388L29.4309 3.8968L29.5544 4.09086L29.9955 4.12614L30.2777 4.40841C30.5424 4.54954 30.5953 4.44369 30.4541 4.30256Z" fill="#019EDB"/>
<path d="M32.8361 2.66199L32.695 2.78548L32.6068 2.69727L32.5186 2.76784L32.6244 2.89133L32.6597 2.94425L32.7303 2.90897L32.9243 2.7502L32.8361 2.66199Z" fill="#019EDB"/>
<path d="M31.883 15.4345C31.883 15.4874 32.0242 15.558 32.0947 15.558C32.2006 15.5227 32.2888 15.4698 32.377 15.3992C32.377 15.3992 32.4652 15.1169 32.3946 15.1346C32.3241 15.1522 32.1653 15.2757 32.13 15.1522C32.1124 15.0993 32.0595 15.0817 32.0065 15.0817C31.9712 15.0817 31.9183 15.0817 31.883 15.0993L31.5655 15.1346L31.5479 15.2757L31.7596 15.2934C31.8301 15.311 31.8654 15.3639 31.883 15.4345Z" fill="#019EDB"/>
<path d="M27.6139 15.3463L27.4551 15.3286V15.4345L27.5786 15.4697L27.6139 15.3463Z" fill="#019EDB"/>
<path d="M27.9488 15.2052H27.79V15.3287H27.9488V15.2052Z" fill="#019EDB"/>
<path d="M25.0733 12.0296C25.1968 12.0296 24.9851 11.8885 24.9851 11.8885C24.9851 11.8885 24.7558 11.9061 24.7734 11.8003L24.7911 12.012L25.0733 12.0296Z" fill="#019EDB"/>
<path d="M27.4899 15.505L27.3311 15.4697L27.3135 15.5756L27.4546 15.6285L27.4899 15.505Z" fill="#019EDB"/>
<path d="M19.9223 22.2618C19.94 22.4735 20.0987 22.1207 20.0987 22.1207V20.7799L19.7459 20.7446L19.7635 20.8858H19.8517C20.0105 21.168 19.8694 21.8208 19.8694 21.8208C19.8694 21.8208 19.64 21.8384 19.6048 21.7326C19.5695 21.6267 19.4636 21.9972 19.5518 22.0501C19.64 22.103 19.9047 22.0501 19.9223 22.2618Z" fill="#019EDB"/>
<path d="M20.1871 22.9851L20.2048 22.8087L20.0813 22.7382L20.0989 22.4559L20.2048 22.4383L20.2224 22.2971L19.9225 22.4912L19.7461 22.3677V22.844L20.046 23.2498L20.1871 22.9851Z" fill="#019EDB"/>
<path d="M20.4515 24.2729C20.4162 24.2729 20.3633 24.3082 20.3633 24.3435C20.3633 24.3964 20.3986 24.4317 20.4515 24.4317C20.5044 24.4317 20.5397 24.3964 20.5397 24.3435C20.5221 24.3082 20.4868 24.2729 20.4515 24.2729Z" fill="#019EDB"/>
<path d="M20.3805 23.9378C20.3805 23.8849 20.3452 23.8496 20.2923 23.8496C20.2394 23.8496 20.2041 23.8849 20.2041 23.9378C20.2041 23.9907 20.2394 24.026 20.2923 24.026C20.3452 24.026 20.3805 23.9907 20.3805 23.9378C20.3982 23.9378 20.3982 23.9378 20.3805 23.9378Z" fill="#019EDB"/>
<path d="M20.2574 23.4967L20.1163 23.5143L20.0986 23.6731L20.2574 23.6908V23.4967Z" fill="#019EDB"/>
<path d="M19.9219 24.6434L20.0807 24.6258V24.4846L19.9219 24.5199V24.6434Z" fill="#019EDB"/>
<path d="M25.3201 11.8179L25.1966 11.7297L25.1084 11.8179L25.2495 11.9238L25.3201 11.8179Z" fill="#019EDB"/>
<path d="M27.314 15.7344L27.2788 15.6285L27.1553 15.6462L27.1906 15.7697L27.314 15.7344Z" fill="#019EDB"/>
</svg>