<svg width="300" height="33" viewBox="0 0 300 33" fill="none" xmlns="http://www.w3.org/2000/svg">
    <g clip-path="url(#clip0_844_62886)">
        <path d="M49.0926 7.73598H44.0926V24.5554H39.9954V7.73598H35.0787V4.3332H49.0926V7.73598Z"
            fill="#006064" />
        <path
            d="M56.6076 13.3193L55.3021 13.2082C54.228 13.2082 53.5011 13.6804 53.1215 14.6249V24.5554H49.1771V9.52764H52.8854L52.9965 11.1526C53.6169 9.88412 54.4734 9.24986 55.566 9.24986C56.0104 9.24986 56.3715 9.31005 56.6493 9.43042L56.6076 13.3193Z"
            fill="#006064" />
        <path
            d="M64.2198 24.5554C64.1087 24.3239 63.9976 23.935 63.8865 23.3888C63.1828 24.3517 62.2291 24.8332 61.0254 24.8332C59.7661 24.8332 58.7198 24.4165 57.8865 23.5832C57.0624 22.7499 56.6504 21.6712 56.6504 20.3471C56.6504 18.773 57.1504 17.5554 58.1504 16.6943C59.1597 15.8332 60.6087 15.3934 62.4976 15.3749H63.6921V14.1665C63.6921 13.4906 63.5763 13.0138 63.3448 12.736C63.1134 12.4582 62.7754 12.3193 62.331 12.3193C61.3495 12.3193 60.8587 12.8934 60.8587 14.0415H56.9282C56.9282 12.6526 57.4467 11.5091 58.4837 10.611C59.53 9.70357 60.8495 9.24986 62.4421 9.24986C64.0902 9.24986 65.3634 9.68042 66.2615 10.5415C67.1689 11.3934 67.6226 12.6156 67.6226 14.2082V21.2776C67.6411 22.5739 67.8263 23.5878 68.1782 24.3193V24.5554H64.2198ZM61.9004 21.7499C62.3356 21.7499 62.706 21.6619 63.0115 21.486C63.3171 21.31 63.5439 21.1017 63.6921 20.861V17.736H62.7476C62.081 17.736 61.5532 17.9489 61.1643 18.3749C60.7847 18.8008 60.5948 19.3702 60.5948 20.0832C60.5948 21.1943 61.03 21.7499 61.9004 21.7499Z"
            fill="#006064" />
        <path
            d="M72.9293 9.52764L73.0404 11.0138C73.9293 9.83783 75.0913 9.24986 76.5265 9.24986C79.1098 9.24986 80.4385 11.06 80.5126 14.6804V24.5554H76.5682V14.9721C76.5682 14.1202 76.4385 13.5045 76.1793 13.1249C75.9293 12.736 75.4848 12.5415 74.846 12.5415C74.133 12.5415 73.5774 12.9073 73.1793 13.6388V24.5554H69.2348V9.52764H72.9293Z"
            fill="#006064" />
        <path
            d="M88.8471 20.5276C88.8471 20.1943 88.685 19.8888 88.361 19.611C88.0461 19.3239 87.3378 18.9397 86.236 18.4582C84.6156 17.8008 83.4998 17.1202 82.8887 16.4165C82.2869 15.7128 81.986 14.8378 81.986 13.7915C81.986 12.4767 82.4582 11.3934 83.4026 10.5415C84.3563 9.68042 85.6156 9.24986 87.1804 9.24986C88.8285 9.24986 90.148 9.67579 91.1387 10.5276C92.1295 11.3795 92.6248 12.523 92.6248 13.9582H88.6943C88.6943 12.736 88.185 12.1249 87.1665 12.1249C86.7498 12.1249 86.4072 12.2545 86.1387 12.5138C85.8702 12.773 85.736 13.1341 85.736 13.5971C85.736 13.9304 85.8841 14.2267 86.1804 14.486C86.4767 14.736 87.1758 15.0971 88.2776 15.5693C89.8795 16.1619 91.0091 16.8239 91.6665 17.5554C92.3332 18.2776 92.6665 19.2175 92.6665 20.3749C92.6665 21.7175 92.1619 22.7962 91.1526 23.611C90.1434 24.4258 88.8193 24.8332 87.1804 24.8332C86.0785 24.8332 85.1063 24.6202 84.2637 24.1943C83.4211 23.7591 82.7591 23.1573 82.2776 22.3888C81.8054 21.6202 81.5693 20.7915 81.5693 19.9026H85.3054C85.3239 20.5878 85.4813 21.1017 85.7776 21.4443C86.0832 21.7869 86.5785 21.9582 87.2637 21.9582C88.3193 21.9582 88.8471 21.4813 88.8471 20.5276Z"
            fill="#006064" />
        <path
            d="M105.682 17.5138C105.682 19.8749 105.274 21.685 104.459 22.9443C103.654 24.2036 102.45 24.8332 100.848 24.8332C99.626 24.8332 98.6445 24.3378 97.9037 23.3471V30.3332H93.9732V9.52764H97.6121L97.751 10.9026C98.501 9.80079 99.5241 9.24986 100.82 9.24986C102.422 9.24986 103.626 9.8332 104.432 10.9999C105.246 12.1665 105.663 13.9536 105.682 16.361V17.5138ZM101.765 16.5276C101.765 15.0739 101.603 14.0462 101.279 13.4443C100.964 12.8425 100.427 12.5415 99.6676 12.5415C98.8621 12.5415 98.2741 12.8795 97.9037 13.5554V20.5971C98.2556 21.2452 98.8528 21.5693 99.6954 21.5693C100.473 21.5693 101.01 21.2406 101.307 20.5832C101.612 19.9258 101.765 18.9026 101.765 17.5138V16.5276Z"
            fill="#006064" />
        <path
            d="M106.46 16.5554C106.46 14.2776 106.997 12.4906 108.072 11.1943C109.146 9.89801 110.632 9.24986 112.53 9.24986C114.447 9.24986 115.942 9.89801 117.016 11.1943C118.09 12.4906 118.627 14.2869 118.627 16.5832V17.5415C118.627 19.8286 118.095 21.6156 117.03 22.9026C115.965 24.1897 114.474 24.8332 112.558 24.8332C110.632 24.8332 109.132 24.1897 108.058 22.9026C106.993 21.6063 106.46 19.8101 106.46 17.5138V16.5554ZM110.405 17.5415C110.405 20.2267 111.122 21.5693 112.558 21.5693C113.882 21.5693 114.595 20.4489 114.697 18.2082L114.71 16.5554C114.71 15.1851 114.521 14.1712 114.141 13.5138C113.761 12.8471 113.224 12.5138 112.53 12.5138C111.863 12.5138 111.34 12.8471 110.96 13.5138C110.59 14.1712 110.405 15.1851 110.405 16.5554V17.5415Z"
            fill="#006064" />
        <path
            d="M127.364 13.3193L126.059 13.2082C124.985 13.2082 124.258 13.6804 123.878 14.6249V24.5554H119.934V9.52764H123.642L123.753 11.1526C124.374 9.88412 125.23 9.24986 126.323 9.24986C126.767 9.24986 127.128 9.31005 127.406 9.43042L127.364 13.3193Z"
            fill="#006064" />
        <path
            d="M133.518 5.8332V9.52764H135.532V12.486H133.518V19.9443C133.518 20.5369 133.597 20.9443 133.754 21.1665C133.921 21.3888 134.236 21.4999 134.699 21.4999C135.078 21.4999 135.389 21.4675 135.629 21.4026L135.602 24.4582C134.935 24.7082 134.213 24.8332 133.435 24.8332C130.898 24.8332 129.615 23.3795 129.588 20.4721V12.486H127.852V9.52764H129.588V5.8332H133.518Z"
            fill="#006064" />
        <path
            d="M142.173 24.5554V4.3332H147.52C149.882 4.3332 151.761 5.0832 153.159 6.5832C154.567 8.0832 155.284 10.1388 155.312 12.7499V16.0276C155.312 18.6851 154.608 20.773 153.201 22.2915C151.803 23.8008 149.872 24.5554 147.409 24.5554H142.173ZM146.257 7.73598V21.1665H147.479C148.84 21.1665 149.798 20.81 150.354 20.0971C150.909 19.3749 151.201 18.1341 151.229 16.3749V12.861C151.229 10.9721 150.965 9.65727 150.437 8.91653C149.909 8.16653 149.011 7.77301 147.743 7.73598H146.257Z"
            fill="#006064" />
        <path
            d="M164.063 24.5554C163.952 24.3239 163.841 23.935 163.73 23.3888C163.026 24.3517 162.072 24.8332 160.869 24.8332C159.609 24.8332 158.563 24.4165 157.73 23.5832C156.906 22.7499 156.494 21.6712 156.494 20.3471C156.494 18.773 156.994 17.5554 157.994 16.6943C159.003 15.8332 160.452 15.3934 162.341 15.3749H163.535V14.1665C163.535 13.4906 163.42 13.0138 163.188 12.736C162.957 12.4582 162.619 12.3193 162.174 12.3193C161.193 12.3193 160.702 12.8934 160.702 14.0415H156.772C156.772 12.6526 157.29 11.5091 158.327 10.611C159.373 9.70357 160.693 9.24986 162.285 9.24986C163.934 9.24986 165.207 9.68042 166.105 10.5415C167.012 11.3934 167.466 12.6156 167.466 14.2082V21.2776C167.484 22.5739 167.67 23.5878 168.021 24.3193V24.5554H164.063ZM161.744 21.7499C162.179 21.7499 162.549 21.6619 162.855 21.486C163.16 21.31 163.387 21.1017 163.535 20.861V17.736H162.591C161.924 17.736 161.397 17.9489 161.008 18.3749C160.628 18.8008 160.438 19.3702 160.438 20.0832C160.438 21.1943 160.873 21.7499 161.744 21.7499Z"
            fill="#006064" />
        <path
            d="M173.745 5.8332V9.52764H175.759V12.486H173.745V19.9443C173.745 20.5369 173.824 20.9443 173.981 21.1665C174.148 21.3888 174.462 21.4999 174.925 21.4999C175.305 21.4999 175.615 21.4675 175.856 21.4026L175.828 24.4582C175.161 24.7082 174.439 24.8332 173.661 24.8332C171.124 24.8332 169.842 23.3795 169.814 20.4721V12.486H168.078V9.52764H169.814V5.8332H173.745Z"
            fill="#006064" />
        <path
            d="M183.926 24.5554C183.815 24.3239 183.704 23.935 183.593 23.3888C182.889 24.3517 181.936 24.8332 180.732 24.8332C179.473 24.8332 178.426 24.4165 177.593 23.5832C176.769 22.7499 176.357 21.6712 176.357 20.3471C176.357 18.773 176.857 17.5554 177.857 16.6943C178.866 15.8332 180.315 15.3934 182.204 15.3749H183.399V14.1665C183.399 13.4906 183.283 13.0138 183.051 12.736C182.82 12.4582 182.482 12.3193 182.038 12.3193C181.056 12.3193 180.565 12.8934 180.565 14.0415H176.635C176.635 12.6526 177.153 11.5091 178.19 10.611C179.237 9.70357 180.556 9.24986 182.149 9.24986C183.797 9.24986 185.07 9.68042 185.968 10.5415C186.876 11.3934 187.329 12.6156 187.329 14.2082V21.2776C187.348 22.5739 187.533 23.5878 187.885 24.3193V24.5554H183.926ZM181.607 21.7499C182.042 21.7499 182.413 21.6619 182.718 21.486C183.024 21.31 183.251 21.1017 183.399 20.861V17.736H182.454C181.788 17.736 181.26 17.9489 180.871 18.3749C180.491 18.8008 180.301 19.3702 180.301 20.0832C180.301 21.1943 180.737 21.7499 181.607 21.7499Z"
            fill="#006064" />
        <path
            d="M208.359 17.8193C208.257 20.1249 207.609 21.8702 206.415 23.0554C205.22 24.2406 203.535 24.8332 201.359 24.8332C199.072 24.8332 197.318 24.0832 196.095 22.5832C194.882 21.0739 194.276 18.9258 194.276 16.1388V12.736C194.276 9.9582 194.906 7.81931 196.165 6.31931C197.424 4.81005 199.174 4.05542 201.415 4.05542C203.619 4.05542 205.29 4.67116 206.429 5.90264C207.577 7.13412 208.23 8.90264 208.387 11.2082H204.29C204.253 9.78227 204.031 8.80079 203.623 8.26375C203.225 7.71746 202.489 7.44431 201.415 7.44431C200.322 7.44431 199.549 7.82857 199.095 8.59709C198.642 9.35635 198.401 10.611 198.373 12.361V16.1804C198.373 18.1897 198.595 19.5693 199.04 20.3193C199.494 21.0693 200.267 21.4443 201.359 21.4443C202.433 21.4443 203.174 21.185 203.581 20.6665C203.989 20.1388 204.22 19.1897 204.276 17.8193H208.359Z"
            fill="#006064" />
        <path
            d="M209.083 16.5554C209.083 14.2776 209.62 12.4906 210.694 11.1943C211.768 9.89801 213.254 9.24986 215.152 9.24986C217.069 9.24986 218.564 9.89801 219.638 11.1943C220.712 12.4906 221.249 14.2869 221.249 16.5832V17.5415C221.249 19.8286 220.717 21.6156 219.652 22.9026C218.587 24.1897 217.096 24.8332 215.18 24.8332C213.254 24.8332 211.754 24.1897 210.68 22.9026C209.615 21.6063 209.083 19.8101 209.083 17.5138V16.5554ZM213.027 17.5415C213.027 20.2267 213.745 21.5693 215.18 21.5693C216.504 21.5693 217.217 20.4489 217.319 18.2082L217.333 16.5554C217.333 15.1851 217.143 14.1712 216.763 13.5138C216.384 12.8471 215.846 12.5138 215.152 12.5138C214.485 12.5138 213.962 12.8471 213.583 13.5138C213.212 14.1712 213.027 15.1851 213.027 16.5554V17.5415Z"
            fill="#006064" />
        <path
            d="M226.264 9.52764L226.375 10.9165C227.255 9.80542 228.417 9.24986 229.862 9.24986C231.362 9.24986 232.422 9.92579 233.042 11.2776C233.903 9.92579 235.13 9.24986 236.723 9.24986C239.352 9.24986 240.699 11.0693 240.764 14.7082V24.5554H236.834V14.9582C236.834 14.0878 236.713 13.4675 236.473 13.0971C236.232 12.7267 235.824 12.5415 235.25 12.5415C234.519 12.5415 233.973 12.9906 233.612 13.8888L233.639 14.361V24.5554H229.709V14.986C229.709 14.1249 229.593 13.5045 229.362 13.1249C229.13 12.736 228.718 12.5415 228.125 12.5415C227.449 12.5415 226.912 12.9073 226.514 13.6388V24.5554H222.584V9.52764H226.264Z"
            fill="#006064" />
        <path
            d="M246.238 9.52764L246.349 10.9165C247.228 9.80542 248.39 9.24986 249.835 9.24986C251.335 9.24986 252.395 9.92579 253.015 11.2776C253.876 9.92579 255.103 9.24986 256.696 9.24986C259.326 9.24986 260.673 11.0693 260.738 14.7082V24.5554H256.807V14.9582C256.807 14.0878 256.687 13.4675 256.446 13.0971C256.205 12.7267 255.798 12.5415 255.224 12.5415C254.492 12.5415 253.946 12.9906 253.585 13.8888L253.613 14.361V24.5554H249.682V14.986C249.682 14.1249 249.566 13.5045 249.335 13.1249C249.103 12.736 248.691 12.5415 248.099 12.5415C247.423 12.5415 246.886 12.9073 246.488 13.6388V24.5554H242.557V9.52764H246.238Z"
            fill="#006064" />
        <path
            d="M262.058 16.5554C262.058 14.2776 262.595 12.4906 263.669 11.1943C264.743 9.89801 266.229 9.24986 268.128 9.24986C270.044 9.24986 271.54 9.89801 272.614 11.1943C273.688 12.4906 274.225 14.2869 274.225 16.5832V17.5415C274.225 19.8286 273.692 21.6156 272.628 22.9026C271.563 24.1897 270.072 24.8332 268.155 24.8332C266.229 24.8332 264.729 24.1897 263.655 22.9026C262.591 21.6063 262.058 19.8101 262.058 17.5138V16.5554ZM266.003 17.5415C266.003 20.2267 266.72 21.5693 268.155 21.5693C269.479 21.5693 270.192 20.4489 270.294 18.2082L270.308 16.5554C270.308 15.1851 270.118 14.1712 269.739 13.5138C269.359 12.8471 268.822 12.5138 268.128 12.5138C267.461 12.5138 266.938 12.8471 266.558 13.5138C266.188 14.1712 266.003 15.1851 266.003 16.5554V17.5415Z"
            fill="#006064" />
        <path
            d="M279.143 9.52764L279.254 11.0138C280.143 9.83783 281.305 9.24986 282.74 9.24986C285.323 9.24986 286.652 11.06 286.726 14.6804V24.5554H282.781V14.9721C282.781 14.1202 282.652 13.5045 282.393 13.1249C282.143 12.736 281.698 12.5415 281.059 12.5415C280.346 12.5415 279.791 12.9073 279.393 13.6388V24.5554H275.448V9.52764H279.143Z"
            fill="#006064" />
        <path
            d="M295.06 20.5276C295.06 20.1943 294.898 19.8888 294.574 19.611C294.259 19.3239 293.551 18.9397 292.449 18.4582C290.829 17.8008 289.713 17.1202 289.102 16.4165C288.5 15.7128 288.199 14.8378 288.199 13.7915C288.199 12.4767 288.671 11.3934 289.616 10.5415C290.57 9.68042 291.829 9.24986 293.394 9.24986C295.042 9.24986 296.361 9.67579 297.352 10.5276C298.343 11.3795 298.838 12.523 298.838 13.9582H294.908C294.908 12.736 294.398 12.1249 293.38 12.1249C292.963 12.1249 292.621 12.2545 292.352 12.5138C292.084 12.773 291.949 13.1341 291.949 13.5971C291.949 13.9304 292.097 14.2267 292.394 14.486C292.69 14.736 293.389 15.0971 294.491 15.5693C296.093 16.1619 297.222 16.8239 297.88 17.5554C298.546 18.2776 298.88 19.2175 298.88 20.3749C298.88 21.7175 298.375 22.7962 297.366 23.611C296.357 24.4258 295.033 24.8332 293.394 24.8332C292.292 24.8332 291.32 24.6202 290.477 24.1943C289.634 23.7591 288.972 23.1573 288.491 22.3888C288.019 21.6202 287.783 20.7915 287.783 19.9026H291.519C291.537 20.5878 291.695 21.1017 291.991 21.4443C292.296 21.7869 292.792 21.9582 293.477 21.9582C294.533 21.9582 295.06 21.4813 295.06 20.5276Z"
            fill="#006064" />
        <g clip-path="url(#clip1_844_62886)">
            <path fill-rule="evenodd" clip-rule="evenodd"
                d="M28.4444 0.5H0V28.9444H28.4444V0.5ZM13.037 15.1964V24.2038H15.4074V14.2483L8.77035 7.61124H11.8518V5.24087H4.74072V12.352H7.11109V9.2705L13.037 15.1964Z"
                fill="#006064" />
            <path
                d="M19.6741 7.61134L15.8815 11.3447L17.6 13.0632L21.3333 9.2706V12.3521H23.7037V5.24097H16.5926V7.61134H19.6741Z"
                fill="#DFF64D" />
        </g>
    </g>
    <defs>
        <clipPath id="clip0_844_62886">
            <rect width="299.852" height="32" fill="white" transform="translate(0 0.5)" />
        </clipPath>
        <clipPath id="clip1_844_62886">
            <rect width="28.4444" height="28.4444" fill="white" transform="translate(0 0.5)" />
        </clipPath>
    </defs>
</svg>