<svg xmlns="http://www.w3.org/2000/svg" width="14" height="13" viewBox="0 0 14 13" fill="none">
<path d="M8.90451 7.39105L8.65961 7.73549L8.95845 8.03433L12.8083 11.8841C12.8615 11.9405 12.8908 12.0152 12.8902 12.0928C12.8895 12.1714 12.8579 12.2467 12.8023 12.3023L13.1559 12.6558L12.8023 12.3023C12.7467 12.3579 12.6714 12.3895 12.5928 12.3901C12.5152 12.3908 12.4405 12.3614 12.3841 12.3082L8.53516 8.45922L8.2363 8.16037L7.89186 8.40529C7.24855 8.86273 6.49174 9.13426 5.70436 9.19013C4.91698 9.246 4.12941 9.08405 3.42795 8.72204C2.7265 8.36002 2.13823 7.81191 1.72761 7.13776L1.30058 7.39786L1.72761 7.13776C1.31698 6.46361 1.09985 5.68944 1.10001 4.90008L1.10001 4.89991C1.09992 4.22317 1.25957 3.55596 1.56596 2.95255C1.87236 2.34913 2.31685 1.82656 2.86329 1.42732C3.40973 1.02809 4.04268 0.763467 4.71068 0.654978C5.37867 0.54649 6.06284 0.597199 6.70754 0.802982C7.35224 1.00877 7.93926 1.36381 8.42088 1.83924C8.90249 2.31468 9.26508 2.89707 9.47917 3.53906C9.69326 4.18105 9.7528 4.86451 9.65294 5.53384C9.55308 6.20318 9.29665 6.8395 8.90451 7.39105ZM5.40001 1.19998C4.41871 1.19998 3.4776 1.5898 2.78371 2.28368C2.08983 2.97757 1.70001 3.91868 1.70001 4.89998C1.70001 5.88128 2.08983 6.82239 2.78371 7.51627C3.4776 8.21016 4.41871 8.59998 5.40001 8.59998C6.38131 8.59998 7.32242 8.21016 8.0163 7.51627C8.71019 6.82239 9.10001 5.88128 9.10001 4.89998C9.10001 3.91868 8.71019 2.97757 8.0163 2.28368C7.32242 1.5898 6.38131 1.19998 5.40001 1.19998Z" fill="#6B7280" stroke="#6B7280"/>
</svg>