<svg xmlns="http://www.w3.org/2000/svg" width="20" height="21" viewBox="0 0 20 21" fill="none">
<path d="M15.9999 5L16 5C16.3828 4.99993 16.7512 5.14622 17.0296 5.40892C17.2305 5.5984 17.3736 5.83809 17.4461 6.10038L9.99993 9.823L2.55377 6.10038C2.62627 5.83809 2.76938 5.5984 2.97022 5.40892C3.24867 5.14622 3.61703 4.99993 3.99984 5H3.99993H15.9999Z" fill="#6B7280" stroke="#6B7280"/>
<path d="M18 8.61816L10 12.6182L2 8.61816V14.5002C2 15.0306 2.21071 15.5393 2.58579 15.9144C2.96086 16.2895 3.46957 16.5002 4 16.5002H16C16.5304 16.5002 17.0391 16.2895 17.4142 15.9144C17.7893 15.5393 18 15.0306 18 14.5002V8.61816Z" fill="#6B7280"/>
</svg>