<svg
    xmlns="http://www.w3.org/2000/svg"
    width="14"
    height="16"
    viewBox="0 0 14 16"
    fill="none"
    >
    <path
        d="M12.5 14V14.5H13C13.1326 14.5 13.2598 14.5527 13.3536 14.6464C13.4473 14.7402 13.5 14.8674 13.5 15C13.5 15.1326 13.4473 15.2598 13.3536 15.3536C13.2598 15.4473 13.1326 15.5 13 15.5H10C9.86739 15.5 9.74021 15.4473 9.64645 15.3536C9.55268 15.2598 9.5 15.1326 9.5 15V13C9.5 12.6022 9.34196 12.2206 9.06066 11.9393C8.77936 11.658 8.39783 11.5 8 11.5H6C5.60218 11.5 5.22064 11.658 4.93934 11.9393C4.65804 12.2206 4.5 12.6022 4.5 13V15C4.5 15.1326 4.44732 15.2598 4.35355 15.3536C4.25979 15.4473 4.13261 15.5 4 15.5H1C0.867391 15.5 0.740214 15.4473 0.646446 15.3536C0.552679 15.2598 0.5 15.1326 0.5 15C0.5 14.8674 0.552679 14.7402 0.646446 14.6464C0.740214 14.5527 0.867391 14.5 1 14.5H1.5V14V2C1.5 1.60218 1.65804 1.22064 1.93934 0.93934C2.22064 0.658035 2.60218 0.5 3 0.5H11C11.3978 0.5 11.7794 0.658035 12.0607 0.93934C12.342 1.22064 12.5 1.60218 12.5 2V14ZM4 2.5H3.5V3V5V5.5H4H6H6.5V5V3V2.5H6H4ZM6.5 7V6.5H6H4H3.5V7V9V9.5H4H6H6.5V9V7ZM8 2.5H7.5V3V5V5.5H8H10H10.5V5V3V2.5H10H8ZM10.5 7V6.5H10H8H7.5V7V9V9.5H8H10H10.5V9V7Z"
        fill="#6B7280"
        stroke="#6B7280"
    />
</svg>